<svg width="153" height="153" viewBox="0 0 153 153" fill="none" xmlns="http://www.w3.org/2000/svg">
<path d="M153.002 76.3774C153.002 34.1953 118.807 -3.68767e-06 76.6245 0C34.4425 3.68768e-06 0.247128 34.1953 0.247131 76.3774C0.247135 118.56 34.4425 152.755 76.6246 152.755C118.807 152.755 153.002 118.56 153.002 76.3774Z" fill="#FFDC00"/>
<path d="M32 55.2496V80.5871L69.219 122L122 80.7369V55.2276L69.3869 31L32 55.2496ZM64.7506 103.555L41.0208 77.1518V62.7941L64.7506 68.8763V103.555ZM73.7714 107.017V71.1841L108.29 80.0322L73.7714 107.017ZM112.984 60.9707V71.9548L48.3267 55.3862L70.1295 41.2442L112.979 60.9751L112.984 60.9707Z" fill="#161616"/>
</svg>
