<svg width="511" height="159" viewBox="0 0 511 159" fill="none" xmlns="http://www.w3.org/2000/svg">
<g clip-path="url(#clip0_1214_4279)">
<path d="M325.827 27.6261L290.76 131.366H313.196L320.595 107.38H351.352L358.751 131.366H381.187L346.119 27.6261H325.827ZM326.573 87.9494L335.977 57.0298L345.382 87.9494H326.58H326.573Z" fill="white"/>
<path d="M511.007 27.6261H490.154V131.366H511.007V27.6261Z" fill="white"/>
<path d="M434.995 91.4431C454.142 90.435 465.13 78.8228 465.13 59.5846C465.13 40.3464 452.875 27.6261 432.352 27.6261H393.043V131.366H413.896V98.946L442.448 131.366H469.302L433.865 91.497L434.995 91.4354V91.4431ZM413.896 72.1125V47.0644H431.63C439.72 47.0644 443.992 51.3968 443.992 59.5923C443.992 67.7878 439.72 72.1125 431.63 72.1125H413.896Z" fill="white"/>
<path d="M239.541 131.374H260.387V47.0567H295.393V27.6261H204.535V47.0567H239.541V131.374Z" fill="white"/>
<path d="M0 42.3702V86.6412L64.7029 159L156.459 86.9029V42.3318L64.9949 0L0 42.3702ZM56.9349 126.772L15.6821 80.6389V55.5523L56.9349 66.1795V126.772ZM72.6169 132.821V70.2118L132.625 85.6716L72.6169 132.821ZM140.785 52.3664V71.5585L28.3829 42.6088L66.2857 17.8992L140.777 52.3741L140.785 52.3664Z" fill="white"/>
</g>
<defs>
<clipPath id="clip0_1214_4279">
<rect width="511" height="159" fill="white"/>
</clipPath>
</defs>
</svg>
