<svg width="38" height="37" viewBox="0 0 38 37" fill="none" xmlns="http://www.w3.org/2000/svg">
<g clip-path="url(#clip0_2625_17220)">
<path fill-rule="evenodd" clip-rule="evenodd" d="M18.9434 0C8.46818 0 0 8.47917 0 18.9691C0 27.3542 5.42586 34.452 12.953 36.9642C13.894 37.153 14.2388 36.556 14.2388 36.0538C14.2388 35.614 14.2077 34.1067 14.2077 32.5361C8.93814 33.6669 7.8408 30.2749 7.8408 30.2749C6.99394 28.0764 5.73916 27.5114 5.73916 27.5114C4.01443 26.3494 5.8648 26.3494 5.8648 26.3494C7.77798 26.475 8.78188 28.2965 8.78188 28.2965C10.4752 31.1856 13.2038 30.3693 14.3016 29.8667C14.4582 28.6419 14.9604 27.7939 15.4935 27.323C11.2907 26.8832 6.86869 25.2502 6.86869 17.9639C6.86869 15.8911 7.62094 14.1953 8.8129 12.8764C8.62484 12.4054 7.96604 10.4579 9.00135 7.85132C9.00135 7.85132 10.6008 7.34874 14.2073 9.79845C15.7514 9.38322 17.3438 9.172 18.9434 9.17022C20.5429 9.17022 22.1734 9.39029 23.679 9.79845C27.2859 7.34874 28.8854 7.85132 28.8854 7.85132C29.9207 10.4579 29.2615 12.4054 29.0735 12.8764C30.2969 14.1953 31.0181 15.8911 31.0181 17.9639C31.0181 25.2502 26.5961 26.8516 22.3618 27.323C23.052 27.9196 23.6476 29.05 23.6476 30.8403C23.6476 33.384 23.6166 35.4256 23.6166 36.0534C23.6166 36.556 23.9617 37.153 24.9024 36.9645C32.4295 34.4516 37.8554 27.3542 37.8554 18.9691C37.8864 8.47917 29.3872 0 18.9434 0Z" fill="white"/>
</g>
<defs>
<clipPath id="clip0_2625_17220">
<rect width="38" height="37" fill="white"/>
</clipPath>
</defs>
</svg>
