<?xml version="1.0" encoding="UTF-8"?>
<svg width="25px" height="26px" viewBox="0 0 25 26" version="1.1" xmlns="http://www.w3.org/2000/svg" xmlns:xlink="http://www.w3.org/1999/xlink">
    <title>github-logo</title>
    <g id="Wireframes" stroke="none" stroke-width="1" fill="none" fill-rule="evenodd">
        <g id="github-logo" transform="translate(0.000000, 0.500000)">
            <polygon id="Path" points="0 0 25 0 25 25 0 25"></polygon>
            <g transform="translate(2.500000, 2.500000)" fill="#9330FF" fill-rule="nonzero">
                <path d="M10,-1.8189894e-13 C4.48583334,-1.8189894e-13 0,4.53878583 0,10.1180438 C0,14.8195615 3.29166666,18.9713322 7.82666666,19.9898819 C7.95,20.0160202 8.07833336,19.9865093 8.1775,19.9072513 C8.27583336,19.8271501 8.33333336,19.7065767 8.33333336,19.5784148 L8.33333336,17.2849916 C8.33333336,17.0522766 8.14666664,16.8634064 7.91666666,16.8634064 L7.08333334,16.8634064 C6.04333334,16.8634064 5.33583334,15.8659359 4.71083334,14.9865093 C4.64666666,14.8962901 4.58333334,14.8060708 4.51916666,14.7183811 C4.815,14.8768971 5.06916666,15.0682968 5.32,15.2563238 C5.81916666,15.6306914 6.33583334,16.0177066 7.0225,16.0177066 C7.025,16.0177066 7.02833334,16.0177066 7.03083334,16.0177066 C7.08416666,16.0236088 7.57083334,16.074199 7.9475,15.7394604 C8.12416664,15.5817875 8.33333336,15.2841484 8.33333336,14.7554806 L8.33333336,14.4612142 C8.33333336,14.272344 8.21,14.1070826 8.03,14.0556493 C5.71916666,13.3937606 4.16666666,11.6416526 4.16666666,9.69645872 C4.16666666,8.68465432 4.5775,7.71922428 5.35416666,6.90387858 C5.47416666,6.77824621 5.505,6.59190557 5.4325,6.43338954 C5.1225,5.75716694 5.18833334,4.83726813 5.55583334,4.28499157 C6.0425,4.47639123 6.67333334,4.87858347 7.08333334,5.37099494 C7.19583334,5.50674536 7.38083334,5.55564924 7.545,5.49494098 C9.1075,4.9148398 10.8933334,4.9148398 12.4558334,5.49494098 C12.6216666,5.55564924 12.8058334,5.50590219 12.9175,5.37099494 C13.3275,4.87858347 13.9583334,4.47639123 14.4441666,4.2841484 C14.8125,4.83642496 14.8783334,5.75716694 14.5675,6.43338954 C14.495,6.59190557 14.5258334,6.77824621 14.6458334,6.90387858 C15.4225,7.71922428 15.8333334,8.68465432 15.8333334,9.69645872 C15.8333334,11.7386172 14.1083334,13.5674536 11.6391666,14.143339 C11.5133334,14.1728499 11.4075,14.2596965 11.3541666,14.3785834 C11.3008334,14.4974705 11.3041666,14.6349073 11.365,14.7504216 C11.5708334,15.1467116 11.6666666,15.6838111 11.6666666,16.4418213 L11.6666666,19.5784148 C11.6666666,19.7065767 11.7241666,19.8271501 11.8225,19.9072513 C11.8975,19.9679595 11.9891666,20 12.0833334,20 C12.1133334,20 12.1433334,19.9966273 12.1733334,19.9898819 C16.7083334,18.9713322 20,14.8195615 20,10.1180438 C20,4.53878583 15.5141666,-1.8189894e-13 10,-1.8189894e-13 Z"></path>
            </g>
        </g>
    </g>
</svg>