<?xml version="1.0" encoding="UTF-8"?>
<svg width="25px" height="26px" viewBox="0 0 25 26" version="1.1" xmlns="http://www.w3.org/2000/svg" xmlns:xlink="http://www.w3.org/1999/xlink">
    <title>video-icon</title>
    <g id="Wireframes" stroke="none" stroke-width="1" fill="none" fill-rule="evenodd">
        <g id="video-icon" transform="translate(0.000000, 0.500000)">
            <polygon id="Path" points="0 0 25 0 25 25 0 25"></polygon>
            <path d="M12.5,2.77193098 C17.8726642,2.77193098 22.228069,7.12733583 22.228069,12.5 C22.228069,17.8726642 17.8726642,22.228069 12.5,22.228069 C7.12733583,22.228069 2.77193098,17.8726642 2.77193098,12.5 C2.77193098,7.12733583 7.12733583,2.77193098 12.5,2.77193098 Z M10.5637353,7.52193098 C9.95622207,7.52193098 9.46373527,8.01441778 9.46373527,8.62193098 L9.46373527,8.62193098 L9.46373527,16.3455828 C9.46373527,16.5621108 9.52763942,16.7738231 9.64743987,16.9541901 C9.98356437,17.460246 10.6662865,17.5980027 11.1723425,17.2618782 L11.1723425,17.2618782 L16.9865576,13.4000523 C17.1085853,13.319001 17.2131945,13.2143919 17.2942458,13.0923641 C17.6303703,12.5863082 17.4926136,11.903586 16.9865576,11.5674615 L16.9865576,11.5674615 L11.1723425,7.70563558 C10.9919756,7.58583513 10.7802633,7.52193098 10.5637353,7.52193098 Z" id="Oval-2" fill="#9330FF"></path>
            <path d="M12.5,22.5 C18.0228475,22.5 22.5,18.0228475 22.5,12.5 C22.5,6.9771525 18.0228475,2.5 12.5,2.5 C6.9771525,2.5 2.5,6.9771525 2.5,12.5 C2.5,18.0228475 6.9771525,22.5 12.5,22.5 Z M12.5,21.5 C7.52943725,21.5 3.5,17.4705627 3.5,12.5 C3.5,7.52943725 7.52943725,3.5 12.5,3.5 C17.4705627,3.5 21.5,7.52943725 21.5,12.5 C21.5,17.4705627 17.4705627,21.5 12.5,21.5 Z" id="Shape" fill="#9330FF" fill-rule="nonzero"></path>
        </g>
    </g>
</svg>