<svg width="169" height="50" viewBox="0 0 169 50" fill="none" xmlns="http://www.w3.org/2000/svg">
<g clip-path="url(#clip0_1553_11917)">
<path d="M167.369 43.8381C167.369 45.1015 166.865 46.3132 165.967 47.2061C165.069 48.0991 163.851 48.6001 162.582 48.5987H5.90519C3.26086 48.6015 1.11477 46.4703 1.11133 43.8381V5.87322C1.11477 3.24001 3.25985 1.10701 5.90519 1.10632H162.58C163.85 1.10632 165.068 1.60859 165.966 2.50259C166.864 3.39659 167.369 4.60907 167.369 5.87322V43.8381Z" fill="white"/>
<path d="M162.582 49.7062H5.90522C2.64804 49.7055 0.00619753 47.0802 0 43.838V5.8744C0.00481848 2.63059 2.64646 0.0027379 5.90522 0H162.58C165.839 0.00410386 168.479 2.63116 168.486 5.8744V43.838C168.488 47.0748 165.835 49.7062 162.582 49.7062Z" fill="#A6A6A6"/>
<path d="M167.369 43.8381C167.369 45.1015 166.865 46.3132 165.967 47.2061C165.069 48.0991 163.851 48.6001 162.582 48.5987H5.90519C3.26086 48.6015 1.11477 46.4703 1.11133 43.8381V5.87322C1.11477 3.24001 3.25985 1.10701 5.90519 1.10632H162.58C163.85 1.10632 165.068 1.60859 165.966 2.50259C166.864 3.39659 167.369 4.60907 167.369 5.87322V43.8381Z" fill="black"/>
<path d="M37.6207 24.5915C37.5845 20.5853 40.9161 18.6363 41.0684 18.5455C39.1816 15.8072 36.2571 15.4331 35.2294 15.4032C32.7731 15.1459 30.3906 16.8662 29.1393 16.8662C27.8631 16.8662 25.9364 15.4281 23.8597 15.4703C21.1875 15.5114 18.6875 17.0514 17.3164 19.443C14.4868 24.3192 16.5971 31.4851 19.3081 35.4267C20.6642 37.3583 22.2489 39.5124 24.323 39.4366C26.3522 39.3545 27.1102 38.1501 29.5589 38.1501C31.9852 38.1501 32.697 39.4366 34.8123 39.3881C36.9901 39.3545 38.3612 37.449 39.6698 35.5012C41.237 33.2899 41.8663 31.1097 41.8913 30.9979C41.8414 30.9805 37.6631 29.3919 37.6207 24.5915ZM33.6248 12.8103C34.7161 11.4517 35.4629 9.6034 35.2556 7.72772C33.676 7.79733 31.7005 8.81534 30.5629 10.1441C29.5564 11.315 28.6573 13.2342 28.8896 15.039C30.664 15.1708 32.4859 14.1478 33.6248 12.8103Z" fill="white"/>
<path d="M162.581 6.10352e-05H78.6602L111.53 49.7063H162.581C165.839 49.7035 168.48 47.0772 168.486 43.8343V5.87446C168.48 2.63094 165.839 0.00348219 162.581 6.10352e-05Z" fill="url(#paint0_linear_1553_11917)"/>
<path d="M67.0138 39.1595H64.178L62.6245 34.3006H57.225L55.7453 39.1595H52.9844L58.3352 22.6177H61.6393L67.0138 39.1595ZM62.1563 32.2621L60.7514 27.9427C60.6028 27.5014 60.3231 26.4623 59.9136 24.8265H59.8636C59.6988 25.53 59.4353 26.5692 59.0744 27.9427L57.6933 32.2621H62.1563ZM80.7473 33.0489C80.7473 35.0775 80.1941 36.6809 79.0865 37.8581C78.095 38.9059 76.8625 39.4292 75.3928 39.4292C73.8056 39.4292 72.6643 38.8661 71.9712 37.7375V43.996H69.309V31.1521C69.309 29.878 69.2752 28.5716 69.2103 27.2317H71.5517L71.7003 29.1223H71.7502C72.6381 27.6978 73.9854 26.9856 75.7936 26.9856C77.2072 26.9856 78.3872 27.5412 79.3312 28.6537C80.274 29.7686 80.7473 31.2329 80.7473 33.0489ZM78.0351 33.1459C78.0351 31.9849 77.7728 31.0278 77.2459 30.2733C76.6702 29.489 75.8972 29.0962 74.9282 29.0962C74.2714 29.0962 73.6745 29.3149 73.1413 29.7463C72.6068 30.1813 72.2572 30.7494 72.0936 31.4529C72.0206 31.716 71.9791 31.9868 71.97 32.2596V34.2496C71.97 35.116 72.2372 35.8481 72.7717 36.4473C73.3061 37.0439 74.0004 37.3435 74.8546 37.3435C75.8573 37.3435 76.6377 36.9569 77.1959 36.19C77.7553 35.4205 78.0351 34.4063 78.0351 33.1459ZM94.5295 33.0489C94.5295 35.0775 93.9763 36.6809 92.8687 37.8581C91.8759 38.9059 90.6447 39.4292 89.1737 39.4292C87.5866 39.4292 86.4452 38.8661 85.7522 37.7375V43.996H83.0899V31.1521C83.0899 29.878 83.0562 28.5716 82.9913 27.2317H85.3326L85.4812 29.1223H85.5312C86.4178 27.6978 87.7651 26.9856 89.5745 26.9856C90.9868 26.9856 92.1669 27.5412 93.1134 28.6537C94.055 29.7686 94.5295 31.2329 94.5295 33.0489ZM91.816 33.1459C91.816 31.9849 91.5525 31.0278 91.0256 30.2733C90.4499 29.489 89.6794 29.0962 88.7104 29.0962C88.0536 29.0962 87.4567 29.3149 86.921 29.7463C86.3865 30.1813 86.0381 30.7494 85.8746 31.4529C85.7934 31.781 85.7497 32.0483 85.7497 32.2596V34.2496C85.7497 35.116 86.0182 35.8481 86.5501 36.4473C87.0846 37.0427 87.7789 37.3435 88.6355 37.3435C89.6395 37.3435 90.4199 36.9569 90.9769 36.19C91.5363 35.4205 91.816 34.4063 91.816 33.1459ZM109.939 34.5194C109.939 35.9277 109.444 37.0725 108.462 37.9563C107.38 38.9208 105.87 39.4043 103.935 39.4043C102.147 39.4043 100.713 39.0613 99.6318 38.3739L100.247 36.1651C101.415 36.8537 102.697 37.1968 104.093 37.1968C105.097 37.1968 105.878 36.9706 106.435 36.5218C106.993 36.0719 107.275 35.4703 107.275 34.7195C107.275 34.047 107.042 33.4839 106.583 33.0253C106.123 32.5679 105.361 32.1415 104.291 31.75C101.381 30.6698 99.9252 29.09 99.9252 27.0117C99.9252 25.6543 100.44 24.5431 101.466 23.6742C102.493 22.8066 103.854 22.3728 105.547 22.3728C107.059 22.3728 108.319 22.6351 109.319 23.1584L108.651 25.3187C107.71 24.8116 106.647 24.558 105.458 24.558C104.519 24.558 103.783 24.7879 103.256 25.2454C102.812 25.6543 102.588 26.1528 102.588 26.7444C102.588 27.397 102.843 27.9389 103.353 28.364C103.795 28.7556 104.602 29.1819 105.768 29.6394C107.199 30.2136 108.25 30.8824 108.924 31.6505C109.602 32.4187 109.939 33.3771 109.939 34.5194ZM118.763 29.2205H115.829V35.0116C115.829 36.4845 116.346 37.2192 117.382 37.2192C117.858 37.2192 118.253 37.1794 118.565 37.0961L118.639 39.1085C118.114 39.3037 117.424 39.4019 116.568 39.4019C115.517 39.4019 114.695 39.0824 114.102 38.4435C113.511 37.8046 113.214 36.7344 113.214 35.2279V29.2155H111.466V27.2267H113.214V25.0428L115.829 24.2572V27.2267H118.763V29.2205ZM131.978 33.0974C131.978 34.9308 131.451 36.4361 130.399 37.6132C129.299 38.8251 127.835 39.4292 126.011 39.4292C124.25 39.4292 122.851 38.8487 121.807 37.689C120.763 36.5268 120.241 35.0626 120.241 33.2963C120.241 31.4479 120.78 29.934 121.855 28.7568C122.933 27.5785 124.384 26.9893 126.208 26.9893C127.967 26.9893 129.379 27.571 130.448 28.732C131.469 29.8581 131.978 31.3124 131.978 33.0974ZM129.218 33.1583C129.218 32.0657 128.981 31.1285 128.505 30.3441C127.947 29.397 127.147 28.9234 126.112 28.9234C125.046 28.9234 124.228 29.397 123.671 30.3441C123.194 31.1285 122.957 32.0819 122.957 33.208C122.957 34.3018 123.194 35.2415 123.671 36.0234C124.247 36.9706 125.05 37.4441 126.09 37.4441C127.107 37.4441 127.905 36.9606 128.482 35.9998C128.972 35.1968 129.218 34.2534 129.218 33.1583ZM140.635 29.5623C140.358 29.5125 140.077 29.488 139.796 29.489C138.859 29.489 138.135 29.8395 137.625 30.5455C137.183 31.167 136.961 31.9526 136.961 32.901V39.1595H134.299V30.988C134.301 29.7359 134.275 28.4839 134.221 27.2329H136.54L136.638 29.5151H136.711C136.994 28.7307 137.436 28.098 138.043 27.6245C138.598 27.2106 139.273 26.9865 139.967 26.9856C140.213 26.9856 140.435 27.003 140.632 27.034L140.635 29.5623ZM152.542 32.6313C152.548 33.0341 152.516 33.4367 152.444 33.8332H144.457C144.487 35.0116 144.874 35.914 145.616 36.5355C146.289 37.0899 147.16 37.3683 148.228 37.3683C149.411 37.3683 150.49 37.1819 151.46 36.8052L151.877 38.6436C150.743 39.1359 149.405 39.3807 147.86 39.3807C146.002 39.3807 144.543 38.8363 143.482 37.7499C142.423 36.6623 141.892 35.2005 141.892 33.3696C141.892 31.5722 142.386 30.0744 143.373 28.8799C144.407 27.6046 145.805 26.9669 147.563 26.9669C149.29 26.9669 150.597 27.6046 151.485 28.8799C152.188 29.8904 152.542 31.1434 152.542 32.6313ZM150.003 31.9439C150.022 31.1571 149.847 30.4796 149.486 29.9066C149.025 29.1683 148.316 28.8003 147.366 28.8003C146.495 28.8003 145.786 29.1596 145.246 29.8805C144.803 30.4535 144.54 31.1421 144.459 31.9414L150.003 31.9439Z" fill="white"/>
<path d="M56.4553 16.7694C55.7148 16.7694 55.0742 16.7334 54.541 16.6725V8.67502C55.2868 8.56035 56.0404 8.50383 56.795 8.50592C59.8481 8.50592 61.2542 10.0013 61.2542 12.4388C61.2542 15.2505 59.5934 16.7694 56.4553 16.7694ZM56.9024 9.53145C56.4903 9.53145 56.1394 9.55631 55.8484 9.61597V15.6955C56.0058 15.7203 56.308 15.7315 56.7325 15.7315C58.733 15.7315 59.8718 14.5979 59.8718 12.4749C59.8718 10.5818 58.8416 9.53145 56.9024 9.53145ZM65.6359 16.8303C63.9152 16.8303 62.8001 15.5513 62.8001 13.8148C62.8001 12.005 63.9389 10.7148 65.7333 10.7148C67.4291 10.7148 68.5692 11.9329 68.5692 13.7191C68.5692 15.5513 67.3941 16.8303 65.6359 16.8303ZM65.6859 11.6669C64.7406 11.6669 64.135 12.547 64.135 13.7775C64.135 14.9845 64.7531 15.8645 65.6734 15.8645C66.5937 15.8645 67.2118 14.9236 67.2118 13.7527C67.2118 12.5594 66.6062 11.6669 65.6859 11.6669ZM78.3817 10.8354L76.5398 16.6973H75.3398L74.5768 14.1517C74.3871 13.529 74.2292 12.8971 74.1035 12.2586H74.0786C73.9824 12.8975 73.8001 13.5376 73.6066 14.1517L72.7949 16.6973H71.5824L69.8491 10.8354H71.194L71.8608 13.6222C72.0182 14.2859 72.1505 14.9124 72.2604 15.504H72.2854C72.3816 15.0106 72.5389 14.3941 72.7699 13.6346L73.6066 10.8366H74.673L75.4734 13.5749C75.667 14.2387 75.8243 14.89 75.9467 15.5053H75.9816C76.0665 14.9024 76.2002 14.2623 76.3812 13.5749L77.0967 10.8366L78.3817 10.8354ZM85.1623 16.6973H83.8536V13.3313C83.8536 12.2946 83.454 11.7751 82.6661 11.7751C81.8906 11.7751 81.3574 12.4388 81.3574 13.2107V16.6973H80.0487V12.5109C80.0487 11.9926 80.0362 11.437 80 10.8341H81.1514L81.2125 11.739H81.2488C81.6009 11.1125 82.3152 10.7148 83.1156 10.7148C84.3518 10.7148 85.1635 11.6557 85.1635 13.1871L85.1623 16.6973ZM88.7711 16.6973H87.4612V8.14551H88.7711V16.6973ZM93.5425 16.8303C91.823 16.8303 90.7066 15.5513 90.7066 13.8148C90.7066 12.005 91.8454 10.7148 93.6386 10.7148C95.3356 10.7148 96.4745 11.9329 96.4745 13.7191C96.4757 15.5513 95.2994 16.8303 93.5425 16.8303ZM93.5912 11.6669C92.6459 11.6669 92.0402 12.547 92.0402 13.7775C92.0402 14.9845 92.6596 15.8645 93.5774 15.8645C94.499 15.8645 95.1159 14.9236 95.1159 13.7527C95.1171 12.5594 94.5127 11.6669 93.5912 11.6669ZM101.634 16.6973L101.539 16.0224H101.504C101.105 16.5656 100.522 16.8303 99.7823 16.8303C98.7272 16.8303 97.9779 16.0945 97.9779 15.105C97.9779 13.6582 99.2379 12.9099 101.419 12.9099V12.8018C101.419 12.0299 101.009 11.6433 100.197 11.6433C99.6163 11.6433 99.1068 11.7887 98.6585 12.0783L98.3925 11.2219C98.937 10.8838 99.6163 10.7148 100.414 10.7148C101.953 10.7148 102.729 11.5227 102.729 13.1399V15.299C102.729 15.8906 102.756 16.3493 102.814 16.6986L101.634 16.6973ZM101.454 13.7775C100.001 13.7775 99.2716 14.1281 99.2716 14.9596C99.2716 15.5749 99.6475 15.8757 100.169 15.8757C100.835 15.8757 101.454 15.3698 101.454 14.6824V13.7775ZM109.084 16.6973L109.023 15.7564H108.987C108.611 16.4674 107.979 16.8303 107.096 16.8303C105.676 16.8303 104.625 15.5873 104.625 13.8384C104.625 12.005 105.715 10.7135 107.204 10.7135C107.991 10.7135 108.55 10.9783 108.864 11.5103H108.891V8.14551H110.2V15.1175C110.2 15.6843 110.214 16.215 110.249 16.6973H109.084ZM108.891 13.248C108.891 12.4276 108.345 11.7278 107.512 11.7278C106.542 11.7278 105.949 12.5842 105.949 13.79C105.949 14.972 106.564 15.7812 107.486 15.7812C108.309 15.7812 108.891 15.069 108.891 14.225V13.248ZM118.506 16.8303C116.786 16.8303 115.671 15.5513 115.671 13.8148C115.671 12.005 116.81 10.7148 118.603 10.7148C120.3 10.7148 121.439 11.9329 121.439 13.7191C121.44 15.5513 120.265 16.8303 118.506 16.8303ZM118.554 11.6669C117.61 11.6669 117.005 12.547 117.005 13.7775C117.005 14.9845 117.623 15.8645 118.542 15.8645C119.464 15.8645 120.08 14.9236 120.08 13.7527C120.083 12.5594 119.477 11.6669 118.554 11.6669ZM128.477 16.6973H127.167V13.3313C127.167 12.2946 126.767 11.7751 125.979 11.7751C125.204 11.7751 124.672 12.4388 124.672 13.2107V16.6973H123.362V12.5109C123.362 11.9926 123.35 11.437 123.313 10.8341H124.465L124.526 11.739H124.562C124.913 11.1125 125.628 10.7135 126.428 10.7135C127.664 10.7135 128.477 11.6545 128.477 13.1859V16.6973ZM137.282 11.8123H135.842V14.6588C135.842 15.3835 136.094 15.7452 136.604 15.7452C136.835 15.7452 137.028 15.7203 137.184 15.6843L137.22 16.6737C136.967 16.7707 136.627 16.8191 136.205 16.8191C135.174 16.8191 134.557 16.2523 134.557 14.7682V11.8123H133.698V10.8354H134.557V9.7614L135.842 9.37483V10.8341H137.282V11.8123ZM144.21 16.6973H142.902V13.3562C142.902 12.3071 142.504 11.7763 141.715 11.7763C141.036 11.7763 140.405 12.235 140.405 13.1635V16.6973H139.097V8.14551H140.405V11.6669H140.431C140.843 11.028 141.44 10.7135 142.202 10.7135C143.448 10.7135 144.21 11.6781 144.21 13.2107V16.6973ZM151.307 14.0796H147.38C147.405 15.1896 148.143 15.816 149.236 15.816C149.816 15.816 150.351 15.7191 150.823 15.5389L151.026 16.4438C150.469 16.6849 149.814 16.8055 149.051 16.8055C147.209 16.8055 146.119 15.647 146.119 13.8509C146.119 12.0535 147.235 10.7024 148.903 10.7024C150.408 10.7024 151.352 11.8123 151.352 13.4892C151.361 13.687 151.346 13.8852 151.307 14.0796ZM150.107 13.1511C150.107 12.2462 149.649 11.6073 148.812 11.6073C148.061 11.6073 147.466 12.2586 147.381 13.1511H150.107Z" fill="white"/>
</g>
<defs>
<linearGradient id="paint0_linear_1553_11917" x1="4569.81" y1="4983.82" x2="4569.81" y2="-12942.6" gradientUnits="userSpaceOnUse">
<stop stop-color="#1A1A1A" stop-opacity="0.1"/>
<stop offset="0.123" stop-color="#212121" stop-opacity="0.151"/>
<stop offset="0.308" stop-color="#353535" stop-opacity="0.227"/>
<stop offset="0.532" stop-color="#575757" stop-opacity="0.318"/>
<stop offset="0.783" stop-color="#858585" stop-opacity="0.421"/>
<stop offset="1" stop-color="#B3B3B3" stop-opacity="0.51"/>
</linearGradient>
<clipPath id="clip0_1553_11917">
<rect width="169" height="50" fill="white"/>
</clipPath>
</defs>
</svg>
