<svg width="169" height="50" viewBox="0 0 169 50" fill="none" xmlns="http://www.w3.org/2000/svg">
<g clip-path="url(#clip0_1553_11932)">
<path d="M162.299 49.5188H6.24464C2.80296 49.5188 0 46.728 0 43.329V6.18985C0 2.77849 2.80296 0 6.24464 0H162.299C165.737 0 168.543 2.77849 168.543 6.18985V43.329C168.543 46.728 165.737 49.5188 162.299 49.5188Z" fill="black"/>
<path fill-rule="evenodd" clip-rule="evenodd" d="M162.299 0.990994C165.185 0.990994 167.548 3.32801 167.548 6.18985V43.329C167.548 46.1908 165.201 48.5278 162.299 48.5278H6.24464C3.35797 48.5278 0.995298 46.1908 0.995298 43.329V6.18985C0.995298 3.32801 3.34246 0.990994 6.24464 0.990994H162.299ZM162.299 0H6.24464C2.80296 0 0 2.79084 0 6.18985V43.329C0 46.7403 2.80296 49.5188 6.24464 49.5188H162.299C165.737 49.5188 168.543 46.7403 168.543 43.329V6.18985C168.543 2.79084 165.737 0 162.299 0Z" fill="#A6A6A6"/>
<path d="M88.7887 16.3807C87.6632 16.3807 86.7144 15.9887 85.9641 15.2169C85.2199 14.4667 84.8044 13.4325 84.823 12.3766C84.823 11.2498 85.2075 10.2959 85.9641 9.53949C86.7113 8.76769 87.6601 8.37561 88.7856 8.37561C89.8987 8.37561 90.8475 8.76769 91.6103 9.53949C92.3668 10.3206 92.7513 11.2745 92.7513 12.3766C92.7389 13.5066 92.3544 14.4605 91.6103 15.2138C90.863 15.9918 89.9142 16.3807 88.7887 16.3807ZM55.299 16.3807C54.1982 16.3807 53.2433 15.9948 52.4619 15.2323C51.6867 14.4728 51.293 13.5127 51.293 12.3797C51.293 11.2467 51.6867 10.2866 52.4619 9.52714C53.2278 8.7646 54.1827 8.3787 55.299 8.3787C55.8447 8.3787 56.3749 8.48675 56.8834 8.70594C57.3826 8.91896 57.7888 9.20916 58.0895 9.56419L58.1639 9.65371L57.3237 10.4749L57.2368 10.373C56.7625 9.81116 56.1268 9.5364 55.2866 9.5364C54.5362 9.5364 53.882 9.8019 53.3425 10.3267C52.7999 10.8546 52.5239 11.5462 52.5239 12.3828C52.5239 13.2194 52.7999 13.911 53.3425 14.4389C53.882 14.9637 54.5362 15.2292 55.2866 15.2292C56.0865 15.2292 56.7594 14.9637 57.2834 14.4389C57.5934 14.1302 57.7857 13.698 57.8539 13.1515H55.1594V11.9969H59.0104L59.0259 12.1019C59.0538 12.2964 59.0817 12.497 59.0817 12.6823C59.0817 13.7474 58.7593 14.6087 58.1205 15.2446C57.395 15.9979 56.4462 16.3807 55.299 16.3807ZM99.8269 16.2171H98.6394L95.0023 10.4224L95.0334 11.4659V16.214H93.8458V8.54232H95.2008L95.238 8.60098L98.658 14.0592L98.627 13.0188V8.54232H99.8269V16.2171ZM79.8651 16.2171H78.6621V9.69694H76.5754V8.54232H81.9488V9.69694H79.862V16.2171H79.8651ZM75.5956 16.2171H74.3957V8.54232H75.5956V16.2171ZM68.8518 16.2171H67.6518V9.69694H65.5651V8.54232H70.9385V9.69694H68.8518V16.2171ZM64.8055 16.2048H60.2041V8.54232H64.8055V9.69694H61.4072V11.8024H64.4737V12.9447H61.4072V15.0502H64.8055V16.2048ZM86.8446 14.4235C87.381 14.9575 88.0322 15.2261 88.7887 15.2261C89.567 15.2261 90.2026 14.9637 90.7328 14.4235C91.2599 13.8986 91.5266 13.2102 91.5266 12.3797C91.5266 11.5493 91.2599 10.8577 90.7359 10.336C90.1995 9.8019 89.5453 9.53331 88.7918 9.53331C88.0136 9.53331 87.3779 9.79573 86.8508 10.336C86.3237 10.8608 86.0571 11.5493 86.0571 12.3797C86.0571 13.2102 86.3206 13.9017 86.8446 14.4235Z" fill="white"/>
<path fill-rule="evenodd" clip-rule="evenodd" d="M84.7127 26.9327C81.7826 26.9327 79.4075 29.1463 79.4075 32.1995C79.4075 35.225 81.7981 37.4663 84.7127 37.4663C87.6428 37.4663 90.0178 35.2373 90.0178 32.1995C90.0178 29.1463 87.6428 26.9327 84.7127 26.9327ZM84.7127 35.3793C83.1097 35.3793 81.7299 34.058 81.7299 32.1872C81.7299 30.2885 83.1128 28.995 84.7127 28.995C86.3157 28.995 87.6955 30.2885 87.6955 32.1872C87.6986 34.0704 86.3157 35.3793 84.7127 35.3793ZM73.1381 26.9327C70.208 26.9327 67.8329 29.1463 67.8329 32.1995C67.8329 35.225 70.2235 37.4663 73.1381 37.4663C76.0682 37.4663 78.4432 35.2373 78.4432 32.1995C78.4432 29.1463 76.0651 26.9327 73.1381 26.9327ZM73.1381 35.3793C71.5351 35.3793 70.1553 34.058 70.1553 32.1872C70.1553 30.2885 71.5382 28.995 73.1381 28.995C74.7411 28.995 76.1209 30.2885 76.1209 32.1872C76.1209 34.0704 74.7411 35.3793 73.1381 35.3793ZM59.3651 28.5412V30.7701H64.7385C64.5742 32.0205 64.1587 32.9435 63.5231 33.5764C62.7355 34.3606 61.5201 35.2126 59.3775 35.2126C56.0754 35.2126 53.4926 32.5576 53.4926 29.2698C53.4926 25.9819 56.0754 23.3269 59.3775 23.3269C61.1604 23.3269 62.4596 24.0277 63.4238 24.923L65.0114 23.3423C63.6719 22.0642 61.889 21.0856 59.39 21.0856C54.86 21.0856 51.0586 24.7593 51.0586 29.2574C51.0586 33.7678 54.8569 37.4293 59.39 37.4293C61.8363 37.4293 63.6719 36.6328 65.123 35.1324C66.602 33.6598 67.0702 31.5821 67.0702 29.9057C67.0702 29.384 67.0299 28.9147 66.9461 28.5165H59.362C59.3651 28.5134 59.3651 28.5412 59.3651 28.5412ZM115.7 30.2762C115.257 29.0938 113.917 26.9204 111.17 26.9204C108.448 26.9204 106.184 29.0537 106.184 32.1872C106.184 35.1447 108.423 37.454 111.434 37.454C113.852 37.454 115.26 35.9814 115.84 35.1169L114.045 33.9191C113.449 34.799 112.621 35.3763 111.446 35.3763C110.259 35.3763 109.428 34.8391 108.876 33.7802L115.948 30.8628C115.948 30.8658 115.7 30.2762 115.7 30.2762ZM108.488 32.0359C108.432 30.0014 110.076 28.9672 111.251 28.9672C112.178 28.9672 112.95 29.421 113.214 30.0817L108.488 32.0359ZM102.743 37.1391H105.065V21.666H102.743V37.1391ZM98.929 28.1028H98.8453C98.3213 27.4823 97.326 26.9204 96.0547 26.9204C93.4161 26.9204 90.9852 29.2327 90.9852 32.2026C90.9852 35.1602 93.4037 37.4447 96.0547 37.4447C97.3105 37.4447 98.3213 36.8797 98.8453 36.2469H98.929V37.0032C98.929 39.013 97.85 40.0966 96.1105 40.0966C94.6874 40.0966 93.8037 39.0778 93.444 38.2258L91.4255 39.0655C92.0053 40.4547 93.5525 42.1743 96.1074 42.1743C98.8298 42.1743 101.137 40.5782 101.137 36.6852V27.2353H98.9414V28.1028C98.9445 28.1028 98.929 28.1028 98.929 28.1028ZM96.2625 35.3793C94.6595 35.3793 93.32 34.0457 93.32 32.2026C93.32 30.3441 94.6595 28.9981 96.2625 28.9981C97.85 28.9981 99.0809 30.3595 99.0809 32.2026C99.0964 34.0457 97.8531 35.3793 96.2625 35.3793ZM126.574 21.666H121.021V37.1391H123.343V31.2795H126.577C129.148 31.2795 131.675 29.4241 131.675 26.4789C131.675 23.5337 129.157 21.666 126.574 21.666ZM126.642 29.1185H123.34V23.8085H126.642C128.382 23.8085 129.365 25.2379 129.365 26.4635C129.365 27.6768 128.369 29.1185 126.642 29.1185ZM140.983 26.905C139.296 26.905 137.556 27.649 136.837 29.2698L138.896 30.1218C139.339 29.2698 140.152 28.9796 141.011 28.9796C142.214 28.9796 143.429 29.6958 143.457 30.9739V31.1375C143.041 30.9029 142.13 30.5448 141.038 30.5448C138.815 30.5448 136.561 31.755 136.561 34.0241C136.561 36.1018 138.384 37.4354 140.415 37.4354C141.975 37.4354 142.834 36.7346 143.37 35.9227H143.454V37.1205H145.692V31.1931C145.692 28.4331 143.634 26.905 140.983 26.905ZM140.691 35.3793C139.932 35.3793 138.868 35.0089 138.868 34.058C138.868 32.8602 140.195 32.4064 141.327 32.4064C142.35 32.4064 142.834 32.6256 143.441 32.9281C143.274 34.3173 142.096 35.367 140.691 35.3793ZM153.86 27.2353L151.193 33.9469H151.109L148.347 27.2353H145.848L149.993 36.6173L147.63 41.8316H150.049L156.427 27.2353H153.86ZM132.955 37.1391H135.278V21.666H132.955V37.1391Z" fill="white"/>
<path fill-rule="evenodd" clip-rule="evenodd" d="M12.9737 9.32658C12.614 9.71248 12.4062 10.3021 12.4062 11.0739V38.4482C12.4062 39.22 12.614 39.8097 12.9861 40.1801L13.0822 40.2635L28.486 24.9262V24.5836L13.0698 9.24323L12.9737 9.32658Z" fill="url(#paint0_linear_1553_11932)"/>
<path fill-rule="evenodd" clip-rule="evenodd" d="M33.6104 30.0539L28.4727 24.9384V24.5803L33.6104 19.4648L33.722 19.5327L39.7992 22.9719C41.5387 23.9474 41.5387 25.5589 39.7992 26.5468L33.722 29.986L33.6104 30.0539Z" fill="url(#paint1_linear_1553_11932)"/>
<path fill-rule="evenodd" clip-rule="evenodd" d="M33.722 29.9862L28.4726 24.7596L12.9727 40.1925C13.5401 40.7976 14.492 40.8655 15.5555 40.2759L33.722 29.9862Z" fill="url(#paint2_linear_1553_11932)"/>
<path fill-rule="evenodd" clip-rule="evenodd" d="M33.722 19.5329L15.5555 9.25865C14.492 8.65356 13.537 8.73691 12.9727 9.342L28.4726 24.7595L33.722 19.5329Z" fill="url(#paint3_linear_1553_11932)"/>
<path opacity="0.2" d="M33.6116 29.8749L15.5691 40.0813C14.5614 40.6586 13.6623 40.6184 13.0824 40.0936L12.9863 40.1893L13.0824 40.2727C13.6623 40.7944 14.5614 40.8376 15.5691 40.2603L33.7356 29.9861L33.6116 29.8749Z" fill="black"/>
<path opacity="0.12" d="M39.8 26.368L33.5957 29.8751L33.7073 29.9862L39.7845 26.5471C40.6558 26.0531 41.0837 25.4048 41.0837 24.7596C41.031 25.3523 40.5876 25.9142 39.8 26.368Z" fill="black"/>
<path opacity="0.25" fill-rule="evenodd" clip-rule="evenodd" d="M15.5565 9.43761L39.8002 23.151C40.5877 23.5925 41.0311 24.1698 41.0993 24.7594C41.0993 24.1142 40.6715 23.4659 39.8002 22.9719L15.5565 9.25855C13.817 8.26755 12.4062 9.09493 12.4062 11.0738V11.2529C12.4062 9.2709 13.817 8.45896 15.5565 9.43761Z" fill="white"/>
</g>
<defs>
<linearGradient id="paint0_linear_1553_11932" x1="994.774" y1="162.781" x2="-323.927" y2="1479.69" gradientUnits="userSpaceOnUse">
<stop stop-color="#00A0FF"/>
<stop offset="0.00657" stop-color="#00A1FF"/>
<stop offset="0.2601" stop-color="#00BEFF"/>
<stop offset="0.5122" stop-color="#00D2FF"/>
<stop offset="0.7604" stop-color="#00DFFF"/>
<stop offset="1" stop-color="#00E3FF"/>
</linearGradient>
<linearGradient id="paint1_linear_1553_11932" x1="1387.97" y1="548.926" x2="-1620.54" y2="548.926" gradientUnits="userSpaceOnUse">
<stop stop-color="#FFE000"/>
<stop offset="0.4087" stop-color="#FFBD00"/>
<stop offset="0.7754" stop-color="#FFA500"/>
<stop offset="1" stop-color="#FF9C00"/>
</linearGradient>
<linearGradient id="paint2_linear_1553_11932" x1="1802.47" y1="518.623" x2="-446.5" y2="2764.48" gradientUnits="userSpaceOnUse">
<stop stop-color="#FF3A44"/>
<stop offset="1" stop-color="#C31162"/>
</linearGradient>
<linearGradient id="paint3_linear_1553_11932" x1="-377.334" y1="-173.755" x2="626.471" y2="828.69" gradientUnits="userSpaceOnUse">
<stop stop-color="#32A071"/>
<stop offset="0.0685" stop-color="#2DA771"/>
<stop offset="0.4762" stop-color="#15CF74"/>
<stop offset="0.8009" stop-color="#06E775"/>
<stop offset="1" stop-color="#00F076"/>
</linearGradient>
<clipPath id="clip0_1553_11932">
<rect width="169" height="50" fill="white"/>
</clipPath>
</defs>
</svg>
