<svg width="24" height="24" viewBox="0 0 24 24" fill="none" xmlns="http://www.w3.org/2000/svg">
<path d="M18.4707 22.5003C18.3128 22.501 18.1588 22.4518 18.0305 22.3597L12.0019 17.9891L5.97334 22.3597C5.84454 22.4531 5.68938 22.5032 5.53027 22.5026C5.37116 22.502 5.21636 22.4509 5.08825 22.3565C4.96013 22.2622 4.86534 22.1295 4.81758 21.9777C4.76982 21.826 4.77157 21.6629 4.82256 21.5122L7.17381 14.548L1.08006 10.3691C0.948066 10.2787 0.848444 10.1484 0.79575 9.99736C0.743057 9.84629 0.740053 9.68233 0.787178 9.52944C0.834304 9.37654 0.929088 9.24272 1.05768 9.14753C1.18628 9.05234 1.34194 9.00077 1.50194 9.00035H9.01975L11.2885 2.01832C11.3374 1.86758 11.4327 1.73619 11.5609 1.64301C11.6891 1.54983 11.8435 1.49963 12.0019 1.49963C12.1604 1.49963 12.3148 1.54983 12.443 1.64301C12.5711 1.73619 12.6665 1.86758 12.7154 2.01832L14.9841 9.00269H22.5019C22.6621 9.00261 22.8181 9.05383 22.9471 9.14884C23.0761 9.24384 23.1713 9.37765 23.2187 9.53066C23.2661 9.68368 23.2633 9.84785 23.2107 9.99915C23.158 10.1504 23.0583 10.2809 22.9262 10.3714L16.8301 14.548L19.1799 21.5103C19.218 21.6231 19.2287 21.7432 19.2111 21.8609C19.1936 21.9786 19.1483 22.0904 19.079 22.1871C19.0097 22.2838 18.9184 22.3627 18.8127 22.4172C18.7069 22.4716 18.5897 22.5001 18.4707 22.5003Z" fill="#D5A71E"/>
</svg>
