<svg width="872" height="337" viewBox="0 0 872 337" fill="none" xmlns="http://www.w3.org/2000/svg">
<rect width="872" height="336.738" rx="30" fill="white" fill-opacity="0.4"/>
<path d="M535.894 64.2401C535.894 64.5601 535.874 64.8934 535.834 65.2401H528.094C528.148 65.9334 528.368 66.4667 528.754 66.8401C529.154 67.2001 529.641 67.3801 530.214 67.3801C531.068 67.3801 531.661 67.0201 531.994 66.3001H535.634C535.448 67.0334 535.108 67.6934 534.614 68.2801C534.134 68.8667 533.528 69.3267 532.794 69.6601C532.061 69.9934 531.241 70.1601 530.334 70.1601C529.241 70.1601 528.268 69.9267 527.414 69.4601C526.561 68.9934 525.894 68.3267 525.414 67.4601C524.934 66.5934 524.694 65.5801 524.694 64.4201C524.694 63.2601 524.928 62.2467 525.394 61.3801C525.874 60.5134 526.541 59.8467 527.394 59.3801C528.248 58.9134 529.228 58.6801 530.334 58.6801C531.414 58.6801 532.374 58.9067 533.214 59.3601C534.054 59.8134 534.708 60.4601 535.174 61.3001C535.654 62.1401 535.894 63.1201 535.894 64.2401ZM532.394 63.3401C532.394 62.7534 532.194 62.2867 531.794 61.9401C531.394 61.5934 530.894 61.4201 530.294 61.4201C529.721 61.4201 529.234 61.5867 528.834 61.9201C528.448 62.2534 528.208 62.7267 528.114 63.3401H532.394Z" fill="#111111"/>
<path d="M520.24 60.7C520.64 60.0866 521.14 59.6066 521.74 59.26C522.34 58.9 523.007 58.72 523.74 58.72V62.34H522.8C521.947 62.34 521.307 62.5266 520.88 62.9C520.454 63.26 520.24 63.9 520.24 64.82V70H516.82V58.84H520.24V60.7Z" fill="#111111"/>
<path d="M514.363 58.84V70H510.943V68.48C510.596 68.9733 510.123 69.3733 509.523 69.68C508.936 69.9733 508.283 70.12 507.563 70.12C506.71 70.12 505.956 69.9333 505.303 69.56C504.65 69.1733 504.143 68.62 503.783 67.9C503.423 67.18 503.243 66.3333 503.243 65.36V58.84H506.643V64.9C506.643 65.6466 506.836 66.2266 507.223 66.64C507.61 67.0533 508.13 67.26 508.783 67.26C509.45 67.26 509.976 67.0533 510.363 66.64C510.75 66.2266 510.943 65.6466 510.943 64.9V58.84H514.363Z" fill="#111111"/>
<path d="M501.438 67.1V70H499.698C498.458 70 497.492 69.7 496.798 69.1C496.105 68.4867 495.758 67.4933 495.758 66.12V61.68H494.398V58.84H495.758V56.12H499.178V58.84H501.418V61.68H499.178V66.16C499.178 66.4933 499.258 66.7333 499.418 66.88C499.578 67.0267 499.845 67.1 500.218 67.1H501.438Z" fill="#111111"/>
<path d="M482.429 64.4201C482.429 63.2601 482.662 62.2467 483.129 61.3801C483.609 60.5134 484.269 59.8467 485.109 59.3801C485.962 58.9134 486.935 58.6801 488.029 58.6801C489.429 58.6801 490.595 59.0467 491.529 59.7801C492.475 60.5134 493.095 61.5467 493.389 62.8801H489.749C489.442 62.0267 488.849 61.6001 487.969 61.6001C487.342 61.6001 486.842 61.8467 486.469 62.3401C486.095 62.8201 485.909 63.5134 485.909 64.4201C485.909 65.3267 486.095 66.0267 486.469 66.5201C486.842 67.0001 487.342 67.2401 487.969 67.2401C488.849 67.2401 489.442 66.8134 489.749 65.9601H493.389C493.095 67.2667 492.475 68.2934 491.529 69.0401C490.582 69.7867 489.415 70.1601 488.029 70.1601C486.935 70.1601 485.962 69.9267 485.109 69.4601C484.269 68.9934 483.609 68.3267 483.129 67.4601C482.662 66.5934 482.429 65.5801 482.429 64.4201Z" fill="#111111"/>
<path d="M481.305 64.2401C481.305 64.5601 481.285 64.8934 481.245 65.2401H473.504C473.558 65.9334 473.778 66.4667 474.164 66.8401C474.564 67.2001 475.051 67.3801 475.624 67.3801C476.478 67.3801 477.071 67.0201 477.404 66.3001H481.044C480.858 67.0334 480.518 67.6934 480.025 68.2801C479.545 68.8667 478.938 69.3267 478.204 69.6601C477.471 69.9934 476.651 70.1601 475.745 70.1601C474.651 70.1601 473.678 69.9267 472.824 69.4601C471.971 68.9934 471.304 68.3267 470.824 67.4601C470.344 66.5934 470.104 65.5801 470.104 64.4201C470.104 63.2601 470.338 62.2467 470.805 61.3801C471.285 60.5134 471.951 59.8467 472.805 59.3801C473.658 58.9134 474.638 58.6801 475.745 58.6801C476.825 58.6801 477.784 58.9067 478.624 59.3601C479.464 59.8134 480.118 60.4601 480.585 61.3001C481.065 62.1401 481.305 63.1201 481.305 64.2401ZM477.805 63.3401C477.805 62.7534 477.604 62.2867 477.204 61.9401C476.804 61.5934 476.304 61.4201 475.704 61.4201C475.131 61.4201 474.645 61.5867 474.245 61.9201C473.858 62.2534 473.618 62.7267 473.525 63.3401H477.805Z" fill="#111111"/>
<path d="M468.88 67.1V70H467.14C465.9 70 464.933 69.7 464.24 69.1C463.547 68.4867 463.2 67.4933 463.2 66.12V61.68H461.84V58.84H463.2V56.12H466.62V58.84H468.86V61.68H466.62V66.16C466.62 66.4933 466.7 66.7333 466.86 66.88C467.02 67.0267 467.286 67.1 467.66 67.1H468.88Z" fill="#111111"/>
<path d="M458.481 57.68C457.881 57.68 457.388 57.5066 457.001 57.16C456.628 56.8 456.441 56.36 456.441 55.84C456.441 55.3066 456.628 54.8666 457.001 54.52C457.388 54.16 457.881 53.98 458.481 53.98C459.068 53.98 459.548 54.16 459.921 54.52C460.308 54.8666 460.501 55.3066 460.501 55.84C460.501 56.36 460.308 56.8 459.921 57.16C459.548 57.5066 459.068 57.68 458.481 57.68ZM460.181 58.84V70H456.761V58.84H460.181Z" fill="#111111"/>
<path d="M450.145 58.72C451.425 58.72 452.452 59.1466 453.225 60C453.998 60.84 454.385 62 454.385 63.48V70H450.985V63.94C450.985 63.1933 450.792 62.6133 450.405 62.2C450.018 61.7866 449.498 61.58 448.845 61.58C448.192 61.58 447.672 61.7866 447.285 62.2C446.898 62.6133 446.705 63.1933 446.705 63.94V70H443.285V55.2H446.705V60.34C447.052 59.8466 447.525 59.4533 448.125 59.16C448.725 58.8666 449.399 58.72 450.145 58.72Z" fill="#111111"/>
<path d="M430.495 64.4201C430.495 63.2601 430.728 62.2467 431.195 61.3801C431.675 60.5134 432.335 59.8467 433.175 59.3801C434.028 58.9134 435.002 58.6801 436.095 58.6801C437.495 58.6801 438.662 59.0467 439.595 59.7801C440.542 60.5134 441.162 61.5467 441.455 62.8801H437.815C437.508 62.0267 436.915 61.6001 436.035 61.6001C435.408 61.6001 434.908 61.8467 434.535 62.3401C434.162 62.8201 433.975 63.5134 433.975 64.4201C433.975 65.3267 434.162 66.0267 434.535 66.5201C434.908 67.0001 435.408 67.2401 436.035 67.2401C436.915 67.2401 437.508 66.8134 437.815 65.9601H441.455C441.162 67.2667 440.542 68.2934 439.595 69.0401C438.648 69.7867 437.482 70.1601 436.095 70.1601C435.002 70.1601 434.028 69.9267 433.175 69.4601C432.335 68.9934 431.675 68.3267 431.195 67.4601C430.728 66.5934 430.495 65.5801 430.495 64.4201Z" fill="#111111"/>
<path d="M426.041 60.7C426.441 60.0866 426.941 59.6066 427.541 59.26C428.141 58.9 428.808 58.72 429.541 58.72V62.34H428.601C427.748 62.34 427.108 62.5266 426.681 62.9C426.254 63.26 426.041 63.9 426.041 64.82V70H422.621V58.84H426.041V60.7Z" fill="#111111"/>
<path d="M416.615 67.52H411.375L410.535 70H406.955L412.035 55.96H415.995L421.075 70H417.455L416.615 67.52ZM415.735 64.88L413.995 59.74L412.275 64.88H415.735Z" fill="#111111"/>
<path d="M401.731 67.1V70H399.991C398.751 70 397.785 69.7 397.091 69.1C396.398 68.4867 396.051 67.4933 396.051 66.12V61.68H394.691V58.84H396.051V56.12H399.471V58.84H401.711V61.68H399.471V66.16C399.471 66.4933 399.551 66.7333 399.711 66.88C399.871 67.0267 400.138 67.1 400.511 67.1H401.731Z" fill="#111111"/>
<path d="M393.707 64.2401C393.707 64.5601 393.687 64.8934 393.647 65.2401H385.907C385.96 65.9334 386.18 66.4667 386.567 66.8401C386.967 67.2001 387.453 67.3801 388.027 67.3801C388.88 67.3801 389.473 67.0201 389.807 66.3001H393.447C393.26 67.0334 392.92 67.6934 392.427 68.2801C391.947 68.8667 391.34 69.3267 390.607 69.6601C389.874 69.9934 389.054 70.1601 388.147 70.1601C387.054 70.1601 386.08 69.9267 385.227 69.4601C384.374 68.9934 383.707 68.3267 383.227 67.4601C382.747 66.5934 382.507 65.5801 382.507 64.4201C382.507 63.2601 382.74 62.2467 383.207 61.3801C383.687 60.5134 384.354 59.8467 385.207 59.3801C386.06 58.9134 387.04 58.6801 388.147 58.6801C389.227 58.6801 390.187 58.9067 391.027 59.3601C391.867 59.8134 392.52 60.4601 392.987 61.3001C393.467 62.1401 393.707 63.1201 393.707 64.2401ZM390.207 63.3401C390.207 62.7534 390.007 62.2867 389.607 61.9401C389.207 61.5934 388.707 61.4201 388.107 61.4201C387.534 61.4201 387.047 61.5867 386.647 61.9201C386.26 62.2534 386.02 62.7267 385.927 63.3401H390.207Z" fill="#111111"/>
<path d="M380.709 55.2V70H377.289V55.2H380.709Z" fill="#111111"/>
<path d="M374.811 55.2V70H371.391V55.2H374.811Z" fill="#111111"/>
<path d="M357.136 64.4001C357.136 63.2534 357.349 62.2467 357.776 61.3801C358.216 60.5134 358.809 59.8467 359.556 59.3801C360.302 58.9134 361.136 58.6801 362.056 58.6801C362.842 58.6801 363.529 58.8401 364.116 59.1601C364.716 59.4801 365.176 59.9001 365.496 60.4201V58.8401H368.916V70.0001H365.496V68.4201C365.162 68.9401 364.696 69.3601 364.096 69.6801C363.509 70.0001 362.822 70.1601 362.036 70.1601C361.129 70.1601 360.302 69.9267 359.556 69.4601C358.809 68.9801 358.216 68.3067 357.776 67.4401C357.349 66.5601 357.136 65.5467 357.136 64.4001ZM365.496 64.4201C365.496 63.5667 365.256 62.8934 364.776 62.4001C364.309 61.9067 363.736 61.6601 363.056 61.6601C362.376 61.6601 361.796 61.9067 361.316 62.4001C360.849 62.8801 360.616 63.5467 360.616 64.4001C360.616 65.2534 360.849 65.9334 361.316 66.4401C361.796 66.9334 362.376 67.1801 363.056 67.1801C363.736 67.1801 364.309 66.9334 364.776 66.4401C365.256 65.9467 365.496 65.2734 365.496 64.4201Z" fill="#111111"/>
<path d="M356.101 55.96L352.441 70H348.301L346.061 60.76L343.741 70H339.601L336.041 55.96H339.701L341.721 66.18L344.221 55.96H347.981L350.381 66.18L352.421 55.96H356.101Z" fill="#111111"/>
<rect x="32.7012" y="104" width="230" height="81.216" rx="20" fill="white"/>
<path d="M220.153 163.668V163.47C221.389 162.198 222.331 160.716 222.979 159.024C223.627 157.332 223.951 155.58 223.951 153.768C223.951 151.884 223.603 150.054 222.907 148.278C222.211 146.502 221.173 144.978 219.793 143.706V143.508H221.917C223.237 144.684 224.233 146.178 224.905 147.99C225.589 149.802 225.931 151.728 225.931 153.768C225.931 155.76 225.613 157.626 224.977 159.366C224.353 161.106 223.453 162.54 222.277 163.668H220.153Z" fill="#111111"/>
<path d="M219.108 150.402L213.024 164.982H210.9L212.916 160.158L209.01 150.402H211.296L214.086 157.962L216.984 150.402H219.108Z" fill="#111111"/>
<path d="M207.486 147V160.32H205.434V147H207.486Z" fill="#111111"/>
<path d="M198.748 150.24C199.528 150.24 200.224 150.402 200.836 150.726C201.46 151.05 201.946 151.53 202.294 152.166C202.642 152.802 202.816 153.57 202.816 154.47V160.32H200.782V154.776C200.782 153.888 200.56 153.21 200.116 152.742C199.672 152.262 199.066 152.022 198.298 152.022C197.53 152.022 196.918 152.262 196.462 152.742C196.018 153.21 195.796 153.888 195.796 154.776V160.32H193.744V150.402H195.796V151.536C196.132 151.128 196.558 150.81 197.074 150.582C197.602 150.354 198.16 150.24 198.748 150.24Z" fill="#111111"/>
<path d="M185.335 160.446C184.171 160.446 183.097 160.176 182.113 159.636C181.141 159.084 180.367 158.322 179.791 157.35C179.227 156.366 178.945 155.262 178.945 154.038C178.945 152.814 179.227 151.716 179.791 150.744C180.367 149.772 181.141 149.016 182.113 148.476C183.097 147.924 184.171 147.648 185.335 147.648C186.511 147.648 187.585 147.924 188.557 148.476C189.541 149.016 190.315 149.772 190.879 150.744C191.443 151.716 191.725 152.814 191.725 154.038C191.725 155.262 191.443 156.366 190.879 157.35C190.315 158.322 189.541 159.084 188.557 159.636C187.585 160.176 186.511 160.446 185.335 160.446ZM185.335 158.664C186.163 158.664 186.901 158.478 187.549 158.106C188.197 157.722 188.701 157.182 189.061 156.486C189.433 155.778 189.619 154.962 189.619 154.038C189.619 153.114 189.433 152.304 189.061 151.608C188.701 150.912 188.197 150.378 187.549 150.006C186.901 149.634 186.163 149.448 185.335 149.448C184.507 149.448 183.769 149.634 183.121 150.006C182.473 150.378 181.963 150.912 181.591 151.608C181.231 152.304 181.051 153.114 181.051 154.038C181.051 154.962 181.231 155.778 181.591 156.486C181.963 157.182 182.473 157.722 183.121 158.106C183.769 158.478 184.507 158.664 185.335 158.664Z" fill="#111111"/>
<path d="M166.75 150.24C167.518 150.24 168.196 150.396 168.784 150.708C169.384 151.008 169.852 151.386 170.188 151.842V150.402H172.258V160.482C172.258 161.394 172.066 162.204 171.682 162.912C171.298 163.632 170.74 164.196 170.008 164.604C169.288 165.012 168.424 165.216 167.416 165.216C166.072 165.216 164.956 164.898 164.068 164.262C163.18 163.638 162.676 162.786 162.556 161.706H164.59C164.746 162.222 165.076 162.636 165.58 162.948C166.096 163.272 166.708 163.434 167.416 163.434C168.244 163.434 168.91 163.182 169.414 162.678C169.93 162.174 170.188 161.442 170.188 160.482V158.826C169.84 159.294 169.366 159.69 168.766 160.014C168.178 160.326 167.506 160.482 166.75 160.482C165.886 160.482 165.094 160.266 164.374 159.834C163.666 159.39 163.102 158.778 162.682 157.998C162.274 157.206 162.07 156.312 162.07 155.316C162.07 154.32 162.274 153.438 162.682 152.67C163.102 151.902 163.666 151.308 164.374 150.888C165.094 150.456 165.886 150.24 166.75 150.24ZM170.188 155.352C170.188 154.668 170.044 154.074 169.756 153.57C169.48 153.066 169.114 152.682 168.658 152.418C168.202 152.154 167.71 152.022 167.182 152.022C166.654 152.022 166.162 152.154 165.706 152.418C165.25 152.67 164.878 153.048 164.59 153.552C164.314 154.044 164.176 154.632 164.176 155.316C164.176 156 164.314 156.6 164.59 157.116C164.878 157.632 165.25 158.028 165.706 158.304C166.174 158.568 166.666 158.7 167.182 158.7C167.71 158.7 168.202 158.568 168.658 158.304C169.114 158.04 169.48 157.656 169.756 157.152C170.044 156.636 170.188 156.036 170.188 155.352Z" fill="#111111"/>
<path d="M156.068 150.24C156.848 150.24 157.544 150.402 158.156 150.726C158.78 151.05 159.266 151.53 159.614 152.166C159.962 152.802 160.136 153.57 160.136 154.47V160.32H158.102V154.776C158.102 153.888 157.88 153.21 157.436 152.742C156.992 152.262 156.386 152.022 155.618 152.022C154.85 152.022 154.238 152.262 153.782 152.742C153.338 153.21 153.116 153.888 153.116 154.776V160.32H151.064V150.402H153.116V151.536C153.452 151.128 153.878 150.81 154.394 150.582C154.922 150.354 155.48 150.24 156.068 150.24Z" fill="#111111"/>
<path d="M147.363 149.088C146.991 149.088 146.679 148.962 146.427 148.71C146.175 148.458 146.049 148.146 146.049 147.774C146.049 147.402 146.175 147.09 146.427 146.838C146.679 146.586 146.991 146.46 147.363 146.46C147.723 146.46 148.029 146.586 148.281 146.838C148.533 147.09 148.659 147.402 148.659 147.774C148.659 148.146 148.533 148.458 148.281 148.71C148.029 148.962 147.723 149.088 147.363 149.088ZM148.371 150.402V160.32H146.319V150.402H148.371Z" fill="#111111"/>
<path d="M141.462 151.842C141.762 151.338 142.158 150.948 142.65 150.672C143.154 150.384 143.748 150.24 144.432 150.24V152.364H143.91C143.106 152.364 142.494 152.568 142.074 152.976C141.666 153.384 141.462 154.092 141.462 155.1V160.32H139.41V150.402H141.462V151.842Z" fill="#111111"/>
<path d="M132.234 160.482C131.298 160.482 130.452 160.272 129.696 159.852C128.94 159.42 128.346 158.82 127.914 158.052C127.482 157.272 127.266 156.372 127.266 155.352C127.266 154.344 127.488 153.45 127.932 152.67C128.376 151.89 128.982 151.29 129.75 150.87C130.518 150.45 131.376 150.24 132.324 150.24C133.272 150.24 134.13 150.45 134.898 150.87C135.666 151.29 136.272 151.89 136.716 152.67C137.16 153.45 137.382 154.344 137.382 155.352C137.382 156.36 137.154 157.254 136.698 158.034C136.242 158.814 135.618 159.42 134.826 159.852C134.046 160.272 133.182 160.482 132.234 160.482ZM132.234 158.7C132.762 158.7 133.254 158.574 133.71 158.322C134.178 158.07 134.556 157.692 134.844 157.188C135.132 156.684 135.276 156.072 135.276 155.352C135.276 154.632 135.138 154.026 134.862 153.534C134.586 153.03 134.22 152.652 133.764 152.4C133.308 152.148 132.816 152.022 132.288 152.022C131.76 152.022 131.268 152.148 130.812 152.4C130.368 152.652 130.014 153.03 129.75 153.534C129.486 154.026 129.354 154.632 129.354 155.352C129.354 156.42 129.624 157.248 130.164 157.836C130.716 158.412 131.406 158.7 132.234 158.7Z" fill="#111111"/>
<path d="M123.629 152.076V157.566C123.629 157.938 123.713 158.208 123.881 158.376C124.061 158.532 124.361 158.61 124.781 158.61H126.041V160.32H124.421C123.497 160.32 122.789 160.104 122.297 159.672C121.805 159.24 121.559 158.538 121.559 157.566V152.076H120.389V150.402H121.559V147.936H123.629V150.402H126.041V152.076H123.629Z" fill="#111111"/>
<path d="M117.533 149.088C117.161 149.088 116.849 148.962 116.597 148.71C116.345 148.458 116.219 148.146 116.219 147.774C116.219 147.402 116.345 147.09 116.597 146.838C116.849 146.586 117.161 146.46 117.533 146.46C117.893 146.46 118.199 146.586 118.451 146.838C118.703 147.09 118.829 147.402 118.829 147.774C118.829 148.146 118.703 148.458 118.451 148.71C118.199 148.962 117.893 149.088 117.533 149.088ZM118.541 150.402V160.32H116.489V150.402H118.541Z" fill="#111111"/>
<path d="M109.803 150.24C110.583 150.24 111.279 150.402 111.891 150.726C112.515 151.05 113.001 151.53 113.349 152.166C113.697 152.802 113.871 153.57 113.871 154.47V160.32H111.837V154.776C111.837 153.888 111.615 153.21 111.171 152.742C110.727 152.262 110.121 152.022 109.353 152.022C108.585 152.022 107.973 152.262 107.517 152.742C107.073 153.21 106.851 153.888 106.851 154.776V160.32H104.799V150.402H106.851V151.536C107.187 151.128 107.613 150.81 108.129 150.582C108.657 150.354 109.215 150.24 109.803 150.24Z" fill="#111111"/>
<path d="M97.6223 160.482C96.6863 160.482 95.8403 160.272 95.0843 159.852C94.3283 159.42 93.7343 158.82 93.3023 158.052C92.8703 157.272 92.6543 156.372 92.6543 155.352C92.6543 154.344 92.8763 153.45 93.3203 152.67C93.7643 151.89 94.3703 151.29 95.1383 150.87C95.9063 150.45 96.7643 150.24 97.7123 150.24C98.6603 150.24 99.5183 150.45 100.286 150.87C101.054 151.29 101.66 151.89 102.104 152.67C102.548 153.45 102.77 154.344 102.77 155.352C102.77 156.36 102.542 157.254 102.086 158.034C101.63 158.814 101.006 159.42 100.214 159.852C99.4343 160.272 98.5703 160.482 97.6223 160.482ZM97.6223 158.7C98.1503 158.7 98.6423 158.574 99.0983 158.322C99.5663 158.07 99.9443 157.692 100.232 157.188C100.52 156.684 100.664 156.072 100.664 155.352C100.664 154.632 100.526 154.026 100.25 153.534C99.9743 153.03 99.6083 152.652 99.1523 152.4C98.6963 152.148 98.2043 152.022 97.6763 152.022C97.1483 152.022 96.6563 152.148 96.2003 152.4C95.7563 152.652 95.4023 153.03 95.1383 153.534C94.8743 154.026 94.7423 154.632 94.7423 155.352C94.7423 156.42 95.0123 157.248 95.5523 157.836C96.1043 158.412 96.7943 158.7 97.6223 158.7Z" fill="#111111"/>
<path d="M90.6233 147.81V160.32H88.5713V151.752L84.7553 160.32H83.3333L79.4993 151.752V160.32H77.4473V147.81H79.6613L84.0533 157.62L88.4273 147.81H90.6233Z" fill="#111111"/>
<path d="M73.1247 163.668C71.9487 162.54 71.0427 161.106 70.4067 159.366C69.7827 157.626 69.4707 155.76 69.4707 153.768C69.4707 151.728 69.8067 149.802 70.4787 147.99C71.1627 146.178 72.1647 144.684 73.4847 143.508H75.6087V143.706C74.2287 144.978 73.1907 146.502 72.4947 148.278C71.7987 150.054 71.4507 151.884 71.4507 153.768C71.4507 155.58 71.7747 157.332 72.4227 159.024C73.0707 160.716 74.0127 162.198 75.2487 163.47V163.668H73.1247Z" fill="#111111"/>
<path d="M191.261 129.076V134.566C191.261 134.938 191.345 135.208 191.513 135.376C191.693 135.532 191.993 135.61 192.413 135.61H193.673V137.32H192.053C191.129 137.32 190.421 137.104 189.929 136.672C189.437 136.24 189.191 135.538 189.191 134.566V129.076H188.021V127.402H189.191V124.936H191.261V127.402H193.673V129.076H191.261Z" fill="#111111"/>
<path d="M186.847 132.118C186.847 132.49 186.823 132.826 186.775 133.126H179.197C179.257 133.918 179.551 134.554 180.079 135.034C180.607 135.514 181.255 135.754 182.023 135.754C183.127 135.754 183.907 135.292 184.363 134.368H186.577C186.277 135.28 185.731 136.03 184.939 136.618C184.159 137.194 183.187 137.482 182.023 137.482C181.075 137.482 180.223 137.272 179.467 136.852C178.723 136.42 178.135 135.82 177.703 135.052C177.283 134.272 177.073 133.372 177.073 132.352C177.073 131.332 177.277 130.438 177.685 129.67C178.105 128.89 178.687 128.29 179.431 127.87C180.187 127.45 181.051 127.24 182.023 127.24C182.959 127.24 183.793 127.444 184.525 127.852C185.257 128.26 185.827 128.836 186.235 129.58C186.643 130.312 186.847 131.158 186.847 132.118ZM184.705 131.47C184.693 130.714 184.423 130.108 183.895 129.652C183.367 129.196 182.713 128.968 181.933 128.968C181.225 128.968 180.619 129.196 180.115 129.652C179.611 130.096 179.311 130.702 179.215 131.47H184.705Z" fill="#111111"/>
<path d="M175.063 124V137.32H173.011V124H175.063Z" fill="#111111"/>
<path d="M170.317 124V137.32H168.265V124H170.317Z" fill="#111111"/>
<path d="M155.382 132.316C155.382 131.32 155.586 130.438 155.994 129.67C156.414 128.902 156.978 128.308 157.686 127.888C158.406 127.456 159.198 127.24 160.062 127.24C160.842 127.24 161.52 127.396 162.096 127.708C162.684 128.008 163.152 128.386 163.5 128.842V127.402H165.57V137.32H163.5V135.844C163.152 136.312 162.678 136.702 162.078 137.014C161.478 137.326 160.794 137.482 160.026 137.482C159.174 137.482 158.394 137.266 157.686 136.834C156.978 136.39 156.414 135.778 155.994 134.998C155.586 134.206 155.382 133.312 155.382 132.316ZM163.5 132.352C163.5 131.668 163.356 131.074 163.068 130.57C162.792 130.066 162.426 129.682 161.97 129.418C161.514 129.154 161.022 129.022 160.494 129.022C159.966 129.022 159.474 129.154 159.018 129.418C158.562 129.67 158.19 130.048 157.902 130.552C157.626 131.044 157.488 131.632 157.488 132.316C157.488 133 157.626 133.6 157.902 134.116C158.19 134.632 158.562 135.028 159.018 135.304C159.486 135.568 159.978 135.7 160.494 135.7C161.022 135.7 161.514 135.568 161.97 135.304C162.426 135.04 162.792 134.656 163.068 134.152C163.356 133.636 163.5 133.036 163.5 132.352Z" fill="#111111"/>
<path d="M154.373 124.81L150.665 137.32H148.343L145.715 127.852L142.925 137.32L140.621 137.338L137.075 124.81H139.253L141.845 134.998L144.653 124.81H146.957L149.567 134.944L152.177 124.81H154.373Z" fill="#111111"/>
<path d="M129.104 129.076V134.566C129.104 134.938 129.188 135.208 129.356 135.376C129.536 135.532 129.836 135.61 130.256 135.61H131.516V137.32H129.896C128.972 137.32 128.264 137.104 127.772 136.672C127.28 136.24 127.034 135.538 127.034 134.566V129.076H125.864V127.402H127.034V124.936H129.104V127.402H131.516V129.076H129.104Z" fill="#111111"/>
<path d="M119.533 137.482C118.597 137.482 117.751 137.272 116.995 136.852C116.239 136.42 115.645 135.82 115.213 135.052C114.781 134.272 114.565 133.372 114.565 132.352C114.565 131.344 114.787 130.45 115.231 129.67C115.675 128.89 116.281 128.29 117.049 127.87C117.817 127.45 118.675 127.24 119.623 127.24C120.571 127.24 121.429 127.45 122.197 127.87C122.965 128.29 123.571 128.89 124.015 129.67C124.459 130.45 124.681 131.344 124.681 132.352C124.681 133.36 124.453 134.254 123.997 135.034C123.541 135.814 122.917 136.42 122.125 136.852C121.345 137.272 120.481 137.482 119.533 137.482ZM119.533 135.7C120.061 135.7 120.553 135.574 121.009 135.322C121.477 135.07 121.855 134.692 122.143 134.188C122.431 133.684 122.575 133.072 122.575 132.352C122.575 131.632 122.437 131.026 122.161 130.534C121.885 130.03 121.519 129.652 121.063 129.4C120.607 129.148 120.115 129.022 119.587 129.022C119.059 129.022 118.567 129.148 118.111 129.4C117.667 129.652 117.313 130.03 117.049 130.534C116.785 131.026 116.653 131.632 116.653 132.352C116.653 133.42 116.923 134.248 117.463 134.836C118.015 135.412 118.705 135.7 119.533 135.7Z" fill="#111111"/>
<path d="M112.53 124.81V137.32H110.478V131.848H104.592V137.32H102.54V124.81H104.592V130.174H110.478V124.81H112.53Z" fill="#111111"/>
<path d="M292.511 137.612C292.894 137.213 293.527 137.2 293.926 137.581L300.425 143.809C300.823 144.191 300.836 144.824 300.454 145.223L294.228 151.721C293.846 152.119 293.213 152.133 292.814 151.751C292.415 151.369 292.401 150.736 292.783 150.337L297.34 145.581L283.04 145.887L282.998 143.888L297.296 143.583L292.542 139.026C292.143 138.644 292.13 138.011 292.511 137.612Z" fill="#813BF5"/>
<rect x="321" y="104.09" width="230" height="81.036" rx="20" fill="white"/>
<path d="M469.218 160.572C468.438 160.572 467.736 160.434 467.112 160.158C466.5 159.87 466.014 159.486 465.654 159.006C465.294 158.514 465.102 157.968 465.078 157.368H467.202C467.238 157.788 467.436 158.142 467.796 158.43C468.168 158.706 468.63 158.844 469.182 158.844C469.758 158.844 470.202 158.736 470.514 158.52C470.838 158.292 471 158.004 471 157.656C471 157.284 470.82 157.008 470.46 156.828C470.112 156.648 469.554 156.45 468.786 156.234C468.042 156.03 467.436 155.832 466.968 155.64C466.5 155.448 466.092 155.154 465.744 154.758C465.408 154.362 465.24 153.84 465.24 153.192C465.24 152.664 465.396 152.184 465.708 151.752C466.02 151.308 466.464 150.96 467.04 150.708C467.628 150.456 468.3 150.33 469.056 150.33C470.184 150.33 471.09 150.618 471.774 151.194C472.47 151.758 472.842 152.532 472.89 153.516H470.838C470.802 153.072 470.622 152.718 470.298 152.454C469.974 152.19 469.536 152.058 468.984 152.058C468.444 152.058 468.03 152.16 467.742 152.364C467.454 152.568 467.31 152.838 467.31 153.174C467.31 153.438 467.406 153.66 467.598 153.84C467.79 154.02 468.024 154.164 468.3 154.272C468.576 154.368 468.984 154.494 469.524 154.65C470.244 154.842 470.832 155.04 471.288 155.244C471.756 155.436 472.158 155.724 472.494 156.108C472.83 156.492 473.004 157.002 473.016 157.638C473.016 158.202 472.86 158.706 472.548 159.15C472.236 159.594 471.792 159.942 471.216 160.194C470.652 160.446 469.986 160.572 469.218 160.572Z" fill="#111111"/>
<path d="M463.599 155.208C463.599 155.58 463.575 155.916 463.527 156.216H455.949C456.009 157.008 456.303 157.644 456.831 158.124C457.359 158.604 458.007 158.844 458.775 158.844C459.879 158.844 460.659 158.382 461.115 157.458H463.329C463.029 158.37 462.483 159.12 461.691 159.708C460.911 160.284 459.939 160.572 458.775 160.572C457.827 160.572 456.975 160.362 456.219 159.942C455.475 159.51 454.887 158.91 454.455 158.142C454.035 157.362 453.825 156.462 453.825 155.442C453.825 154.422 454.029 153.528 454.437 152.76C454.857 151.98 455.439 151.38 456.183 150.96C456.939 150.54 457.803 150.33 458.775 150.33C459.711 150.33 460.545 150.534 461.277 150.942C462.009 151.35 462.579 151.926 462.987 152.67C463.395 153.402 463.599 154.248 463.599 155.208ZM461.457 154.56C461.445 153.804 461.175 153.198 460.647 152.742C460.119 152.286 459.465 152.058 458.685 152.058C457.977 152.058 457.371 152.286 456.867 152.742C456.363 153.186 456.063 153.792 455.967 154.56H461.457Z" fill="#111111"/>
<path d="M450.206 152.166V157.656C450.206 158.028 450.29 158.298 450.458 158.466C450.638 158.622 450.938 158.7 451.358 158.7H452.618V160.41H450.998C450.074 160.41 449.366 160.194 448.874 159.762C448.382 159.33 448.136 158.628 448.136 157.656V152.166H446.966V150.492H448.136V148.026H450.206V150.492H452.618V152.166H450.206Z" fill="#111111"/>
<path d="M434.929 155.406C434.929 154.41 435.133 153.528 435.541 152.76C435.961 151.992 436.525 151.398 437.233 150.978C437.953 150.546 438.745 150.33 439.609 150.33C440.389 150.33 441.067 150.486 441.643 150.798C442.231 151.098 442.699 151.476 443.047 151.932V150.492H445.117V160.41H443.047V158.934C442.699 159.402 442.225 159.792 441.625 160.104C441.025 160.416 440.341 160.572 439.573 160.572C438.721 160.572 437.941 160.356 437.233 159.924C436.525 159.48 435.961 158.868 435.541 158.088C435.133 157.296 434.929 156.402 434.929 155.406ZM443.047 155.442C443.047 154.758 442.903 154.164 442.615 153.66C442.339 153.156 441.973 152.772 441.517 152.508C441.061 152.244 440.569 152.112 440.041 152.112C439.513 152.112 439.021 152.244 438.565 152.508C438.109 152.76 437.737 153.138 437.449 153.642C437.173 154.134 437.035 154.722 437.035 155.406C437.035 156.09 437.173 156.69 437.449 157.206C437.737 157.722 438.109 158.118 438.565 158.394C439.033 158.658 439.525 158.79 440.041 158.79C440.569 158.79 441.061 158.658 441.517 158.394C441.973 158.13 442.339 157.746 442.615 157.242C442.903 156.726 443.047 156.126 443.047 155.442Z" fill="#111111"/>
<path d="M422.729 155.406C422.729 154.41 422.933 153.528 423.341 152.76C423.761 151.992 424.325 151.398 425.033 150.978C425.753 150.546 426.551 150.33 427.427 150.33C428.075 150.33 428.711 150.474 429.335 150.762C429.971 151.038 430.475 151.41 430.847 151.878V147.09H432.917V160.41H430.847V158.916C430.511 159.396 430.043 159.792 429.443 160.104C428.855 160.416 428.177 160.572 427.409 160.572C426.545 160.572 425.753 160.356 425.033 159.924C424.325 159.48 423.761 158.868 423.341 158.088C422.933 157.296 422.729 156.402 422.729 155.406ZM430.847 155.442C430.847 154.758 430.703 154.164 430.415 153.66C430.139 153.156 429.773 152.772 429.317 152.508C428.861 152.244 428.369 152.112 427.841 152.112C427.313 152.112 426.821 152.244 426.365 152.508C425.909 152.76 425.537 153.138 425.249 153.642C424.973 154.134 424.835 154.722 424.835 155.406C424.835 156.09 424.973 156.69 425.249 157.206C425.537 157.722 425.909 158.118 426.365 158.394C426.833 158.658 427.325 158.79 427.841 158.79C428.369 158.79 428.861 158.658 429.317 158.394C429.773 158.13 430.139 157.746 430.415 157.242C430.703 156.726 430.847 156.126 430.847 155.442Z" fill="#111111"/>
<path d="M413.266 151.95C413.614 151.494 414.088 151.11 414.688 150.798C415.288 150.486 415.966 150.33 416.722 150.33C417.586 150.33 418.372 150.546 419.08 150.978C419.8 151.398 420.364 151.992 420.772 152.76C421.18 153.528 421.384 154.41 421.384 155.406C421.384 156.402 421.18 157.296 420.772 158.088C420.364 158.868 419.8 159.48 419.08 159.924C418.372 160.356 417.586 160.572 416.722 160.572C415.966 160.572 415.294 160.422 414.706 160.122C414.118 159.81 413.638 159.426 413.266 158.97V165.126H411.214V150.492H413.266V151.95ZM419.296 155.406C419.296 154.722 419.152 154.134 418.864 153.642C418.588 153.138 418.216 152.76 417.748 152.508C417.292 152.244 416.8 152.112 416.272 152.112C415.756 152.112 415.264 152.244 414.796 152.508C414.34 152.772 413.968 153.156 413.68 153.66C413.404 154.164 413.266 154.758 413.266 155.442C413.266 156.126 413.404 156.726 413.68 157.242C413.968 157.746 414.34 158.13 414.796 158.394C415.264 158.658 415.756 158.79 416.272 158.79C416.8 158.79 417.292 158.658 417.748 158.394C418.216 158.118 418.588 157.722 418.864 157.206C419.152 156.69 419.296 156.09 419.296 155.406Z" fill="#111111"/>
<path d="M400.821 147.9V155.874C400.821 156.822 401.067 157.536 401.559 158.016C402.063 158.496 402.759 158.736 403.647 158.736C404.547 158.736 405.243 158.496 405.735 158.016C406.239 157.536 406.491 156.822 406.491 155.874V147.9H408.543V155.838C408.543 156.858 408.321 157.722 407.877 158.43C407.433 159.138 406.839 159.666 406.095 160.014C405.351 160.362 404.529 160.536 403.629 160.536C402.729 160.536 401.907 160.362 401.163 160.014C400.431 159.666 399.849 159.138 399.417 158.43C398.985 157.722 398.769 156.858 398.769 155.838V147.9H400.821Z" fill="#111111"/>
<path d="M479.481 132.208C479.481 132.58 479.457 132.916 479.409 133.216H471.831C471.891 134.008 472.185 134.644 472.713 135.124C473.241 135.604 473.889 135.844 474.657 135.844C475.761 135.844 476.541 135.382 476.997 134.458H479.211C478.911 135.37 478.365 136.12 477.573 136.708C476.793 137.284 475.821 137.572 474.657 137.572C473.709 137.572 472.857 137.362 472.101 136.942C471.357 136.51 470.769 135.91 470.337 135.142C469.917 134.362 469.707 133.462 469.707 132.442C469.707 131.422 469.911 130.528 470.319 129.76C470.739 128.98 471.321 128.38 472.065 127.96C472.821 127.54 473.685 127.33 474.657 127.33C475.593 127.33 476.427 127.534 477.159 127.942C477.891 128.35 478.461 128.926 478.869 129.67C479.277 130.402 479.481 131.248 479.481 132.208ZM477.339 131.56C477.327 130.804 477.057 130.198 476.529 129.742C476.001 129.286 475.347 129.058 474.567 129.058C473.859 129.058 473.253 129.286 472.749 129.742C472.245 130.186 471.945 130.792 471.849 131.56H477.339Z" fill="#111111"/>
<path d="M464.375 137.572C463.595 137.572 462.893 137.434 462.269 137.158C461.657 136.87 461.171 136.486 460.811 136.006C460.451 135.514 460.259 134.968 460.235 134.368H462.359C462.395 134.788 462.593 135.142 462.953 135.43C463.325 135.706 463.787 135.844 464.339 135.844C464.915 135.844 465.359 135.736 465.671 135.52C465.995 135.292 466.157 135.004 466.157 134.656C466.157 134.284 465.977 134.008 465.617 133.828C465.269 133.648 464.711 133.45 463.943 133.234C463.199 133.03 462.593 132.832 462.125 132.64C461.657 132.448 461.249 132.154 460.901 131.758C460.565 131.362 460.397 130.84 460.397 130.192C460.397 129.664 460.553 129.184 460.865 128.752C461.177 128.308 461.621 127.96 462.197 127.708C462.785 127.456 463.457 127.33 464.213 127.33C465.341 127.33 466.247 127.618 466.931 128.194C467.627 128.758 467.999 129.532 468.047 130.516H465.995C465.959 130.072 465.779 129.718 465.455 129.454C465.131 129.19 464.693 129.058 464.141 129.058C463.601 129.058 463.187 129.16 462.899 129.364C462.611 129.568 462.467 129.838 462.467 130.174C462.467 130.438 462.563 130.66 462.755 130.84C462.947 131.02 463.181 131.164 463.457 131.272C463.733 131.368 464.141 131.494 464.681 131.65C465.401 131.842 465.989 132.04 466.445 132.244C466.913 132.436 467.315 132.724 467.651 133.108C467.987 133.492 468.161 134.002 468.173 134.638C468.173 135.202 468.017 135.706 467.705 136.15C467.393 136.594 466.949 136.942 466.373 137.194C465.809 137.446 465.143 137.572 464.375 137.572Z" fill="#111111"/>
<path d="M447.893 132.406C447.893 131.41 448.097 130.528 448.505 129.76C448.925 128.992 449.489 128.398 450.197 127.978C450.917 127.546 451.709 127.33 452.573 127.33C453.353 127.33 454.031 127.486 454.607 127.798C455.195 128.098 455.663 128.476 456.011 128.932V127.492H458.081V137.41H456.011V135.934C455.663 136.402 455.189 136.792 454.589 137.104C453.989 137.416 453.305 137.572 452.537 137.572C451.685 137.572 450.905 137.356 450.197 136.924C449.489 136.48 448.925 135.868 448.505 135.088C448.097 134.296 447.893 133.402 447.893 132.406ZM456.011 132.442C456.011 131.758 455.867 131.164 455.579 130.66C455.303 130.156 454.937 129.772 454.481 129.508C454.025 129.244 453.533 129.112 453.005 129.112C452.477 129.112 451.985 129.244 451.529 129.508C451.073 129.76 450.701 130.138 450.413 130.642C450.137 131.134 449.999 131.722 449.999 132.406C449.999 133.09 450.137 133.69 450.413 134.206C450.701 134.722 451.073 135.118 451.529 135.394C451.997 135.658 452.489 135.79 453.005 135.79C453.533 135.79 454.025 135.658 454.481 135.394C454.937 135.13 455.303 134.746 455.579 134.242C455.867 133.726 456.011 133.126 456.011 132.442Z" fill="#111111"/>
<path d="M438.429 128.968C438.777 128.488 439.251 128.098 439.851 127.798C440.463 127.486 441.141 127.33 441.885 127.33C442.761 127.33 443.553 127.54 444.261 127.96C444.969 128.38 445.527 128.98 445.935 129.76C446.343 130.528 446.547 131.41 446.547 132.406C446.547 133.402 446.343 134.296 445.935 135.088C445.527 135.868 444.963 136.48 444.243 136.924C443.535 137.356 442.749 137.572 441.885 137.572C441.117 137.572 440.433 137.422 439.833 137.122C439.245 136.822 438.777 136.438 438.429 135.97V137.41H436.377V124.09H438.429V128.968ZM444.459 132.406C444.459 131.722 444.315 131.134 444.027 130.642C443.751 130.138 443.379 129.76 442.911 129.508C442.455 129.244 441.963 129.112 441.435 129.112C440.919 129.112 440.427 129.244 439.959 129.508C439.503 129.772 439.131 130.156 438.843 130.66C438.567 131.164 438.429 131.758 438.429 132.442C438.429 133.126 438.567 133.726 438.843 134.242C439.131 134.746 439.503 135.13 439.959 135.394C440.427 135.658 440.919 135.79 441.435 135.79C441.963 135.79 442.455 135.658 442.911 135.394C443.379 135.118 443.751 134.722 444.027 134.206C444.315 133.69 444.459 133.09 444.459 132.406Z" fill="#111111"/>
<path d="M423.494 132.406C423.494 131.41 423.698 130.528 424.106 129.76C424.526 128.992 425.09 128.398 425.798 127.978C426.518 127.546 427.31 127.33 428.174 127.33C428.954 127.33 429.632 127.486 430.208 127.798C430.796 128.098 431.264 128.476 431.612 128.932V127.492H433.682V137.41H431.612V135.934C431.264 136.402 430.79 136.792 430.19 137.104C429.59 137.416 428.906 137.572 428.138 137.572C427.286 137.572 426.506 137.356 425.798 136.924C425.09 136.48 424.526 135.868 424.106 135.088C423.698 134.296 423.494 133.402 423.494 132.406ZM431.612 132.442C431.612 131.758 431.468 131.164 431.18 130.66C430.904 130.156 430.538 129.772 430.082 129.508C429.626 129.244 429.134 129.112 428.606 129.112C428.078 129.112 427.586 129.244 427.13 129.508C426.674 129.76 426.302 130.138 426.014 130.642C425.738 131.134 425.6 131.722 425.6 132.406C425.6 133.09 425.738 133.69 426.014 134.206C426.302 134.722 426.674 135.118 427.13 135.394C427.598 135.658 428.09 135.79 428.606 135.79C429.134 135.79 429.626 135.658 430.082 135.394C430.538 135.13 430.904 134.746 431.18 134.242C431.468 133.726 431.612 133.126 431.612 132.442Z" fill="#111111"/>
<path d="M419.875 129.166V134.656C419.875 135.028 419.959 135.298 420.127 135.466C420.307 135.622 420.607 135.7 421.027 135.7H422.287V137.41H420.667C419.743 137.41 419.035 137.194 418.543 136.762C418.051 136.33 417.805 135.628 417.805 134.656V129.166H416.635V127.492H417.805V125.026H419.875V127.492H422.287V129.166H419.875Z" fill="#111111"/>
<path d="M404.598 132.406C404.598 131.41 404.802 130.528 405.21 129.76C405.63 128.992 406.194 128.398 406.902 127.978C407.622 127.546 408.414 127.33 409.278 127.33C410.058 127.33 410.736 127.486 411.312 127.798C411.9 128.098 412.368 128.476 412.716 128.932V127.492H414.786V137.41H412.716V135.934C412.368 136.402 411.894 136.792 411.294 137.104C410.694 137.416 410.01 137.572 409.242 137.572C408.39 137.572 407.61 137.356 406.902 136.924C406.194 136.48 405.63 135.868 405.21 135.088C404.802 134.296 404.598 133.402 404.598 132.406ZM412.716 132.442C412.716 131.758 412.572 131.164 412.284 130.66C412.008 130.156 411.642 129.772 411.186 129.508C410.73 129.244 410.238 129.112 409.71 129.112C409.182 129.112 408.69 129.244 408.234 129.508C407.778 129.76 407.406 130.138 407.118 130.642C406.842 131.134 406.704 131.722 406.704 132.406C406.704 133.09 406.842 133.69 407.118 134.206C407.406 134.722 407.778 135.118 408.234 135.394C408.702 135.658 409.194 135.79 409.71 135.79C410.238 135.79 410.73 135.658 411.186 135.394C411.642 135.13 412.008 134.746 412.284 134.242C412.572 133.726 412.716 133.126 412.716 132.442Z" fill="#111111"/>
<path d="M396.606 124.9C397.938 124.9 399.102 125.158 400.098 125.674C401.106 126.178 401.88 126.91 402.42 127.87C402.972 128.818 403.248 129.928 403.248 131.2C403.248 132.472 402.972 133.576 402.42 134.512C401.88 135.448 401.106 136.168 400.098 136.672C399.102 137.164 397.938 137.41 396.606 137.41H392.52V124.9H396.606ZM396.606 135.736C398.07 135.736 399.192 135.34 399.972 134.548C400.752 133.756 401.142 132.64 401.142 131.2C401.142 129.748 400.752 128.614 399.972 127.798C399.192 126.982 398.07 126.574 396.606 126.574H394.572V135.736H396.606Z" fill="#111111"/>
<path d="M580.811 137.612C581.193 137.213 581.827 137.2 582.226 137.581L588.724 143.809C589.123 144.191 589.136 144.824 588.754 145.223L582.528 151.721C582.146 152.119 581.513 152.133 581.114 151.751C580.715 151.369 580.701 150.736 581.083 150.337L585.639 145.581L571.34 145.887L571.297 143.888L585.596 143.583L580.842 139.026C580.443 138.644 580.429 138.011 580.811 137.612Z" fill="#813BF5"/>
<rect x="609.299" y="106.367" width="230" height="76.482" rx="20" fill="white"/>
<path d="M751.901 162.849C751.121 162.849 750.419 162.711 749.795 162.435C749.183 162.147 748.697 161.763 748.337 161.283C747.977 160.791 747.785 160.245 747.761 159.645H749.885C749.921 160.065 750.119 160.419 750.479 160.707C750.851 160.983 751.313 161.121 751.865 161.121C752.441 161.121 752.885 161.013 753.197 160.797C753.521 160.569 753.683 160.281 753.683 159.933C753.683 159.561 753.503 159.285 753.143 159.105C752.795 158.925 752.237 158.727 751.469 158.511C750.725 158.307 750.119 158.109 749.651 157.917C749.183 157.725 748.775 157.431 748.427 157.035C748.091 156.639 747.923 156.117 747.923 155.469C747.923 154.941 748.079 154.461 748.391 154.029C748.703 153.585 749.147 153.237 749.723 152.985C750.311 152.733 750.983 152.607 751.739 152.607C752.867 152.607 753.773 152.895 754.457 153.471C755.153 154.035 755.525 154.809 755.573 155.793H753.521C753.485 155.349 753.305 154.995 752.981 154.731C752.657 154.467 752.219 154.335 751.667 154.335C751.127 154.335 750.713 154.437 750.425 154.641C750.137 154.845 749.993 155.115 749.993 155.451C749.993 155.715 750.089 155.937 750.281 156.117C750.473 156.297 750.707 156.441 750.983 156.549C751.259 156.645 751.667 156.771 752.207 156.927C752.927 157.119 753.515 157.317 753.971 157.521C754.439 157.713 754.841 158.001 755.177 158.385C755.513 158.769 755.687 159.279 755.699 159.915C755.699 160.479 755.543 160.983 755.231 161.427C754.919 161.871 754.475 162.219 753.899 162.471C753.335 162.723 752.669 162.849 751.901 162.849Z" fill="#111111"/>
<path d="M743.998 154.443V159.933C743.998 160.305 744.082 160.575 744.25 160.743C744.43 160.899 744.73 160.977 745.15 160.977H746.41V162.687H744.79C743.866 162.687 743.158 162.471 742.666 162.039C742.174 161.607 741.928 160.905 741.928 159.933V154.443H740.758V152.769H741.928V150.303H743.998V152.769H746.41V154.443H743.998Z" fill="#111111"/>
<path d="M737.902 151.455C737.53 151.455 737.218 151.329 736.966 151.077C736.714 150.825 736.588 150.513 736.588 150.141C736.588 149.769 736.714 149.457 736.966 149.205C737.218 148.953 737.53 148.827 737.902 148.827C738.262 148.827 738.568 148.953 738.82 149.205C739.072 149.457 739.198 149.769 739.198 150.141C739.198 150.513 739.072 150.825 738.82 151.077C738.568 151.329 738.262 151.455 737.902 151.455ZM738.91 152.769V162.687H736.858V152.769H738.91Z" fill="#111111"/>
<path d="M723.975 157.683C723.975 156.687 724.179 155.805 724.587 155.037C725.007 154.269 725.571 153.675 726.279 153.255C726.999 152.823 727.797 152.607 728.673 152.607C729.321 152.607 729.957 152.751 730.581 153.039C731.217 153.315 731.721 153.687 732.093 154.155V149.367H734.163V162.687H732.093V161.193C731.757 161.673 731.289 162.069 730.689 162.381C730.101 162.693 729.423 162.849 728.655 162.849C727.791 162.849 726.999 162.633 726.279 162.201C725.571 161.757 725.007 161.145 724.587 160.365C724.179 159.573 723.975 158.679 723.975 157.683ZM732.093 157.719C732.093 157.035 731.949 156.441 731.661 155.937C731.385 155.433 731.019 155.049 730.563 154.785C730.107 154.521 729.615 154.389 729.087 154.389C728.559 154.389 728.067 154.521 727.611 154.785C727.155 155.037 726.783 155.415 726.495 155.919C726.219 156.411 726.081 156.999 726.081 157.683C726.081 158.367 726.219 158.967 726.495 159.483C726.783 159.999 727.155 160.395 727.611 160.671C728.079 160.935 728.571 161.067 729.087 161.067C729.615 161.067 730.107 160.935 730.563 160.671C731.019 160.407 731.385 160.023 731.661 159.519C731.949 159.003 732.093 158.403 732.093 157.719Z" fill="#111111"/>
<path d="M722.639 157.485C722.639 157.857 722.615 158.193 722.567 158.493H714.989C715.049 159.285 715.343 159.921 715.871 160.401C716.399 160.881 717.047 161.121 717.815 161.121C718.919 161.121 719.699 160.659 720.155 159.735H722.369C722.069 160.647 721.523 161.397 720.731 161.985C719.951 162.561 718.979 162.849 717.815 162.849C716.867 162.849 716.015 162.639 715.259 162.219C714.515 161.787 713.927 161.187 713.495 160.419C713.075 159.639 712.865 158.739 712.865 157.719C712.865 156.699 713.069 155.805 713.477 155.037C713.897 154.257 714.479 153.657 715.223 153.237C715.979 152.817 716.843 152.607 717.815 152.607C718.751 152.607 719.585 152.811 720.317 153.219C721.049 153.627 721.619 154.203 722.027 154.947C722.435 155.679 722.639 156.525 722.639 157.485ZM720.497 156.837C720.485 156.081 720.215 155.475 719.687 155.019C719.159 154.563 718.505 154.335 717.725 154.335C717.017 154.335 716.411 154.563 715.907 155.019C715.403 155.463 715.103 156.069 715.007 156.837H720.497Z" fill="#111111"/>
<path d="M708.693 154.209C708.993 153.705 709.389 153.315 709.881 153.039C710.385 152.751 710.979 152.607 711.663 152.607V154.731H711.141C710.337 154.731 709.725 154.935 709.305 155.343C708.897 155.751 708.693 156.459 708.693 157.467V162.687H706.641V152.769H708.693V154.209Z" fill="#111111"/>
<path d="M692.035 156.405C692.035 155.181 692.317 154.083 692.881 153.111C693.457 152.139 694.231 151.383 695.203 150.843C696.187 150.291 697.261 150.015 698.425 150.015C699.757 150.015 700.939 150.345 701.971 151.005C703.015 151.653 703.771 152.577 704.239 153.777H701.773C701.449 153.117 700.999 152.625 700.423 152.301C699.847 151.977 699.181 151.815 698.425 151.815C697.597 151.815 696.859 152.001 696.211 152.373C695.563 152.745 695.053 153.279 694.681 153.975C694.321 154.671 694.141 155.481 694.141 156.405C694.141 157.329 694.321 158.139 694.681 158.835C695.053 159.531 695.563 160.071 696.211 160.455C696.859 160.827 697.597 161.013 698.425 161.013C699.181 161.013 699.847 160.851 700.423 160.527C700.999 160.203 701.449 159.711 701.773 159.051H704.239C703.771 160.251 703.015 161.175 701.971 161.823C700.939 162.471 699.757 162.795 698.425 162.795C697.249 162.795 696.175 162.525 695.203 161.985C694.231 161.433 693.457 160.671 692.881 159.699C692.317 158.727 692.035 157.629 692.035 156.405Z" fill="#111111"/>
<path d="M782.704 134.485C782.704 134.857 782.68 135.193 782.632 135.493H775.054C775.114 136.285 775.408 136.921 775.936 137.401C776.464 137.881 777.112 138.121 777.88 138.121C778.984 138.121 779.764 137.659 780.22 136.735H782.434C782.134 137.647 781.588 138.397 780.796 138.985C780.016 139.561 779.044 139.849 777.88 139.849C776.932 139.849 776.08 139.639 775.324 139.219C774.58 138.787 773.992 138.187 773.56 137.419C773.14 136.639 772.93 135.739 772.93 134.719C772.93 133.699 773.134 132.805 773.542 132.037C773.962 131.257 774.544 130.657 775.288 130.237C776.044 129.817 776.908 129.607 777.88 129.607C778.816 129.607 779.65 129.811 780.382 130.219C781.114 130.627 781.684 131.203 782.092 131.947C782.5 132.679 782.704 133.525 782.704 134.485ZM780.562 133.837C780.55 133.081 780.28 132.475 779.752 132.019C779.224 131.563 778.57 131.335 777.79 131.335C777.082 131.335 776.476 131.563 775.972 132.019C775.468 132.463 775.168 133.069 775.072 133.837H780.562Z" fill="#111111"/>
<path d="M762.137 134.719C762.137 133.699 762.341 132.805 762.749 132.037C763.169 131.257 763.745 130.657 764.477 130.237C765.209 129.817 766.049 129.607 766.997 129.607C768.197 129.607 769.187 129.895 769.967 130.471C770.759 131.035 771.293 131.845 771.569 132.901H769.355C769.175 132.409 768.887 132.025 768.491 131.749C768.095 131.473 767.597 131.335 766.997 131.335C766.157 131.335 765.485 131.635 764.981 132.235C764.489 132.823 764.243 133.651 764.243 134.719C764.243 135.787 764.489 136.621 764.981 137.221C765.485 137.821 766.157 138.121 766.997 138.121C768.185 138.121 768.971 137.599 769.355 136.555H771.569C771.281 137.563 770.741 138.367 769.949 138.967C769.157 139.555 768.173 139.849 766.997 139.849C766.049 139.849 765.209 139.639 764.477 139.219C763.745 138.787 763.169 138.187 762.749 137.419C762.341 136.639 762.137 135.739 762.137 134.719Z" fill="#111111"/>
<path d="M756.135 129.607C756.915 129.607 757.611 129.769 758.223 130.093C758.847 130.417 759.333 130.897 759.681 131.533C760.029 132.169 760.203 132.937 760.203 133.837V139.687H758.169V134.143C758.169 133.255 757.947 132.577 757.503 132.109C757.059 131.629 756.453 131.389 755.685 131.389C754.917 131.389 754.305 131.629 753.849 132.109C753.405 132.577 753.183 133.255 753.183 134.143V139.687H751.131V129.769H753.183V130.903C753.519 130.495 753.945 130.177 754.461 129.949C754.989 129.721 755.547 129.607 756.135 129.607Z" fill="#111111"/>
<path d="M738.248 134.683C738.248 133.687 738.452 132.805 738.86 132.037C739.28 131.269 739.844 130.675 740.552 130.255C741.272 129.823 742.064 129.607 742.928 129.607C743.708 129.607 744.386 129.763 744.962 130.075C745.55 130.375 746.018 130.753 746.366 131.209V129.769H748.436V139.687H746.366V138.211C746.018 138.679 745.544 139.069 744.944 139.381C744.344 139.693 743.66 139.849 742.892 139.849C742.04 139.849 741.26 139.633 740.552 139.201C739.844 138.757 739.28 138.145 738.86 137.365C738.452 136.573 738.248 135.679 738.248 134.683ZM746.366 134.719C746.366 134.035 746.222 133.441 745.934 132.937C745.658 132.433 745.292 132.049 744.836 131.785C744.38 131.521 743.888 131.389 743.36 131.389C742.832 131.389 742.34 131.521 741.884 131.785C741.428 132.037 741.056 132.415 740.768 132.919C740.492 133.411 740.354 133.999 740.354 134.683C740.354 135.367 740.492 135.967 740.768 136.483C741.056 136.999 741.428 137.395 741.884 137.671C742.352 137.935 742.844 138.067 743.36 138.067C743.888 138.067 744.38 137.935 744.836 137.671C745.292 137.407 745.658 137.023 745.934 136.519C746.222 136.003 746.366 135.403 746.366 134.719Z" fill="#111111"/>
<path d="M736.238 126.367V139.687H734.186V126.367H736.238Z" fill="#111111"/>
<path d="M721.303 134.683C721.303 133.687 721.507 132.805 721.915 132.037C722.335 131.269 722.899 130.675 723.607 130.255C724.327 129.823 725.119 129.607 725.983 129.607C726.763 129.607 727.441 129.763 728.017 130.075C728.605 130.375 729.073 130.753 729.421 131.209V129.769H731.491V139.687H729.421V138.211C729.073 138.679 728.599 139.069 727.999 139.381C727.399 139.693 726.715 139.849 725.947 139.849C725.095 139.849 724.315 139.633 723.607 139.201C722.899 138.757 722.335 138.145 721.915 137.365C721.507 136.573 721.303 135.679 721.303 134.683ZM729.421 134.719C729.421 134.035 729.277 133.441 728.989 132.937C728.713 132.433 728.347 132.049 727.891 131.785C727.435 131.521 726.943 131.389 726.415 131.389C725.887 131.389 725.395 131.521 724.939 131.785C724.483 132.037 724.111 132.415 723.823 132.919C723.547 133.411 723.409 133.999 723.409 134.683C723.409 135.367 723.547 135.967 723.823 136.483C724.111 136.999 724.483 137.395 724.939 137.671C725.407 137.935 725.899 138.067 726.415 138.067C726.943 138.067 727.435 137.935 727.891 137.671C728.347 137.407 728.713 137.023 728.989 136.519C729.277 136.003 729.421 135.403 729.421 134.719Z" fill="#111111"/>
<path d="M717.344 133.261C718.016 133.381 718.586 133.735 719.054 134.323C719.522 134.911 719.756 135.577 719.756 136.321C719.756 136.957 719.588 137.533 719.252 138.049C718.928 138.553 718.454 138.955 717.83 139.255C717.206 139.543 716.48 139.687 715.652 139.687H710.648V127.177H715.418C716.27 127.177 717.002 127.321 717.614 127.609C718.226 127.897 718.688 128.287 719 128.779C719.312 129.259 719.468 129.799 719.468 130.399C719.468 131.119 719.276 131.719 718.892 132.199C718.508 132.679 717.992 133.033 717.344 133.261ZM712.7 132.433H715.238C715.91 132.433 716.432 132.283 716.804 131.983C717.188 131.671 717.38 131.227 717.38 130.651C717.38 130.087 717.188 129.649 716.804 129.337C716.432 129.013 715.91 128.851 715.238 128.851H712.7V132.433ZM715.472 138.013C716.168 138.013 716.714 137.845 717.11 137.509C717.506 137.173 717.704 136.705 717.704 136.105C717.704 135.493 717.494 135.007 717.074 134.647C716.654 134.287 716.096 134.107 715.4 134.107H712.7V138.013H715.472Z" fill="#111111"/>
<path d="M701.116 131.209C701.416 130.705 701.812 130.315 702.304 130.039C702.808 129.751 703.402 129.607 704.086 129.607V131.731H703.564C702.76 131.731 702.148 131.935 701.728 132.343C701.32 132.751 701.116 133.459 701.116 134.467V139.687H699.064V129.769H701.116V131.209Z" fill="#111111"/>
<path d="M697.045 134.485C697.045 134.857 697.021 135.193 696.973 135.493H689.395C689.455 136.285 689.749 136.921 690.277 137.401C690.805 137.881 691.453 138.121 692.221 138.121C693.325 138.121 694.105 137.659 694.561 136.735H696.775C696.475 137.647 695.929 138.397 695.137 138.985C694.357 139.561 693.385 139.849 692.221 139.849C691.273 139.849 690.421 139.639 689.665 139.219C688.921 138.787 688.333 138.187 687.901 137.419C687.481 136.639 687.271 135.739 687.271 134.719C687.271 133.699 687.475 132.805 687.883 132.037C688.303 131.257 688.885 130.657 689.629 130.237C690.385 129.817 691.249 129.607 692.221 129.607C693.157 129.607 693.991 129.811 694.723 130.219C695.455 130.627 696.025 131.203 696.433 131.947C696.841 132.679 697.045 133.525 697.045 134.485ZM694.903 133.837C694.891 133.081 694.621 132.475 694.093 132.019C693.565 131.563 692.911 131.335 692.131 131.335C691.423 131.335 690.817 131.563 690.313 132.019C689.809 132.463 689.509 133.069 689.413 133.837H694.903Z" fill="#111111"/>
<path d="M681.94 139.849C681.16 139.849 680.458 139.711 679.834 139.435C679.222 139.147 678.736 138.763 678.376 138.283C678.016 137.791 677.824 137.245 677.8 136.645H679.924C679.96 137.065 680.158 137.419 680.518 137.707C680.89 137.983 681.352 138.121 681.904 138.121C682.48 138.121 682.924 138.013 683.236 137.797C683.56 137.569 683.722 137.281 683.722 136.933C683.722 136.561 683.542 136.285 683.182 136.105C682.834 135.925 682.276 135.727 681.508 135.511C680.764 135.307 680.158 135.109 679.69 134.917C679.222 134.725 678.814 134.431 678.466 134.035C678.13 133.639 677.962 133.117 677.962 132.469C677.962 131.941 678.118 131.461 678.43 131.029C678.742 130.585 679.186 130.237 679.762 129.985C680.35 129.733 681.022 129.607 681.778 129.607C682.906 129.607 683.812 129.895 684.496 130.471C685.192 131.035 685.564 131.809 685.612 132.793H683.56C683.524 132.349 683.344 131.995 683.02 131.731C682.696 131.467 682.258 131.335 681.706 131.335C681.166 131.335 680.752 131.437 680.464 131.641C680.176 131.845 680.032 132.115 680.032 132.451C680.032 132.715 680.128 132.937 680.32 133.117C680.512 133.297 680.746 133.441 681.022 133.549C681.298 133.645 681.706 133.771 682.246 133.927C682.966 134.119 683.554 134.317 684.01 134.521C684.478 134.713 684.88 135.001 685.216 135.385C685.552 135.769 685.726 136.279 685.738 136.915C685.738 137.479 685.582 137.983 685.27 138.427C684.958 138.871 684.514 139.219 683.938 139.471C683.374 139.723 682.708 139.849 681.94 139.849Z" fill="#111111"/>
<path d="M667.947 127.177V135.151C667.947 136.099 668.193 136.813 668.685 137.293C669.189 137.773 669.885 138.013 670.773 138.013C671.673 138.013 672.369 137.773 672.861 137.293C673.365 136.813 673.617 136.099 673.617 135.151V127.177H675.669V135.115C675.669 136.135 675.447 136.999 675.003 137.707C674.559 138.415 673.965 138.943 673.221 139.291C672.477 139.639 671.655 139.813 670.755 139.813C669.855 139.813 669.033 139.639 668.289 139.291C667.557 138.943 666.975 138.415 666.543 137.707C666.111 136.999 665.895 136.135 665.895 135.115V127.177H667.947Z" fill="#111111"/>
<rect x="32.7012" y="206.143" width="230" height="79.6679" rx="20" fill="white"/>
<path d="M205.466 265.811V265.613C206.702 264.341 207.644 262.859 208.292 261.167C208.94 259.475 209.264 257.723 209.264 255.911C209.264 254.027 208.916 252.197 208.22 250.421C207.524 248.645 206.486 247.121 205.106 245.849V245.651H207.23C208.55 246.827 209.546 248.321 210.218 250.133C210.902 251.945 211.244 253.871 211.244 255.911C211.244 257.903 210.926 259.769 210.29 261.509C209.666 263.249 208.766 264.683 207.59 265.811H205.466Z" fill="#111111"/>
<path d="M199.954 262.625C199.174 262.625 198.472 262.487 197.848 262.211C197.236 261.923 196.75 261.539 196.39 261.059C196.03 260.567 195.838 260.021 195.814 259.421H197.938C197.974 259.841 198.172 260.195 198.532 260.483C198.904 260.759 199.366 260.897 199.918 260.897C200.494 260.897 200.938 260.789 201.25 260.573C201.574 260.345 201.736 260.057 201.736 259.709C201.736 259.337 201.556 259.061 201.196 258.881C200.848 258.701 200.29 258.503 199.522 258.287C198.778 258.083 198.172 257.885 197.704 257.693C197.236 257.501 196.828 257.207 196.48 256.811C196.144 256.415 195.976 255.893 195.976 255.245C195.976 254.717 196.132 254.237 196.444 253.805C196.756 253.361 197.2 253.013 197.776 252.761C198.364 252.509 199.036 252.383 199.792 252.383C200.92 252.383 201.826 252.671 202.51 253.247C203.206 253.811 203.578 254.585 203.626 255.569H201.574C201.538 255.125 201.358 254.771 201.034 254.507C200.71 254.243 200.272 254.111 199.72 254.111C199.18 254.111 198.766 254.213 198.478 254.417C198.19 254.621 198.046 254.891 198.046 255.227C198.046 255.491 198.142 255.713 198.334 255.893C198.526 256.073 198.76 256.217 199.036 256.325C199.312 256.421 199.72 256.547 200.26 256.703C200.98 256.895 201.568 257.093 202.024 257.297C202.492 257.489 202.894 257.777 203.23 258.161C203.566 258.545 203.74 259.055 203.752 259.691C203.752 260.255 203.596 260.759 203.284 261.203C202.972 261.647 202.528 261.995 201.952 262.247C201.388 262.499 200.722 262.625 199.954 262.625Z" fill="#111111"/>
<path d="M193.66 249.143V262.463H191.608V249.143H193.66Z" fill="#111111"/>
<path d="M178.726 257.459C178.726 256.463 178.93 255.581 179.338 254.813C179.758 254.045 180.322 253.451 181.03 253.031C181.75 252.599 182.542 252.383 183.406 252.383C184.186 252.383 184.864 252.539 185.44 252.851C186.028 253.151 186.496 253.529 186.844 253.985V252.545H188.914V262.463H186.844V260.987C186.496 261.455 186.022 261.845 185.422 262.157C184.822 262.469 184.138 262.625 183.37 262.625C182.518 262.625 181.738 262.409 181.03 261.977C180.322 261.533 179.758 260.921 179.338 260.141C178.93 259.349 178.726 258.455 178.726 257.459ZM186.844 257.495C186.844 256.811 186.7 256.217 186.412 255.713C186.136 255.209 185.77 254.825 185.314 254.561C184.858 254.297 184.366 254.165 183.838 254.165C183.31 254.165 182.818 254.297 182.362 254.561C181.906 254.813 181.534 255.191 181.246 255.695C180.97 256.187 180.832 256.775 180.832 257.459C180.832 258.143 180.97 258.743 181.246 259.259C181.534 259.775 181.906 260.171 182.362 260.447C182.83 260.711 183.322 260.843 183.838 260.843C184.366 260.843 184.858 260.711 185.314 260.447C185.77 260.183 186.136 259.799 186.412 259.295C186.7 258.779 186.844 258.179 186.844 257.495Z" fill="#111111"/>
<path d="M177.876 252.545L174.798 262.463H172.638L170.64 255.137L168.642 262.463H166.482L163.386 252.545H165.474L167.544 260.519L169.65 252.545H171.792L173.808 260.483L175.86 252.545H177.876Z" fill="#111111"/>
<path d="M151.673 257.459C151.673 256.463 151.877 255.581 152.285 254.813C152.705 254.045 153.269 253.451 153.977 253.031C154.697 252.599 155.489 252.383 156.353 252.383C157.133 252.383 157.811 252.539 158.387 252.851C158.975 253.151 159.443 253.529 159.791 253.985V252.545H161.861V262.463H159.791V260.987C159.443 261.455 158.969 261.845 158.369 262.157C157.769 262.469 157.085 262.625 156.317 262.625C155.465 262.625 154.685 262.409 153.977 261.977C153.269 261.533 152.705 260.921 152.285 260.141C151.877 259.349 151.673 258.455 151.673 257.459ZM159.791 257.495C159.791 256.811 159.647 256.217 159.359 255.713C159.083 255.209 158.717 254.825 158.261 254.561C157.805 254.297 157.313 254.165 156.785 254.165C156.257 254.165 155.765 254.297 155.309 254.561C154.853 254.813 154.481 255.191 154.193 255.695C153.917 256.187 153.779 256.775 153.779 257.459C153.779 258.143 153.917 258.743 154.193 259.259C154.481 259.775 154.853 260.171 155.309 260.447C155.777 260.711 156.269 260.843 156.785 260.843C157.313 260.843 157.805 260.711 158.261 260.447C158.717 260.183 159.083 259.799 159.359 259.295C159.647 258.779 159.791 258.179 159.791 257.495Z" fill="#111111"/>
<path d="M147.5 253.985C147.8 253.481 148.196 253.091 148.688 252.815C149.192 252.527 149.786 252.383 150.47 252.383V254.507H149.948C149.144 254.507 148.532 254.711 148.112 255.119C147.704 255.527 147.5 256.235 147.5 257.243V262.463H145.448V252.545H147.5V253.985Z" fill="#111111"/>
<path d="M132.565 257.459C132.565 256.463 132.769 255.581 133.177 254.813C133.597 254.045 134.161 253.451 134.869 253.031C135.589 252.599 136.387 252.383 137.263 252.383C137.911 252.383 138.547 252.527 139.171 252.815C139.807 253.091 140.311 253.463 140.683 253.931V249.143H142.753V262.463H140.683V260.969C140.347 261.449 139.879 261.845 139.279 262.157C138.691 262.469 138.013 262.625 137.245 262.625C136.381 262.625 135.589 262.409 134.869 261.977C134.161 261.533 133.597 260.921 133.177 260.141C132.769 259.349 132.565 258.455 132.565 257.459ZM140.683 257.495C140.683 256.811 140.539 256.217 140.251 255.713C139.975 255.209 139.609 254.825 139.153 254.561C138.697 254.297 138.205 254.165 137.677 254.165C137.149 254.165 136.657 254.297 136.201 254.561C135.745 254.813 135.373 255.191 135.085 255.695C134.809 256.187 134.671 256.775 134.671 257.459C134.671 258.143 134.809 258.743 135.085 259.259C135.373 259.775 135.745 260.171 136.201 260.447C136.669 260.711 137.161 260.843 137.677 260.843C138.205 260.843 138.697 260.711 139.153 260.447C139.609 260.183 139.975 259.799 140.251 259.295C140.539 258.779 140.683 258.179 140.683 257.495Z" fill="#111111"/>
<path d="M126.69 252.383C127.446 252.383 128.118 252.545 128.706 252.869C129.306 253.193 129.774 253.673 130.11 254.309C130.458 254.945 130.632 255.713 130.632 256.613V262.463H128.598V256.919C128.598 256.031 128.376 255.353 127.932 254.885C127.488 254.405 126.882 254.165 126.114 254.165C125.346 254.165 124.734 254.405 124.278 254.885C123.834 255.353 123.612 256.031 123.612 256.919V262.463H121.56V249.143H123.612V253.697C123.96 253.277 124.398 252.953 124.926 252.725C125.466 252.497 126.054 252.383 126.69 252.383Z" fill="#111111"/>
<path d="M117.257 254.219V259.709C117.257 260.081 117.341 260.351 117.509 260.519C117.689 260.675 117.989 260.753 118.409 260.753H119.669V262.463H118.049C117.125 262.463 116.417 262.247 115.925 261.815C115.433 261.383 115.187 260.681 115.187 259.709V254.219H114.017V252.545H115.187V250.079H117.257V252.545H119.669V254.219H117.257Z" fill="#111111"/>
<path d="M111.161 251.231C110.789 251.231 110.477 251.105 110.225 250.853C109.973 250.601 109.847 250.289 109.847 249.917C109.847 249.545 109.973 249.233 110.225 248.981C110.477 248.729 110.789 248.603 111.161 248.603C111.521 248.603 111.827 248.729 112.079 248.981C112.331 249.233 112.457 249.545 112.457 249.917C112.457 250.289 112.331 250.601 112.079 250.853C111.827 251.105 111.521 251.231 111.161 251.231ZM112.169 252.545V262.463H110.117V252.545H112.169Z" fill="#111111"/>
<path d="M108.424 249.953L104.716 262.463H102.394L99.766 252.995L96.976 262.463L94.672 262.481L91.126 249.953H93.304L95.896 260.141L98.704 249.953H101.008L103.618 260.087L106.228 249.953H108.424Z" fill="#111111"/>
<path d="M87.8112 265.811C86.6352 264.683 85.7292 263.249 85.0932 261.509C84.4692 259.769 84.1572 257.903 84.1572 255.911C84.1572 253.871 84.4932 251.945 85.1652 250.133C85.8492 248.321 86.8512 246.827 88.1712 245.651H90.2952V245.849C88.9152 247.121 87.8772 248.645 87.1812 250.421C86.4852 252.197 86.1372 254.027 86.1372 255.911C86.1372 257.723 86.4612 259.475 87.1092 261.167C87.7572 262.859 88.6992 264.341 89.9352 265.613V265.811H87.8112Z" fill="#111111"/>
<path d="M197 231.219V236.709C197 237.081 197.084 237.351 197.252 237.519C197.432 237.675 197.732 237.753 198.152 237.753H199.412V239.463H197.792C196.868 239.463 196.16 239.247 195.668 238.815C195.176 238.383 194.93 237.681 194.93 236.709V231.219H193.76V229.545H194.93V227.079H197V229.545H199.412V231.219H197Z" fill="#111111"/>
<path d="M192.587 234.261C192.587 234.633 192.562 234.969 192.514 235.269H184.936C184.996 236.061 185.29 236.697 185.818 237.177C186.346 237.657 186.994 237.897 187.762 237.897C188.866 237.897 189.646 237.435 190.102 236.511H192.316C192.016 237.423 191.47 238.173 190.678 238.761C189.898 239.337 188.926 239.625 187.762 239.625C186.814 239.625 185.962 239.415 185.206 238.995C184.462 238.563 183.875 237.963 183.443 237.195C183.023 236.415 182.812 235.515 182.812 234.495C182.812 233.475 183.016 232.581 183.424 231.813C183.844 231.033 184.427 230.433 185.171 230.013C185.927 229.593 186.79 229.383 187.762 229.383C188.698 229.383 189.532 229.587 190.264 229.995C190.996 230.403 191.567 230.979 191.975 231.723C192.383 232.455 192.587 233.301 192.587 234.261ZM190.445 233.613C190.433 232.857 190.163 232.251 189.635 231.795C189.107 231.339 188.453 231.111 187.673 231.111C186.965 231.111 186.359 231.339 185.855 231.795C185.351 232.239 185.05 232.845 184.954 233.613H190.445Z" fill="#111111"/>
<path d="M180.802 226.143V239.463H178.75V226.143H180.802Z" fill="#111111"/>
<path d="M176.056 226.143V239.463H174.004V226.143H176.056Z" fill="#111111"/>
<path d="M161.121 234.459C161.121 233.463 161.325 232.581 161.733 231.813C162.153 231.045 162.717 230.451 163.425 230.031C164.145 229.599 164.937 229.383 165.801 229.383C166.581 229.383 167.259 229.539 167.835 229.851C168.423 230.151 168.891 230.529 169.239 230.985V229.545H171.309V239.463H169.239V237.987C168.891 238.455 168.417 238.845 167.817 239.157C167.217 239.469 166.533 239.625 165.765 239.625C164.913 239.625 164.133 239.409 163.425 238.977C162.717 238.533 162.153 237.921 161.733 237.141C161.325 236.349 161.121 235.455 161.121 234.459ZM169.239 234.495C169.239 233.811 169.095 233.217 168.807 232.713C168.531 232.209 168.165 231.825 167.709 231.561C167.253 231.297 166.761 231.165 166.233 231.165C165.705 231.165 165.213 231.297 164.757 231.561C164.301 231.813 163.929 232.191 163.641 232.695C163.365 233.187 163.227 233.775 163.227 234.459C163.227 235.143 163.365 235.743 163.641 236.259C163.929 236.775 164.301 237.171 164.757 237.447C165.225 237.711 165.717 237.843 166.233 237.843C166.761 237.843 167.253 237.711 167.709 237.447C168.165 237.183 168.531 236.799 168.807 236.295C169.095 235.779 169.239 235.179 169.239 234.495Z" fill="#111111"/>
<path d="M160.112 226.953L156.404 239.463H154.082L151.454 229.995L148.664 239.463L146.36 239.481L142.814 226.953H144.992L147.584 237.141L150.392 226.953H152.696L155.306 237.087L157.916 226.953H160.112Z" fill="#111111"/>
<path d="M126.264 234.459C126.264 233.463 126.468 232.581 126.876 231.813C127.296 231.045 127.86 230.451 128.568 230.031C129.288 229.599 130.086 229.383 130.962 229.383C131.61 229.383 132.246 229.527 132.87 229.815C133.506 230.091 134.01 230.463 134.382 230.931V226.143H136.452V239.463H134.382V237.969C134.046 238.449 133.578 238.845 132.978 239.157C132.39 239.469 131.712 239.625 130.944 239.625C130.08 239.625 129.288 239.409 128.568 238.977C127.86 238.533 127.296 237.921 126.876 237.141C126.468 236.349 126.264 235.455 126.264 234.459ZM134.382 234.495C134.382 233.811 134.238 233.217 133.95 232.713C133.674 232.209 133.308 231.825 132.852 231.561C132.396 231.297 131.904 231.165 131.376 231.165C130.848 231.165 130.356 231.297 129.9 231.561C129.444 231.813 129.072 232.191 128.784 232.695C128.508 233.187 128.37 233.775 128.37 234.459C128.37 235.143 128.508 235.743 128.784 236.259C129.072 236.775 129.444 237.171 129.9 237.447C130.368 237.711 130.86 237.843 131.376 237.843C131.904 237.843 132.396 237.711 132.852 237.447C133.308 237.183 133.674 236.799 133.95 236.295C134.238 235.779 134.382 235.179 134.382 234.495Z" fill="#111111"/>
<path d="M124.253 226.143V239.463H122.201V226.143H124.253Z" fill="#111111"/>
<path d="M115.025 239.625C114.089 239.625 113.243 239.415 112.487 238.995C111.731 238.563 111.137 237.963 110.705 237.195C110.273 236.415 110.057 235.515 110.057 234.495C110.057 233.487 110.279 232.593 110.723 231.813C111.167 231.033 111.773 230.433 112.541 230.013C113.309 229.593 114.167 229.383 115.115 229.383C116.063 229.383 116.921 229.593 117.689 230.013C118.457 230.433 119.063 231.033 119.507 231.813C119.951 232.593 120.173 233.487 120.173 234.495C120.173 235.503 119.945 236.397 119.489 237.177C119.033 237.957 118.409 238.563 117.617 238.995C116.837 239.415 115.973 239.625 115.025 239.625ZM115.025 237.843C115.553 237.843 116.045 237.717 116.501 237.465C116.969 237.213 117.347 236.835 117.635 236.331C117.923 235.827 118.067 235.215 118.067 234.495C118.067 233.775 117.929 233.169 117.653 232.677C117.377 232.173 117.011 231.795 116.555 231.543C116.099 231.291 115.607 231.165 115.079 231.165C114.551 231.165 114.059 231.291 113.603 231.543C113.159 231.795 112.805 232.173 112.541 232.677C112.277 233.169 112.145 233.775 112.145 234.495C112.145 235.563 112.415 236.391 112.955 236.979C113.507 237.555 114.197 237.843 115.025 237.843Z" fill="#111111"/>
<path d="M96.1172 233.181C96.1172 231.957 96.3992 230.859 96.9632 229.887C97.5392 228.915 98.3132 228.159 99.2852 227.619C100.269 227.067 101.343 226.791 102.507 226.791C103.839 226.791 105.021 227.121 106.053 227.781C107.097 228.429 107.853 229.353 108.321 230.553H105.855C105.531 229.893 105.081 229.401 104.505 229.077C103.929 228.753 103.263 228.591 102.507 228.591C101.679 228.591 100.941 228.777 100.293 229.149C99.6452 229.521 99.1352 230.055 98.7632 230.751C98.4032 231.447 98.2232 232.257 98.2232 233.181C98.2232 234.105 98.4032 234.915 98.7632 235.611C99.1352 236.307 99.6452 236.847 100.293 237.231C100.941 237.603 101.679 237.789 102.507 237.789C103.263 237.789 103.929 237.627 104.505 237.303C105.081 236.979 105.531 236.487 105.855 235.827H108.321C107.853 237.027 107.097 237.951 106.053 238.599C105.021 239.247 103.839 239.571 102.507 239.571C101.331 239.571 100.257 239.301 99.2852 238.761C98.3132 238.209 97.5392 237.447 96.9632 236.475C96.3992 235.503 96.1172 234.405 96.1172 233.181Z" fill="#111111"/>
<path d="M292.511 238.981C292.894 238.582 293.527 238.569 293.926 238.951L300.425 245.178C300.823 245.56 300.836 246.193 300.454 246.592L294.228 253.09C293.846 253.488 293.213 253.502 292.814 253.12C292.415 252.738 292.401 252.105 292.783 251.706L297.34 246.95L283.04 247.256L282.998 245.257L297.296 244.952L292.542 240.395C292.143 240.013 292.13 239.38 292.511 238.981Z" fill="#813BF5"/>
<rect x="321" y="205.216" width="230" height="81.522" rx="20" fill="white"/>
<path d="M472.809 252.158L466.725 266.738H464.601L466.617 261.914L462.711 252.158H464.997L467.787 259.718L470.685 252.158H472.809Z" fill="#111111"/>
<path d="M459.578 253.832V259.322C459.578 259.694 459.662 259.964 459.83 260.132C460.01 260.288 460.31 260.366 460.73 260.366H461.99V262.076H460.37C459.446 262.076 458.738 261.86 458.246 261.428C457.754 260.996 457.508 260.294 457.508 259.322V253.832H456.338V252.158H457.508V249.692H459.578V252.158H461.99V253.832H459.578Z" fill="#111111"/>
<path d="M453.482 250.844C453.11 250.844 452.798 250.718 452.546 250.466C452.294 250.214 452.168 249.902 452.168 249.53C452.168 249.158 452.294 248.846 452.546 248.594C452.798 248.342 453.11 248.216 453.482 248.216C453.842 248.216 454.148 248.342 454.4 248.594C454.652 248.846 454.778 249.158 454.778 249.53C454.778 249.902 454.652 250.214 454.4 250.466C454.148 250.718 453.842 250.844 453.482 250.844ZM454.49 252.158V262.076H452.438V252.158H454.49Z" fill="#111111"/>
<path d="M447.581 253.598C447.881 253.094 448.277 252.704 448.769 252.428C449.273 252.14 449.867 251.996 450.551 251.996V254.12H450.029C449.225 254.12 448.613 254.324 448.193 254.732C447.785 255.14 447.581 255.848 447.581 256.856V262.076H445.529V252.158H447.581V253.598Z" fill="#111111"/>
<path d="M442.822 252.158V262.076H440.77V260.906C440.446 261.314 440.02 261.638 439.492 261.878C438.976 262.106 438.424 262.22 437.836 262.22C437.056 262.22 436.354 262.058 435.73 261.734C435.118 261.41 434.632 260.93 434.272 260.294C433.924 259.658 433.75 258.89 433.75 257.99V252.158H435.784V257.684C435.784 258.572 436.006 259.256 436.45 259.736C436.894 260.204 437.5 260.438 438.268 260.438C439.036 260.438 439.642 260.204 440.086 259.736C440.542 259.256 440.77 258.572 440.77 257.684V252.158H442.822Z" fill="#111111"/>
<path d="M422.363 257.108C422.363 256.088 422.567 255.194 422.975 254.426C423.395 253.646 423.971 253.046 424.703 252.626C425.435 252.206 426.275 251.996 427.223 251.996C428.423 251.996 429.413 252.284 430.193 252.86C430.985 253.424 431.519 254.234 431.795 255.29H429.581C429.401 254.798 429.113 254.414 428.717 254.138C428.321 253.862 427.823 253.724 427.223 253.724C426.383 253.724 425.711 254.024 425.207 254.624C424.715 255.212 424.469 256.04 424.469 257.108C424.469 258.176 424.715 259.01 425.207 259.61C425.711 260.21 426.383 260.51 427.223 260.51C428.411 260.51 429.197 259.988 429.581 258.944H431.795C431.507 259.952 430.967 260.756 430.175 261.356C429.383 261.944 428.399 262.238 427.223 262.238C426.275 262.238 425.435 262.028 424.703 261.608C423.971 261.176 423.395 260.576 422.975 259.808C422.567 259.028 422.363 258.128 422.363 257.108Z" fill="#111111"/>
<path d="M421.028 256.874C421.028 257.246 421.004 257.582 420.956 257.882H413.378C413.438 258.674 413.732 259.31 414.26 259.79C414.788 260.27 415.436 260.51 416.204 260.51C417.308 260.51 418.088 260.048 418.544 259.124H420.758C420.458 260.036 419.912 260.786 419.12 261.374C418.34 261.95 417.368 262.238 416.204 262.238C415.256 262.238 414.404 262.028 413.648 261.608C412.904 261.176 412.316 260.576 411.884 259.808C411.464 259.028 411.254 258.128 411.254 257.108C411.254 256.088 411.458 255.194 411.866 254.426C412.286 253.646 412.868 253.046 413.612 252.626C414.368 252.206 415.232 251.996 416.204 251.996C417.14 251.996 417.974 252.2 418.706 252.608C419.438 253.016 420.008 253.592 420.416 254.336C420.824 255.068 421.028 255.914 421.028 256.874ZM418.886 256.226C418.874 255.47 418.604 254.864 418.076 254.408C417.548 253.952 416.894 253.724 416.114 253.724C415.406 253.724 414.8 253.952 414.296 254.408C413.792 254.852 413.492 255.458 413.396 256.226H418.886Z" fill="#111111"/>
<path d="M405.197 262.202C404.357 262.202 403.601 262.058 402.929 261.77C402.257 261.47 401.729 261.05 401.345 260.51C400.961 259.97 400.769 259.34 400.769 258.62H402.965C403.013 259.16 403.223 259.604 403.595 259.952C403.979 260.3 404.513 260.474 405.197 260.474C405.905 260.474 406.457 260.306 406.853 259.97C407.249 259.622 407.447 259.178 407.447 258.638C407.447 258.218 407.321 257.876 407.069 257.612C406.829 257.348 406.523 257.144 406.151 257C405.791 256.856 405.287 256.7 404.639 256.532C403.823 256.316 403.157 256.1 402.641 255.884C402.137 255.656 401.705 255.308 401.345 254.84C400.985 254.372 400.805 253.748 400.805 252.968C400.805 252.248 400.985 251.618 401.345 251.078C401.705 250.538 402.209 250.124 402.857 249.836C403.505 249.548 404.255 249.404 405.107 249.404C406.319 249.404 407.309 249.71 408.077 250.322C408.857 250.922 409.289 251.75 409.373 252.806H407.105C407.069 252.35 406.853 251.96 406.457 251.636C406.061 251.312 405.539 251.15 404.891 251.15C404.303 251.15 403.823 251.3 403.451 251.6C403.079 251.9 402.893 252.332 402.893 252.896C402.893 253.28 403.007 253.598 403.235 253.85C403.475 254.09 403.775 254.282 404.135 254.426C404.495 254.57 404.987 254.726 405.611 254.894C406.439 255.122 407.111 255.35 407.627 255.578C408.155 255.806 408.599 256.16 408.959 256.64C409.331 257.108 409.517 257.738 409.517 258.53C409.517 259.166 409.343 259.766 408.995 260.33C408.659 260.894 408.161 261.35 407.501 261.698C406.853 262.034 406.085 262.202 405.197 262.202Z" fill="#111111"/>
<path d="M479.114 234.072C479.114 233.076 479.318 232.194 479.726 231.426C480.146 230.658 480.71 230.064 481.418 229.644C482.138 229.212 482.936 228.996 483.812 228.996C484.46 228.996 485.096 229.14 485.72 229.428C486.356 229.704 486.86 230.076 487.232 230.544V225.756H489.302V239.076H487.232V237.582C486.896 238.062 486.428 238.458 485.828 238.77C485.24 239.082 484.562 239.238 483.794 239.238C482.93 239.238 482.138 239.022 481.418 238.59C480.71 238.146 480.146 237.534 479.726 236.754C479.318 235.962 479.114 235.068 479.114 234.072ZM487.232 234.108C487.232 233.424 487.088 232.83 486.8 232.326C486.524 231.822 486.158 231.438 485.702 231.174C485.246 230.91 484.754 230.778 484.226 230.778C483.698 230.778 483.206 230.91 482.75 231.174C482.294 231.426 481.922 231.804 481.634 232.308C481.358 232.8 481.22 233.388 481.22 234.072C481.22 234.756 481.358 235.356 481.634 235.872C481.922 236.388 482.294 236.784 482.75 237.06C483.218 237.324 483.71 237.456 484.226 237.456C484.754 237.456 485.246 237.324 485.702 237.06C486.158 236.796 486.524 236.412 486.8 235.908C487.088 235.392 487.232 234.792 487.232 234.108Z" fill="#111111"/>
<path d="M477.779 233.874C477.779 234.246 477.755 234.582 477.707 234.882H470.129C470.189 235.674 470.483 236.31 471.011 236.79C471.539 237.27 472.187 237.51 472.955 237.51C474.059 237.51 474.839 237.048 475.295 236.124H477.509C477.209 237.036 476.663 237.786 475.871 238.374C475.091 238.95 474.119 239.238 472.955 239.238C472.007 239.238 471.155 239.028 470.399 238.608C469.655 238.176 469.067 237.576 468.635 236.808C468.215 236.028 468.005 235.128 468.005 234.108C468.005 233.088 468.209 232.194 468.617 231.426C469.037 230.646 469.619 230.046 470.363 229.626C471.119 229.206 471.983 228.996 472.955 228.996C473.891 228.996 474.725 229.2 475.457 229.608C476.189 230.016 476.759 230.592 477.167 231.336C477.575 232.068 477.779 232.914 477.779 233.874ZM475.637 233.226C475.625 232.47 475.355 231.864 474.827 231.408C474.299 230.952 473.645 230.724 472.865 230.724C472.157 230.724 471.551 230.952 471.047 231.408C470.543 231.852 470.243 232.458 470.147 233.226H475.637Z" fill="#111111"/>
<path d="M458.541 230.616C458.889 230.16 459.363 229.776 459.963 229.464C460.563 229.152 461.241 228.996 461.997 228.996C462.861 228.996 463.647 229.212 464.355 229.644C465.075 230.064 465.639 230.658 466.047 231.426C466.455 232.194 466.659 233.076 466.659 234.072C466.659 235.068 466.455 235.962 466.047 236.754C465.639 237.534 465.075 238.146 464.355 238.59C463.647 239.022 462.861 239.238 461.997 239.238C461.241 239.238 460.569 239.088 459.981 238.788C459.393 238.476 458.913 238.092 458.541 237.636V243.792H456.489V229.158H458.541V230.616ZM464.571 234.072C464.571 233.388 464.427 232.8 464.139 232.308C463.863 231.804 463.491 231.426 463.023 231.174C462.567 230.91 462.075 230.778 461.547 230.778C461.031 230.778 460.539 230.91 460.071 231.174C459.615 231.438 459.243 231.822 458.955 232.326C458.679 232.83 458.541 233.424 458.541 234.108C458.541 234.792 458.679 235.392 458.955 235.908C459.243 236.412 459.615 236.796 460.071 237.06C460.539 237.324 461.031 237.456 461.547 237.456C462.075 237.456 462.567 237.324 463.023 237.06C463.491 236.784 463.863 236.388 464.139 235.872C464.427 235.356 464.571 234.756 464.571 234.072Z" fill="#111111"/>
<path d="M446.342 230.616C446.69 230.16 447.164 229.776 447.764 229.464C448.364 229.152 449.042 228.996 449.798 228.996C450.662 228.996 451.448 229.212 452.156 229.644C452.876 230.064 453.44 230.658 453.848 231.426C454.256 232.194 454.46 233.076 454.46 234.072C454.46 235.068 454.256 235.962 453.848 236.754C453.44 237.534 452.876 238.146 452.156 238.59C451.448 239.022 450.662 239.238 449.798 239.238C449.042 239.238 448.37 239.088 447.782 238.788C447.194 238.476 446.714 238.092 446.342 237.636V243.792H444.29V229.158H446.342V230.616ZM452.372 234.072C452.372 233.388 452.228 232.8 451.94 232.308C451.664 231.804 451.292 231.426 450.824 231.174C450.368 230.91 449.876 230.778 449.348 230.778C448.832 230.778 448.34 230.91 447.872 231.174C447.416 231.438 447.044 231.822 446.756 232.326C446.48 232.83 446.342 233.424 446.342 234.108C446.342 234.792 446.48 235.392 446.756 235.908C447.044 236.412 447.416 236.796 447.872 237.06C448.34 237.324 448.832 237.456 449.348 237.456C449.876 237.456 450.368 237.324 450.824 237.06C451.292 236.784 451.664 236.388 451.94 235.872C452.228 235.356 452.372 234.756 452.372 234.072Z" fill="#111111"/>
<path d="M431.407 234.072C431.407 233.076 431.611 232.194 432.019 231.426C432.439 230.658 433.003 230.064 433.711 229.644C434.431 229.212 435.223 228.996 436.087 228.996C436.867 228.996 437.545 229.152 438.121 229.464C438.709 229.764 439.177 230.142 439.525 230.598V229.158H441.595V239.076H439.525V237.6C439.177 238.068 438.703 238.458 438.103 238.77C437.503 239.082 436.819 239.238 436.051 239.238C435.199 239.238 434.419 239.022 433.711 238.59C433.003 238.146 432.439 237.534 432.019 236.754C431.611 235.962 431.407 235.068 431.407 234.072ZM439.525 234.108C439.525 233.424 439.381 232.83 439.093 232.326C438.817 231.822 438.451 231.438 437.995 231.174C437.539 230.91 437.047 230.778 436.519 230.778C435.991 230.778 435.499 230.91 435.043 231.174C434.587 231.426 434.215 231.804 433.927 232.308C433.651 232.8 433.513 233.388 433.513 234.072C433.513 234.756 433.651 235.356 433.927 235.872C434.215 236.388 434.587 236.784 435.043 237.06C435.511 237.324 436.003 237.456 436.519 237.456C437.047 237.456 437.539 237.324 437.995 237.06C438.451 236.796 438.817 236.412 439.093 235.908C439.381 235.392 439.525 234.792 439.525 234.108Z" fill="#111111"/>
<path d="M427.223 230.166C426.899 229.542 426.449 229.074 425.873 228.762C425.297 228.438 424.631 228.276 423.875 228.276C423.047 228.276 422.309 228.462 421.661 228.834C421.013 229.206 420.503 229.734 420.131 230.418C419.771 231.102 419.591 231.894 419.591 232.794C419.591 233.694 419.771 234.492 420.131 235.188C420.503 235.872 421.013 236.4 421.661 236.772C422.309 237.144 423.047 237.33 423.875 237.33C424.991 237.33 425.897 237.018 426.593 236.394C427.289 235.77 427.715 234.924 427.871 233.856H423.173V232.218H430.067V233.82C429.935 234.792 429.587 235.686 429.023 236.502C428.471 237.318 427.745 237.972 426.845 238.464C425.957 238.944 424.967 239.184 423.875 239.184C422.699 239.184 421.625 238.914 420.653 238.374C419.681 237.822 418.907 237.06 418.331 236.088C417.767 235.116 417.485 234.018 417.485 232.794C417.485 231.57 417.767 230.472 418.331 229.5C418.907 228.528 419.681 227.772 420.653 227.232C421.637 226.68 422.711 226.404 423.875 226.404C425.207 226.404 426.389 226.734 427.421 227.394C428.465 228.042 429.221 228.966 429.689 230.166H427.223Z" fill="#111111"/>
<path d="M415.254 231.696V233.424H407.856V231.696H415.254Z" fill="#111111"/>
<path d="M402.783 230.598C403.083 230.094 403.479 229.704 403.971 229.428C404.475 229.14 405.069 228.996 405.753 228.996V231.12H405.231C404.427 231.12 403.815 231.324 403.395 231.732C402.987 232.14 402.783 232.848 402.783 233.856V239.076H400.731V229.158H402.783V230.598Z" fill="#111111"/>
<path d="M397.03 227.844C396.658 227.844 396.346 227.718 396.094 227.466C395.842 227.214 395.716 226.902 395.716 226.53C395.716 226.158 395.842 225.846 396.094 225.594C396.346 225.342 396.658 225.216 397.03 225.216C397.39 225.216 397.696 225.342 397.948 225.594C398.2 225.846 398.326 226.158 398.326 226.53C398.326 226.902 398.2 227.214 397.948 227.466C397.696 227.718 397.39 227.844 397.03 227.844ZM398.038 229.158V239.076H395.986V229.158H398.038Z" fill="#111111"/>
<path d="M390.977 236.52H385.739L384.839 239.076H382.697L387.179 226.548H389.555L394.037 239.076H391.877L390.977 236.52ZM390.401 234.846L388.367 229.032L386.315 234.846H390.401Z" fill="#111111"/>
<path d="M580.811 238.981C581.193 238.582 581.827 238.569 582.226 238.951L588.724 245.178C589.123 245.56 589.136 246.193 588.754 246.592L582.528 253.09C582.146 253.488 581.513 253.502 581.114 253.12C580.715 252.738 580.701 252.105 581.083 251.706L585.639 246.95L571.34 247.256L571.297 245.257L585.596 244.952L580.842 240.395C580.443 240.013 580.429 239.38 580.811 238.981Z" fill="#813BF5"/>
<rect x="609.299" y="205.459" width="230" height="81.036" rx="20" fill="white"/>
<path d="M764.647 248.459V261.779H762.595V248.459H764.647Z" fill="#111111"/>
<path d="M749.712 256.775C749.712 255.779 749.916 254.897 750.324 254.129C750.744 253.361 751.308 252.767 752.016 252.347C752.736 251.915 753.528 251.699 754.392 251.699C755.172 251.699 755.85 251.855 756.426 252.167C757.014 252.467 757.482 252.845 757.83 253.301V251.861H759.9V261.779H757.83V260.303C757.482 260.771 757.008 261.161 756.408 261.473C755.808 261.785 755.124 261.941 754.356 261.941C753.504 261.941 752.724 261.725 752.016 261.293C751.308 260.849 750.744 260.237 750.324 259.457C749.916 258.665 749.712 257.771 749.712 256.775ZM757.83 256.811C757.83 256.127 757.686 255.533 757.398 255.029C757.122 254.525 756.756 254.141 756.3 253.877C755.844 253.613 755.352 253.481 754.824 253.481C754.296 253.481 753.804 253.613 753.348 253.877C752.892 254.129 752.52 254.507 752.232 255.011C751.956 255.503 751.818 256.091 751.818 256.775C751.818 257.459 751.956 258.059 752.232 258.575C752.52 259.091 752.892 259.487 753.348 259.763C753.816 260.027 754.308 260.159 754.824 260.159C755.352 260.159 755.844 260.027 756.3 259.763C756.756 259.499 757.122 259.115 757.398 258.611C757.686 258.095 757.83 257.495 757.83 256.811Z" fill="#111111"/>
<path d="M743.858 259.943L746.666 251.861H748.844L745.064 261.779H742.616L738.854 251.861H741.05L743.858 259.943Z" fill="#111111"/>
<path d="M732.848 261.941C731.912 261.941 731.066 261.731 730.31 261.311C729.554 260.879 728.96 260.279 728.528 259.511C728.096 258.731 727.88 257.831 727.88 256.811C727.88 255.803 728.102 254.909 728.546 254.129C728.99 253.349 729.596 252.749 730.364 252.329C731.132 251.909 731.99 251.699 732.938 251.699C733.886 251.699 734.744 251.909 735.512 252.329C736.28 252.749 736.886 253.349 737.33 254.129C737.774 254.909 737.996 255.803 737.996 256.811C737.996 257.819 737.768 258.713 737.312 259.493C736.856 260.273 736.232 260.879 735.44 261.311C734.66 261.731 733.796 261.941 732.848 261.941ZM732.848 260.159C733.376 260.159 733.868 260.033 734.324 259.781C734.792 259.529 735.17 259.151 735.458 258.647C735.746 258.143 735.89 257.531 735.89 256.811C735.89 256.091 735.752 255.485 735.476 254.993C735.2 254.489 734.834 254.111 734.378 253.859C733.922 253.607 733.43 253.481 732.902 253.481C732.374 253.481 731.882 253.607 731.426 253.859C730.982 254.111 730.628 254.489 730.364 254.993C730.1 255.485 729.968 256.091 729.968 256.811C729.968 257.879 730.238 258.707 730.778 259.295C731.33 259.871 732.02 260.159 732.848 260.159Z" fill="#111111"/>
<path d="M723.69 253.301C723.99 252.797 724.386 252.407 724.878 252.131C725.382 251.843 725.976 251.699 726.66 251.699V253.823H726.138C725.334 253.823 724.722 254.027 724.302 254.435C723.894 254.843 723.69 255.551 723.69 256.559V261.779H721.638V251.861H723.69V253.301Z" fill="#111111"/>
<path d="M711.49 253.319C711.838 252.863 712.312 252.479 712.912 252.167C713.512 251.855 714.19 251.699 714.946 251.699C715.81 251.699 716.596 251.915 717.304 252.347C718.024 252.767 718.588 253.361 718.996 254.129C719.404 254.897 719.608 255.779 719.608 256.775C719.608 257.771 719.404 258.665 718.996 259.457C718.588 260.237 718.024 260.849 717.304 261.293C716.596 261.725 715.81 261.941 714.946 261.941C714.19 261.941 713.518 261.791 712.93 261.491C712.342 261.179 711.862 260.795 711.49 260.339V266.495H709.438V251.861H711.49V253.319ZM717.52 256.775C717.52 256.091 717.376 255.503 717.088 255.011C716.812 254.507 716.44 254.129 715.972 253.877C715.516 253.613 715.024 253.481 714.496 253.481C713.98 253.481 713.488 253.613 713.02 253.877C712.564 254.141 712.192 254.525 711.904 255.029C711.628 255.533 711.49 256.127 711.49 256.811C711.49 257.495 711.628 258.095 711.904 258.611C712.192 259.115 712.564 259.499 713.02 259.763C713.488 260.027 713.98 260.159 714.496 260.159C715.024 260.159 715.516 260.027 715.972 259.763C716.44 259.487 716.812 259.091 717.088 258.575C717.376 258.059 717.52 257.459 717.52 256.775Z" fill="#111111"/>
<path d="M699.291 253.319C699.639 252.863 700.113 252.479 700.713 252.167C701.313 251.855 701.991 251.699 702.747 251.699C703.611 251.699 704.397 251.915 705.105 252.347C705.825 252.767 706.389 253.361 706.797 254.129C707.205 254.897 707.409 255.779 707.409 256.775C707.409 257.771 707.205 258.665 706.797 259.457C706.389 260.237 705.825 260.849 705.105 261.293C704.397 261.725 703.611 261.941 702.747 261.941C701.991 261.941 701.319 261.791 700.731 261.491C700.143 261.179 699.663 260.795 699.291 260.339V266.495H697.239V251.861H699.291V253.319ZM705.321 256.775C705.321 256.091 705.177 255.503 704.889 255.011C704.613 254.507 704.241 254.129 703.773 253.877C703.317 253.613 702.825 253.481 702.297 253.481C701.781 253.481 701.289 253.613 700.821 253.877C700.365 254.141 699.993 254.525 699.705 255.029C699.429 255.533 699.291 256.127 699.291 256.811C699.291 257.495 699.429 258.095 699.705 258.611C699.993 259.115 700.365 259.499 700.821 259.763C701.289 260.027 701.781 260.159 702.297 260.159C702.825 260.159 703.317 260.027 703.773 259.763C704.241 259.487 704.613 259.091 704.889 258.575C705.177 258.059 705.321 257.459 705.321 256.775Z" fill="#111111"/>
<path d="M692.231 259.223H686.993L686.093 261.779H683.951L688.433 249.251H690.809L695.291 261.779H693.131L692.231 259.223ZM691.655 257.549L689.621 251.735L687.569 257.549H691.655Z" fill="#111111"/>
<path d="M757.519 225.459V238.779H755.467V225.459H757.519Z" fill="#111111"/>
<path d="M742.584 233.775C742.584 232.779 742.788 231.897 743.196 231.129C743.616 230.361 744.18 229.767 744.888 229.347C745.608 228.915 746.4 228.699 747.264 228.699C748.044 228.699 748.722 228.855 749.298 229.167C749.886 229.467 750.354 229.845 750.702 230.301V228.861H752.772V238.779H750.702V237.303C750.354 237.771 749.88 238.161 749.28 238.473C748.68 238.785 747.996 238.941 747.228 238.941C746.376 238.941 745.596 238.725 744.888 238.293C744.18 237.849 743.616 237.237 743.196 236.457C742.788 235.665 742.584 234.771 742.584 233.775ZM750.702 233.811C750.702 233.127 750.558 232.533 750.27 232.029C749.994 231.525 749.628 231.141 749.172 230.877C748.716 230.613 748.224 230.481 747.696 230.481C747.168 230.481 746.676 230.613 746.22 230.877C745.764 231.129 745.392 231.507 745.104 232.011C744.828 232.503 744.69 233.091 744.69 233.775C744.69 234.459 744.828 235.059 745.104 235.575C745.392 236.091 745.764 236.487 746.22 236.763C746.688 237.027 747.18 237.159 747.696 237.159C748.224 237.159 748.716 237.027 749.172 236.763C749.628 236.499 749.994 236.115 750.27 235.611C750.558 235.095 750.702 234.495 750.702 233.811Z" fill="#111111"/>
<path d="M740.56 228.861V238.779H738.508V237.609C738.184 238.017 737.758 238.341 737.23 238.581C736.714 238.809 736.162 238.923 735.574 238.923C734.794 238.923 734.092 238.761 733.468 238.437C732.856 238.113 732.37 237.633 732.01 236.997C731.662 236.361 731.488 235.593 731.488 234.693V228.861H733.522V234.387C733.522 235.275 733.744 235.959 734.188 236.439C734.632 236.907 735.238 237.141 736.006 237.141C736.774 237.141 737.38 236.907 737.824 236.439C738.28 235.959 738.508 235.275 738.508 234.387V228.861H740.56Z" fill="#111111"/>
<path d="M724.893 228.699C725.673 228.699 726.369 228.861 726.981 229.185C727.605 229.509 728.091 229.989 728.439 230.625C728.787 231.261 728.961 232.029 728.961 232.929V238.779H726.927V233.235C726.927 232.347 726.705 231.669 726.261 231.201C725.817 230.721 725.211 230.481 724.443 230.481C723.675 230.481 723.063 230.721 722.607 231.201C722.163 231.669 721.941 232.347 721.941 233.235V238.779H719.889V228.861H721.941V229.995C722.277 229.587 722.703 229.269 723.219 229.041C723.747 228.813 724.305 228.699 724.893 228.699Z" fill="#111111"/>
<path d="M707.006 233.775C707.006 232.779 707.21 231.897 707.618 231.129C708.038 230.361 708.602 229.767 709.31 229.347C710.03 228.915 710.822 228.699 711.686 228.699C712.466 228.699 713.144 228.855 713.72 229.167C714.308 229.467 714.776 229.845 715.124 230.301V228.861H717.194V238.779H715.124V237.303C714.776 237.771 714.302 238.161 713.702 238.473C713.102 238.785 712.418 238.941 711.65 238.941C710.798 238.941 710.018 238.725 709.31 238.293C708.602 237.849 708.038 237.237 707.618 236.457C707.21 235.665 707.006 234.771 707.006 233.775ZM715.124 233.811C715.124 233.127 714.98 232.533 714.692 232.029C714.416 231.525 714.05 231.141 713.594 230.877C713.138 230.613 712.646 230.481 712.118 230.481C711.59 230.481 711.098 230.613 710.642 230.877C710.186 231.129 709.814 231.507 709.526 232.011C709.25 232.503 709.112 233.091 709.112 233.775C709.112 234.459 709.25 235.059 709.526 235.575C709.814 236.091 710.186 236.487 710.642 236.763C711.11 237.027 711.602 237.159 712.118 237.159C712.646 237.159 713.138 237.027 713.594 236.763C714.05 236.499 714.416 236.115 714.692 235.611C714.98 235.095 715.124 234.495 715.124 233.811Z" fill="#111111"/>
<path d="M704.992 226.269V238.779H702.94V230.211L699.124 238.779H697.702L693.868 230.211V238.779H691.816V226.269H694.03L698.422 236.079L702.796 226.269H704.992Z" fill="#111111"/>
</svg>
