<svg width="872" height="335" viewBox="0 0 872 335" fill="none" xmlns="http://www.w3.org/2000/svg">
<rect width="872" height="334.884" rx="30" fill="white" fill-opacity="0.4"/>
<path d="M613.023 64.2401C613.023 64.5601 613.003 64.8934 612.963 65.2401H605.223C605.277 65.9334 605.497 66.4667 605.883 66.8401C606.283 67.2001 606.77 67.3801 607.343 67.3801C608.197 67.3801 608.79 67.0201 609.123 66.3001H612.763C612.577 67.0334 612.237 67.6934 611.743 68.2801C611.263 68.8667 610.657 69.3267 609.923 69.6601C609.19 69.9934 608.37 70.1601 607.463 70.1601C606.37 70.1601 605.397 69.9267 604.543 69.4601C603.69 68.9934 603.023 68.3267 602.543 67.4601C602.063 66.5934 601.823 65.5801 601.823 64.4201C601.823 63.2601 602.057 62.2467 602.523 61.3801C603.003 60.5134 603.67 59.8467 604.523 59.3801C605.377 58.9134 606.357 58.6801 607.463 58.6801C608.543 58.6801 609.503 58.9067 610.343 59.3601C611.183 59.8134 611.837 60.4601 612.303 61.3001C612.783 62.1401 613.023 63.1201 613.023 64.2401ZM609.523 63.3401C609.523 62.7534 609.323 62.2867 608.923 61.9401C608.523 61.5934 608.023 61.4201 607.423 61.4201C606.85 61.4201 606.363 61.5867 605.963 61.9201C605.577 62.2534 605.337 62.7267 605.243 63.3401H609.523Z" fill="#111111"/>
<path d="M597.369 60.7C597.769 60.0866 598.269 59.6066 598.869 59.26C599.469 58.9 600.136 58.72 600.869 58.72V62.34H599.929C599.076 62.34 598.436 62.5266 598.009 62.9C597.583 63.26 597.369 63.9 597.369 64.82V70H593.949V58.84H597.369V60.7Z" fill="#111111"/>
<path d="M591.492 58.84V70H588.072V68.48C587.725 68.9733 587.252 69.3733 586.652 69.68C586.065 69.9733 585.412 70.12 584.692 70.12C583.839 70.12 583.085 69.9333 582.432 69.56C581.779 69.1733 581.272 68.62 580.912 67.9C580.552 67.18 580.372 66.3333 580.372 65.36V58.84H583.772V64.9C583.772 65.6466 583.965 66.2266 584.352 66.64C584.739 67.0533 585.259 67.26 585.912 67.26C586.579 67.26 587.105 67.0533 587.492 66.64C587.879 66.2266 588.072 65.6466 588.072 64.9V58.84H591.492Z" fill="#111111"/>
<path d="M578.567 67.1V70H576.827C575.587 70 574.621 69.7 573.927 69.1C573.234 68.4867 572.887 67.4933 572.887 66.12V61.68H571.527V58.84H572.887V56.12H576.307V58.84H578.547V61.68H576.307V66.16C576.307 66.4933 576.387 66.7333 576.547 66.88C576.707 67.0267 576.974 67.1 577.347 67.1H578.567Z" fill="#111111"/>
<path d="M559.558 64.4201C559.558 63.2601 559.791 62.2467 560.258 61.3801C560.738 60.5134 561.398 59.8467 562.238 59.3801C563.091 58.9134 564.064 58.6801 565.158 58.6801C566.558 58.6801 567.724 59.0467 568.658 59.7801C569.604 60.5134 570.224 61.5467 570.518 62.8801H566.878C566.571 62.0267 565.978 61.6001 565.098 61.6001C564.471 61.6001 563.971 61.8467 563.598 62.3401C563.224 62.8201 563.038 63.5134 563.038 64.4201C563.038 65.3267 563.224 66.0267 563.598 66.5201C563.971 67.0001 564.471 67.2401 565.098 67.2401C565.978 67.2401 566.571 66.8134 566.878 65.9601H570.518C570.224 67.2667 569.604 68.2934 568.658 69.0401C567.711 69.7867 566.544 70.1601 565.158 70.1601C564.064 70.1601 563.091 69.9267 562.238 69.4601C561.398 68.9934 560.738 68.3267 560.258 67.4601C559.791 66.5934 559.558 65.5801 559.558 64.4201Z" fill="#111111"/>
<path d="M558.433 64.2401C558.433 64.5601 558.413 64.8934 558.373 65.2401H550.633C550.687 65.9334 550.907 66.4667 551.293 66.8401C551.693 67.2001 552.18 67.3801 552.753 67.3801C553.607 67.3801 554.2 67.0201 554.533 66.3001H558.173C557.987 67.0334 557.647 67.6934 557.153 68.2801C556.673 68.8667 556.067 69.3267 555.333 69.6601C554.6 69.9934 553.78 70.1601 552.873 70.1601C551.78 70.1601 550.807 69.9267 549.953 69.4601C549.1 68.9934 548.433 68.3267 547.953 67.4601C547.473 66.5934 547.233 65.5801 547.233 64.4201C547.233 63.2601 547.467 62.2467 547.933 61.3801C548.413 60.5134 549.08 59.8467 549.933 59.3801C550.787 58.9134 551.767 58.6801 552.873 58.6801C553.953 58.6801 554.913 58.9067 555.753 59.3601C556.593 59.8134 557.247 60.4601 557.713 61.3001C558.193 62.1401 558.433 63.1201 558.433 64.2401ZM554.933 63.3401C554.933 62.7534 554.733 62.2867 554.333 61.9401C553.933 61.5934 553.433 61.4201 552.833 61.4201C552.26 61.4201 551.773 61.5867 551.373 61.9201C550.987 62.2534 550.747 62.7267 550.653 63.3401H554.933Z" fill="#111111"/>
<path d="M546.009 67.1V70H544.269C543.029 70 542.062 69.7 541.369 69.1C540.675 68.4867 540.329 67.4933 540.329 66.12V61.68H538.969V58.84H540.329V56.12H543.749V58.84H545.989V61.68H543.749V66.16C543.749 66.4933 543.829 66.7333 543.989 66.88C544.149 67.0267 544.415 67.1 544.789 67.1H546.009Z" fill="#111111"/>
<path d="M535.61 57.68C535.01 57.68 534.517 57.5066 534.13 57.16C533.757 56.8 533.57 56.36 533.57 55.84C533.57 55.3066 533.757 54.8666 534.13 54.52C534.517 54.16 535.01 53.98 535.61 53.98C536.197 53.98 536.677 54.16 537.05 54.52C537.437 54.8666 537.63 55.3066 537.63 55.84C537.63 56.36 537.437 56.8 537.05 57.16C536.677 57.5066 536.197 57.68 535.61 57.68ZM537.31 58.84V70H533.89V58.84H537.31Z" fill="#111111"/>
<path d="M527.274 58.72C528.554 58.72 529.581 59.1466 530.354 60C531.127 60.84 531.514 62 531.514 63.48V70H528.114V63.94C528.114 63.1933 527.921 62.6133 527.534 62.2C527.147 61.7866 526.627 61.58 525.974 61.58C525.321 61.58 524.801 61.7866 524.414 62.2C524.027 62.6133 523.834 63.1933 523.834 63.94V70H520.414V55.2H523.834V60.34C524.181 59.8466 524.654 59.4533 525.254 59.16C525.854 58.8666 526.527 58.72 527.274 58.72Z" fill="#111111"/>
<path d="M507.624 64.4201C507.624 63.2601 507.857 62.2467 508.324 61.3801C508.804 60.5134 509.464 59.8467 510.304 59.3801C511.157 58.9134 512.131 58.6801 513.224 58.6801C514.624 58.6801 515.791 59.0467 516.724 59.7801C517.671 60.5134 518.291 61.5467 518.584 62.8801H514.944C514.637 62.0267 514.044 61.6001 513.164 61.6001C512.537 61.6001 512.037 61.8467 511.664 62.3401C511.291 62.8201 511.104 63.5134 511.104 64.4201C511.104 65.3267 511.291 66.0267 511.664 66.5201C512.037 67.0001 512.537 67.2401 513.164 67.2401C514.044 67.2401 514.637 66.8134 514.944 65.9601H518.584C518.291 67.2667 517.671 68.2934 516.724 69.0401C515.777 69.7867 514.611 70.1601 513.224 70.1601C512.131 70.1601 511.157 69.9267 510.304 69.4601C509.464 68.9934 508.804 68.3267 508.324 67.4601C507.857 66.5934 507.624 65.5801 507.624 64.4201Z" fill="#111111"/>
<path d="M503.17 60.7C503.57 60.0866 504.07 59.6066 504.67 59.26C505.27 58.9 505.937 58.72 506.67 58.72V62.34H505.73C504.877 62.34 504.237 62.5266 503.81 62.9C503.383 63.26 503.17 63.9 503.17 64.82V70H499.75V58.84H503.17V60.7Z" fill="#111111"/>
<path d="M493.744 67.52H488.504L487.664 70H484.084L489.164 55.96H493.124L498.204 70H494.584L493.744 67.52ZM492.864 64.88L491.124 59.74L489.404 64.88H492.864Z" fill="#111111"/>
<path d="M474.089 58.72C475.396 58.72 476.436 59.1466 477.209 60C477.996 60.84 478.389 62 478.389 63.48V70H474.989V63.94C474.989 63.1933 474.796 62.6133 474.409 62.2C474.022 61.7866 473.502 61.58 472.849 61.58C472.196 61.58 471.676 61.7866 471.289 62.2C470.902 62.6133 470.709 63.1933 470.709 63.94V70H467.289V58.84H470.709V60.32C471.056 59.8266 471.522 59.44 472.109 59.16C472.696 58.8666 473.356 58.72 474.089 58.72Z" fill="#111111"/>
<path d="M459.634 70.1601C458.541 70.1601 457.554 69.9267 456.674 69.4601C455.807 68.9934 455.121 68.3267 454.614 67.4601C454.121 66.5934 453.874 65.5801 453.874 64.4201C453.874 63.2734 454.127 62.2667 454.634 61.4001C455.141 60.5201 455.834 59.8467 456.714 59.3801C457.594 58.9134 458.581 58.6801 459.674 58.6801C460.767 58.6801 461.754 58.9134 462.634 59.3801C463.514 59.8467 464.207 60.5201 464.714 61.4001C465.221 62.2667 465.474 63.2734 465.474 64.4201C465.474 65.5667 465.214 66.5801 464.694 67.4601C464.187 68.3267 463.487 68.9934 462.594 69.4601C461.714 69.9267 460.727 70.1601 459.634 70.1601ZM459.634 67.2001C460.287 67.2001 460.841 66.9601 461.294 66.4801C461.761 66.0001 461.994 65.3134 461.994 64.4201C461.994 63.5267 461.767 62.8401 461.314 62.3601C460.874 61.8801 460.327 61.6401 459.674 61.6401C459.007 61.6401 458.454 61.8801 458.014 62.3601C457.574 62.8267 457.354 63.5134 457.354 64.4201C457.354 65.3134 457.567 66.0001 457.994 66.4801C458.434 66.9601 458.981 67.2001 459.634 67.2001Z" fill="#111111"/>
<path d="M450.376 57.68C449.776 57.68 449.283 57.5066 448.896 57.16C448.523 56.8 448.336 56.36 448.336 55.84C448.336 55.3066 448.523 54.8666 448.896 54.52C449.283 54.16 449.776 53.98 450.376 53.98C450.963 53.98 451.443 54.16 451.816 54.52C452.203 54.8666 452.396 55.3066 452.396 55.84C452.396 56.36 452.203 56.8 451.816 57.16C451.443 57.5066 450.963 57.68 450.376 57.68ZM452.076 58.84V70H448.656V58.84H452.076Z" fill="#111111"/>
<path d="M446.751 67.1V70H445.011C443.771 70 442.804 69.7 442.111 69.1C441.418 68.4867 441.071 67.4933 441.071 66.12V61.68H439.711V58.84H441.071V56.12H444.491V58.84H446.731V61.68H444.491V66.16C444.491 66.4933 444.571 66.7333 444.731 66.88C444.891 67.0267 445.158 67.1 445.531 67.1H446.751Z" fill="#111111"/>
<path d="M426.276 64.4001C426.276 63.2534 426.49 62.2467 426.916 61.3801C427.356 60.5134 427.95 59.8467 428.696 59.3801C429.443 58.9134 430.276 58.6801 431.196 58.6801C431.983 58.6801 432.67 58.8401 433.256 59.1601C433.856 59.4801 434.316 59.9001 434.636 60.4201V58.8401H438.056V70.0001H434.636V68.4201C434.303 68.9401 433.836 69.3601 433.236 69.6801C432.65 70.0001 431.963 70.1601 431.176 70.1601C430.27 70.1601 429.443 69.9267 428.696 69.4601C427.95 68.9801 427.356 68.3067 426.916 67.4401C426.49 66.5601 426.276 65.5467 426.276 64.4001ZM434.636 64.4201C434.636 63.5667 434.396 62.8934 433.916 62.4001C433.45 61.9067 432.876 61.6601 432.196 61.6601C431.516 61.6601 430.936 61.9067 430.456 62.4001C429.99 62.8801 429.756 63.5467 429.756 64.4001C429.756 65.2534 429.99 65.9334 430.456 66.4401C430.936 66.9334 431.516 67.1801 432.196 67.1801C432.876 67.1801 433.45 66.9334 433.916 66.4401C434.396 65.9467 434.636 65.2734 434.636 64.4201Z" fill="#111111"/>
<path d="M421.822 60.7C422.222 60.0866 422.722 59.6066 423.322 59.26C423.922 58.9 424.589 58.72 425.322 58.72V62.34H424.382C423.529 62.34 422.889 62.5266 422.462 62.9C422.036 63.26 421.822 63.9 421.822 64.82V70H418.402V58.84H421.822V60.7Z" fill="#111111"/>
<path d="M409.067 58.6801C409.854 58.6801 410.541 58.8401 411.127 59.1601C411.727 59.4801 412.187 59.9001 412.507 60.4201V58.8401H415.927V69.9801C415.927 71.0067 415.721 71.9334 415.307 72.7601C414.907 73.6001 414.287 74.2667 413.447 74.7601C412.621 75.2534 411.587 75.5001 410.347 75.5001C408.694 75.5001 407.354 75.1067 406.327 74.3201C405.301 73.5467 404.714 72.4934 404.567 71.1601H407.947C408.054 71.5867 408.307 71.9201 408.707 72.1601C409.107 72.4134 409.601 72.5401 410.187 72.5401C410.894 72.5401 411.454 72.3334 411.867 71.9201C412.294 71.5201 412.507 70.8734 412.507 69.9801V68.4001C412.174 68.9201 411.714 69.3467 411.127 69.6801C410.541 70.0001 409.854 70.1601 409.067 70.1601C408.147 70.1601 407.314 69.9267 406.567 69.4601C405.821 68.9801 405.227 68.3067 404.787 67.4401C404.361 66.5601 404.147 65.5467 404.147 64.4001C404.147 63.2534 404.361 62.2467 404.787 61.3801C405.227 60.5134 405.821 59.8467 406.567 59.3801C407.314 58.9134 408.147 58.6801 409.067 58.6801ZM412.507 64.4201C412.507 63.5667 412.267 62.8934 411.787 62.4001C411.321 61.9067 410.747 61.6601 410.067 61.6601C409.387 61.6601 408.807 61.9067 408.327 62.4001C407.861 62.8801 407.627 63.5467 407.627 64.4001C407.627 65.2534 407.861 65.9334 408.327 66.4401C408.807 66.9334 409.387 67.1801 410.067 67.1801C410.747 67.1801 411.321 66.9334 411.787 66.4401C412.267 65.9467 412.507 65.2734 412.507 64.4201Z" fill="#111111"/>
<path d="M403.023 64.2401C403.023 64.5601 403.003 64.8934 402.963 65.2401H395.223C395.277 65.9334 395.497 66.4667 395.883 66.8401C396.283 67.2001 396.77 67.3801 397.343 67.3801C398.197 67.3801 398.79 67.0201 399.123 66.3001H402.763C402.577 67.0334 402.237 67.6934 401.743 68.2801C401.263 68.8667 400.657 69.3267 399.923 69.6601C399.19 69.9934 398.37 70.1601 397.463 70.1601C396.37 70.1601 395.397 69.9267 394.543 69.4601C393.69 68.9934 393.023 68.3267 392.543 67.4601C392.063 66.5934 391.823 65.5801 391.823 64.4201C391.823 63.2601 392.057 62.2467 392.523 61.3801C393.003 60.5134 393.67 59.8467 394.523 59.3801C395.377 58.9134 396.357 58.6801 397.463 58.6801C398.543 58.6801 399.503 58.9067 400.343 59.3601C401.183 59.8134 401.837 60.4601 402.303 61.3001C402.783 62.1401 403.023 63.1201 403.023 64.2401ZM399.523 63.3401C399.523 62.7534 399.323 62.2867 398.923 61.9401C398.523 61.5934 398.023 61.4201 397.423 61.4201C396.85 61.4201 396.363 61.5867 395.963 61.9201C395.577 62.2534 395.337 62.7267 395.243 63.3401H399.523Z" fill="#111111"/>
<path d="M390.599 67.1V70H388.859C387.619 70 386.652 69.7 385.959 69.1C385.265 68.4867 384.919 67.4933 384.919 66.12V61.68H383.559V58.84H384.919V56.12H388.339V58.84H390.579V61.68H388.339V66.16C388.339 66.4933 388.419 66.7333 388.579 66.88C388.739 67.0267 389.005 67.1 389.379 67.1H390.599Z" fill="#111111"/>
<path d="M377.702 58.72C379.009 58.72 380.049 59.1466 380.822 60C381.609 60.84 382.002 62 382.002 63.48V70H378.602V63.94C378.602 63.1933 378.409 62.6133 378.022 62.2C377.636 61.7866 377.116 61.58 376.462 61.58C375.809 61.58 375.289 61.7866 374.902 62.2C374.516 62.6133 374.322 63.1933 374.322 63.94V70H370.902V58.84H374.322V60.32C374.669 59.8266 375.136 59.44 375.722 59.16C376.309 58.8666 376.969 58.72 377.702 58.72Z" fill="#111111"/>
<path d="M368.424 55.96V70H365.004V55.96H368.424Z" fill="#111111"/>
<path d="M358.961 64.2401C358.961 64.5601 358.941 64.8934 358.901 65.2401H351.161C351.214 65.9334 351.434 66.4667 351.821 66.8401C352.221 67.2001 352.707 67.3801 353.281 67.3801C354.134 67.3801 354.727 67.0201 355.061 66.3001H358.701C358.514 67.0334 358.174 67.6934 357.681 68.2801C357.201 68.8667 356.594 69.3267 355.861 69.6601C355.127 69.9934 354.307 70.1601 353.401 70.1601C352.307 70.1601 351.334 69.9267 350.481 69.4601C349.627 68.9934 348.961 68.3267 348.481 67.4601C348.001 66.5934 347.761 65.5801 347.761 64.4201C347.761 63.2601 347.994 62.2467 348.461 61.3801C348.941 60.5134 349.607 59.8467 350.461 59.3801C351.314 58.9134 352.294 58.6801 353.401 58.6801C354.481 58.6801 355.441 58.9067 356.281 59.3601C357.121 59.8134 357.774 60.4601 358.241 61.3001C358.721 62.1401 358.961 63.1201 358.961 64.2401ZM355.461 63.3401C355.461 62.7534 355.261 62.2867 354.861 61.9401C354.461 61.5934 353.961 61.4201 353.361 61.4201C352.787 61.4201 352.301 61.5867 351.901 61.9201C351.514 62.2534 351.274 62.7267 351.181 63.3401H355.461Z" fill="#111111"/>
<path d="M339.107 58.6801C339.893 58.6801 340.58 58.8401 341.167 59.1601C341.767 59.4801 342.227 59.9001 342.547 60.4201V58.8401H345.967V69.9801C345.967 71.0067 345.76 71.9334 345.347 72.7601C344.947 73.6001 344.327 74.2667 343.487 74.7601C342.66 75.2534 341.627 75.5001 340.387 75.5001C338.733 75.5001 337.393 75.1067 336.367 74.3201C335.34 73.5467 334.753 72.4934 334.607 71.1601H337.987C338.093 71.5867 338.347 71.9201 338.747 72.1601C339.147 72.4134 339.64 72.5401 340.227 72.5401C340.933 72.5401 341.493 72.3334 341.907 71.9201C342.333 71.5201 342.547 70.8734 342.547 69.9801V68.4001C342.213 68.9201 341.753 69.3467 341.167 69.6801C340.58 70.0001 339.893 70.1601 339.107 70.1601C338.187 70.1601 337.353 69.9267 336.607 69.4601C335.86 68.9801 335.267 68.3067 334.827 67.4401C334.4 66.5601 334.187 65.5467 334.187 64.4001C334.187 63.2534 334.4 62.2467 334.827 61.3801C335.267 60.5134 335.86 59.8467 336.607 59.3801C337.353 58.9134 338.187 58.6801 339.107 58.6801ZM342.547 64.4201C342.547 63.5667 342.307 62.8934 341.827 62.4001C341.36 61.9067 340.787 61.6601 340.107 61.6601C339.427 61.6601 338.847 61.9067 338.367 62.4001C337.9 62.8801 337.667 63.5467 337.667 64.4001C337.667 65.2534 337.9 65.9334 338.367 66.4401C338.847 66.9334 339.427 67.1801 340.107 67.1801C340.787 67.1801 341.36 66.9334 341.827 66.4401C342.307 65.9467 342.547 65.2734 342.547 64.4201Z" fill="#111111"/>
<path d="M328.191 58.72C329.497 58.72 330.537 59.1466 331.311 60C332.097 60.84 332.491 62 332.491 63.48V70H329.091V63.94C329.091 63.1933 328.897 62.6133 328.511 62.2C328.124 61.7866 327.604 61.58 326.951 61.58C326.297 61.58 325.777 61.7866 325.391 62.2C325.004 62.6133 324.811 63.1933 324.811 63.94V70H321.391V58.84H324.811V60.32C325.157 59.8266 325.624 59.44 326.211 59.16C326.797 58.8666 327.457 58.72 328.191 58.72Z" fill="#111111"/>
<path d="M307.136 64.4001C307.136 63.2534 307.349 62.2467 307.776 61.3801C308.216 60.5134 308.809 59.8467 309.556 59.3801C310.302 58.9134 311.136 58.6801 312.056 58.6801C312.842 58.6801 313.529 58.8401 314.116 59.1601C314.716 59.4801 315.176 59.9001 315.496 60.4201V58.8401H318.916V70.0001H315.496V68.4201C315.162 68.9401 314.696 69.3601 314.096 69.6801C313.509 70.0001 312.822 70.1601 312.036 70.1601C311.129 70.1601 310.302 69.9267 309.556 69.4601C308.809 68.9801 308.216 68.3067 307.776 67.4401C307.349 66.5601 307.136 65.5467 307.136 64.4001ZM315.496 64.4201C315.496 63.5667 315.256 62.8934 314.776 62.4001C314.309 61.9067 313.736 61.6601 313.056 61.6601C312.376 61.6601 311.796 61.9067 311.316 62.4001C310.849 62.8801 310.616 63.5467 310.616 64.4001C310.616 65.2534 310.849 65.9334 311.316 66.4401C311.796 66.9334 312.376 67.1801 313.056 67.1801C313.736 67.1801 314.309 66.9334 314.776 66.4401C315.256 65.9467 315.496 65.2734 315.496 64.4201Z" fill="#111111"/>
<path d="M301.2 58.72C302.48 58.72 303.507 59.1466 304.28 60C305.053 60.84 305.44 62 305.44 63.48V70H302.04V63.94C302.04 63.1933 301.847 62.6133 301.46 62.2C301.073 61.7866 300.553 61.58 299.9 61.58C299.247 61.58 298.727 61.7866 298.34 62.2C297.953 62.6133 297.76 63.1933 297.76 63.94V70H294.34V55.2H297.76V60.34C298.107 59.8466 298.58 59.4533 299.18 59.16C299.78 58.8666 300.453 58.72 301.2 58.72Z" fill="#111111"/>
<path d="M281.55 64.4201C281.55 63.2601 281.783 62.2467 282.25 61.3801C282.73 60.5134 283.39 59.8467 284.23 59.3801C285.083 58.9134 286.056 58.6801 287.15 58.6801C288.55 58.6801 289.716 59.0467 290.65 59.7801C291.596 60.5134 292.216 61.5467 292.51 62.8801H288.87C288.563 62.0267 287.97 61.6001 287.09 61.6001C286.463 61.6001 285.963 61.8467 285.59 62.3401C285.216 62.8201 285.03 63.5134 285.03 64.4201C285.03 65.3267 285.216 66.0267 285.59 66.5201C285.963 67.0001 286.463 67.2401 287.09 67.2401C287.97 67.2401 288.563 66.8134 288.87 65.9601H292.51C292.216 67.2667 291.596 68.2934 290.65 69.0401C289.703 69.7867 288.536 70.1601 287.15 70.1601C286.056 70.1601 285.083 69.9267 284.23 69.4601C283.39 68.9934 282.73 68.3267 282.25 67.4601C281.783 66.5934 281.55 65.5801 281.55 64.4201Z" fill="#111111"/>
<path d="M277.072 70L274.932 66.9L273.132 70H269.432L273.112 64.3L269.332 58.84H273.172L275.312 61.92L277.112 58.84H280.812L277.072 64.46L280.912 70H277.072Z" fill="#111111"/>
<path d="M263.072 58.7V61.54H267.652V64.18H263.072V67.26H268.252V70H259.652V55.96H268.252V58.7H263.072Z" fill="#111111"/>
<rect x="32.7007" y="115.5" width="230" height="58.216" rx="20" fill="white"/>
<path d="M223.071 143.816C223.071 142.82 223.275 141.938 223.683 141.17C224.103 140.402 224.667 139.808 225.375 139.388C226.095 138.956 226.893 138.74 227.769 138.74C228.417 138.74 229.053 138.884 229.677 139.172C230.313 139.448 230.817 139.82 231.189 140.288V135.5H233.259V148.82H231.189V147.326C230.853 147.806 230.385 148.202 229.785 148.514C229.197 148.826 228.519 148.982 227.751 148.982C226.887 148.982 226.095 148.766 225.375 148.334C224.667 147.89 224.103 147.278 223.683 146.498C223.275 145.706 223.071 144.812 223.071 143.816ZM231.189 143.852C231.189 143.168 231.045 142.574 230.757 142.07C230.481 141.566 230.115 141.182 229.659 140.918C229.203 140.654 228.711 140.522 228.183 140.522C227.655 140.522 227.163 140.654 226.707 140.918C226.251 141.17 225.879 141.548 225.591 142.052C225.315 142.544 225.177 143.132 225.177 143.816C225.177 144.5 225.315 145.1 225.591 145.616C225.879 146.132 226.251 146.528 226.707 146.804C227.175 147.068 227.667 147.2 228.183 147.2C228.711 147.2 229.203 147.068 229.659 146.804C230.115 146.54 230.481 146.156 230.757 145.652C231.045 145.136 231.189 144.536 231.189 143.852Z" fill="#111111"/>
<path d="M217.069 138.74C217.849 138.74 218.545 138.902 219.157 139.226C219.781 139.55 220.267 140.03 220.615 140.666C220.963 141.302 221.137 142.07 221.137 142.97V148.82H219.103V143.276C219.103 142.388 218.881 141.71 218.437 141.242C217.993 140.762 217.387 140.522 216.619 140.522C215.851 140.522 215.239 140.762 214.783 141.242C214.339 141.71 214.117 142.388 214.117 143.276V148.82H212.065V138.902H214.117V140.036C214.453 139.628 214.879 139.31 215.395 139.082C215.923 138.854 216.481 138.74 217.069 138.74Z" fill="#111111"/>
<path d="M210.046 143.618C210.046 143.99 210.022 144.326 209.974 144.626H202.396C202.456 145.418 202.75 146.054 203.278 146.534C203.806 147.014 204.454 147.254 205.222 147.254C206.326 147.254 207.106 146.792 207.562 145.868H209.776C209.476 146.78 208.93 147.53 208.138 148.118C207.358 148.694 206.386 148.982 205.222 148.982C204.274 148.982 203.422 148.772 202.666 148.352C201.922 147.92 201.334 147.32 200.902 146.552C200.482 145.772 200.272 144.872 200.272 143.852C200.272 142.832 200.476 141.938 200.884 141.17C201.304 140.39 201.886 139.79 202.63 139.37C203.386 138.95 204.25 138.74 205.222 138.74C206.158 138.74 206.992 138.944 207.724 139.352C208.456 139.76 209.026 140.336 209.434 141.08C209.842 141.812 210.046 142.658 210.046 143.618ZM207.904 142.97C207.892 142.214 207.622 141.608 207.094 141.152C206.566 140.696 205.912 140.468 205.132 140.468C204.424 140.468 203.818 140.696 203.314 141.152C202.81 141.596 202.51 142.202 202.414 142.97H207.904Z" fill="#111111"/>
<path d="M196.653 140.576V146.066C196.653 146.438 196.737 146.708 196.905 146.876C197.085 147.032 197.385 147.11 197.805 147.11H199.065V148.82H197.445C196.521 148.82 195.813 148.604 195.321 148.172C194.829 147.74 194.583 147.038 194.583 146.066V140.576H193.413V138.902H194.583V136.436H196.653V138.902H199.065V140.576H196.653Z" fill="#111111"/>
<path d="M187.573 138.74C188.353 138.74 189.049 138.902 189.661 139.226C190.285 139.55 190.771 140.03 191.119 140.666C191.467 141.302 191.641 142.07 191.641 142.97V148.82H189.607V143.276C189.607 142.388 189.385 141.71 188.941 141.242C188.497 140.762 187.891 140.522 187.123 140.522C186.355 140.522 185.743 140.762 185.287 141.242C184.843 141.71 184.621 142.388 184.621 143.276V148.82H182.569V138.902H184.621V140.036C184.957 139.628 185.383 139.31 185.899 139.082C186.427 138.854 186.985 138.74 187.573 138.74Z" fill="#111111"/>
<path d="M175.393 148.982C174.457 148.982 173.611 148.772 172.855 148.352C172.099 147.92 171.505 147.32 171.073 146.552C170.641 145.772 170.425 144.872 170.425 143.852C170.425 142.844 170.647 141.95 171.091 141.17C171.535 140.39 172.141 139.79 172.909 139.37C173.677 138.95 174.535 138.74 175.483 138.74C176.431 138.74 177.289 138.95 178.057 139.37C178.825 139.79 179.431 140.39 179.875 141.17C180.319 141.95 180.541 142.844 180.541 143.852C180.541 144.86 180.313 145.754 179.857 146.534C179.401 147.314 178.777 147.92 177.985 148.352C177.205 148.772 176.341 148.982 175.393 148.982ZM175.393 147.2C175.921 147.2 176.413 147.074 176.869 146.822C177.337 146.57 177.715 146.192 178.003 145.688C178.291 145.184 178.435 144.572 178.435 143.852C178.435 143.132 178.297 142.526 178.021 142.034C177.745 141.53 177.379 141.152 176.923 140.9C176.467 140.648 175.975 140.522 175.447 140.522C174.919 140.522 174.427 140.648 173.971 140.9C173.527 141.152 173.173 141.53 172.909 142.034C172.645 142.526 172.513 143.132 172.513 143.852C172.513 144.92 172.783 145.748 173.323 146.336C173.875 146.912 174.565 147.2 175.393 147.2Z" fill="#111111"/>
<path d="M166.235 140.342C166.535 139.838 166.931 139.448 167.423 139.172C167.927 138.884 168.521 138.74 169.205 138.74V140.864H168.683C167.879 140.864 167.267 141.068 166.847 141.476C166.439 141.884 166.235 142.592 166.235 143.6V148.82H164.183V138.902H166.235V140.342Z" fill="#111111"/>
<path d="M162.281 136.31V137.984H156.971V141.674H161.111V143.348H156.971V148.82H154.919V136.31H162.281Z" fill="#111111"/>
<path d="M148.224 143.618C148.224 143.99 148.2 144.326 148.152 144.626H140.574C140.634 145.418 140.928 146.054 141.456 146.534C141.984 147.014 142.632 147.254 143.4 147.254C144.504 147.254 145.284 146.792 145.74 145.868H147.954C147.654 146.78 147.108 147.53 146.316 148.118C145.536 148.694 144.564 148.982 143.4 148.982C142.452 148.982 141.6 148.772 140.844 148.352C140.1 147.92 139.512 147.32 139.08 146.552C138.66 145.772 138.45 144.872 138.45 143.852C138.45 142.832 138.654 141.938 139.062 141.17C139.482 140.39 140.064 139.79 140.808 139.37C141.564 138.95 142.428 138.74 143.4 138.74C144.336 138.74 145.17 138.944 145.902 139.352C146.634 139.76 147.204 140.336 147.612 141.08C148.02 141.812 148.224 142.658 148.224 143.618ZM146.082 142.97C146.07 142.214 145.8 141.608 145.272 141.152C144.744 140.696 144.09 140.468 143.31 140.468C142.602 140.468 141.996 140.696 141.492 141.152C140.988 141.596 140.688 142.202 140.592 142.97H146.082Z" fill="#111111"/>
<path d="M130.931 138.74C131.699 138.74 132.377 138.896 132.965 139.208C133.565 139.508 134.033 139.886 134.369 140.342V138.902H136.439V148.982C136.439 149.894 136.247 150.704 135.863 151.412C135.479 152.132 134.921 152.696 134.189 153.104C133.469 153.512 132.605 153.716 131.597 153.716C130.253 153.716 129.137 153.398 128.249 152.762C127.361 152.138 126.857 151.286 126.737 150.206H128.771C128.927 150.722 129.257 151.136 129.761 151.448C130.277 151.772 130.889 151.934 131.597 151.934C132.425 151.934 133.091 151.682 133.595 151.178C134.111 150.674 134.369 149.942 134.369 148.982V147.326C134.021 147.794 133.547 148.19 132.947 148.514C132.359 148.826 131.687 148.982 130.931 148.982C130.067 148.982 129.275 148.766 128.555 148.334C127.847 147.89 127.283 147.278 126.863 146.498C126.455 145.706 126.251 144.812 126.251 143.816C126.251 142.82 126.455 141.938 126.863 141.17C127.283 140.402 127.847 139.808 128.555 139.388C129.275 138.956 130.067 138.74 130.931 138.74ZM134.369 143.852C134.369 143.168 134.225 142.574 133.937 142.07C133.661 141.566 133.295 141.182 132.839 140.918C132.383 140.654 131.891 140.522 131.363 140.522C130.835 140.522 130.343 140.654 129.887 140.918C129.431 141.17 129.059 141.548 128.771 142.052C128.495 142.544 128.357 143.132 128.357 143.816C128.357 144.5 128.495 145.1 128.771 145.616C129.059 146.132 129.431 146.528 129.887 146.804C130.355 147.068 130.847 147.2 131.363 147.2C131.891 147.2 132.383 147.068 132.839 146.804C133.295 146.54 133.661 146.156 133.937 145.652C134.225 145.136 134.369 144.536 134.369 143.852Z" fill="#111111"/>
<path d="M120.25 138.74C121.03 138.74 121.726 138.902 122.338 139.226C122.962 139.55 123.448 140.03 123.796 140.666C124.144 141.302 124.318 142.07 124.318 142.97V148.82H122.284V143.276C122.284 142.388 122.062 141.71 121.618 141.242C121.174 140.762 120.568 140.522 119.8 140.522C119.032 140.522 118.42 140.762 117.964 141.242C117.52 141.71 117.298 142.388 117.298 143.276V148.82H115.246V138.902H117.298V140.036C117.634 139.628 118.06 139.31 118.576 139.082C119.104 138.854 119.662 138.74 120.25 138.74Z" fill="#111111"/>
<path d="M102.362 143.816C102.362 142.82 102.566 141.938 102.974 141.17C103.394 140.402 103.958 139.808 104.666 139.388C105.386 138.956 106.178 138.74 107.042 138.74C107.822 138.74 108.5 138.896 109.076 139.208C109.664 139.508 110.132 139.886 110.48 140.342V138.902H112.55V148.82H110.48V147.344C110.132 147.812 109.658 148.202 109.058 148.514C108.458 148.826 107.774 148.982 107.006 148.982C106.154 148.982 105.374 148.766 104.666 148.334C103.958 147.89 103.394 147.278 102.974 146.498C102.566 145.706 102.362 144.812 102.362 143.816ZM110.48 143.852C110.48 143.168 110.336 142.574 110.048 142.07C109.772 141.566 109.406 141.182 108.95 140.918C108.494 140.654 108.002 140.522 107.474 140.522C106.946 140.522 106.454 140.654 105.998 140.918C105.542 141.17 105.17 141.548 104.882 142.052C104.606 142.544 104.468 143.132 104.468 143.816C104.468 144.5 104.606 145.1 104.882 145.616C105.17 146.132 105.542 146.528 105.998 146.804C106.466 147.068 106.958 147.2 107.474 147.2C108.002 147.2 108.494 147.068 108.95 146.804C109.406 146.54 109.772 146.156 110.048 145.652C110.336 145.136 110.48 144.536 110.48 143.852Z" fill="#111111"/>
<path d="M96.4869 138.74C97.2429 138.74 97.9149 138.902 98.5029 139.226C99.1029 139.55 99.5709 140.03 99.9069 140.666C100.255 141.302 100.429 142.07 100.429 142.97V148.82H98.3949V143.276C98.3949 142.388 98.1729 141.71 97.7289 141.242C97.2849 140.762 96.6789 140.522 95.9109 140.522C95.1429 140.522 94.5309 140.762 94.0749 141.242C93.6309 141.71 93.4089 142.388 93.4089 143.276V148.82H91.3569V135.5H93.4089V140.054C93.7569 139.634 94.1949 139.31 94.7229 139.082C95.2629 138.854 95.8509 138.74 96.4869 138.74Z" fill="#111111"/>
<path d="M79.8799 143.852C79.8799 142.832 80.0839 141.938 80.4919 141.17C80.9119 140.39 81.4879 139.79 82.2199 139.37C82.9519 138.95 83.7919 138.74 84.7399 138.74C85.9399 138.74 86.9299 139.028 87.7099 139.604C88.5019 140.168 89.0359 140.978 89.3119 142.034H87.0979C86.9179 141.542 86.6299 141.158 86.2339 140.882C85.8379 140.606 85.3399 140.468 84.7399 140.468C83.8999 140.468 83.2279 140.768 82.7239 141.368C82.2319 141.956 81.9859 142.784 81.9859 143.852C81.9859 144.92 82.2319 145.754 82.7239 146.354C83.2279 146.954 83.8999 147.254 84.7399 147.254C85.9279 147.254 86.7139 146.732 87.0979 145.688H89.3119C89.0239 146.696 88.4839 147.5 87.6919 148.1C86.8999 148.688 85.9159 148.982 84.7399 148.982C83.7919 148.982 82.9519 148.772 82.2199 148.352C81.4879 147.92 80.9119 147.32 80.4919 146.552C80.0839 145.772 79.8799 144.872 79.8799 143.852Z" fill="#111111"/>
<path d="M75.8296 143.798L79.0336 148.82H76.7116L74.5696 145.454L72.5536 148.82H70.4116L73.6156 143.942L70.4116 138.902H72.7336L74.8756 142.268L76.8916 138.902H79.0336L75.8296 143.798Z" fill="#111111"/>
<path d="M64.1941 137.966V141.638H68.5141V143.312H64.1941V147.146H69.0541V148.82H62.1421V136.292H69.0541V137.966H64.1941Z" fill="#111111"/>
<path d="M292.511 137.612C292.894 137.213 293.527 137.2 293.926 137.581L300.425 143.809C300.823 144.191 300.836 144.824 300.454 145.223L294.228 151.721C293.846 152.119 293.213 152.133 292.814 151.751C292.415 151.369 292.401 150.736 292.783 150.337L297.34 145.581L283.04 145.887L282.998 143.888L297.296 143.583L292.542 139.026C292.143 138.644 292.13 138.011 292.511 137.612Z" fill="#813BF5"/>
<rect x="321" y="115.5" width="230" height="58.216" rx="20" fill="white"/>
<path d="M510.501 143.816C510.501 142.82 510.705 141.938 511.113 141.17C511.533 140.402 512.097 139.808 512.805 139.388C513.525 138.956 514.323 138.74 515.199 138.74C515.847 138.74 516.483 138.884 517.107 139.172C517.743 139.448 518.247 139.82 518.619 140.288V135.5H520.689V148.82H518.619V147.326C518.283 147.806 517.815 148.202 517.215 148.514C516.627 148.826 515.949 148.982 515.181 148.982C514.317 148.982 513.525 148.766 512.805 148.334C512.097 147.89 511.533 147.278 511.113 146.498C510.705 145.706 510.501 144.812 510.501 143.816ZM518.619 143.852C518.619 143.168 518.475 142.574 518.187 142.07C517.911 141.566 517.545 141.182 517.089 140.918C516.633 140.654 516.141 140.522 515.613 140.522C515.085 140.522 514.593 140.654 514.137 140.918C513.681 141.17 513.309 141.548 513.021 142.052C512.745 142.544 512.607 143.132 512.607 143.816C512.607 144.5 512.745 145.1 513.021 145.616C513.309 146.132 513.681 146.528 514.137 146.804C514.605 147.068 515.097 147.2 515.613 147.2C516.141 147.2 516.633 147.068 517.089 146.804C517.545 146.54 517.911 146.156 518.187 145.652C518.475 145.136 518.619 144.536 518.619 143.852Z" fill="#111111"/>
<path d="M504.499 138.74C505.279 138.74 505.975 138.902 506.587 139.226C507.211 139.55 507.697 140.03 508.045 140.666C508.393 141.302 508.567 142.07 508.567 142.97V148.82H506.533V143.276C506.533 142.388 506.311 141.71 505.867 141.242C505.423 140.762 504.817 140.522 504.049 140.522C503.281 140.522 502.669 140.762 502.213 141.242C501.769 141.71 501.547 142.388 501.547 143.276V148.82H499.495V138.902H501.547V140.036C501.883 139.628 502.309 139.31 502.825 139.082C503.353 138.854 503.911 138.74 504.499 138.74Z" fill="#111111"/>
<path d="M497.476 143.618C497.476 143.99 497.452 144.326 497.404 144.626H489.826C489.886 145.418 490.18 146.054 490.708 146.534C491.236 147.014 491.884 147.254 492.652 147.254C493.756 147.254 494.536 146.792 494.992 145.868H497.206C496.906 146.78 496.36 147.53 495.568 148.118C494.788 148.694 493.816 148.982 492.652 148.982C491.704 148.982 490.852 148.772 490.096 148.352C489.352 147.92 488.764 147.32 488.332 146.552C487.912 145.772 487.702 144.872 487.702 143.852C487.702 142.832 487.906 141.938 488.314 141.17C488.734 140.39 489.316 139.79 490.06 139.37C490.816 138.95 491.68 138.74 492.652 138.74C493.588 138.74 494.422 138.944 495.154 139.352C495.886 139.76 496.456 140.336 496.864 141.08C497.272 141.812 497.476 142.658 497.476 143.618ZM495.334 142.97C495.322 142.214 495.052 141.608 494.524 141.152C493.996 140.696 493.342 140.468 492.562 140.468C491.854 140.468 491.248 140.696 490.744 141.152C490.24 141.596 489.94 142.202 489.844 142.97H495.334Z" fill="#111111"/>
<path d="M482.343 143.87L486.915 148.82H484.143L480.471 144.554V148.82H478.419V135.5H480.471V143.24L484.071 138.902H486.915L482.343 143.87Z" fill="#111111"/>
<path d="M466.942 143.852C466.942 142.832 467.146 141.938 467.554 141.17C467.974 140.39 468.55 139.79 469.282 139.37C470.014 138.95 470.854 138.74 471.802 138.74C473.002 138.74 473.992 139.028 474.772 139.604C475.564 140.168 476.098 140.978 476.374 142.034H474.16C473.98 141.542 473.692 141.158 473.296 140.882C472.9 140.606 472.402 140.468 471.802 140.468C470.962 140.468 470.29 140.768 469.786 141.368C469.294 141.956 469.048 142.784 469.048 143.852C469.048 144.92 469.294 145.754 469.786 146.354C470.29 146.954 470.962 147.254 471.802 147.254C472.99 147.254 473.776 146.732 474.16 145.688H476.374C476.086 146.696 475.546 147.5 474.754 148.1C473.962 148.688 472.978 148.982 471.802 148.982C470.854 148.982 470.014 148.772 469.282 148.352C468.55 147.92 467.974 147.32 467.554 146.552C467.146 145.772 466.942 144.872 466.942 143.852Z" fill="#111111"/>
<path d="M454.743 143.816C454.743 142.82 454.947 141.938 455.355 141.17C455.775 140.402 456.339 139.808 457.047 139.388C457.767 138.956 458.559 138.74 459.423 138.74C460.203 138.74 460.881 138.896 461.457 139.208C462.045 139.508 462.513 139.886 462.861 140.342V138.902H464.931V148.82H462.861V147.344C462.513 147.812 462.039 148.202 461.439 148.514C460.839 148.826 460.155 148.982 459.387 148.982C458.535 148.982 457.755 148.766 457.047 148.334C456.339 147.89 455.775 147.278 455.355 146.498C454.947 145.706 454.743 144.812 454.743 143.816ZM462.861 143.852C462.861 143.168 462.717 142.574 462.429 142.07C462.153 141.566 461.787 141.182 461.331 140.918C460.875 140.654 460.383 140.522 459.855 140.522C459.327 140.522 458.835 140.654 458.379 140.918C457.923 141.17 457.551 141.548 457.263 142.052C456.987 142.544 456.849 143.132 456.849 143.816C456.849 144.5 456.987 145.1 457.263 145.616C457.551 146.132 457.923 146.528 458.379 146.804C458.847 147.068 459.339 147.2 459.855 147.2C460.383 147.2 460.875 147.068 461.331 146.804C461.787 146.54 462.153 146.156 462.429 145.652C462.717 145.136 462.861 144.536 462.861 143.852Z" fill="#111111"/>
<path d="M450.785 142.394C451.457 142.514 452.027 142.868 452.495 143.456C452.963 144.044 453.197 144.71 453.197 145.454C453.197 146.09 453.029 146.666 452.693 147.182C452.369 147.686 451.895 148.088 451.271 148.388C450.647 148.676 449.921 148.82 449.093 148.82H444.089V136.31H448.859C449.711 136.31 450.443 136.454 451.055 136.742C451.667 137.03 452.129 137.42 452.441 137.912C452.753 138.392 452.909 138.932 452.909 139.532C452.909 140.252 452.717 140.852 452.333 141.332C451.949 141.812 451.433 142.166 450.785 142.394ZM446.141 141.566H448.679C449.351 141.566 449.873 141.416 450.245 141.116C450.629 140.804 450.821 140.36 450.821 139.784C450.821 139.22 450.629 138.782 450.245 138.47C449.873 138.146 449.351 137.984 448.679 137.984H446.141V141.566ZM448.913 147.146C449.609 147.146 450.155 146.978 450.551 146.642C450.947 146.306 451.145 145.838 451.145 145.238C451.145 144.626 450.935 144.14 450.515 143.78C450.095 143.42 449.537 143.24 448.841 143.24H446.141V147.146H448.913Z" fill="#111111"/>
<path d="M437.394 143.618C437.394 143.99 437.37 144.326 437.322 144.626H429.744C429.804 145.418 430.098 146.054 430.626 146.534C431.154 147.014 431.802 147.254 432.57 147.254C433.674 147.254 434.454 146.792 434.91 145.868H437.124C436.824 146.78 436.278 147.53 435.486 148.118C434.706 148.694 433.734 148.982 432.57 148.982C431.622 148.982 430.77 148.772 430.014 148.352C429.27 147.92 428.682 147.32 428.25 146.552C427.83 145.772 427.62 144.872 427.62 143.852C427.62 142.832 427.824 141.938 428.232 141.17C428.652 140.39 429.234 139.79 429.978 139.37C430.734 138.95 431.598 138.74 432.57 138.74C433.506 138.74 434.34 138.944 435.072 139.352C435.804 139.76 436.374 140.336 436.782 141.08C437.19 141.812 437.394 142.658 437.394 143.618ZM435.252 142.97C435.24 142.214 434.97 141.608 434.442 141.152C433.914 140.696 433.26 140.468 432.48 140.468C431.772 140.468 431.166 140.696 430.662 141.152C430.158 141.596 429.858 142.202 429.762 142.97H435.252Z" fill="#111111"/>
<path d="M420.101 138.74C420.869 138.74 421.547 138.896 422.135 139.208C422.735 139.508 423.203 139.886 423.539 140.342V138.902H425.609V148.982C425.609 149.894 425.417 150.704 425.033 151.412C424.649 152.132 424.091 152.696 423.359 153.104C422.639 153.512 421.775 153.716 420.767 153.716C419.423 153.716 418.307 153.398 417.419 152.762C416.531 152.138 416.027 151.286 415.907 150.206H417.941C418.097 150.722 418.427 151.136 418.931 151.448C419.447 151.772 420.059 151.934 420.767 151.934C421.595 151.934 422.261 151.682 422.765 151.178C423.281 150.674 423.539 149.942 423.539 148.982V147.326C423.191 147.794 422.717 148.19 422.117 148.514C421.529 148.826 420.857 148.982 420.101 148.982C419.237 148.982 418.445 148.766 417.725 148.334C417.017 147.89 416.453 147.278 416.033 146.498C415.625 145.706 415.421 144.812 415.421 143.816C415.421 142.82 415.625 141.938 416.033 141.17C416.453 140.402 417.017 139.808 417.725 139.388C418.445 138.956 419.237 138.74 420.101 138.74ZM423.539 143.852C423.539 143.168 423.395 142.574 423.107 142.07C422.831 141.566 422.465 141.182 422.009 140.918C421.553 140.654 421.061 140.522 420.533 140.522C420.005 140.522 419.513 140.654 419.057 140.918C418.601 141.17 418.229 141.548 417.941 142.052C417.665 142.544 417.527 143.132 417.527 143.816C417.527 144.5 417.665 145.1 417.941 145.616C418.229 146.132 418.601 146.528 419.057 146.804C419.525 147.068 420.017 147.2 420.533 147.2C421.061 147.2 421.553 147.068 422.009 146.804C422.465 146.54 422.831 146.156 423.107 145.652C423.395 145.136 423.539 144.536 423.539 143.852Z" fill="#111111"/>
<path d="M409.419 138.74C410.199 138.74 410.895 138.902 411.507 139.226C412.131 139.55 412.617 140.03 412.965 140.666C413.313 141.302 413.487 142.07 413.487 142.97V148.82H411.453V143.276C411.453 142.388 411.231 141.71 410.787 141.242C410.343 140.762 409.737 140.522 408.969 140.522C408.201 140.522 407.589 140.762 407.133 141.242C406.689 141.71 406.467 142.388 406.467 143.276V148.82H404.415V138.902H406.467V140.036C406.803 139.628 407.229 139.31 407.745 139.082C408.273 138.854 408.831 138.74 409.419 138.74Z" fill="#111111"/>
<path d="M391.532 143.816C391.532 142.82 391.736 141.938 392.144 141.17C392.564 140.402 393.128 139.808 393.836 139.388C394.556 138.956 395.348 138.74 396.212 138.74C396.992 138.74 397.67 138.896 398.246 139.208C398.834 139.508 399.302 139.886 399.65 140.342V138.902H401.72V148.82H399.65V147.344C399.302 147.812 398.828 148.202 398.228 148.514C397.628 148.826 396.944 148.982 396.176 148.982C395.324 148.982 394.544 148.766 393.836 148.334C393.128 147.89 392.564 147.278 392.144 146.498C391.736 145.706 391.532 144.812 391.532 143.816ZM399.65 143.852C399.65 143.168 399.506 142.574 399.218 142.07C398.942 141.566 398.576 141.182 398.12 140.918C397.664 140.654 397.172 140.522 396.644 140.522C396.116 140.522 395.624 140.654 395.168 140.918C394.712 141.17 394.34 141.548 394.052 142.052C393.776 142.544 393.638 143.132 393.638 143.816C393.638 144.5 393.776 145.1 394.052 145.616C394.34 146.132 394.712 146.528 395.168 146.804C395.636 147.068 396.128 147.2 396.644 147.2C397.172 147.2 397.664 147.068 398.12 146.804C398.576 146.54 398.942 146.156 399.218 145.652C399.506 145.136 399.65 144.536 399.65 143.852Z" fill="#111111"/>
<path d="M385.656 138.74C386.412 138.74 387.084 138.902 387.672 139.226C388.272 139.55 388.74 140.03 389.076 140.666C389.424 141.302 389.598 142.07 389.598 142.97V148.82H387.564V143.276C387.564 142.388 387.342 141.71 386.898 141.242C386.454 140.762 385.848 140.522 385.08 140.522C384.312 140.522 383.7 140.762 383.244 141.242C382.8 141.71 382.578 142.388 382.578 143.276V148.82H380.526V135.5H382.578V140.054C382.926 139.634 383.364 139.31 383.892 139.082C384.432 138.854 385.02 138.74 385.656 138.74Z" fill="#111111"/>
<path d="M369.05 143.852C369.05 142.832 369.254 141.938 369.662 141.17C370.082 140.39 370.658 139.79 371.39 139.37C372.122 138.95 372.962 138.74 373.91 138.74C375.11 138.74 376.1 139.028 376.88 139.604C377.672 140.168 378.206 140.978 378.482 142.034H376.268C376.088 141.542 375.8 141.158 375.404 140.882C375.008 140.606 374.51 140.468 373.91 140.468C373.07 140.468 372.398 140.768 371.894 141.368C371.402 141.956 371.156 142.784 371.156 143.852C371.156 144.92 371.402 145.754 371.894 146.354C372.398 146.954 373.07 147.254 373.91 147.254C375.098 147.254 375.884 146.732 376.268 145.688H378.482C378.194 146.696 377.654 147.5 376.862 148.1C376.07 148.688 375.086 148.982 373.91 148.982C372.962 148.982 372.122 148.772 371.39 148.352C370.658 147.92 370.082 147.32 369.662 146.552C369.254 145.772 369.05 144.872 369.05 143.852Z" fill="#111111"/>
<path d="M364.999 143.798L368.203 148.82H365.881L363.739 145.454L361.723 148.82H359.581L362.785 143.942L359.581 138.902H361.903L364.045 142.268L366.061 138.902H368.203L364.999 143.798Z" fill="#111111"/>
<path d="M353.364 137.966V141.638H357.684V143.312H353.364V147.146H358.224V148.82H351.312V136.292H358.224V137.966H353.364Z" fill="#111111"/>
<path d="M580.811 137.612C581.193 137.213 581.827 137.2 582.226 137.581L588.724 143.809C589.123 144.191 589.136 144.824 588.754 145.223L582.528 151.721C582.146 152.119 581.513 152.133 581.114 151.751C580.715 151.369 580.701 150.736 581.083 150.337L585.639 145.581L571.34 145.887L571.297 143.888L585.596 143.583L580.842 139.026C580.443 138.644 580.429 138.011 580.811 137.612Z" fill="#813BF5"/>
<rect x="609.299" y="104" width="230" height="81.216" rx="20" fill="white"/>
<path d="M773.494 163.668V163.47C774.73 162.198 775.672 160.716 776.32 159.024C776.968 157.332 777.292 155.58 777.292 153.768C777.292 151.884 776.944 150.054 776.248 148.278C775.552 146.502 774.514 144.978 773.134 143.706V143.508H775.258C776.578 144.684 777.574 146.178 778.246 147.99C778.93 149.802 779.272 151.728 779.272 153.768C779.272 155.76 778.954 157.626 778.318 159.366C777.694 161.106 776.794 162.54 775.618 163.668H773.494Z" fill="#111111"/>
<path d="M765.794 150.24C766.562 150.24 767.24 150.396 767.828 150.708C768.428 151.008 768.896 151.386 769.232 151.842V150.402H771.302V160.482C771.302 161.394 771.11 162.204 770.726 162.912C770.342 163.632 769.784 164.196 769.052 164.604C768.332 165.012 767.468 165.216 766.46 165.216C765.116 165.216 764 164.898 763.112 164.262C762.224 163.638 761.72 162.786 761.6 161.706H763.634C763.79 162.222 764.12 162.636 764.624 162.948C765.14 163.272 765.752 163.434 766.46 163.434C767.288 163.434 767.954 163.182 768.458 162.678C768.974 162.174 769.232 161.442 769.232 160.482V158.826C768.884 159.294 768.41 159.69 767.81 160.014C767.222 160.326 766.55 160.482 765.794 160.482C764.93 160.482 764.138 160.266 763.418 159.834C762.71 159.39 762.146 158.778 761.726 157.998C761.318 157.206 761.114 156.312 761.114 155.316C761.114 154.32 761.318 153.438 761.726 152.67C762.146 151.902 762.71 151.308 763.418 150.888C764.138 150.456 764.93 150.24 765.794 150.24ZM769.232 155.352C769.232 154.668 769.088 154.074 768.8 153.57C768.524 153.066 768.158 152.682 767.702 152.418C767.246 152.154 766.754 152.022 766.226 152.022C765.698 152.022 765.206 152.154 764.75 152.418C764.294 152.67 763.922 153.048 763.634 153.552C763.358 154.044 763.22 154.632 763.22 155.316C763.22 156 763.358 156.6 763.634 157.116C763.922 157.632 764.294 158.028 764.75 158.304C765.218 158.568 765.71 158.7 766.226 158.7C766.754 158.7 767.246 158.568 767.702 158.304C768.158 158.04 768.524 157.656 768.8 157.152C769.088 156.636 769.232 156.036 769.232 155.352Z" fill="#111111"/>
<path d="M755.112 150.24C755.892 150.24 756.588 150.402 757.2 150.726C757.824 151.05 758.31 151.53 758.658 152.166C759.006 152.802 759.18 153.57 759.18 154.47V160.32H757.146V154.776C757.146 153.888 756.924 153.21 756.48 152.742C756.036 152.262 755.43 152.022 754.662 152.022C753.894 152.022 753.282 152.262 752.826 152.742C752.382 153.21 752.16 153.888 752.16 154.776V160.32H750.108V150.402H752.16V151.536C752.496 151.128 752.922 150.81 753.438 150.582C753.966 150.354 754.524 150.24 755.112 150.24Z" fill="#111111"/>
<path d="M746.407 149.088C746.035 149.088 745.723 148.962 745.471 148.71C745.219 148.458 745.093 148.146 745.093 147.774C745.093 147.402 745.219 147.09 745.471 146.838C745.723 146.586 746.035 146.46 746.407 146.46C746.767 146.46 747.073 146.586 747.325 146.838C747.577 147.09 747.703 147.402 747.703 147.774C747.703 148.146 747.577 148.458 747.325 148.71C747.073 148.962 746.767 149.088 746.407 149.088ZM747.415 150.402V160.32H745.363V150.402H747.415Z" fill="#111111"/>
<path d="M740.506 151.842C740.806 151.338 741.202 150.948 741.694 150.672C742.198 150.384 742.792 150.24 743.476 150.24V152.364H742.954C742.15 152.364 741.538 152.568 741.118 152.976C740.71 153.384 740.506 154.092 740.506 155.1V160.32H738.454V150.402H740.506V151.842Z" fill="#111111"/>
<path d="M731.278 160.482C730.342 160.482 729.496 160.272 728.74 159.852C727.984 159.42 727.39 158.82 726.958 158.052C726.526 157.272 726.31 156.372 726.31 155.352C726.31 154.344 726.532 153.45 726.976 152.67C727.42 151.89 728.026 151.29 728.794 150.87C729.562 150.45 730.42 150.24 731.368 150.24C732.316 150.24 733.174 150.45 733.942 150.87C734.71 151.29 735.316 151.89 735.76 152.67C736.204 153.45 736.426 154.344 736.426 155.352C736.426 156.36 736.198 157.254 735.742 158.034C735.286 158.814 734.662 159.42 733.87 159.852C733.09 160.272 732.226 160.482 731.278 160.482ZM731.278 158.7C731.806 158.7 732.298 158.574 732.754 158.322C733.222 158.07 733.6 157.692 733.888 157.188C734.176 156.684 734.32 156.072 734.32 155.352C734.32 154.632 734.182 154.026 733.906 153.534C733.63 153.03 733.264 152.652 732.808 152.4C732.352 152.148 731.86 152.022 731.332 152.022C730.804 152.022 730.312 152.148 729.856 152.4C729.412 152.652 729.058 153.03 728.794 153.534C728.53 154.026 728.398 154.632 728.398 155.352C728.398 156.42 728.668 157.248 729.208 157.836C729.76 158.412 730.45 158.7 731.278 158.7Z" fill="#111111"/>
<path d="M722.673 152.076V157.566C722.673 157.938 722.757 158.208 722.925 158.376C723.105 158.532 723.405 158.61 723.825 158.61H725.085V160.32H723.465C722.541 160.32 721.833 160.104 721.341 159.672C720.849 159.24 720.603 158.538 720.603 157.566V152.076H719.433V150.402H720.603V147.936H722.673V150.402H725.085V152.076H722.673Z" fill="#111111"/>
<path d="M716.577 149.088C716.205 149.088 715.893 148.962 715.641 148.71C715.389 148.458 715.263 148.146 715.263 147.774C715.263 147.402 715.389 147.09 715.641 146.838C715.893 146.586 716.205 146.46 716.577 146.46C716.937 146.46 717.243 146.586 717.495 146.838C717.747 147.09 717.873 147.402 717.873 147.774C717.873 148.146 717.747 148.458 717.495 148.71C717.243 148.962 716.937 149.088 716.577 149.088ZM717.585 150.402V160.32H715.533V150.402H717.585Z" fill="#111111"/>
<path d="M708.847 150.24C709.627 150.24 710.323 150.402 710.935 150.726C711.559 151.05 712.045 151.53 712.393 152.166C712.741 152.802 712.915 153.57 712.915 154.47V160.32H710.881V154.776C710.881 153.888 710.659 153.21 710.215 152.742C709.771 152.262 709.165 152.022 708.397 152.022C707.629 152.022 707.017 152.262 706.561 152.742C706.117 153.21 705.895 153.888 705.895 154.776V160.32H703.843V150.402H705.895V151.536C706.231 151.128 706.657 150.81 707.173 150.582C707.701 150.354 708.259 150.24 708.847 150.24Z" fill="#111111"/>
<path d="M696.666 160.482C695.73 160.482 694.884 160.272 694.128 159.852C693.372 159.42 692.778 158.82 692.346 158.052C691.914 157.272 691.698 156.372 691.698 155.352C691.698 154.344 691.92 153.45 692.364 152.67C692.808 151.89 693.414 151.29 694.182 150.87C694.95 150.45 695.808 150.24 696.756 150.24C697.704 150.24 698.562 150.45 699.33 150.87C700.098 151.29 700.704 151.89 701.148 152.67C701.592 153.45 701.814 154.344 701.814 155.352C701.814 156.36 701.586 157.254 701.13 158.034C700.674 158.814 700.05 159.42 699.258 159.852C698.478 160.272 697.614 160.482 696.666 160.482ZM696.666 158.7C697.194 158.7 697.686 158.574 698.142 158.322C698.61 158.07 698.988 157.692 699.276 157.188C699.564 156.684 699.708 156.072 699.708 155.352C699.708 154.632 699.57 154.026 699.294 153.534C699.018 153.03 698.652 152.652 698.196 152.4C697.74 152.148 697.248 152.022 696.72 152.022C696.192 152.022 695.7 152.148 695.244 152.4C694.8 152.652 694.446 153.03 694.182 153.534C693.918 154.026 693.786 154.632 693.786 155.352C693.786 156.42 694.056 157.248 694.596 157.836C695.148 158.412 695.838 158.7 696.666 158.7Z" fill="#111111"/>
<path d="M689.667 147.81V160.32H687.615V151.752L683.799 160.32H682.377L678.543 151.752V160.32H676.491V147.81H678.705L683.097 157.62L687.471 147.81H689.667Z" fill="#111111"/>
<path d="M672.169 163.668C670.993 162.54 670.087 161.106 669.451 159.366C668.827 157.626 668.515 155.76 668.515 153.768C668.515 151.728 668.851 149.802 669.523 147.99C670.207 146.178 671.209 144.684 672.529 143.508H674.653V143.706C673.273 144.978 672.235 146.502 671.539 148.278C670.843 150.054 670.495 151.884 670.495 153.768C670.495 155.58 670.819 157.332 671.467 159.024C672.115 160.716 673.057 162.198 674.293 163.47V163.668H672.169Z" fill="#111111"/>
<path d="M801.238 129.076V134.566C801.238 134.938 801.322 135.208 801.49 135.376C801.67 135.532 801.97 135.61 802.39 135.61H803.65V137.32H802.03C801.106 137.32 800.398 137.104 799.906 136.672C799.414 136.24 799.168 135.538 799.168 134.566V129.076H797.998V127.402H799.168V124.936H801.238V127.402H803.65V129.076H801.238Z" fill="#111111"/>
<path d="M796.825 132.118C796.825 132.49 796.801 132.826 796.753 133.126H789.175C789.235 133.918 789.529 134.554 790.057 135.034C790.585 135.514 791.233 135.754 792.001 135.754C793.105 135.754 793.885 135.292 794.341 134.368H796.555C796.255 135.28 795.709 136.03 794.917 136.618C794.137 137.194 793.165 137.482 792.001 137.482C791.053 137.482 790.201 137.272 789.445 136.852C788.701 136.42 788.113 135.82 787.681 135.052C787.261 134.272 787.051 133.372 787.051 132.352C787.051 131.332 787.255 130.438 787.663 129.67C788.083 128.89 788.665 128.29 789.409 127.87C790.165 127.45 791.029 127.24 792.001 127.24C792.937 127.24 793.771 127.444 794.503 127.852C795.235 128.26 795.805 128.836 796.213 129.58C796.621 130.312 796.825 131.158 796.825 132.118ZM794.683 131.47C794.671 130.714 794.401 130.108 793.873 129.652C793.345 129.196 792.691 128.968 791.911 128.968C791.203 128.968 790.597 129.196 790.093 129.652C789.589 130.096 789.289 130.702 789.193 131.47H794.683Z" fill="#111111"/>
<path d="M785.04 124V137.32H782.988V124H785.04Z" fill="#111111"/>
<path d="M780.294 124V137.32H778.242V124H780.294Z" fill="#111111"/>
<path d="M765.359 132.316C765.359 131.32 765.563 130.438 765.971 129.67C766.391 128.902 766.955 128.308 767.663 127.888C768.383 127.456 769.175 127.24 770.039 127.24C770.819 127.24 771.497 127.396 772.073 127.708C772.661 128.008 773.129 128.386 773.477 128.842V127.402H775.547V137.32H773.477V135.844C773.129 136.312 772.655 136.702 772.055 137.014C771.455 137.326 770.771 137.482 770.003 137.482C769.151 137.482 768.371 137.266 767.663 136.834C766.955 136.39 766.391 135.778 765.971 134.998C765.563 134.206 765.359 133.312 765.359 132.316ZM773.477 132.352C773.477 131.668 773.333 131.074 773.045 130.57C772.769 130.066 772.403 129.682 771.947 129.418C771.491 129.154 770.999 129.022 770.471 129.022C769.943 129.022 769.451 129.154 768.995 129.418C768.539 129.67 768.167 130.048 767.879 130.552C767.603 131.044 767.465 131.632 767.465 132.316C767.465 133 767.603 133.6 767.879 134.116C768.167 134.632 768.539 135.028 768.995 135.304C769.463 135.568 769.955 135.7 770.471 135.7C770.999 135.7 771.491 135.568 771.947 135.304C772.403 135.04 772.769 134.656 773.045 134.152C773.333 133.636 773.477 133.036 773.477 132.352Z" fill="#111111"/>
<path d="M764.351 124.81L760.643 137.32H758.321L755.693 127.852L752.903 137.32L750.599 137.338L747.053 124.81H749.231L751.823 134.998L754.631 124.81H756.935L759.545 134.944L762.155 124.81H764.351Z" fill="#111111"/>
<path d="M741.836 127.402L735.752 141.982H733.628L735.644 137.158L731.738 127.402H734.024L736.814 134.962L739.712 127.402H741.836Z" fill="#111111"/>
<path d="M730.214 124V137.32H728.162V124H730.214Z" fill="#111111"/>
<path d="M721.477 127.24C722.257 127.24 722.953 127.402 723.565 127.726C724.189 128.05 724.675 128.53 725.023 129.166C725.371 129.802 725.545 130.57 725.545 131.47V137.32H723.511V131.776C723.511 130.888 723.289 130.21 722.845 129.742C722.401 129.262 721.795 129.022 721.027 129.022C720.259 129.022 719.647 129.262 719.191 129.742C718.747 130.21 718.525 130.888 718.525 131.776V137.32H716.473V127.402H718.525V128.536C718.861 128.128 719.287 127.81 719.803 127.582C720.331 127.354 720.889 127.24 721.477 127.24Z" fill="#111111"/>
<path d="M708.064 137.446C706.9 137.446 705.826 137.176 704.842 136.636C703.87 136.084 703.096 135.322 702.52 134.35C701.956 133.366 701.674 132.262 701.674 131.038C701.674 129.814 701.956 128.716 702.52 127.744C703.096 126.772 703.87 126.016 704.842 125.476C705.826 124.924 706.9 124.648 708.064 124.648C709.24 124.648 710.314 124.924 711.286 125.476C712.27 126.016 713.044 126.772 713.608 127.744C714.172 128.716 714.454 129.814 714.454 131.038C714.454 132.262 714.172 133.366 713.608 134.35C713.044 135.322 712.27 136.084 711.286 136.636C710.314 137.176 709.24 137.446 708.064 137.446ZM708.064 135.664C708.892 135.664 709.63 135.478 710.278 135.106C710.926 134.722 711.43 134.182 711.79 133.486C712.162 132.778 712.348 131.962 712.348 131.038C712.348 130.114 712.162 129.304 711.79 128.608C711.43 127.912 710.926 127.378 710.278 127.006C709.63 126.634 708.892 126.448 708.064 126.448C707.236 126.448 706.498 126.634 705.85 127.006C705.202 127.378 704.692 127.912 704.32 128.608C703.96 129.304 703.78 130.114 703.78 131.038C703.78 131.962 703.96 132.778 704.32 133.486C704.692 134.182 705.202 134.722 705.85 135.106C706.498 135.478 707.236 135.664 708.064 135.664Z" fill="#111111"/>
<path d="M699.443 129.94V131.668H692.045V129.94H699.443Z" fill="#111111"/>
<path d="M678.945 132.316C678.945 131.32 679.149 130.438 679.557 129.67C679.977 128.902 680.541 128.308 681.249 127.888C681.969 127.456 682.767 127.24 683.643 127.24C684.291 127.24 684.927 127.384 685.551 127.672C686.187 127.948 686.691 128.32 687.063 128.788V124H689.133V137.32H687.063V135.826C686.727 136.306 686.259 136.702 685.659 137.014C685.071 137.326 684.393 137.482 683.625 137.482C682.761 137.482 681.969 137.266 681.249 136.834C680.541 136.39 679.977 135.778 679.557 134.998C679.149 134.206 678.945 133.312 678.945 132.316ZM687.063 132.352C687.063 131.668 686.919 131.074 686.631 130.57C686.355 130.066 685.989 129.682 685.533 129.418C685.077 129.154 684.585 129.022 684.057 129.022C683.529 129.022 683.037 129.154 682.581 129.418C682.125 129.67 681.753 130.048 681.465 130.552C681.189 131.044 681.051 131.632 681.051 132.316C681.051 133 681.189 133.6 681.465 134.116C681.753 134.632 682.125 135.028 682.581 135.304C683.049 135.568 683.541 135.7 684.057 135.7C684.585 135.7 685.077 135.568 685.533 135.304C685.989 135.04 686.355 134.656 686.631 134.152C686.919 133.636 687.063 133.036 687.063 132.352Z" fill="#111111"/>
<path d="M666.746 132.316C666.746 131.32 666.95 130.438 667.358 129.67C667.778 128.902 668.342 128.308 669.05 127.888C669.77 127.456 670.562 127.24 671.426 127.24C672.206 127.24 672.884 127.396 673.46 127.708C674.048 128.008 674.516 128.386 674.864 128.842V127.402H676.934V137.32H674.864V135.844C674.516 136.312 674.042 136.702 673.442 137.014C672.842 137.326 672.158 137.482 671.39 137.482C670.538 137.482 669.758 137.266 669.05 136.834C668.342 136.39 667.778 135.778 667.358 134.998C666.95 134.206 666.746 133.312 666.746 132.316ZM674.864 132.352C674.864 131.668 674.72 131.074 674.432 130.57C674.156 130.066 673.79 129.682 673.334 129.418C672.878 129.154 672.386 129.022 671.858 129.022C671.33 129.022 670.838 129.154 670.382 129.418C669.926 129.67 669.554 130.048 669.266 130.552C668.99 131.044 668.852 131.632 668.852 132.316C668.852 133 668.99 133.6 669.266 134.116C669.554 134.632 669.926 135.028 670.382 135.304C670.85 135.568 671.342 135.7 671.858 135.7C672.386 135.7 672.878 135.568 673.334 135.304C673.79 135.04 674.156 134.656 674.432 134.152C674.72 133.636 674.864 133.036 674.864 132.352Z" fill="#111111"/>
<path d="M665.411 132.118C665.411 132.49 665.387 132.826 665.339 133.126H657.761C657.821 133.918 658.115 134.554 658.643 135.034C659.171 135.514 659.819 135.754 660.587 135.754C661.691 135.754 662.471 135.292 662.927 134.368H665.141C664.841 135.28 664.295 136.03 663.503 136.618C662.723 137.194 661.751 137.482 660.587 137.482C659.639 137.482 658.787 137.272 658.031 136.852C657.287 136.42 656.699 135.82 656.267 135.052C655.847 134.272 655.637 133.372 655.637 132.352C655.637 131.332 655.841 130.438 656.249 129.67C656.669 128.89 657.251 128.29 657.995 127.87C658.751 127.45 659.615 127.24 660.587 127.24C661.523 127.24 662.357 127.444 663.089 127.852C663.821 128.26 664.391 128.836 664.799 129.58C665.207 130.312 665.411 131.158 665.411 132.118ZM663.269 131.47C663.257 130.714 662.987 130.108 662.459 129.652C661.931 129.196 661.277 128.968 660.497 128.968C659.789 128.968 659.183 129.196 658.679 129.652C658.175 130.096 657.875 130.702 657.779 131.47H663.269Z" fill="#111111"/>
<path d="M651.445 137.32L648.565 132.316H646.999V137.32H644.947V124.81H649.267C650.227 124.81 651.037 124.978 651.697 125.314C652.369 125.65 652.867 126.1 653.191 126.664C653.527 127.228 653.695 127.858 653.695 128.554C653.695 129.37 653.455 130.114 652.975 130.786C652.507 131.446 651.781 131.896 650.797 132.136L653.893 137.32H651.445ZM646.999 130.678H649.267C650.035 130.678 650.611 130.486 650.995 130.102C651.391 129.718 651.589 129.202 651.589 128.554C651.589 127.906 651.397 127.402 651.013 127.042C650.629 126.67 650.047 126.484 649.267 126.484H646.999V130.678Z" fill="#111111"/>
<rect x="33" y="205.216" width="230" height="79.6679" rx="20" fill="white"/>
<path d="M205.702 264.884V264.686C206.938 263.414 207.88 261.932 208.528 260.24C209.176 258.548 209.5 256.796 209.5 254.984C209.5 253.1 209.152 251.27 208.456 249.494C207.76 247.718 206.722 246.194 205.342 244.922V244.724H207.466C208.786 245.9 209.782 247.394 210.454 249.206C211.138 251.018 211.48 252.944 211.48 254.984C211.48 256.976 211.162 258.842 210.526 260.582C209.902 262.322 209.002 263.756 207.826 264.884H205.702Z" fill="#111111"/>
<path d="M200.19 261.698C199.41 261.698 198.708 261.56 198.084 261.284C197.472 260.996 196.986 260.612 196.626 260.132C196.266 259.64 196.074 259.094 196.05 258.494H198.174C198.21 258.914 198.408 259.268 198.768 259.556C199.14 259.832 199.602 259.97 200.154 259.97C200.73 259.97 201.174 259.862 201.486 259.646C201.81 259.418 201.972 259.13 201.972 258.782C201.972 258.41 201.792 258.134 201.432 257.954C201.084 257.774 200.526 257.576 199.758 257.36C199.014 257.156 198.408 256.958 197.94 256.766C197.472 256.574 197.064 256.28 196.716 255.884C196.38 255.488 196.212 254.966 196.212 254.318C196.212 253.79 196.368 253.31 196.68 252.878C196.992 252.434 197.436 252.086 198.012 251.834C198.6 251.582 199.272 251.456 200.028 251.456C201.156 251.456 202.062 251.744 202.746 252.32C203.442 252.884 203.814 253.658 203.862 254.642H201.81C201.774 254.198 201.594 253.844 201.27 253.58C200.946 253.316 200.508 253.184 199.956 253.184C199.416 253.184 199.002 253.286 198.714 253.49C198.426 253.694 198.282 253.964 198.282 254.3C198.282 254.564 198.378 254.786 198.57 254.966C198.762 255.146 198.996 255.29 199.272 255.398C199.548 255.494 199.956 255.62 200.496 255.776C201.216 255.968 201.804 256.166 202.26 256.37C202.728 256.562 203.13 256.85 203.466 257.234C203.802 257.618 203.976 258.128 203.988 258.764C203.988 259.328 203.832 259.832 203.52 260.276C203.208 260.72 202.764 261.068 202.188 261.32C201.624 261.572 200.958 261.698 200.19 261.698Z" fill="#111111"/>
<path d="M193.896 248.216V261.536H191.844V248.216H193.896Z" fill="#111111"/>
<path d="M178.961 256.532C178.961 255.536 179.165 254.654 179.573 253.886C179.993 253.118 180.557 252.524 181.265 252.104C181.985 251.672 182.777 251.456 183.641 251.456C184.421 251.456 185.099 251.612 185.675 251.924C186.263 252.224 186.731 252.602 187.079 253.058V251.618H189.149V261.536H187.079V260.06C186.731 260.528 186.257 260.918 185.657 261.23C185.057 261.542 184.373 261.698 183.605 261.698C182.753 261.698 181.973 261.482 181.265 261.05C180.557 260.606 179.993 259.994 179.573 259.214C179.165 258.422 178.961 257.528 178.961 256.532ZM187.079 256.568C187.079 255.884 186.935 255.29 186.647 254.786C186.371 254.282 186.005 253.898 185.549 253.634C185.093 253.37 184.601 253.238 184.073 253.238C183.545 253.238 183.053 253.37 182.597 253.634C182.141 253.886 181.769 254.264 181.481 254.768C181.205 255.26 181.067 255.848 181.067 256.532C181.067 257.216 181.205 257.816 181.481 258.332C181.769 258.848 182.141 259.244 182.597 259.52C183.065 259.784 183.557 259.916 184.073 259.916C184.601 259.916 185.093 259.784 185.549 259.52C186.005 259.256 186.371 258.872 186.647 258.368C186.935 257.852 187.079 257.252 187.079 256.568Z" fill="#111111"/>
<path d="M178.112 251.618L175.034 261.536H172.874L170.876 254.21L168.878 261.536H166.718L163.622 251.618H165.71L167.78 259.592L169.886 251.618H172.028L174.044 259.556L176.096 251.618H178.112Z" fill="#111111"/>
<path d="M151.908 256.532C151.908 255.536 152.112 254.654 152.52 253.886C152.94 253.118 153.504 252.524 154.212 252.104C154.932 251.672 155.724 251.456 156.588 251.456C157.368 251.456 158.046 251.612 158.622 251.924C159.21 252.224 159.678 252.602 160.026 253.058V251.618H162.096V261.536H160.026V260.06C159.678 260.528 159.204 260.918 158.604 261.23C158.004 261.542 157.32 261.698 156.552 261.698C155.7 261.698 154.92 261.482 154.212 261.05C153.504 260.606 152.94 259.994 152.52 259.214C152.112 258.422 151.908 257.528 151.908 256.532ZM160.026 256.568C160.026 255.884 159.882 255.29 159.594 254.786C159.318 254.282 158.952 253.898 158.496 253.634C158.04 253.37 157.548 253.238 157.02 253.238C156.492 253.238 156 253.37 155.544 253.634C155.088 253.886 154.716 254.264 154.428 254.768C154.152 255.26 154.014 255.848 154.014 256.532C154.014 257.216 154.152 257.816 154.428 258.332C154.716 258.848 155.088 259.244 155.544 259.52C156.012 259.784 156.504 259.916 157.02 259.916C157.548 259.916 158.04 259.784 158.496 259.52C158.952 259.256 159.318 258.872 159.594 258.368C159.882 257.852 160.026 257.252 160.026 256.568Z" fill="#111111"/>
<path d="M147.736 253.058C148.036 252.554 148.432 252.164 148.924 251.888C149.428 251.6 150.022 251.456 150.706 251.456V253.58H150.184C149.38 253.58 148.768 253.784 148.348 254.192C147.94 254.6 147.736 255.308 147.736 256.316V261.536H145.684V251.618H147.736V253.058Z" fill="#111111"/>
<path d="M132.801 256.532C132.801 255.536 133.005 254.654 133.413 253.886C133.833 253.118 134.397 252.524 135.105 252.104C135.825 251.672 136.623 251.456 137.499 251.456C138.147 251.456 138.783 251.6 139.407 251.888C140.043 252.164 140.547 252.536 140.919 253.004V248.216H142.989V261.536H140.919V260.042C140.583 260.522 140.115 260.918 139.515 261.23C138.927 261.542 138.249 261.698 137.481 261.698C136.617 261.698 135.825 261.482 135.105 261.05C134.397 260.606 133.833 259.994 133.413 259.214C133.005 258.422 132.801 257.528 132.801 256.532ZM140.919 256.568C140.919 255.884 140.775 255.29 140.487 254.786C140.211 254.282 139.845 253.898 139.389 253.634C138.933 253.37 138.441 253.238 137.913 253.238C137.385 253.238 136.893 253.37 136.437 253.634C135.981 253.886 135.609 254.264 135.321 254.768C135.045 255.26 134.907 255.848 134.907 256.532C134.907 257.216 135.045 257.816 135.321 258.332C135.609 258.848 135.981 259.244 136.437 259.52C136.905 259.784 137.397 259.916 137.913 259.916C138.441 259.916 138.933 259.784 139.389 259.52C139.845 259.256 140.211 258.872 140.487 258.368C140.775 257.852 140.919 257.252 140.919 256.568Z" fill="#111111"/>
<path d="M126.925 251.456C127.681 251.456 128.353 251.618 128.941 251.942C129.541 252.266 130.009 252.746 130.345 253.382C130.693 254.018 130.867 254.786 130.867 255.686V261.536H128.833V255.992C128.833 255.104 128.611 254.426 128.167 253.958C127.723 253.478 127.117 253.238 126.349 253.238C125.581 253.238 124.969 253.478 124.513 253.958C124.069 254.426 123.847 255.104 123.847 255.992V261.536H121.795V248.216H123.847V252.77C124.195 252.35 124.633 252.026 125.161 251.798C125.701 251.57 126.289 251.456 126.925 251.456Z" fill="#111111"/>
<path d="M117.492 253.292V258.782C117.492 259.154 117.576 259.424 117.744 259.592C117.924 259.748 118.224 259.826 118.644 259.826H119.904V261.536H118.284C117.36 261.536 116.652 261.32 116.16 260.888C115.668 260.456 115.422 259.754 115.422 258.782V253.292H114.252V251.618H115.422V249.152H117.492V251.618H119.904V253.292H117.492Z" fill="#111111"/>
<path d="M111.396 250.304C111.024 250.304 110.712 250.178 110.46 249.926C110.208 249.674 110.082 249.362 110.082 248.99C110.082 248.618 110.208 248.306 110.46 248.054C110.712 247.802 111.024 247.676 111.396 247.676C111.756 247.676 112.062 247.802 112.314 248.054C112.566 248.306 112.692 248.618 112.692 248.99C112.692 249.362 112.566 249.674 112.314 249.926C112.062 250.178 111.756 250.304 111.396 250.304ZM112.404 251.618V261.536H110.352V251.618H112.404Z" fill="#111111"/>
<path d="M108.659 249.026L104.951 261.536H102.629L100.001 252.068L97.2113 261.536L94.9073 261.554L91.3613 249.026H93.5393L96.1313 259.214L98.9393 249.026H101.243L103.853 259.16L106.463 249.026H108.659Z" fill="#111111"/>
<path d="M88.0461 264.884C86.8701 263.756 85.9641 262.322 85.3281 260.582C84.7041 258.842 84.3921 256.976 84.3921 254.984C84.3921 252.944 84.7281 251.018 85.4001 249.206C86.0841 247.394 87.0861 245.9 88.4061 244.724H90.5301V244.922C89.1501 246.194 88.1121 247.718 87.4161 249.494C86.7201 251.27 86.3721 253.1 86.3721 254.984C86.3721 256.796 86.6961 258.548 87.3441 260.24C87.9921 261.932 88.9341 263.414 90.1701 264.686V264.884H88.0461Z" fill="#111111"/>
<path d="M235.301 230.292V235.782C235.301 236.154 235.385 236.424 235.553 236.592C235.733 236.748 236.033 236.826 236.453 236.826H237.713V238.536H236.093C235.169 238.536 234.461 238.32 233.969 237.888C233.477 237.456 233.231 236.754 233.231 235.782V230.292H232.061V228.618H233.231V226.152H235.301V228.618H237.713V230.292H235.301Z" fill="#111111"/>
<path d="M230.887 233.334C230.887 233.706 230.863 234.042 230.815 234.342H223.237C223.297 235.134 223.591 235.77 224.119 236.25C224.647 236.73 225.295 236.97 226.063 236.97C227.167 236.97 227.947 236.508 228.403 235.584H230.617C230.317 236.496 229.771 237.246 228.979 237.834C228.199 238.41 227.227 238.698 226.063 238.698C225.115 238.698 224.263 238.488 223.507 238.068C222.763 237.636 222.175 237.036 221.743 236.268C221.323 235.488 221.113 234.588 221.113 233.568C221.113 232.548 221.317 231.654 221.725 230.886C222.145 230.106 222.727 229.506 223.471 229.086C224.227 228.666 225.091 228.456 226.063 228.456C226.999 228.456 227.833 228.66 228.565 229.068C229.297 229.476 229.867 230.052 230.275 230.796C230.683 231.528 230.887 232.374 230.887 233.334ZM228.745 232.686C228.733 231.93 228.463 231.324 227.935 230.868C227.407 230.412 226.753 230.184 225.973 230.184C225.265 230.184 224.659 230.412 224.155 230.868C223.651 231.312 223.351 231.918 223.255 232.686H228.745Z" fill="#111111"/>
<path d="M219.103 225.216V238.536H217.051V225.216H219.103Z" fill="#111111"/>
<path d="M214.357 225.216V238.536H212.305V225.216H214.357Z" fill="#111111"/>
<path d="M199.422 233.532C199.422 232.536 199.626 231.654 200.034 230.886C200.454 230.118 201.018 229.524 201.726 229.104C202.446 228.672 203.238 228.456 204.102 228.456C204.882 228.456 205.56 228.612 206.136 228.924C206.724 229.224 207.192 229.602 207.54 230.058V228.618H209.61V238.536H207.54V237.06C207.192 237.528 206.718 237.918 206.118 238.23C205.518 238.542 204.834 238.698 204.066 238.698C203.214 238.698 202.434 238.482 201.726 238.05C201.018 237.606 200.454 236.994 200.034 236.214C199.626 235.422 199.422 234.528 199.422 233.532ZM207.54 233.568C207.54 232.884 207.396 232.29 207.108 231.786C206.832 231.282 206.466 230.898 206.01 230.634C205.554 230.37 205.062 230.238 204.534 230.238C204.006 230.238 203.514 230.37 203.058 230.634C202.602 230.886 202.23 231.264 201.942 231.768C201.666 232.26 201.528 232.848 201.528 233.532C201.528 234.216 201.666 234.816 201.942 235.332C202.23 235.848 202.602 236.244 203.058 236.52C203.526 236.784 204.018 236.916 204.534 236.916C205.062 236.916 205.554 236.784 206.01 236.52C206.466 236.256 206.832 235.872 207.108 235.368C207.396 234.852 207.54 234.252 207.54 233.568Z" fill="#111111"/>
<path d="M198.413 226.026L194.705 238.536H192.383L189.755 229.068L186.965 238.536L184.661 238.554L181.115 226.026H183.293L185.885 236.214L188.693 226.026H190.997L193.607 236.16L196.217 226.026H198.413Z" fill="#111111"/>
<path d="M175.428 233.334C175.428 233.706 175.404 234.042 175.356 234.342H167.778C167.838 235.134 168.132 235.77 168.66 236.25C169.188 236.73 169.836 236.97 170.604 236.97C171.708 236.97 172.488 236.508 172.944 235.584H175.158C174.858 236.496 174.312 237.246 173.52 237.834C172.74 238.41 171.768 238.698 170.604 238.698C169.656 238.698 168.804 238.488 168.048 238.068C167.304 237.636 166.716 237.036 166.284 236.268C165.864 235.488 165.654 234.588 165.654 233.568C165.654 232.548 165.858 231.654 166.266 230.886C166.686 230.106 167.268 229.506 168.012 229.086C168.768 228.666 169.632 228.456 170.604 228.456C171.54 228.456 172.374 228.66 173.106 229.068C173.838 229.476 174.408 230.052 174.816 230.796C175.224 231.528 175.428 232.374 175.428 233.334ZM173.286 232.686C173.274 231.93 173.004 231.324 172.476 230.868C171.948 230.412 171.294 230.184 170.514 230.184C169.806 230.184 169.2 230.412 168.696 230.868C168.192 231.312 167.892 231.918 167.796 232.686H173.286Z" fill="#111111"/>
<path d="M158.135 228.456C158.903 228.456 159.581 228.612 160.169 228.924C160.769 229.224 161.237 229.602 161.573 230.058V228.618H163.643V238.698C163.643 239.61 163.451 240.42 163.067 241.128C162.683 241.848 162.125 242.412 161.393 242.82C160.673 243.228 159.809 243.432 158.801 243.432C157.457 243.432 156.341 243.114 155.453 242.478C154.565 241.854 154.061 241.002 153.941 239.922H155.975C156.131 240.438 156.461 240.852 156.965 241.164C157.481 241.488 158.093 241.65 158.801 241.65C159.629 241.65 160.295 241.398 160.799 240.894C161.315 240.39 161.573 239.658 161.573 238.698V237.042C161.225 237.51 160.751 237.906 160.151 238.23C159.563 238.542 158.891 238.698 158.135 238.698C157.271 238.698 156.479 238.482 155.759 238.05C155.051 237.606 154.487 236.994 154.067 236.214C153.659 235.422 153.455 234.528 153.455 233.532C153.455 232.536 153.659 231.654 154.067 230.886C154.487 230.118 155.051 229.524 155.759 229.104C156.479 228.672 157.271 228.456 158.135 228.456ZM161.573 233.568C161.573 232.884 161.429 232.29 161.141 231.786C160.865 231.282 160.499 230.898 160.043 230.634C159.587 230.37 159.095 230.238 158.567 230.238C158.039 230.238 157.547 230.37 157.091 230.634C156.635 230.886 156.263 231.264 155.975 231.768C155.699 232.26 155.561 232.848 155.561 233.532C155.561 234.216 155.699 234.816 155.975 235.332C156.263 235.848 156.635 236.244 157.091 236.52C157.559 236.784 158.051 236.916 158.567 236.916C159.095 236.916 159.587 236.784 160.043 236.52C160.499 236.256 160.865 235.872 161.141 235.368C161.429 234.852 161.573 234.252 161.573 233.568Z" fill="#111111"/>
<path d="M141.256 233.532C141.256 232.536 141.46 231.654 141.868 230.886C142.288 230.118 142.852 229.524 143.56 229.104C144.28 228.672 145.072 228.456 145.936 228.456C146.716 228.456 147.394 228.612 147.97 228.924C148.558 229.224 149.026 229.602 149.374 230.058V228.618H151.444V238.536H149.374V237.06C149.026 237.528 148.552 237.918 147.952 238.23C147.352 238.542 146.668 238.698 145.9 238.698C145.048 238.698 144.268 238.482 143.56 238.05C142.852 237.606 142.288 236.994 141.868 236.214C141.46 235.422 141.256 234.528 141.256 233.532ZM149.374 233.568C149.374 232.884 149.23 232.29 148.942 231.786C148.666 231.282 148.3 230.898 147.844 230.634C147.388 230.37 146.896 230.238 146.368 230.238C145.84 230.238 145.348 230.37 144.892 230.634C144.436 230.886 144.064 231.264 143.776 231.768C143.5 232.26 143.362 232.848 143.362 233.532C143.362 234.216 143.5 234.816 143.776 235.332C144.064 235.848 144.436 236.244 144.892 236.52C145.36 236.784 145.852 236.916 146.368 236.916C146.896 236.916 147.388 236.784 147.844 236.52C148.3 236.256 148.666 235.872 148.942 235.368C149.23 234.852 149.374 234.252 149.374 233.568Z" fill="#111111"/>
<path d="M137.084 230.058C137.384 229.554 137.78 229.164 138.272 228.888C138.776 228.6 139.37 228.456 140.054 228.456V230.58H139.532C138.728 230.58 138.116 230.784 137.696 231.192C137.288 231.6 137.084 232.308 137.084 233.316V238.536H135.032V228.618H137.084V230.058Z" fill="#111111"/>
<path d="M127.855 238.698C126.919 238.698 126.073 238.488 125.317 238.068C124.561 237.636 123.967 237.036 123.535 236.268C123.103 235.488 122.887 234.588 122.887 233.568C122.887 232.56 123.109 231.666 123.553 230.886C123.997 230.106 124.603 229.506 125.371 229.086C126.139 228.666 126.997 228.456 127.945 228.456C128.893 228.456 129.751 228.666 130.519 229.086C131.287 229.506 131.893 230.106 132.337 230.886C132.781 231.666 133.003 232.56 133.003 233.568C133.003 234.576 132.775 235.47 132.319 236.25C131.863 237.03 131.239 237.636 130.447 238.068C129.667 238.488 128.803 238.698 127.855 238.698ZM127.855 236.916C128.383 236.916 128.875 236.79 129.331 236.538C129.799 236.286 130.177 235.908 130.465 235.404C130.753 234.9 130.897 234.288 130.897 233.568C130.897 232.848 130.759 232.242 130.483 231.75C130.207 231.246 129.841 230.868 129.385 230.616C128.929 230.364 128.437 230.238 127.909 230.238C127.381 230.238 126.889 230.364 126.433 230.616C125.989 230.868 125.635 231.246 125.371 231.75C125.107 232.242 124.975 232.848 124.975 233.568C124.975 234.636 125.245 235.464 125.785 236.052C126.337 236.628 127.027 236.916 127.855 236.916Z" fill="#111111"/>
<path d="M119.25 230.292V235.782C119.25 236.154 119.334 236.424 119.502 236.592C119.682 236.748 119.982 236.826 120.402 236.826H121.662V238.536H120.042C119.118 238.536 118.41 238.32 117.918 237.888C117.426 237.456 117.18 236.754 117.18 235.782V230.292H116.01V228.618H117.18V226.152H119.25V228.618H121.662V230.292H119.25Z" fill="#111111"/>
<path d="M110.115 238.662C109.275 238.662 108.519 238.518 107.847 238.23C107.175 237.93 106.647 237.51 106.263 236.97C105.879 236.43 105.687 235.8 105.687 235.08H107.883C107.931 235.62 108.141 236.064 108.513 236.412C108.897 236.76 109.431 236.934 110.115 236.934C110.823 236.934 111.375 236.766 111.771 236.43C112.167 236.082 112.365 235.638 112.365 235.098C112.365 234.678 112.239 234.336 111.987 234.072C111.747 233.808 111.441 233.604 111.069 233.46C110.709 233.316 110.205 233.16 109.557 232.992C108.741 232.776 108.075 232.56 107.559 232.344C107.055 232.116 106.623 231.768 106.263 231.3C105.903 230.832 105.723 230.208 105.723 229.428C105.723 228.708 105.903 228.078 106.263 227.538C106.623 226.998 107.127 226.584 107.775 226.296C108.423 226.008 109.173 225.864 110.025 225.864C111.237 225.864 112.227 226.17 112.995 226.782C113.775 227.382 114.207 228.21 114.291 229.266H112.023C111.987 228.81 111.771 228.42 111.375 228.096C110.979 227.772 110.457 227.61 109.809 227.61C109.221 227.61 108.741 227.76 108.369 228.06C107.997 228.36 107.811 228.792 107.811 229.356C107.811 229.74 107.925 230.058 108.153 230.31C108.393 230.55 108.693 230.742 109.053 230.886C109.413 231.03 109.905 231.186 110.529 231.354C111.357 231.582 112.029 231.81 112.545 232.038C113.073 232.266 113.517 232.62 113.877 233.1C114.249 233.568 114.435 234.198 114.435 234.99C114.435 235.626 114.261 236.226 113.913 236.79C113.577 237.354 113.079 237.81 112.419 238.158C111.771 238.494 111.003 238.662 110.115 238.662Z" fill="#111111"/>
<path d="M88.4336 233.532C88.4336 232.536 88.6376 231.654 89.0456 230.886C89.4656 230.118 90.0296 229.524 90.7376 229.104C91.4576 228.672 92.2556 228.456 93.1316 228.456C93.7796 228.456 94.4156 228.6 95.0396 228.888C95.6756 229.164 96.1796 229.536 96.5516 230.004V225.216H98.6216V238.536H96.5516V237.042C96.2156 237.522 95.7476 237.918 95.1476 238.23C94.5596 238.542 93.8816 238.698 93.1136 238.698C92.2496 238.698 91.4576 238.482 90.7376 238.05C90.0296 237.606 89.4656 236.994 89.0456 236.214C88.6376 235.422 88.4336 234.528 88.4336 233.532ZM96.5516 233.568C96.5516 232.884 96.4076 232.29 96.1196 231.786C95.8436 231.282 95.4776 230.898 95.0216 230.634C94.5656 230.37 94.0736 230.238 93.5456 230.238C93.0176 230.238 92.5256 230.37 92.0696 230.634C91.6136 230.886 91.2416 231.264 90.9536 231.768C90.6776 232.26 90.5396 232.848 90.5396 233.532C90.5396 234.216 90.6776 234.816 90.9536 235.332C91.2416 235.848 91.6136 236.244 92.0696 236.52C92.5376 236.784 93.0296 236.916 93.5456 236.916C94.0736 236.916 94.5656 236.784 95.0216 236.52C95.4776 236.256 95.8436 235.872 96.1196 235.368C96.4076 234.852 96.5516 234.252 96.5516 233.568Z" fill="#111111"/>
<path d="M86.4236 225.216V238.536H84.3716V225.216H86.4236Z" fill="#111111"/>
<path d="M77.1951 238.698C76.2591 238.698 75.4131 238.488 74.6571 238.068C73.9011 237.636 73.3071 237.036 72.8751 236.268C72.4431 235.488 72.2271 234.588 72.2271 233.568C72.2271 232.56 72.4491 231.666 72.8931 230.886C73.3371 230.106 73.9431 229.506 74.7111 229.086C75.4791 228.666 76.3371 228.456 77.2851 228.456C78.2331 228.456 79.0911 228.666 79.8591 229.086C80.6271 229.506 81.2331 230.106 81.6771 230.886C82.1211 231.666 82.3431 232.56 82.3431 233.568C82.3431 234.576 82.1151 235.47 81.6591 236.25C81.2031 237.03 80.5791 237.636 79.7871 238.068C79.0071 238.488 78.1431 238.698 77.1951 238.698ZM77.1951 236.916C77.7231 236.916 78.2151 236.79 78.6711 236.538C79.1391 236.286 79.5171 235.908 79.8051 235.404C80.0931 234.9 80.2371 234.288 80.2371 233.568C80.2371 232.848 80.0991 232.242 79.8231 231.75C79.5471 231.246 79.1811 230.868 78.7251 230.616C78.2691 230.364 77.7771 230.238 77.2491 230.238C76.7211 230.238 76.2291 230.364 75.7731 230.616C75.3291 230.868 74.9751 231.246 74.7111 231.75C74.4471 232.242 74.3151 232.848 74.3151 233.568C74.3151 234.636 74.5851 235.464 75.1251 236.052C75.6771 236.628 76.3671 236.916 77.1951 236.916Z" fill="#111111"/>
<path d="M58.2871 232.254C58.2871 231.03 58.5691 229.932 59.1331 228.96C59.7091 227.988 60.4831 227.232 61.4551 226.692C62.4391 226.14 63.5131 225.864 64.6771 225.864C66.0091 225.864 67.1911 226.194 68.2231 226.854C69.2671 227.502 70.0231 228.426 70.4911 229.626H68.0251C67.7011 228.966 67.2511 228.474 66.6751 228.15C66.0991 227.826 65.4331 227.664 64.6771 227.664C63.8491 227.664 63.1111 227.85 62.4631 228.222C61.8151 228.594 61.3051 229.128 60.9331 229.824C60.5731 230.52 60.3931 231.33 60.3931 232.254C60.3931 233.178 60.5731 233.988 60.9331 234.684C61.3051 235.38 61.8151 235.92 62.4631 236.304C63.1111 236.676 63.8491 236.862 64.6771 236.862C65.4331 236.862 66.0991 236.7 66.6751 236.376C67.2511 236.052 67.7011 235.56 68.0251 234.9H70.4911C70.0231 236.1 69.2671 237.024 68.2231 237.672C67.1911 238.32 66.0091 238.644 64.6771 238.644C63.5011 238.644 62.4271 238.374 61.4551 237.834C60.4831 237.282 59.7091 236.52 59.1331 235.548C58.5691 234.576 58.2871 233.478 58.2871 232.254Z" fill="#111111"/>
<path d="M282.293 244.343C281.902 244.733 281.902 245.367 282.293 245.757L288.657 252.121C289.047 252.512 289.681 252.512 290.071 252.121C290.462 251.73 290.462 251.097 290.071 250.707L284.414 245.05L290.071 239.393C290.462 239.003 290.462 238.369 290.071 237.979C289.681 237.588 289.047 237.588 288.657 237.979L282.293 244.343ZM301.707 245.757C302.098 245.367 302.098 244.733 301.707 244.343L295.343 237.979C294.953 237.588 294.319 237.588 293.929 237.979C293.538 238.369 293.538 239.003 293.929 239.393L299.586 245.05L293.929 250.707C293.538 251.097 293.538 251.73 293.929 252.121C294.319 252.512 294.953 252.512 295.343 252.121L301.707 245.757ZM283 245.05V246.05H301V245.05V244.05H283V245.05Z" fill="#813BF5"/>
<rect x="321" y="218.039" width="230" height="54.022" rx="20" fill="white"/>
<path d="M522.846 246.697C522.846 247.069 522.822 247.405 522.774 247.705H515.196C515.256 248.497 515.55 249.133 516.078 249.613C516.606 250.093 517.254 250.333 518.022 250.333C519.126 250.333 519.906 249.871 520.362 248.947H522.576C522.276 249.859 521.73 250.609 520.938 251.197C520.158 251.773 519.186 252.061 518.022 252.061C517.074 252.061 516.222 251.851 515.466 251.431C514.722 250.999 514.134 250.399 513.702 249.631C513.282 248.851 513.072 247.951 513.072 246.931C513.072 245.911 513.276 245.017 513.684 244.249C514.104 243.469 514.686 242.869 515.43 242.449C516.186 242.029 517.05 241.819 518.022 241.819C518.958 241.819 519.792 242.023 520.524 242.431C521.256 242.839 521.826 243.415 522.234 244.159C522.642 244.891 522.846 245.737 522.846 246.697ZM520.704 246.049C520.692 245.293 520.422 244.687 519.894 244.231C519.366 243.775 518.712 243.547 517.932 243.547C517.224 243.547 516.618 243.775 516.114 244.231C515.61 244.675 515.31 245.281 515.214 246.049H520.704Z" fill="#111111"/>
<path d="M500.873 246.895C500.873 245.899 501.077 245.017 501.485 244.249C501.905 243.481 502.469 242.887 503.177 242.467C503.897 242.035 504.695 241.819 505.571 241.819C506.219 241.819 506.855 241.963 507.479 242.251C508.115 242.527 508.619 242.899 508.991 243.367V238.579H511.061V251.899H508.991V250.405C508.655 250.885 508.187 251.281 507.587 251.593C506.999 251.905 506.321 252.061 505.553 252.061C504.689 252.061 503.897 251.845 503.177 251.413C502.469 250.969 501.905 250.357 501.485 249.577C501.077 248.785 500.873 247.891 500.873 246.895ZM508.991 246.931C508.991 246.247 508.847 245.653 508.559 245.149C508.283 244.645 507.917 244.261 507.461 243.997C507.005 243.733 506.513 243.601 505.985 243.601C505.457 243.601 504.965 243.733 504.509 243.997C504.053 244.249 503.681 244.627 503.393 245.131C503.117 245.623 502.979 246.211 502.979 246.895C502.979 247.579 503.117 248.179 503.393 248.695C503.681 249.211 504.053 249.607 504.509 249.883C504.977 250.147 505.469 250.279 505.985 250.279C506.513 250.279 507.005 250.147 507.461 249.883C507.917 249.619 508.283 249.235 508.559 248.731C508.847 248.215 508.991 247.615 508.991 246.931Z" fill="#111111"/>
<path d="M494.38 252.061C493.444 252.061 492.598 251.851 491.842 251.431C491.086 250.999 490.492 250.399 490.06 249.631C489.628 248.851 489.412 247.951 489.412 246.931C489.412 245.923 489.634 245.029 490.078 244.249C490.522 243.469 491.128 242.869 491.896 242.449C492.664 242.029 493.522 241.819 494.47 241.819C495.418 241.819 496.276 242.029 497.044 242.449C497.812 242.869 498.418 243.469 498.862 244.249C499.306 245.029 499.528 245.923 499.528 246.931C499.528 247.939 499.3 248.833 498.844 249.613C498.388 250.393 497.764 250.999 496.972 251.431C496.192 251.851 495.328 252.061 494.38 252.061ZM494.38 250.279C494.908 250.279 495.4 250.153 495.856 249.901C496.324 249.649 496.702 249.271 496.99 248.767C497.278 248.263 497.422 247.651 497.422 246.931C497.422 246.211 497.284 245.605 497.008 245.113C496.732 244.609 496.366 244.231 495.91 243.979C495.454 243.727 494.962 243.601 494.434 243.601C493.906 243.601 493.414 243.727 492.958 243.979C492.514 244.231 492.16 244.609 491.896 245.113C491.632 245.605 491.5 246.211 491.5 246.931C491.5 247.999 491.77 248.827 492.31 249.415C492.862 249.991 493.552 250.279 494.38 250.279Z" fill="#111111"/>
<path d="M487.383 251.899H485.331L479.157 242.557V251.899H477.105V239.371H479.157L485.331 248.695V239.371H487.383V251.899Z" fill="#111111"/>
<path d="M470.411 246.697C470.411 247.069 470.387 247.405 470.339 247.705H462.761C462.821 248.497 463.115 249.133 463.643 249.613C464.171 250.093 464.819 250.333 465.587 250.333C466.691 250.333 467.471 249.871 467.927 248.947H470.141C469.841 249.859 469.295 250.609 468.503 251.197C467.723 251.773 466.751 252.061 465.587 252.061C464.639 252.061 463.787 251.851 463.031 251.431C462.287 250.999 461.699 250.399 461.267 249.631C460.847 248.851 460.637 247.951 460.637 246.931C460.637 245.911 460.841 245.017 461.249 244.249C461.669 243.469 462.251 242.869 462.995 242.449C463.751 242.029 464.615 241.819 465.587 241.819C466.523 241.819 467.357 242.023 468.089 242.431C468.821 242.839 469.391 243.415 469.799 244.159C470.207 244.891 470.411 245.737 470.411 246.697ZM468.269 246.049C468.257 245.293 467.987 244.687 467.459 244.231C466.931 243.775 466.277 243.547 465.497 243.547C464.789 243.547 464.183 243.775 463.679 244.231C463.175 244.675 462.875 245.281 462.779 246.049H468.269Z" fill="#111111"/>
<path d="M455.305 252.061C454.525 252.061 453.823 251.923 453.199 251.647C452.587 251.359 452.101 250.975 451.741 250.495C451.381 250.003 451.189 249.457 451.165 248.857H453.289C453.325 249.277 453.523 249.631 453.883 249.919C454.255 250.195 454.717 250.333 455.269 250.333C455.845 250.333 456.289 250.225 456.601 250.009C456.925 249.781 457.087 249.493 457.087 249.145C457.087 248.773 456.907 248.497 456.547 248.317C456.199 248.137 455.641 247.939 454.873 247.723C454.129 247.519 453.523 247.321 453.055 247.129C452.587 246.937 452.179 246.643 451.831 246.247C451.495 245.851 451.327 245.329 451.327 244.681C451.327 244.153 451.483 243.673 451.795 243.241C452.107 242.797 452.551 242.449 453.127 242.197C453.715 241.945 454.387 241.819 455.143 241.819C456.271 241.819 457.177 242.107 457.861 242.683C458.557 243.247 458.929 244.021 458.977 245.005H456.925C456.889 244.561 456.709 244.207 456.385 243.943C456.061 243.679 455.623 243.547 455.071 243.547C454.531 243.547 454.117 243.649 453.829 243.853C453.541 244.057 453.397 244.327 453.397 244.663C453.397 244.927 453.493 245.149 453.685 245.329C453.877 245.509 454.111 245.653 454.387 245.761C454.663 245.857 455.071 245.983 455.611 246.139C456.331 246.331 456.919 246.529 457.375 246.733C457.843 246.925 458.245 247.213 458.581 247.597C458.917 247.981 459.091 248.491 459.103 249.127C459.103 249.691 458.947 250.195 458.635 250.639C458.323 251.083 457.879 251.431 457.303 251.683C456.739 251.935 456.073 252.061 455.305 252.061Z" fill="#111111"/>
<path d="M438.822 246.895C438.822 245.899 439.026 245.017 439.434 244.249C439.854 243.481 440.418 242.887 441.126 242.467C441.846 242.035 442.638 241.819 443.502 241.819C444.282 241.819 444.96 241.975 445.536 242.287C446.124 242.587 446.592 242.965 446.94 243.421V241.981H449.01V251.899H446.94V250.423C446.592 250.891 446.118 251.281 445.518 251.593C444.918 251.905 444.234 252.061 443.466 252.061C442.614 252.061 441.834 251.845 441.126 251.413C440.418 250.969 439.854 250.357 439.434 249.577C439.026 248.785 438.822 247.891 438.822 246.895ZM446.94 246.931C446.94 246.247 446.796 245.653 446.508 245.149C446.232 244.645 445.866 244.261 445.41 243.997C444.954 243.733 444.462 243.601 443.934 243.601C443.406 243.601 442.914 243.733 442.458 243.997C442.002 244.249 441.63 244.627 441.342 245.131C441.066 245.623 440.928 246.211 440.928 246.895C440.928 247.579 441.066 248.179 441.342 248.695C441.63 249.211 442.002 249.607 442.458 249.883C442.926 250.147 443.418 250.279 443.934 250.279C444.462 250.279 444.954 250.147 445.41 249.883C445.866 249.619 446.232 249.235 446.508 248.731C446.796 248.215 446.94 247.615 446.94 246.931Z" fill="#111111"/>
<path d="M434.864 245.473C435.536 245.593 436.106 245.947 436.574 246.535C437.042 247.123 437.276 247.789 437.276 248.533C437.276 249.169 437.108 249.745 436.772 250.261C436.448 250.765 435.974 251.167 435.35 251.467C434.726 251.755 434 251.899 433.172 251.899H428.168V239.389H432.938C433.79 239.389 434.522 239.533 435.134 239.821C435.746 240.109 436.208 240.499 436.52 240.991C436.832 241.471 436.988 242.011 436.988 242.611C436.988 243.331 436.796 243.931 436.412 244.411C436.028 244.891 435.512 245.245 434.864 245.473ZM430.22 244.645H432.758C433.43 244.645 433.952 244.495 434.324 244.195C434.708 243.883 434.9 243.439 434.9 242.863C434.9 242.299 434.708 241.861 434.324 241.549C433.952 241.225 433.43 241.063 432.758 241.063H430.22V244.645ZM432.992 250.225C433.688 250.225 434.234 250.057 434.63 249.721C435.026 249.385 435.224 248.917 435.224 248.317C435.224 247.705 435.014 247.219 434.594 246.859C434.174 246.499 433.616 246.319 432.92 246.319H430.22V250.225H432.992Z" fill="#111111"/>
<path d="M419.791 240.667C419.419 240.667 419.107 240.541 418.855 240.289C418.603 240.037 418.477 239.725 418.477 239.353C418.477 238.981 418.603 238.669 418.855 238.417C419.107 238.165 419.419 238.039 419.791 238.039C420.151 238.039 420.457 238.165 420.709 238.417C420.961 238.669 421.087 238.981 421.087 239.353C421.087 239.725 420.961 240.037 420.709 240.289C420.457 240.541 420.151 240.667 419.791 240.667ZM420.799 241.981V251.899H418.747V241.981H420.799Z" fill="#111111"/>
<path d="M413.89 243.421C414.19 242.917 414.586 242.527 415.078 242.251C415.582 241.963 416.176 241.819 416.86 241.819V243.943H416.338C415.534 243.943 414.922 244.147 414.502 244.555C414.094 244.963 413.89 245.671 413.89 246.679V251.899H411.838V241.981H413.89V243.421Z" fill="#111111"/>
<path d="M398.955 246.895C398.955 245.899 399.159 245.017 399.567 244.249C399.987 243.481 400.551 242.887 401.259 242.467C401.979 242.035 402.771 241.819 403.635 241.819C404.415 241.819 405.093 241.975 405.669 242.287C406.257 242.587 406.725 242.965 407.073 243.421V241.981H409.143V251.899H407.073V250.423C406.725 250.891 406.251 251.281 405.651 251.593C405.051 251.905 404.367 252.061 403.599 252.061C402.747 252.061 401.967 251.845 401.259 251.413C400.551 250.969 399.987 250.357 399.567 249.577C399.159 248.785 398.955 247.891 398.955 246.895ZM407.073 246.931C407.073 246.247 406.929 245.653 406.641 245.149C406.365 244.645 405.999 244.261 405.543 243.997C405.087 243.733 404.595 243.601 404.067 243.601C403.539 243.601 403.047 243.733 402.591 243.997C402.135 244.249 401.763 244.627 401.475 245.131C401.199 245.623 401.061 246.211 401.061 246.895C401.061 247.579 401.199 248.179 401.475 248.695C401.763 249.211 402.135 249.607 402.591 249.883C403.059 250.147 403.551 250.279 404.067 250.279C404.595 250.279 405.087 250.147 405.543 249.883C405.999 249.619 406.365 249.235 406.641 248.731C406.929 248.215 407.073 247.615 407.073 246.931Z" fill="#111111"/>
<path d="M395.336 243.655V249.145C395.336 249.517 395.42 249.787 395.588 249.955C395.768 250.111 396.068 250.189 396.488 250.189H397.748V251.899H396.128C395.204 251.899 394.496 251.683 394.004 251.251C393.512 250.819 393.266 250.117 393.266 249.145V243.655H392.096V241.981H393.266V239.515H395.336V241.981H397.748V243.655H395.336Z" fill="#111111"/>
<path d="M385.765 252.061C384.829 252.061 383.983 251.851 383.227 251.431C382.471 250.999 381.877 250.399 381.445 249.631C381.013 248.851 380.797 247.951 380.797 246.931C380.797 245.923 381.019 245.029 381.463 244.249C381.907 243.469 382.513 242.869 383.281 242.449C384.049 242.029 384.907 241.819 385.855 241.819C386.803 241.819 387.661 242.029 388.429 242.449C389.197 242.869 389.803 243.469 390.247 244.249C390.691 245.029 390.913 245.923 390.913 246.931C390.913 247.939 390.685 248.833 390.229 249.613C389.773 250.393 389.149 250.999 388.357 251.431C387.577 251.851 386.713 252.061 385.765 252.061ZM385.765 250.279C386.293 250.279 386.785 250.153 387.241 249.901C387.709 249.649 388.087 249.271 388.375 248.767C388.663 248.263 388.807 247.651 388.807 246.931C388.807 246.211 388.669 245.605 388.393 245.113C388.117 244.609 387.751 244.231 387.295 243.979C386.839 243.727 386.347 243.601 385.819 243.601C385.291 243.601 384.799 243.727 384.343 243.979C383.899 244.231 383.545 244.609 383.281 245.113C383.017 245.605 382.885 246.211 382.885 246.931C382.885 247.999 383.155 248.827 383.695 249.415C384.247 249.991 384.937 250.279 385.765 250.279Z" fill="#111111"/>
<path d="M374.777 241.819C375.557 241.819 376.253 241.981 376.865 242.305C377.489 242.629 377.975 243.109 378.323 243.745C378.671 244.381 378.845 245.149 378.845 246.049V251.899H376.811V246.355C376.811 245.467 376.589 244.789 376.145 244.321C375.701 243.841 375.095 243.601 374.327 243.601C373.559 243.601 372.947 243.841 372.491 244.321C372.047 244.789 371.825 245.467 371.825 246.355V251.899H369.773V241.981H371.825V243.115C372.161 242.707 372.587 242.389 373.103 242.161C373.631 241.933 374.189 241.819 374.777 241.819Z" fill="#111111"/>
<path d="M366.072 240.667C365.7 240.667 365.388 240.541 365.136 240.289C364.884 240.037 364.758 239.725 364.758 239.353C364.758 238.981 364.884 238.669 365.136 238.417C365.388 238.165 365.7 238.039 366.072 238.039C366.432 238.039 366.738 238.165 366.99 238.417C367.242 238.669 367.368 238.981 367.368 239.353C367.368 239.725 367.242 240.037 366.99 240.289C366.738 240.541 366.432 240.667 366.072 240.667ZM367.08 241.981V251.899H365.028V241.981H367.08Z" fill="#111111"/>
<path d="M362.33 239.389V251.899H360.278V243.331L356.462 251.899H355.04L351.206 243.331V251.899H349.154V239.389H351.368L355.76 249.199L360.134 239.389H362.33Z" fill="#111111"/>
<path d="M570.293 244.343C569.902 244.733 569.902 245.367 570.293 245.757L576.657 252.121C577.047 252.512 577.681 252.512 578.071 252.121C578.462 251.73 578.462 251.097 578.071 250.707L572.414 245.05L578.071 239.393C578.462 239.003 578.462 238.369 578.071 237.979C577.681 237.588 577.047 237.588 576.657 237.979L570.293 244.343ZM589.707 245.757C590.098 245.367 590.098 244.733 589.707 244.343L583.343 237.979C582.953 237.588 582.319 237.588 581.929 237.979C581.538 238.369 581.538 239.003 581.929 239.393L587.586 245.05L581.929 250.707C581.538 251.097 581.538 251.73 581.929 252.121C582.319 252.512 582.953 252.512 583.343 252.121L589.707 245.757ZM571 245.05V246.05H589V245.05V244.05H571V245.05Z" fill="#813BF5"/>
<rect x="609" y="218.039" width="230" height="54.022" rx="20" fill="white"/>
<path d="M775.355 246.949L779.927 251.899H777.155L773.483 247.633V251.899H771.431V238.579H773.483V246.319L777.083 241.981H779.927L775.355 246.949Z" fill="#111111"/>
<path d="M766.574 243.421C766.874 242.917 767.27 242.527 767.762 242.251C768.266 241.963 768.86 241.819 769.544 241.819V243.943H769.022C768.218 243.943 767.606 244.147 767.186 244.555C766.778 244.963 766.574 245.671 766.574 246.679V251.899H764.522V241.981H766.574V243.421Z" fill="#111111"/>
<path d="M757.346 252.061C756.41 252.061 755.564 251.851 754.808 251.431C754.052 250.999 753.458 250.399 753.026 249.631C752.594 248.851 752.378 247.951 752.378 246.931C752.378 245.923 752.6 245.029 753.044 244.249C753.488 243.469 754.094 242.869 754.862 242.449C755.63 242.029 756.488 241.819 757.436 241.819C758.384 241.819 759.242 242.029 760.01 242.449C760.778 242.869 761.384 243.469 761.828 244.249C762.272 245.029 762.494 245.923 762.494 246.931C762.494 247.939 762.266 248.833 761.81 249.613C761.354 250.393 760.73 250.999 759.938 251.431C759.158 251.851 758.294 252.061 757.346 252.061ZM757.346 250.279C757.874 250.279 758.366 250.153 758.822 249.901C759.29 249.649 759.668 249.271 759.956 248.767C760.244 248.263 760.388 247.651 760.388 246.931C760.388 246.211 760.25 245.605 759.974 245.113C759.698 244.609 759.332 244.231 758.876 243.979C758.42 243.727 757.928 243.601 757.4 243.601C756.872 243.601 756.38 243.727 755.924 243.979C755.48 244.231 755.126 244.609 754.862 245.113C754.598 245.605 754.466 246.211 754.466 246.931C754.466 247.999 754.736 248.827 755.276 249.415C755.828 249.991 756.518 250.279 757.346 250.279Z" fill="#111111"/>
<path d="M751.511 241.981L748.433 251.899H746.273L744.275 244.573L742.277 251.899H740.117L737.021 241.981H739.109L741.179 249.955L743.285 241.981H745.427L747.443 249.919L749.495 241.981H751.511Z" fill="#111111"/>
<path d="M733.887 243.655V249.145C733.887 249.517 733.971 249.787 734.139 249.955C734.319 250.111 734.619 250.189 735.039 250.189H736.299V251.899H734.679C733.755 251.899 733.047 251.683 732.555 251.251C732.063 250.819 731.817 250.117 731.817 249.145V243.655H730.647V241.981H731.817V239.515H733.887V241.981H736.299V243.655H733.887Z" fill="#111111"/>
<path d="M729.474 246.697C729.474 247.069 729.45 247.405 729.402 247.705H721.824C721.884 248.497 722.178 249.133 722.706 249.613C723.234 250.093 723.882 250.333 724.65 250.333C725.754 250.333 726.534 249.871 726.99 248.947H729.204C728.904 249.859 728.358 250.609 727.566 251.197C726.786 251.773 725.814 252.061 724.65 252.061C723.702 252.061 722.85 251.851 722.094 251.431C721.35 250.999 720.762 250.399 720.33 249.631C719.91 248.851 719.7 247.951 719.7 246.931C719.7 245.911 719.904 245.017 720.312 244.249C720.732 243.469 721.314 242.869 722.058 242.449C722.814 242.029 723.678 241.819 724.65 241.819C725.586 241.819 726.42 242.023 727.152 242.431C727.884 242.839 728.454 243.415 728.862 244.159C729.27 244.891 729.474 245.737 729.474 246.697ZM727.332 246.049C727.32 245.293 727.05 244.687 726.522 244.231C725.994 243.775 725.34 243.547 724.56 243.547C723.852 243.547 723.246 243.775 722.742 244.231C722.238 244.675 721.938 245.281 721.842 246.049H727.332Z" fill="#111111"/>
<path d="M717.689 251.899H715.637L709.463 242.557V251.899H707.411V239.371H709.463L715.637 248.695V239.371H717.689V251.899Z" fill="#111111"/>
<path d="M699.034 240.667C698.662 240.667 698.35 240.541 698.098 240.289C697.846 240.037 697.72 239.725 697.72 239.353C697.72 238.981 697.846 238.669 698.098 238.417C698.35 238.165 698.662 238.039 699.034 238.039C699.394 238.039 699.7 238.165 699.952 238.417C700.204 238.669 700.33 238.981 700.33 239.353C700.33 239.725 700.204 240.037 699.952 240.289C699.7 240.541 699.394 240.667 699.034 240.667ZM700.042 241.981V251.899H697.99V241.981H700.042Z" fill="#111111"/>
<path d="M693.133 243.421C693.433 242.917 693.829 242.527 694.321 242.251C694.825 241.963 695.419 241.819 696.103 241.819V243.943H695.581C694.777 243.943 694.165 244.147 693.745 244.555C693.337 244.963 693.133 245.671 693.133 246.679V251.899H691.081V241.981H693.133V243.421Z" fill="#111111"/>
<path d="M678.198 246.895C678.198 245.899 678.402 245.017 678.81 244.249C679.23 243.481 679.794 242.887 680.502 242.467C681.222 242.035 682.014 241.819 682.878 241.819C683.658 241.819 684.336 241.975 684.912 242.287C685.5 242.587 685.968 242.965 686.316 243.421V241.981H688.386V251.899H686.316V250.423C685.968 250.891 685.494 251.281 684.894 251.593C684.294 251.905 683.61 252.061 682.842 252.061C681.99 252.061 681.21 251.845 680.502 251.413C679.794 250.969 679.23 250.357 678.81 249.577C678.402 248.785 678.198 247.891 678.198 246.895ZM686.316 246.931C686.316 246.247 686.172 245.653 685.884 245.149C685.608 244.645 685.242 244.261 684.786 243.997C684.33 243.733 683.838 243.601 683.31 243.601C682.782 243.601 682.29 243.733 681.834 243.997C681.378 244.249 681.006 244.627 680.718 245.131C680.442 245.623 680.304 246.211 680.304 246.895C680.304 247.579 680.442 248.179 680.718 248.695C681.006 249.211 681.378 249.607 681.834 249.883C682.302 250.147 682.794 250.279 683.31 250.279C683.838 250.279 684.33 250.147 684.786 249.883C685.242 249.619 685.608 249.235 685.884 248.731C686.172 248.215 686.316 247.615 686.316 246.931Z" fill="#111111"/>
<path d="M676.804 239.389V241.063H673.474V251.899H671.422V241.063H668.074V239.389H676.804Z" fill="#111111"/>
</svg>
