<svg width="872" height="337" viewBox="0 0 872 337" fill="none" xmlns="http://www.w3.org/2000/svg">
<rect width="872" height="336.792" rx="30" fill="white" fill-opacity="0.4"/>
<path d="M522.02 58.84L519 70H515.22L513.46 62.76L511.64 70H507.88L504.84 58.84H508.26L509.84 66.82L511.72 58.84H515.34L517.24 66.78L518.8 58.84H522.02Z" fill="#111111"/>
<path d="M498.345 70.1601C497.252 70.1601 496.265 69.9267 495.385 69.4601C494.518 68.9934 493.832 68.3267 493.325 67.4601C492.832 66.5934 492.585 65.5801 492.585 64.4201C492.585 63.2734 492.838 62.2667 493.345 61.4001C493.852 60.5201 494.545 59.8467 495.425 59.3801C496.305 58.9134 497.292 58.6801 498.385 58.6801C499.478 58.6801 500.465 58.9134 501.345 59.3801C502.225 59.8467 502.918 60.5201 503.425 61.4001C503.932 62.2667 504.185 63.2734 504.185 64.4201C504.185 65.5667 503.925 66.5801 503.405 67.4601C502.898 68.3267 502.198 68.9934 501.305 69.4601C500.425 69.9267 499.438 70.1601 498.345 70.1601ZM498.345 67.2001C498.998 67.2001 499.552 66.9601 500.005 66.4801C500.472 66.0001 500.705 65.3134 500.705 64.4201C500.705 63.5267 500.478 62.8401 500.025 62.3601C499.585 61.8801 499.038 61.6401 498.385 61.6401C497.718 61.6401 497.165 61.8801 496.725 62.3601C496.285 62.8267 496.065 63.5134 496.065 64.4201C496.065 65.3134 496.278 66.0001 496.705 66.4801C497.145 66.9601 497.692 67.2001 498.345 67.2001Z" fill="#111111"/>
<path d="M490.787 55.2V70H487.367V55.2H490.787Z" fill="#111111"/>
<path d="M485.57 55.96V58.7H479.85V61.66H484.13V64.32H479.85V70H476.43V55.96H485.57Z" fill="#111111"/>
<path d="M469.713 55.2V70H466.293V55.2H469.713Z" fill="#111111"/>
<path d="M452.038 64.4001C452.038 63.2534 452.251 62.2467 452.678 61.3801C453.118 60.5134 453.711 59.8467 454.458 59.3801C455.205 58.9134 456.038 58.6801 456.958 58.6801C457.745 58.6801 458.431 58.8401 459.018 59.1601C459.618 59.4801 460.078 59.9001 460.398 60.4201V58.8401H463.818V70.0001H460.398V68.4201C460.065 68.9401 459.598 69.3601 458.998 69.6801C458.411 70.0001 457.725 70.1601 456.938 70.1601C456.031 70.1601 455.205 69.9267 454.458 69.4601C453.711 68.9801 453.118 68.3067 452.678 67.4401C452.251 66.5601 452.038 65.5467 452.038 64.4001ZM460.398 64.4201C460.398 63.5667 460.158 62.8934 459.678 62.4001C459.211 61.9067 458.638 61.6601 457.958 61.6601C457.278 61.6601 456.698 61.9067 456.218 62.4001C455.751 62.8801 455.518 63.5467 455.518 64.4001C455.518 65.2534 455.751 65.9334 456.218 66.4401C456.698 66.9334 457.278 67.1801 457.958 67.1801C458.638 67.1801 459.211 66.9334 459.678 66.4401C460.158 65.9467 460.398 65.2734 460.398 64.4201Z" fill="#111111"/>
<path d="M451.414 58.84L448.394 70H444.614L442.854 62.76L441.034 70H437.274L434.234 58.84H437.654L439.234 66.82L441.114 58.84H444.734L446.634 66.78L448.194 58.84H451.414Z" fill="#111111"/>
<path d="M421.14 64.4001C421.14 63.2534 421.353 62.2467 421.78 61.3801C422.22 60.5134 422.813 59.8467 423.56 59.3801C424.306 58.9134 425.14 58.6801 426.06 58.6801C426.846 58.6801 427.533 58.8401 428.12 59.1601C428.72 59.4801 429.18 59.9001 429.5 60.4201V58.8401H432.92V70.0001H429.5V68.4201C429.166 68.9401 428.7 69.3601 428.1 69.6801C427.513 70.0001 426.826 70.1601 426.04 70.1601C425.133 70.1601 424.306 69.9267 423.56 69.4601C422.813 68.9801 422.22 68.3067 421.78 67.4401C421.353 66.5601 421.14 65.5467 421.14 64.4001ZM429.5 64.4201C429.5 63.5667 429.26 62.8934 428.78 62.4001C428.313 61.9067 427.74 61.6601 427.06 61.6601C426.38 61.6601 425.8 61.9067 425.32 62.4001C424.853 62.8801 424.62 63.5467 424.62 64.4001C424.62 65.2534 424.853 65.9334 425.32 66.4401C425.8 66.9334 426.38 67.1801 427.06 67.1801C427.74 67.1801 428.313 66.9334 428.78 66.4401C429.26 65.9467 429.5 65.2734 429.5 64.4201Z" fill="#111111"/>
<path d="M416.686 60.7C417.086 60.0866 417.586 59.6066 418.186 59.26C418.786 58.9 419.452 58.72 420.186 58.72V62.34H419.246C418.392 62.34 417.752 62.5266 417.326 62.9C416.899 63.26 416.686 63.9 416.686 64.82V70H413.266V58.84H416.686V60.7Z" fill="#111111"/>
<path d="M399.011 64.4C399.011 63.2533 399.224 62.2466 399.651 61.38C400.091 60.5133 400.684 59.8466 401.431 59.38C402.177 58.9133 403.011 58.68 403.931 58.68C404.664 58.68 405.331 58.8333 405.931 59.14C406.544 59.4466 407.024 59.86 407.371 60.38V55.2H410.791V70H407.371V68.4C407.051 68.9333 406.591 69.36 405.991 69.68C405.404 70 404.717 70.16 403.931 70.16C403.011 70.16 402.177 69.9266 401.431 69.46C400.684 68.98 400.091 68.3066 399.651 67.44C399.224 66.56 399.011 65.5466 399.011 64.4ZM407.371 64.42C407.371 63.5666 407.131 62.8933 406.651 62.4C406.184 61.9066 405.611 61.66 404.931 61.66C404.251 61.66 403.671 61.9066 403.191 62.4C402.724 62.88 402.491 63.5466 402.491 64.4C402.491 65.2533 402.724 65.9333 403.191 66.44C403.671 66.9333 404.251 67.18 404.931 67.18C405.611 67.18 406.184 66.9333 406.651 66.44C407.131 65.9466 407.371 65.2733 407.371 64.42Z" fill="#111111"/>
<path d="M393.075 58.72C394.355 58.72 395.382 59.1466 396.155 60C396.928 60.84 397.315 62 397.315 63.48V70H393.915V63.94C393.915 63.1933 393.722 62.6133 393.335 62.2C392.948 61.7866 392.428 61.58 391.775 61.58C391.122 61.58 390.602 61.7866 390.215 62.2C389.828 62.6133 389.635 63.1933 389.635 63.94V70H386.215V55.2H389.635V60.34C389.982 59.8466 390.455 59.4533 391.055 59.16C391.655 58.8666 392.328 58.72 393.075 58.72Z" fill="#111111"/>
<path d="M384.31 67.1V70H382.57C381.33 70 380.363 69.7 379.67 69.1C378.976 68.4867 378.63 67.4933 378.63 66.12V61.68H377.27V58.84H378.63V56.12H382.05V58.84H384.29V61.68H382.05V66.16C382.05 66.4933 382.13 66.7333 382.29 66.88C382.45 67.0267 382.716 67.1 383.09 67.1H384.31Z" fill="#111111"/>
<path d="M373.911 57.68C373.311 57.68 372.818 57.5066 372.431 57.16C372.058 56.8 371.871 56.36 371.871 55.84C371.871 55.3066 372.058 54.8666 372.431 54.52C372.818 54.16 373.311 53.98 373.911 53.98C374.498 53.98 374.978 54.16 375.351 54.52C375.738 54.8666 375.931 55.3066 375.931 55.84C375.931 56.36 375.738 56.8 375.351 57.16C374.978 57.5066 374.498 57.68 373.911 57.68ZM375.611 58.84V70H372.191V58.84H375.611Z" fill="#111111"/>
<path d="M370.476 55.96L366.816 70H362.676L360.436 60.76L358.116 70H353.976L350.416 55.96H354.076L356.096 66.18L358.596 55.96H362.356L364.756 66.18L366.796 55.96H370.476Z" fill="#111111"/>
<rect x="32.7012" y="106.952" width="230" height="75.6721" rx="20" fill="white"/>
<path d="M198.235 149.142V162.462H196.183V149.142H198.235Z" fill="#111111"/>
<path d="M183.3 157.458C183.3 156.462 183.504 155.58 183.912 154.812C184.332 154.044 184.896 153.45 185.604 153.03C186.324 152.598 187.116 152.382 187.98 152.382C188.76 152.382 189.438 152.538 190.014 152.85C190.602 153.15 191.07 153.528 191.418 153.984V152.544H193.488V162.462H191.418V160.986C191.07 161.454 190.596 161.844 189.996 162.156C189.396 162.468 188.712 162.624 187.944 162.624C187.092 162.624 186.312 162.408 185.604 161.976C184.896 161.532 184.332 160.92 183.912 160.14C183.504 159.348 183.3 158.454 183.3 157.458ZM191.418 157.494C191.418 156.81 191.274 156.216 190.986 155.712C190.71 155.208 190.344 154.824 189.888 154.56C189.432 154.296 188.94 154.164 188.412 154.164C187.884 154.164 187.392 154.296 186.936 154.56C186.48 154.812 186.108 155.19 185.82 155.694C185.544 156.186 185.406 156.774 185.406 157.458C185.406 158.142 185.544 158.742 185.82 159.258C186.108 159.774 186.48 160.17 186.936 160.446C187.404 160.71 187.896 160.842 188.412 160.842C188.94 160.842 189.432 160.71 189.888 160.446C190.344 160.182 190.71 159.798 190.986 159.294C191.274 158.778 191.418 158.178 191.418 157.494Z" fill="#111111"/>
<path d="M182.45 152.544L179.372 162.462H177.212L175.214 155.136L173.216 162.462H171.056L167.96 152.544H170.048L172.118 160.518L174.224 152.544H176.366L178.382 160.482L180.434 152.544H182.45Z" fill="#111111"/>
<path d="M156.247 157.458C156.247 156.462 156.451 155.58 156.859 154.812C157.279 154.044 157.843 153.45 158.551 153.03C159.271 152.598 160.063 152.382 160.927 152.382C161.707 152.382 162.385 152.538 162.961 152.85C163.549 153.15 164.017 153.528 164.365 153.984V152.544H166.435V162.462H164.365V160.986C164.017 161.454 163.543 161.844 162.943 162.156C162.343 162.468 161.659 162.624 160.891 162.624C160.039 162.624 159.259 162.408 158.551 161.976C157.843 161.532 157.279 160.92 156.859 160.14C156.451 159.348 156.247 158.454 156.247 157.458ZM164.365 157.494C164.365 156.81 164.221 156.216 163.933 155.712C163.657 155.208 163.291 154.824 162.835 154.56C162.379 154.296 161.887 154.164 161.359 154.164C160.831 154.164 160.339 154.296 159.883 154.56C159.427 154.812 159.055 155.19 158.767 155.694C158.491 156.186 158.353 156.774 158.353 157.458C158.353 158.142 158.491 158.742 158.767 159.258C159.055 159.774 159.427 160.17 159.883 160.446C160.351 160.71 160.843 160.842 161.359 160.842C161.887 160.842 162.379 160.71 162.835 160.446C163.291 160.182 163.657 159.798 163.933 159.294C164.221 158.778 164.365 158.178 164.365 157.494Z" fill="#111111"/>
<path d="M152.074 153.984C152.374 153.48 152.77 153.09 153.262 152.814C153.766 152.526 154.36 152.382 155.044 152.382V154.506H154.522C153.718 154.506 153.106 154.71 152.686 155.118C152.278 155.526 152.074 156.234 152.074 157.242V162.462H150.022V152.544H152.074V153.984Z" fill="#111111"/>
<path d="M137.14 157.458C137.14 156.462 137.344 155.58 137.752 154.812C138.172 154.044 138.736 153.45 139.444 153.03C140.164 152.598 140.962 152.382 141.838 152.382C142.486 152.382 143.122 152.526 143.746 152.814C144.382 153.09 144.886 153.462 145.258 153.93V149.142H147.328V162.462H145.258V160.968C144.922 161.448 144.454 161.844 143.854 162.156C143.266 162.468 142.588 162.624 141.82 162.624C140.956 162.624 140.164 162.408 139.444 161.976C138.736 161.532 138.172 160.92 137.752 160.14C137.344 159.348 137.14 158.454 137.14 157.458ZM145.258 157.494C145.258 156.81 145.114 156.216 144.826 155.712C144.55 155.208 144.184 154.824 143.728 154.56C143.272 154.296 142.78 154.164 142.252 154.164C141.724 154.164 141.232 154.296 140.776 154.56C140.32 154.812 139.948 155.19 139.66 155.694C139.384 156.186 139.246 156.774 139.246 157.458C139.246 158.142 139.384 158.742 139.66 159.258C139.948 159.774 140.32 160.17 140.776 160.446C141.244 160.71 141.736 160.842 142.252 160.842C142.78 160.842 143.272 160.71 143.728 160.446C144.184 160.182 144.55 159.798 144.826 159.294C145.114 158.778 145.258 158.178 145.258 157.494Z" fill="#111111"/>
<path d="M131.264 152.382C132.02 152.382 132.692 152.544 133.28 152.868C133.88 153.192 134.348 153.672 134.684 154.308C135.032 154.944 135.206 155.712 135.206 156.612V162.462H133.172V156.918C133.172 156.03 132.95 155.352 132.506 154.884C132.062 154.404 131.456 154.164 130.688 154.164C129.92 154.164 129.308 154.404 128.852 154.884C128.408 155.352 128.186 156.03 128.186 156.918V162.462H126.134V149.142H128.186V153.696C128.534 153.276 128.972 152.952 129.5 152.724C130.04 152.496 130.628 152.382 131.264 152.382Z" fill="#111111"/>
<path d="M121.831 154.218V159.708C121.831 160.08 121.915 160.35 122.083 160.518C122.263 160.674 122.563 160.752 122.983 160.752H124.243V162.462H122.623C121.699 162.462 120.991 162.246 120.499 161.814C120.007 161.382 119.761 160.68 119.761 159.708V154.218H118.591V152.544H119.761V150.078H121.831V152.544H124.243V154.218H121.831Z" fill="#111111"/>
<path d="M115.735 151.23C115.363 151.23 115.051 151.104 114.799 150.852C114.547 150.6 114.421 150.288 114.421 149.916C114.421 149.544 114.547 149.232 114.799 148.98C115.051 148.728 115.363 148.602 115.735 148.602C116.095 148.602 116.401 148.728 116.653 148.98C116.905 149.232 117.031 149.544 117.031 149.916C117.031 150.288 116.905 150.6 116.653 150.852C116.401 151.104 116.095 151.23 115.735 151.23ZM116.743 152.544V162.462H114.691V152.544H116.743Z" fill="#111111"/>
<path d="M112.998 149.952L109.29 162.462H106.968L104.34 152.994L101.55 162.462L99.2462 162.48L95.7002 149.952H97.8782L100.47 160.14L103.278 149.952H105.582L108.192 160.086L110.802 149.952H112.998Z" fill="#111111"/>
<path d="M206.875 139.624C206.095 139.624 205.393 139.486 204.769 139.21C204.157 138.922 203.671 138.538 203.311 138.058C202.951 137.566 202.759 137.02 202.735 136.42H204.859C204.895 136.84 205.093 137.194 205.453 137.482C205.825 137.758 206.287 137.896 206.839 137.896C207.415 137.896 207.859 137.788 208.171 137.572C208.495 137.344 208.657 137.056 208.657 136.708C208.657 136.336 208.477 136.06 208.117 135.88C207.769 135.7 207.211 135.502 206.443 135.286C205.699 135.082 205.093 134.884 204.625 134.692C204.157 134.5 203.749 134.206 203.401 133.81C203.065 133.414 202.897 132.892 202.897 132.244C202.897 131.716 203.053 131.236 203.365 130.804C203.677 130.36 204.121 130.012 204.697 129.76C205.285 129.508 205.957 129.382 206.713 129.382C207.841 129.382 208.747 129.67 209.431 130.246C210.127 130.81 210.499 131.584 210.547 132.568H208.495C208.459 132.124 208.279 131.77 207.955 131.506C207.631 131.242 207.193 131.11 206.641 131.11C206.101 131.11 205.687 131.212 205.399 131.416C205.111 131.62 204.967 131.89 204.967 132.226C204.967 132.49 205.063 132.712 205.255 132.892C205.447 133.072 205.681 133.216 205.957 133.324C206.233 133.42 206.641 133.546 207.181 133.702C207.901 133.894 208.489 134.092 208.945 134.296C209.413 134.488 209.815 134.776 210.151 135.16C210.487 135.544 210.661 136.054 210.673 136.69C210.673 137.254 210.517 137.758 210.205 138.202C209.893 138.646 209.449 138.994 208.873 139.246C208.309 139.498 207.643 139.624 206.875 139.624Z" fill="#111111"/>
<path d="M198.972 131.218V136.708C198.972 137.08 199.056 137.35 199.224 137.518C199.404 137.674 199.704 137.752 200.124 137.752H201.384V139.462H199.764C198.84 139.462 198.132 139.246 197.64 138.814C197.148 138.382 196.902 137.68 196.902 136.708V131.218H195.732V129.544H196.902V127.078H198.972V129.544H201.384V131.218H198.972Z" fill="#111111"/>
<path d="M190.563 139.624C189.783 139.624 189.081 139.486 188.457 139.21C187.845 138.922 187.359 138.538 186.999 138.058C186.639 137.566 186.447 137.02 186.423 136.42H188.547C188.583 136.84 188.781 137.194 189.141 137.482C189.513 137.758 189.975 137.896 190.527 137.896C191.103 137.896 191.547 137.788 191.859 137.572C192.183 137.344 192.345 137.056 192.345 136.708C192.345 136.336 192.165 136.06 191.805 135.88C191.457 135.7 190.899 135.502 190.131 135.286C189.387 135.082 188.781 134.884 188.313 134.692C187.845 134.5 187.437 134.206 187.089 133.81C186.753 133.414 186.585 132.892 186.585 132.244C186.585 131.716 186.741 131.236 187.053 130.804C187.365 130.36 187.809 130.012 188.385 129.76C188.973 129.508 189.645 129.382 190.401 129.382C191.529 129.382 192.435 129.67 193.119 130.246C193.815 130.81 194.187 131.584 194.235 132.568H192.183C192.147 132.124 191.967 131.77 191.643 131.506C191.319 131.242 190.881 131.11 190.329 131.11C189.789 131.11 189.375 131.212 189.087 131.416C188.799 131.62 188.655 131.89 188.655 132.226C188.655 132.49 188.751 132.712 188.943 132.892C189.135 133.072 189.369 133.216 189.645 133.324C189.921 133.42 190.329 133.546 190.869 133.702C191.589 133.894 192.177 134.092 192.633 134.296C193.101 134.488 193.503 134.776 193.839 135.16C194.175 135.544 194.349 136.054 194.361 136.69C194.361 137.254 194.205 137.758 193.893 138.202C193.581 138.646 193.137 138.994 192.561 139.246C191.997 139.498 191.331 139.624 190.563 139.624Z" fill="#111111"/>
<path d="M184.944 134.26C184.944 134.632 184.92 134.968 184.872 135.268H177.294C177.354 136.06 177.648 136.696 178.176 137.176C178.704 137.656 179.352 137.896 180.12 137.896C181.224 137.896 182.004 137.434 182.46 136.51H184.674C184.374 137.422 183.828 138.172 183.036 138.76C182.256 139.336 181.284 139.624 180.12 139.624C179.172 139.624 178.32 139.414 177.564 138.994C176.82 138.562 176.232 137.962 175.8 137.194C175.38 136.414 175.17 135.514 175.17 134.494C175.17 133.474 175.374 132.58 175.782 131.812C176.202 131.032 176.784 130.432 177.528 130.012C178.284 129.592 179.148 129.382 180.12 129.382C181.056 129.382 181.89 129.586 182.622 129.994C183.354 130.402 183.924 130.978 184.332 131.722C184.74 132.454 184.944 133.3 184.944 134.26ZM182.802 133.612C182.79 132.856 182.52 132.25 181.992 131.794C181.464 131.338 180.81 131.11 180.03 131.11C179.322 131.11 178.716 131.338 178.212 131.794C177.708 132.238 177.408 132.844 177.312 133.612H182.802Z" fill="#111111"/>
<path d="M173.146 129.544V139.462H171.094V138.292C170.77 138.7 170.344 139.024 169.816 139.264C169.3 139.492 168.748 139.606 168.16 139.606C167.38 139.606 166.678 139.444 166.054 139.12C165.442 138.796 164.956 138.316 164.596 137.68C164.248 137.044 164.074 136.276 164.074 135.376V129.544H166.108V135.07C166.108 135.958 166.33 136.642 166.774 137.122C167.218 137.59 167.824 137.824 168.592 137.824C169.36 137.824 169.966 137.59 170.41 137.122C170.866 136.642 171.094 135.958 171.094 135.07V129.544H173.146Z" fill="#111111"/>
<path d="M151.281 134.458C151.281 133.462 151.485 132.58 151.893 131.812C152.313 131.044 152.877 130.45 153.585 130.03C154.305 129.598 155.103 129.382 155.979 129.382C156.747 129.382 157.425 129.538 158.013 129.85C158.613 130.162 159.075 130.54 159.399 130.984V129.544H161.469V144.178H159.399V138.022C159.075 138.466 158.607 138.844 157.995 139.156C157.383 139.468 156.687 139.624 155.907 139.624C155.055 139.624 154.275 139.408 153.567 138.976C152.871 138.532 152.313 137.92 151.893 137.14C151.485 136.348 151.281 135.454 151.281 134.458ZM159.399 134.494C159.399 133.81 159.255 133.216 158.967 132.712C158.691 132.208 158.325 131.824 157.869 131.56C157.413 131.296 156.921 131.164 156.393 131.164C155.865 131.164 155.373 131.296 154.917 131.56C154.461 131.812 154.089 132.19 153.801 132.694C153.525 133.186 153.387 133.774 153.387 134.458C153.387 135.142 153.525 135.742 153.801 136.258C154.089 136.774 154.461 137.17 154.917 137.446C155.385 137.71 155.877 137.842 156.393 137.842C156.921 137.842 157.413 137.71 157.869 137.446C158.325 137.182 158.691 136.798 158.967 136.294C159.255 135.778 159.399 135.178 159.399 134.494Z" fill="#111111"/>
<path d="M149.946 134.26C149.946 134.632 149.922 134.968 149.874 135.268H142.296C142.356 136.06 142.65 136.696 143.178 137.176C143.706 137.656 144.354 137.896 145.122 137.896C146.226 137.896 147.006 137.434 147.462 136.51H149.676C149.376 137.422 148.83 138.172 148.038 138.76C147.258 139.336 146.286 139.624 145.122 139.624C144.174 139.624 143.322 139.414 142.566 138.994C141.822 138.562 141.234 137.962 140.802 137.194C140.382 136.414 140.172 135.514 140.172 134.494C140.172 133.474 140.376 132.58 140.784 131.812C141.204 131.032 141.786 130.432 142.53 130.012C143.286 129.592 144.15 129.382 145.122 129.382C146.058 129.382 146.892 129.586 147.624 129.994C148.356 130.402 148.926 130.978 149.334 131.722C149.742 132.454 149.946 133.3 149.946 134.26ZM147.804 133.612C147.792 132.856 147.522 132.25 146.994 131.794C146.466 131.338 145.812 131.11 145.032 131.11C144.324 131.11 143.718 131.338 143.214 131.794C142.71 132.238 142.41 132.844 142.314 133.612H147.804Z" fill="#111111"/>
<path d="M135.98 139.462L133.1 134.458H131.534V139.462H129.482V126.952H133.802C134.762 126.952 135.572 127.12 136.232 127.456C136.904 127.792 137.402 128.242 137.726 128.806C138.062 129.37 138.23 130 138.23 130.696C138.23 131.512 137.99 132.256 137.51 132.928C137.042 133.588 136.316 134.038 135.332 134.278L138.428 139.462H135.98ZM131.534 132.82H133.802C134.57 132.82 135.146 132.628 135.53 132.244C135.926 131.86 136.124 131.344 136.124 130.696C136.124 130.048 135.932 129.544 135.548 129.184C135.164 128.812 134.582 128.626 133.802 128.626H131.534V132.82Z" fill="#111111"/>
<path d="M119.95 130.984C120.25 130.48 120.646 130.09 121.138 129.814C121.642 129.526 122.236 129.382 122.92 129.382V131.506H122.398C121.594 131.506 120.982 131.71 120.562 132.118C120.154 132.526 119.95 133.234 119.95 134.242V139.462H117.898V129.544H119.95V130.984Z" fill="#111111"/>
<path d="M115.879 134.26C115.879 134.632 115.855 134.968 115.807 135.268H108.229C108.289 136.06 108.583 136.696 109.111 137.176C109.639 137.656 110.287 137.896 111.055 137.896C112.159 137.896 112.939 137.434 113.395 136.51H115.609C115.309 137.422 114.763 138.172 113.971 138.76C113.191 139.336 112.219 139.624 111.055 139.624C110.107 139.624 109.255 139.414 108.499 138.994C107.755 138.562 107.167 137.962 106.735 137.194C106.315 136.414 106.105 135.514 106.105 134.494C106.105 133.474 106.309 132.58 106.717 131.812C107.137 131.032 107.719 130.432 108.463 130.012C109.219 129.592 110.083 129.382 111.055 129.382C111.991 129.382 112.825 129.586 113.557 129.994C114.289 130.402 114.859 130.978 115.267 131.722C115.675 132.454 115.879 133.3 115.879 134.26ZM113.737 133.612C113.725 132.856 113.455 132.25 112.927 131.794C112.399 131.338 111.745 131.11 110.965 131.11C110.257 131.11 109.651 131.338 109.147 131.794C108.643 132.238 108.343 132.844 108.247 133.612H113.737Z" fill="#111111"/>
<path d="M100.774 139.624C99.9938 139.624 99.2918 139.486 98.6678 139.21C98.0558 138.922 97.5698 138.538 97.2098 138.058C96.8498 137.566 96.6578 137.02 96.6338 136.42H98.7578C98.7938 136.84 98.9918 137.194 99.3518 137.482C99.7238 137.758 100.186 137.896 100.738 137.896C101.314 137.896 101.758 137.788 102.07 137.572C102.394 137.344 102.556 137.056 102.556 136.708C102.556 136.336 102.376 136.06 102.016 135.88C101.668 135.7 101.11 135.502 100.342 135.286C99.5978 135.082 98.9918 134.884 98.5238 134.692C98.0558 134.5 97.6478 134.206 97.2998 133.81C96.9638 133.414 96.7958 132.892 96.7958 132.244C96.7958 131.716 96.9518 131.236 97.2638 130.804C97.5758 130.36 98.0198 130.012 98.5958 129.76C99.1838 129.508 99.8558 129.382 100.612 129.382C101.74 129.382 102.646 129.67 103.33 130.246C104.026 130.81 104.398 131.584 104.446 132.568H102.394C102.358 132.124 102.178 131.77 101.854 131.506C101.53 131.242 101.092 131.11 100.54 131.11C99.9998 131.11 99.5858 131.212 99.2978 131.416C99.0098 131.62 98.8658 131.89 98.8658 132.226C98.8658 132.49 98.9618 132.712 99.1538 132.892C99.3458 133.072 99.5798 133.216 99.8558 133.324C100.132 133.42 100.54 133.546 101.08 133.702C101.8 133.894 102.388 134.092 102.844 134.296C103.312 134.488 103.714 134.776 104.05 135.16C104.386 135.544 104.56 136.054 104.572 136.69C104.572 137.254 104.416 137.758 104.104 138.202C103.792 138.646 103.348 138.994 102.772 139.246C102.208 139.498 101.542 139.624 100.774 139.624Z" fill="#111111"/>
<path d="M86.7805 126.952V134.926C86.7805 135.874 87.0265 136.588 87.5185 137.068C88.0225 137.548 88.7185 137.788 89.6065 137.788C90.5065 137.788 91.2025 137.548 91.6945 137.068C92.1985 136.588 92.4505 135.874 92.4505 134.926V126.952H94.5025V134.89C94.5025 135.91 94.2805 136.774 93.8365 137.482C93.3925 138.19 92.7985 138.718 92.0545 139.066C91.3105 139.414 90.4885 139.588 89.5885 139.588C88.6885 139.588 87.8665 139.414 87.1225 139.066C86.3905 138.718 85.8085 138.19 85.3765 137.482C84.9445 136.774 84.7285 135.91 84.7285 134.89V126.952H86.7805Z" fill="#111111"/>
<path d="M292.511 137.792C292.894 137.393 293.527 137.38 293.926 137.762L300.425 143.989C300.823 144.371 300.836 145.004 300.454 145.403L294.228 151.901C293.846 152.3 293.213 152.313 292.814 151.931C292.415 151.549 292.401 150.916 292.783 150.517L297.34 145.761L283.04 146.067L282.998 144.068L297.296 143.763L292.542 139.207C292.143 138.824 292.13 138.191 292.511 137.792Z" fill="#813BF5"/>
<rect x="321" y="104" width="230" height="81.576" rx="20" fill="white"/>
<path d="M469.702 152.616V158.106C469.702 158.478 469.786 158.748 469.954 158.916C470.134 159.072 470.434 159.15 470.854 159.15H472.114V160.86H470.494C469.57 160.86 468.862 160.644 468.37 160.212C467.878 159.78 467.632 159.078 467.632 158.106V152.616H466.462V150.942H467.632V148.476H469.702V150.942H472.114V152.616H469.702Z" fill="#111111"/>
<path d="M461.292 161.022C460.512 161.022 459.81 160.884 459.186 160.608C458.574 160.32 458.088 159.936 457.728 159.456C457.368 158.964 457.176 158.418 457.152 157.818H459.276C459.312 158.238 459.51 158.592 459.87 158.88C460.242 159.156 460.704 159.294 461.256 159.294C461.832 159.294 462.276 159.186 462.588 158.97C462.912 158.742 463.074 158.454 463.074 158.106C463.074 157.734 462.894 157.458 462.534 157.278C462.186 157.098 461.628 156.9 460.86 156.684C460.116 156.48 459.51 156.282 459.042 156.09C458.574 155.898 458.166 155.604 457.818 155.208C457.482 154.812 457.314 154.29 457.314 153.642C457.314 153.114 457.47 152.634 457.782 152.202C458.094 151.758 458.538 151.41 459.114 151.158C459.702 150.906 460.374 150.78 461.13 150.78C462.258 150.78 463.164 151.068 463.848 151.644C464.544 152.208 464.916 152.982 464.964 153.966H462.912C462.876 153.522 462.696 153.168 462.372 152.904C462.048 152.64 461.61 152.508 461.058 152.508C460.518 152.508 460.104 152.61 459.816 152.814C459.528 153.018 459.384 153.288 459.384 153.624C459.384 153.888 459.48 154.11 459.672 154.29C459.864 154.47 460.098 154.614 460.374 154.722C460.65 154.818 461.058 154.944 461.598 155.1C462.318 155.292 462.906 155.49 463.362 155.694C463.83 155.886 464.232 156.174 464.568 156.558C464.904 156.942 465.078 157.452 465.09 158.088C465.09 158.652 464.934 159.156 464.622 159.6C464.31 160.044 463.866 160.392 463.29 160.644C462.726 160.896 462.06 161.022 461.292 161.022Z" fill="#111111"/>
<path d="M455.673 155.658C455.673 156.03 455.649 156.366 455.601 156.666H448.023C448.083 157.458 448.377 158.094 448.905 158.574C449.433 159.054 450.081 159.294 450.849 159.294C451.953 159.294 452.733 158.832 453.189 157.908H455.403C455.103 158.82 454.557 159.57 453.765 160.158C452.985 160.734 452.013 161.022 450.849 161.022C449.901 161.022 449.049 160.812 448.293 160.392C447.549 159.96 446.961 159.36 446.529 158.592C446.109 157.812 445.899 156.912 445.899 155.892C445.899 154.872 446.103 153.978 446.511 153.21C446.931 152.43 447.513 151.83 448.257 151.41C449.013 150.99 449.877 150.78 450.849 150.78C451.785 150.78 452.619 150.984 453.351 151.392C454.083 151.8 454.653 152.376 455.061 153.12C455.469 153.852 455.673 154.698 455.673 155.658ZM453.531 155.01C453.519 154.254 453.249 153.648 452.721 153.192C452.193 152.736 451.539 152.508 450.759 152.508C450.051 152.508 449.445 152.736 448.941 153.192C448.437 153.636 448.137 154.242 448.041 155.01H453.531Z" fill="#111111"/>
<path d="M443.876 150.942V160.86H441.824V159.69C441.5 160.098 441.074 160.422 440.546 160.662C440.03 160.89 439.478 161.004 438.89 161.004C438.11 161.004 437.408 160.842 436.784 160.518C436.172 160.194 435.686 159.714 435.326 159.078C434.978 158.442 434.804 157.674 434.804 156.774V150.942H436.838V156.468C436.838 157.356 437.06 158.04 437.504 158.52C437.948 158.988 438.554 159.222 439.322 159.222C440.09 159.222 440.696 158.988 441.14 158.52C441.596 158.04 441.824 157.356 441.824 156.468V150.942H443.876Z" fill="#111111"/>
<path d="M422.011 155.856C422.011 154.86 422.215 153.978 422.623 153.21C423.043 152.442 423.607 151.848 424.315 151.428C425.035 150.996 425.833 150.78 426.709 150.78C427.477 150.78 428.155 150.936 428.743 151.248C429.343 151.56 429.805 151.938 430.129 152.382V150.942H432.199V165.576H430.129V159.42C429.805 159.864 429.337 160.242 428.725 160.554C428.113 160.866 427.417 161.022 426.637 161.022C425.785 161.022 425.005 160.806 424.297 160.374C423.601 159.93 423.043 159.318 422.623 158.538C422.215 157.746 422.011 156.852 422.011 155.856ZM430.129 155.892C430.129 155.208 429.985 154.614 429.697 154.11C429.421 153.606 429.055 153.222 428.599 152.958C428.143 152.694 427.651 152.562 427.123 152.562C426.595 152.562 426.103 152.694 425.647 152.958C425.191 153.21 424.819 153.588 424.531 154.092C424.255 154.584 424.117 155.172 424.117 155.856C424.117 156.54 424.255 157.14 424.531 157.656C424.819 158.172 425.191 158.568 425.647 158.844C426.115 159.108 426.607 159.24 427.123 159.24C427.651 159.24 428.143 159.108 428.599 158.844C429.055 158.58 429.421 158.196 429.697 157.692C429.985 157.176 430.129 156.576 430.129 155.892Z" fill="#111111"/>
<path d="M420.675 155.658C420.675 156.03 420.651 156.366 420.603 156.666H413.025C413.085 157.458 413.379 158.094 413.907 158.574C414.435 159.054 415.083 159.294 415.851 159.294C416.955 159.294 417.735 158.832 418.191 157.908H420.405C420.105 158.82 419.559 159.57 418.767 160.158C417.987 160.734 417.015 161.022 415.851 161.022C414.903 161.022 414.051 160.812 413.295 160.392C412.551 159.96 411.963 159.36 411.531 158.592C411.111 157.812 410.901 156.912 410.901 155.892C410.901 154.872 411.105 153.978 411.513 153.21C411.933 152.43 412.515 151.83 413.259 151.41C414.015 150.99 414.879 150.78 415.851 150.78C416.787 150.78 417.621 150.984 418.353 151.392C419.085 151.8 419.655 152.376 420.063 153.12C420.471 153.852 420.675 154.698 420.675 155.658ZM418.533 155.01C418.521 154.254 418.251 153.648 417.723 153.192C417.195 152.736 416.541 152.508 415.761 152.508C415.053 152.508 414.447 152.736 413.943 153.192C413.439 153.636 413.139 154.242 413.043 155.01H418.533Z" fill="#111111"/>
<path d="M406.71 160.86L403.83 155.856H402.264V160.86H400.212V148.35H404.532C405.492 148.35 406.302 148.518 406.962 148.854C407.634 149.19 408.132 149.64 408.456 150.204C408.792 150.768 408.96 151.398 408.96 152.094C408.96 152.91 408.72 153.654 408.24 154.326C407.772 154.986 407.046 155.436 406.062 155.676L409.158 160.86H406.71ZM402.264 154.218H404.532C405.3 154.218 405.876 154.026 406.26 153.642C406.656 153.258 406.854 152.742 406.854 152.094C406.854 151.446 406.662 150.942 406.278 150.582C405.894 150.21 405.312 150.024 404.532 150.024H402.264V154.218Z" fill="#111111"/>
<path d="M520.487 138.022C519.707 138.022 519.005 137.884 518.381 137.608C517.769 137.32 517.283 136.936 516.923 136.456C516.563 135.964 516.371 135.418 516.347 134.818H518.471C518.507 135.238 518.705 135.592 519.065 135.88C519.437 136.156 519.899 136.294 520.451 136.294C521.027 136.294 521.471 136.186 521.783 135.97C522.107 135.742 522.269 135.454 522.269 135.106C522.269 134.734 522.089 134.458 521.729 134.278C521.381 134.098 520.823 133.9 520.055 133.684C519.311 133.48 518.705 133.282 518.237 133.09C517.769 132.898 517.361 132.604 517.013 132.208C516.677 131.812 516.509 131.29 516.509 130.642C516.509 130.114 516.665 129.634 516.977 129.202C517.289 128.758 517.733 128.41 518.309 128.158C518.897 127.906 519.569 127.78 520.325 127.78C521.453 127.78 522.359 128.068 523.043 128.644C523.739 129.208 524.111 129.982 524.159 130.966H522.107C522.071 130.522 521.891 130.168 521.567 129.904C521.243 129.64 520.805 129.508 520.253 129.508C519.713 129.508 519.299 129.61 519.011 129.814C518.723 130.018 518.579 130.288 518.579 130.624C518.579 130.888 518.675 131.11 518.867 131.29C519.059 131.47 519.293 131.614 519.569 131.722C519.845 131.818 520.253 131.944 520.793 132.1C521.513 132.292 522.101 132.49 522.557 132.694C523.025 132.886 523.427 133.174 523.763 133.558C524.099 133.942 524.273 134.452 524.285 135.088C524.285 135.652 524.129 136.156 523.817 136.6C523.505 137.044 523.061 137.392 522.485 137.644C521.921 137.896 521.255 138.022 520.487 138.022Z" fill="#111111"/>
<path d="M514.868 132.658C514.868 133.03 514.844 133.366 514.796 133.666H507.218C507.278 134.458 507.572 135.094 508.1 135.574C508.628 136.054 509.276 136.294 510.044 136.294C511.148 136.294 511.928 135.832 512.384 134.908H514.598C514.298 135.82 513.752 136.57 512.96 137.158C512.18 137.734 511.208 138.022 510.044 138.022C509.096 138.022 508.244 137.812 507.488 137.392C506.744 136.96 506.156 136.36 505.724 135.592C505.304 134.812 505.094 133.912 505.094 132.892C505.094 131.872 505.298 130.978 505.706 130.21C506.126 129.43 506.708 128.83 507.452 128.41C508.208 127.99 509.072 127.78 510.044 127.78C510.98 127.78 511.814 127.984 512.546 128.392C513.278 128.8 513.848 129.376 514.256 130.12C514.664 130.852 514.868 131.698 514.868 132.658ZM512.726 132.01C512.714 131.254 512.444 130.648 511.916 130.192C511.388 129.736 510.734 129.508 509.954 129.508C509.246 129.508 508.64 129.736 508.136 130.192C507.632 130.636 507.332 131.242 507.236 132.01H512.726Z" fill="#111111"/>
<path d="M501.474 129.616V135.106C501.474 135.478 501.558 135.748 501.726 135.916C501.906 136.072 502.206 136.15 502.626 136.15H503.886V137.86H502.266C501.342 137.86 500.634 137.644 500.142 137.212C499.65 136.78 499.404 136.078 499.404 135.106V129.616H498.234V127.942H499.404V125.476H501.474V127.942H503.886V129.616H501.474Z" fill="#111111"/>
<path d="M486.197 132.856C486.197 131.86 486.401 130.978 486.809 130.21C487.229 129.442 487.793 128.848 488.501 128.428C489.221 127.996 490.013 127.78 490.877 127.78C491.657 127.78 492.335 127.936 492.911 128.248C493.499 128.548 493.967 128.926 494.315 129.382V127.942H496.385V137.86H494.315V136.384C493.967 136.852 493.493 137.242 492.893 137.554C492.293 137.866 491.609 138.022 490.841 138.022C489.989 138.022 489.209 137.806 488.501 137.374C487.793 136.93 487.229 136.318 486.809 135.538C486.401 134.746 486.197 133.852 486.197 132.856ZM494.315 132.892C494.315 132.208 494.171 131.614 493.883 131.11C493.607 130.606 493.241 130.222 492.785 129.958C492.329 129.694 491.837 129.562 491.309 129.562C490.781 129.562 490.289 129.694 489.833 129.958C489.377 130.21 489.005 130.588 488.717 131.092C488.441 131.584 488.303 132.172 488.303 132.856C488.303 133.54 488.441 134.14 488.717 134.656C489.005 135.172 489.377 135.568 489.833 135.844C490.301 136.108 490.793 136.24 491.309 136.24C491.837 136.24 492.329 136.108 492.785 135.844C493.241 135.58 493.607 135.196 493.883 134.692C494.171 134.176 494.315 133.576 494.315 132.892Z" fill="#111111"/>
<path d="M473.998 132.856C473.998 131.86 474.202 130.978 474.61 130.21C475.03 129.442 475.594 128.848 476.302 128.428C477.022 127.996 477.82 127.78 478.696 127.78C479.344 127.78 479.98 127.924 480.604 128.212C481.24 128.488 481.744 128.86 482.116 129.328V124.54H484.186V137.86H482.116V136.366C481.78 136.846 481.312 137.242 480.712 137.554C480.124 137.866 479.446 138.022 478.678 138.022C477.814 138.022 477.022 137.806 476.302 137.374C475.594 136.93 475.03 136.318 474.61 135.538C474.202 134.746 473.998 133.852 473.998 132.856ZM482.116 132.892C482.116 132.208 481.972 131.614 481.684 131.11C481.408 130.606 481.042 130.222 480.586 129.958C480.13 129.694 479.638 129.562 479.11 129.562C478.582 129.562 478.09 129.694 477.634 129.958C477.178 130.21 476.806 130.588 476.518 131.092C476.242 131.584 476.104 132.172 476.104 132.856C476.104 133.54 476.242 134.14 476.518 134.656C476.806 135.172 477.178 135.568 477.634 135.844C478.102 136.108 478.594 136.24 479.11 136.24C479.638 136.24 480.13 136.108 480.586 135.844C481.042 135.58 481.408 135.196 481.684 134.692C481.972 134.176 482.116 133.576 482.116 132.892Z" fill="#111111"/>
<path d="M470.98 126.628C470.608 126.628 470.296 126.502 470.044 126.25C469.792 125.998 469.666 125.686 469.666 125.314C469.666 124.942 469.792 124.63 470.044 124.378C470.296 124.126 470.608 124 470.98 124C471.34 124 471.646 124.126 471.898 124.378C472.15 124.63 472.276 124.942 472.276 125.314C472.276 125.686 472.15 125.998 471.898 126.25C471.646 126.502 471.34 126.628 470.98 126.628ZM471.988 127.942V137.86H469.936V127.942H471.988Z" fill="#111111"/>
<path d="M467.241 124.54V137.86H465.189V124.54H467.241Z" fill="#111111"/>
<path d="M452.307 132.856C452.307 131.86 452.511 130.978 452.919 130.21C453.339 129.442 453.903 128.848 454.611 128.428C455.331 127.996 456.123 127.78 456.987 127.78C457.767 127.78 458.445 127.936 459.021 128.248C459.609 128.548 460.077 128.926 460.425 129.382V127.942H462.495V137.86H460.425V136.384C460.077 136.852 459.603 137.242 459.003 137.554C458.403 137.866 457.719 138.022 456.951 138.022C456.099 138.022 455.319 137.806 454.611 137.374C453.903 136.93 453.339 136.318 452.919 135.538C452.511 134.746 452.307 133.852 452.307 132.856ZM460.425 132.892C460.425 132.208 460.281 131.614 459.993 131.11C459.717 130.606 459.351 130.222 458.895 129.958C458.439 129.694 457.947 129.562 457.419 129.562C456.891 129.562 456.399 129.694 455.943 129.958C455.487 130.21 455.115 130.588 454.827 131.092C454.551 131.584 454.413 132.172 454.413 132.856C454.413 133.54 454.551 134.14 454.827 134.656C455.115 135.172 455.487 135.568 455.943 135.844C456.411 136.108 456.903 136.24 457.419 136.24C457.947 136.24 458.439 136.108 458.895 135.844C459.351 135.58 459.717 135.196 459.993 134.692C460.281 134.176 460.425 133.576 460.425 132.892Z" fill="#111111"/>
<path d="M451.274 125.35L446.576 137.86H444.2L439.484 125.35H441.68L445.388 135.754L449.114 125.35H451.274Z" fill="#111111"/>
<path d="M433.797 132.658C433.797 133.03 433.773 133.366 433.725 133.666H426.147C426.207 134.458 426.501 135.094 427.029 135.574C427.557 136.054 428.205 136.294 428.973 136.294C430.077 136.294 430.857 135.832 431.313 134.908H433.527C433.227 135.82 432.681 136.57 431.889 137.158C431.109 137.734 430.137 138.022 428.973 138.022C428.025 138.022 427.173 137.812 426.417 137.392C425.673 136.96 425.085 136.36 424.653 135.592C424.233 134.812 424.023 133.912 424.023 132.892C424.023 131.872 424.227 130.978 424.635 130.21C425.055 129.43 425.637 128.83 426.381 128.41C427.137 127.99 428.001 127.78 428.973 127.78C429.909 127.78 430.743 127.984 431.475 128.392C432.207 128.8 432.777 129.376 433.185 130.12C433.593 130.852 433.797 131.698 433.797 132.658ZM431.655 132.01C431.643 131.254 431.373 130.648 430.845 130.192C430.317 129.736 429.663 129.508 428.883 129.508C428.175 129.508 427.569 129.736 427.065 130.192C426.561 130.636 426.261 131.242 426.165 132.01H431.655Z" fill="#111111"/>
<path d="M416.504 127.78C417.272 127.78 417.95 127.936 418.538 128.248C419.138 128.548 419.606 128.926 419.942 129.382V127.942H422.012V138.022C422.012 138.934 421.82 139.744 421.436 140.452C421.052 141.172 420.494 141.736 419.762 142.144C419.042 142.552 418.178 142.756 417.17 142.756C415.826 142.756 414.71 142.438 413.822 141.802C412.934 141.178 412.43 140.326 412.31 139.246H414.344C414.5 139.762 414.83 140.176 415.334 140.488C415.85 140.812 416.462 140.974 417.17 140.974C417.998 140.974 418.664 140.722 419.168 140.218C419.684 139.714 419.942 138.982 419.942 138.022V136.366C419.594 136.834 419.12 137.23 418.52 137.554C417.932 137.866 417.26 138.022 416.504 138.022C415.64 138.022 414.848 137.806 414.128 137.374C413.42 136.93 412.856 136.318 412.436 135.538C412.028 134.746 411.824 133.852 411.824 132.856C411.824 131.86 412.028 130.978 412.436 130.21C412.856 129.442 413.42 128.848 414.128 128.428C414.848 127.996 415.64 127.78 416.504 127.78ZM419.942 132.892C419.942 132.208 419.798 131.614 419.51 131.11C419.234 130.606 418.868 130.222 418.412 129.958C417.956 129.694 417.464 129.562 416.936 129.562C416.408 129.562 415.916 129.694 415.46 129.958C415.004 130.21 414.632 130.588 414.344 131.092C414.068 131.584 413.93 132.172 413.93 132.856C413.93 133.54 414.068 134.14 414.344 134.656C414.632 135.172 415.004 135.568 415.46 135.844C415.928 136.108 416.42 136.24 416.936 136.24C417.464 136.24 417.956 136.108 418.412 135.844C418.868 135.58 419.234 135.196 419.51 134.692C419.798 134.176 419.942 133.576 419.942 132.892Z" fill="#111111"/>
<path d="M405.822 127.78C406.602 127.78 407.298 127.942 407.91 128.266C408.534 128.59 409.02 129.07 409.368 129.706C409.716 130.342 409.89 131.11 409.89 132.01V137.86H407.856V132.316C407.856 131.428 407.634 130.75 407.19 130.282C406.746 129.802 406.14 129.562 405.372 129.562C404.604 129.562 403.992 129.802 403.536 130.282C403.092 130.75 402.87 131.428 402.87 132.316V137.86H400.818V127.942H402.87V129.076C403.206 128.668 403.632 128.35 404.148 128.122C404.676 127.894 405.234 127.78 405.822 127.78Z" fill="#111111"/>
<path d="M387.936 132.856C387.936 131.86 388.14 130.978 388.548 130.21C388.968 129.442 389.532 128.848 390.24 128.428C390.96 127.996 391.752 127.78 392.616 127.78C393.396 127.78 394.074 127.936 394.65 128.248C395.238 128.548 395.706 128.926 396.054 129.382V127.942H398.124V137.86H396.054V136.384C395.706 136.852 395.232 137.242 394.632 137.554C394.032 137.866 393.348 138.022 392.58 138.022C391.728 138.022 390.948 137.806 390.24 137.374C389.532 136.93 388.968 136.318 388.548 135.538C388.14 134.746 387.936 133.852 387.936 132.856ZM396.054 132.892C396.054 132.208 395.91 131.614 395.622 131.11C395.346 130.606 394.98 130.222 394.524 129.958C394.068 129.694 393.576 129.562 393.048 129.562C392.52 129.562 392.028 129.694 391.572 129.958C391.116 130.21 390.744 130.588 390.456 131.092C390.18 131.584 390.042 132.172 390.042 132.856C390.042 133.54 390.18 134.14 390.456 134.656C390.744 135.172 391.116 135.568 391.572 135.844C392.04 136.108 392.532 136.24 393.048 136.24C393.576 136.24 394.068 136.108 394.524 135.844C394.98 135.58 395.346 135.196 395.622 134.692C395.91 134.176 396.054 133.576 396.054 132.892Z" fill="#111111"/>
<path d="M382.06 127.78C382.816 127.78 383.488 127.942 384.076 128.266C384.676 128.59 385.144 129.07 385.48 129.706C385.828 130.342 386.002 131.11 386.002 132.01V137.86H383.968V132.316C383.968 131.428 383.746 130.75 383.302 130.282C382.858 129.802 382.252 129.562 381.484 129.562C380.716 129.562 380.104 129.802 379.648 130.282C379.204 130.75 378.982 131.428 378.982 132.316V137.86H376.93V124.54H378.982V129.094C379.33 128.674 379.768 128.35 380.296 128.122C380.836 127.894 381.424 127.78 382.06 127.78Z" fill="#111111"/>
<path d="M365.453 132.892C365.453 131.872 365.657 130.978 366.065 130.21C366.485 129.43 367.061 128.83 367.793 128.41C368.525 127.99 369.365 127.78 370.313 127.78C371.513 127.78 372.503 128.068 373.283 128.644C374.075 129.208 374.609 130.018 374.885 131.074H372.671C372.491 130.582 372.203 130.198 371.807 129.922C371.411 129.646 370.913 129.508 370.313 129.508C369.473 129.508 368.801 129.808 368.297 130.408C367.805 130.996 367.559 131.824 367.559 132.892C367.559 133.96 367.805 134.794 368.297 135.394C368.801 135.994 369.473 136.294 370.313 136.294C371.501 136.294 372.287 135.772 372.671 134.728H374.885C374.597 135.736 374.057 136.54 373.265 137.14C372.473 137.728 371.489 138.022 370.313 138.022C369.365 138.022 368.525 137.812 367.793 137.392C367.061 136.96 366.485 136.36 366.065 135.592C365.657 134.812 365.453 133.912 365.453 132.892Z" fill="#111111"/>
<path d="M361.402 132.838L364.606 137.86H362.284L360.142 134.494L358.126 137.86H355.984L359.188 132.982L355.984 127.942H358.306L360.448 131.308L362.464 127.942H364.606L361.402 132.838Z" fill="#111111"/>
<path d="M349.767 127.006V130.678H354.087V132.352H349.767V136.186H354.627V137.86H347.715V125.332H354.627V127.006H349.767Z" fill="#111111"/>
<path d="M580.811 137.792C581.193 137.393 581.827 137.38 582.226 137.762L588.724 143.989C589.123 144.371 589.136 145.004 588.754 145.403L582.528 151.901C582.146 152.3 581.513 152.313 581.114 151.931C580.715 151.549 580.701 150.916 581.083 150.517L585.639 145.761L571.34 146.067L571.297 144.068L585.596 143.763L580.842 139.207C580.443 138.824 580.429 138.191 580.811 137.792Z" fill="#813BF5"/>
<rect x="609.299" y="104" width="230" height="81.576" rx="20" fill="white"/>
<path d="M753.761 155.856C753.761 154.86 753.965 153.978 754.373 153.21C754.793 152.442 755.357 151.848 756.065 151.428C756.785 150.996 757.583 150.78 758.459 150.78C759.107 150.78 759.743 150.924 760.367 151.212C761.003 151.488 761.507 151.86 761.879 152.328V147.54H763.949V160.86H761.879V159.366C761.543 159.846 761.075 160.242 760.475 160.554C759.887 160.866 759.209 161.022 758.441 161.022C757.577 161.022 756.785 160.806 756.065 160.374C755.357 159.93 754.793 159.318 754.373 158.538C753.965 157.746 753.761 156.852 753.761 155.856ZM761.879 155.892C761.879 155.208 761.735 154.614 761.447 154.11C761.171 153.606 760.805 153.222 760.349 152.958C759.893 152.694 759.401 152.562 758.873 152.562C758.345 152.562 757.853 152.694 757.397 152.958C756.941 153.21 756.569 153.588 756.281 154.092C756.005 154.584 755.867 155.172 755.867 155.856C755.867 156.54 756.005 157.14 756.281 157.656C756.569 158.172 756.941 158.568 757.397 158.844C757.865 159.108 758.357 159.24 758.873 159.24C759.401 159.24 759.893 159.108 760.349 158.844C760.805 158.58 761.171 158.196 761.447 157.692C761.735 157.176 761.879 156.576 761.879 155.892Z" fill="#111111"/>
<path d="M752.425 155.658C752.425 156.03 752.401 156.366 752.353 156.666H744.775C744.835 157.458 745.129 158.094 745.657 158.574C746.185 159.054 746.833 159.294 747.601 159.294C748.705 159.294 749.485 158.832 749.941 157.908H752.155C751.855 158.82 751.309 159.57 750.517 160.158C749.737 160.734 748.765 161.022 747.601 161.022C746.653 161.022 745.801 160.812 745.045 160.392C744.301 159.96 743.713 159.36 743.281 158.592C742.861 157.812 742.651 156.912 742.651 155.892C742.651 154.872 742.855 153.978 743.263 153.21C743.683 152.43 744.265 151.83 745.009 151.41C745.765 150.99 746.629 150.78 747.601 150.78C748.537 150.78 749.371 150.984 750.103 151.392C750.835 151.8 751.405 152.376 751.813 153.12C752.221 153.852 752.425 154.698 752.425 155.658ZM750.283 155.01C750.271 154.254 750.001 153.648 749.473 153.192C748.945 152.736 748.291 152.508 747.511 152.508C746.803 152.508 746.197 152.736 745.693 153.192C745.189 153.636 744.889 154.242 744.793 155.01H750.283Z" fill="#111111"/>
<path d="M738.479 152.382C738.779 151.878 739.175 151.488 739.667 151.212C740.171 150.924 740.765 150.78 741.449 150.78V152.904H740.927C740.123 152.904 739.511 153.108 739.091 153.516C738.683 153.924 738.479 154.632 738.479 155.64V160.86H736.427V150.942H738.479V152.382Z" fill="#111111"/>
<path d="M732.725 149.628C732.353 149.628 732.041 149.502 731.789 149.25C731.537 148.998 731.411 148.686 731.411 148.314C731.411 147.942 731.537 147.63 731.789 147.378C732.041 147.126 732.353 147 732.725 147C733.085 147 733.391 147.126 733.643 147.378C733.895 147.63 734.021 147.942 734.021 148.314C734.021 148.686 733.895 148.998 733.643 149.25C733.391 149.502 733.085 149.628 732.725 149.628ZM733.733 150.942V160.86H731.681V150.942H733.733Z" fill="#111111"/>
<path d="M728.973 150.942V160.86H726.921V159.69C726.597 160.098 726.171 160.422 725.643 160.662C725.127 160.89 724.575 161.004 723.987 161.004C723.207 161.004 722.505 160.842 721.881 160.518C721.269 160.194 720.783 159.714 720.423 159.078C720.075 158.442 719.901 157.674 719.901 156.774V150.942H721.935V156.468C721.935 157.356 722.157 158.04 722.601 158.52C723.045 158.988 723.651 159.222 724.419 159.222C725.187 159.222 725.793 158.988 726.237 158.52C726.693 158.04 726.921 157.356 726.921 156.468V150.942H728.973Z" fill="#111111"/>
<path d="M707.108 155.856C707.108 154.86 707.312 153.978 707.72 153.21C708.14 152.442 708.704 151.848 709.412 151.428C710.132 150.996 710.93 150.78 711.806 150.78C712.574 150.78 713.252 150.936 713.84 151.248C714.44 151.56 714.902 151.938 715.226 152.382V150.942H717.296V165.576H715.226V159.42C714.902 159.864 714.434 160.242 713.822 160.554C713.21 160.866 712.514 161.022 711.734 161.022C710.882 161.022 710.102 160.806 709.394 160.374C708.698 159.93 708.14 159.318 707.72 158.538C707.312 157.746 707.108 156.852 707.108 155.856ZM715.226 155.892C715.226 155.208 715.082 154.614 714.794 154.11C714.518 153.606 714.152 153.222 713.696 152.958C713.24 152.694 712.748 152.562 712.22 152.562C711.692 152.562 711.2 152.694 710.744 152.958C710.288 153.21 709.916 153.588 709.628 154.092C709.352 154.584 709.214 155.172 709.214 155.856C709.214 156.54 709.352 157.14 709.628 157.656C709.916 158.172 710.288 158.568 710.744 158.844C711.212 159.108 711.704 159.24 712.22 159.24C712.748 159.24 713.24 159.108 713.696 158.844C714.152 158.58 714.518 158.196 714.794 157.692C715.082 157.176 715.226 156.576 715.226 155.892Z" fill="#111111"/>
<path d="M705.773 155.658C705.773 156.03 705.749 156.366 705.701 156.666H698.123C698.183 157.458 698.477 158.094 699.005 158.574C699.533 159.054 700.181 159.294 700.949 159.294C702.053 159.294 702.833 158.832 703.289 157.908H705.503C705.203 158.82 704.657 159.57 703.865 160.158C703.085 160.734 702.113 161.022 700.949 161.022C700.001 161.022 699.149 160.812 698.393 160.392C697.649 159.96 697.061 159.36 696.629 158.592C696.209 157.812 695.999 156.912 695.999 155.892C695.999 154.872 696.203 153.978 696.611 153.21C697.031 152.43 697.613 151.83 698.357 151.41C699.113 150.99 699.977 150.78 700.949 150.78C701.885 150.78 702.719 150.984 703.451 151.392C704.183 151.8 704.753 152.376 705.161 153.12C705.569 153.852 705.773 154.698 705.773 155.658ZM703.631 155.01C703.619 154.254 703.349 153.648 702.821 153.192C702.293 152.736 701.639 152.508 700.859 152.508C700.151 152.508 699.545 152.736 699.041 153.192C698.537 153.636 698.237 154.242 698.141 155.01H703.631Z" fill="#111111"/>
<path d="M691.808 160.86L688.928 155.856H687.362V160.86H685.31V148.35H689.63C690.59 148.35 691.4 148.518 692.06 148.854C692.732 149.19 693.23 149.64 693.554 150.204C693.89 150.768 694.058 151.398 694.058 152.094C694.058 152.91 693.818 153.654 693.338 154.326C692.87 154.986 692.144 155.436 691.16 155.676L694.256 160.86H691.808ZM687.362 154.218H689.63C690.398 154.218 690.974 154.026 691.358 153.642C691.754 153.258 691.952 152.742 691.952 152.094C691.952 151.446 691.76 150.942 691.376 150.582C690.992 150.21 690.41 150.024 689.63 150.024H687.362V154.218Z" fill="#111111"/>
<path d="M779.813 127.78C780.593 127.78 781.289 127.942 781.901 128.266C782.525 128.59 783.011 129.07 783.359 129.706C783.707 130.342 783.881 131.11 783.881 132.01V137.86H781.847V132.316C781.847 131.428 781.625 130.75 781.181 130.282C780.737 129.802 780.131 129.562 779.363 129.562C778.595 129.562 777.983 129.802 777.527 130.282C777.083 130.75 776.861 131.428 776.861 132.316V137.86H774.809V127.942H776.861V129.076C777.197 128.668 777.623 128.35 778.139 128.122C778.667 127.894 779.225 127.78 779.813 127.78Z" fill="#111111"/>
<path d="M767.632 138.022C766.696 138.022 765.85 137.812 765.094 137.392C764.338 136.96 763.744 136.36 763.312 135.592C762.88 134.812 762.664 133.912 762.664 132.892C762.664 131.884 762.886 130.99 763.33 130.21C763.774 129.43 764.38 128.83 765.148 128.41C765.916 127.99 766.774 127.78 767.722 127.78C768.67 127.78 769.528 127.99 770.296 128.41C771.064 128.83 771.67 129.43 772.114 130.21C772.558 130.99 772.78 131.884 772.78 132.892C772.78 133.9 772.552 134.794 772.096 135.574C771.64 136.354 771.016 136.96 770.224 137.392C769.444 137.812 768.58 138.022 767.632 138.022ZM767.632 136.24C768.16 136.24 768.652 136.114 769.108 135.862C769.576 135.61 769.954 135.232 770.242 134.728C770.53 134.224 770.674 133.612 770.674 132.892C770.674 132.172 770.536 131.566 770.26 131.074C769.984 130.57 769.618 130.192 769.162 129.94C768.706 129.688 768.214 129.562 767.686 129.562C767.158 129.562 766.666 129.688 766.21 129.94C765.766 130.192 765.412 130.57 765.148 131.074C764.884 131.566 764.752 132.172 764.752 132.892C764.752 133.96 765.022 134.788 765.562 135.376C766.114 135.952 766.804 136.24 767.632 136.24Z" fill="#111111"/>
<path d="M759.628 126.628C759.256 126.628 758.944 126.502 758.692 126.25C758.44 125.998 758.314 125.686 758.314 125.314C758.314 124.942 758.44 124.63 758.692 124.378C758.944 124.126 759.256 124 759.628 124C759.988 124 760.294 124.126 760.546 124.378C760.798 124.63 760.924 124.942 760.924 125.314C760.924 125.686 760.798 125.998 760.546 126.25C760.294 126.502 759.988 126.628 759.628 126.628ZM760.636 127.942V137.86H758.584V127.942H760.636Z" fill="#111111"/>
<path d="M754.281 129.616V135.106C754.281 135.478 754.365 135.748 754.533 135.916C754.713 136.072 755.013 136.15 755.433 136.15H756.693V137.86H755.073C754.149 137.86 753.441 137.644 752.949 137.212C752.457 136.78 752.211 136.078 752.211 135.106V129.616H751.041V127.942H752.211V125.476H754.281V127.942H756.693V129.616H754.281Z" fill="#111111"/>
<path d="M739.004 132.856C739.004 131.86 739.208 130.978 739.616 130.21C740.036 129.442 740.6 128.848 741.308 128.428C742.028 127.996 742.82 127.78 743.684 127.78C744.464 127.78 745.142 127.936 745.718 128.248C746.306 128.548 746.774 128.926 747.122 129.382V127.942H749.192V137.86H747.122V136.384C746.774 136.852 746.3 137.242 745.7 137.554C745.1 137.866 744.416 138.022 743.648 138.022C742.796 138.022 742.016 137.806 741.308 137.374C740.6 136.93 740.036 136.318 739.616 135.538C739.208 134.746 739.004 133.852 739.004 132.856ZM747.122 132.892C747.122 132.208 746.978 131.614 746.69 131.11C746.414 130.606 746.048 130.222 745.592 129.958C745.136 129.694 744.644 129.562 744.116 129.562C743.588 129.562 743.096 129.694 742.64 129.958C742.184 130.21 741.812 130.588 741.524 131.092C741.248 131.584 741.11 132.172 741.11 132.856C741.11 133.54 741.248 134.14 741.524 134.656C741.812 135.172 742.184 135.568 742.64 135.844C743.108 136.108 743.6 136.24 744.116 136.24C744.644 136.24 745.136 136.108 745.592 135.844C746.048 135.58 746.414 135.196 746.69 134.692C746.978 134.176 747.122 133.576 747.122 132.892Z" fill="#111111"/>
<path d="M733.033 136.186H737.533V137.86H730.657V136.186L735.175 129.616H730.657V127.942H737.533V129.616L733.033 136.186Z" fill="#111111"/>
<path d="M727.513 126.628C727.141 126.628 726.829 126.502 726.577 126.25C726.325 125.998 726.199 125.686 726.199 125.314C726.199 124.942 726.325 124.63 726.577 124.378C726.829 124.126 727.141 124 727.513 124C727.873 124 728.179 124.126 728.431 124.378C728.683 124.63 728.809 124.942 728.809 125.314C728.809 125.686 728.683 125.998 728.431 126.25C728.179 126.502 727.873 126.628 727.513 126.628ZM728.521 127.942V137.86H726.469V127.942H728.521Z" fill="#111111"/>
<path d="M721.613 129.382C721.913 128.878 722.309 128.488 722.801 128.212C723.305 127.924 723.899 127.78 724.583 127.78V129.904H724.061C723.257 129.904 722.645 130.108 722.225 130.516C721.817 130.924 721.613 131.632 721.613 132.64V137.86H719.561V127.942H721.613V129.382Z" fill="#111111"/>
<path d="M712.384 138.022C711.448 138.022 710.602 137.812 709.846 137.392C709.09 136.96 708.496 136.36 708.064 135.592C707.632 134.812 707.416 133.912 707.416 132.892C707.416 131.884 707.638 130.99 708.082 130.21C708.526 129.43 709.132 128.83 709.9 128.41C710.668 127.99 711.526 127.78 712.474 127.78C713.422 127.78 714.28 127.99 715.048 128.41C715.816 128.83 716.422 129.43 716.866 130.21C717.31 130.99 717.532 131.884 717.532 132.892C717.532 133.9 717.304 134.794 716.848 135.574C716.392 136.354 715.768 136.96 714.976 137.392C714.196 137.812 713.332 138.022 712.384 138.022ZM712.384 136.24C712.912 136.24 713.404 136.114 713.86 135.862C714.328 135.61 714.706 135.232 714.994 134.728C715.282 134.224 715.426 133.612 715.426 132.892C715.426 132.172 715.288 131.566 715.012 131.074C714.736 130.57 714.37 130.192 713.914 129.94C713.458 129.688 712.966 129.562 712.438 129.562C711.91 129.562 711.418 129.688 710.962 129.94C710.518 130.192 710.164 130.57 709.9 131.074C709.636 131.566 709.504 132.172 709.504 132.892C709.504 133.96 709.774 134.788 710.314 135.376C710.866 135.952 711.556 136.24 712.384 136.24Z" fill="#111111"/>
<path d="M701.523 127.78C702.279 127.78 702.951 127.942 703.539 128.266C704.139 128.59 704.607 129.07 704.943 129.706C705.291 130.342 705.465 131.11 705.465 132.01V137.86H703.431V132.316C703.431 131.428 703.209 130.75 702.765 130.282C702.321 129.802 701.715 129.562 700.947 129.562C700.179 129.562 699.567 129.802 699.111 130.282C698.667 130.75 698.445 131.428 698.445 132.316V137.86H696.393V124.54H698.445V129.094C698.793 128.674 699.231 128.35 699.759 128.122C700.299 127.894 700.887 127.78 701.523 127.78Z" fill="#111111"/>
<path d="M692.09 129.616V135.106C692.09 135.478 692.174 135.748 692.342 135.916C692.522 136.072 692.822 136.15 693.242 136.15H694.502V137.86H692.882C691.958 137.86 691.25 137.644 690.758 137.212C690.266 136.78 690.02 136.078 690.02 135.106V129.616H688.85V127.942H690.02V125.476H692.09V127.942H694.502V129.616H692.09Z" fill="#111111"/>
<path d="M686.988 127.942V137.86H684.936V136.69C684.612 137.098 684.186 137.422 683.658 137.662C683.142 137.89 682.59 138.004 682.002 138.004C681.222 138.004 680.52 137.842 679.896 137.518C679.284 137.194 678.798 136.714 678.438 136.078C678.09 135.442 677.916 134.674 677.916 133.774V127.942H679.95V133.468C679.95 134.356 680.172 135.04 680.616 135.52C681.06 135.988 681.666 136.222 682.434 136.222C683.202 136.222 683.808 135.988 684.252 135.52C684.708 135.04 684.936 134.356 684.936 133.468V127.942H686.988Z" fill="#111111"/>
<path d="M672.998 135.304H667.76L666.86 137.86H664.718L669.2 125.332H671.576L676.058 137.86H673.898L672.998 135.304ZM672.422 133.63L670.388 127.816L668.336 133.63H672.422Z" fill="#111111"/>
<rect x="33.2529" y="207.673" width="230" height="77.022" rx="20" fill="white"/>
<path d="M192.297 256.289V261.779C192.297 262.151 192.381 262.421 192.549 262.589C192.729 262.745 193.029 262.823 193.449 262.823H194.709V264.533H193.089C192.165 264.533 191.457 264.317 190.965 263.885C190.473 263.453 190.227 262.751 190.227 261.779V256.289H189.057V254.615H190.227V252.149H192.297V254.615H194.709V256.289H192.297Z" fill="#111111"/>
<path d="M183.887 264.695C183.107 264.695 182.405 264.557 181.781 264.281C181.169 263.993 180.683 263.609 180.323 263.129C179.963 262.637 179.771 262.091 179.747 261.491H181.871C181.907 261.911 182.105 262.265 182.465 262.553C182.837 262.829 183.299 262.967 183.851 262.967C184.427 262.967 184.871 262.859 185.183 262.643C185.507 262.415 185.669 262.127 185.669 261.779C185.669 261.407 185.489 261.131 185.129 260.951C184.781 260.771 184.223 260.573 183.455 260.357C182.711 260.153 182.105 259.955 181.637 259.763C181.169 259.571 180.761 259.277 180.413 258.881C180.077 258.485 179.909 257.963 179.909 257.315C179.909 256.787 180.065 256.307 180.377 255.875C180.689 255.431 181.133 255.083 181.709 254.831C182.297 254.579 182.969 254.453 183.725 254.453C184.853 254.453 185.759 254.741 186.443 255.317C187.139 255.881 187.511 256.655 187.559 257.639H185.507C185.471 257.195 185.291 256.841 184.967 256.577C184.643 256.313 184.205 256.181 183.653 256.181C183.113 256.181 182.699 256.283 182.411 256.487C182.123 256.691 181.979 256.961 181.979 257.297C181.979 257.561 182.075 257.783 182.267 257.963C182.459 258.143 182.693 258.287 182.969 258.395C183.245 258.491 183.653 258.617 184.193 258.773C184.913 258.965 185.501 259.163 185.957 259.367C186.425 259.559 186.827 259.847 187.163 260.231C187.499 260.615 187.673 261.125 187.685 261.761C187.685 262.325 187.529 262.829 187.217 263.273C186.905 263.717 186.461 264.065 185.885 264.317C185.321 264.569 184.655 264.695 183.887 264.695Z" fill="#111111"/>
<path d="M167.404 259.529C167.404 258.533 167.608 257.651 168.016 256.883C168.436 256.115 169 255.521 169.708 255.101C170.428 254.669 171.22 254.453 172.084 254.453C172.864 254.453 173.542 254.609 174.118 254.921C174.706 255.221 175.174 255.599 175.522 256.055V254.615H177.592V264.533H175.522V263.057C175.174 263.525 174.7 263.915 174.1 264.227C173.5 264.539 172.816 264.695 172.048 264.695C171.196 264.695 170.416 264.479 169.708 264.047C169 263.603 168.436 262.991 168.016 262.211C167.608 261.419 167.404 260.525 167.404 259.529ZM175.522 259.565C175.522 258.881 175.378 258.287 175.09 257.783C174.814 257.279 174.448 256.895 173.992 256.631C173.536 256.367 173.044 256.235 172.516 256.235C171.988 256.235 171.496 256.367 171.04 256.631C170.584 256.883 170.212 257.261 169.924 257.765C169.648 258.257 169.51 258.845 169.51 259.529C169.51 260.213 169.648 260.813 169.924 261.329C170.212 261.845 170.584 262.241 171.04 262.517C171.508 262.781 172 262.913 172.516 262.913C173.044 262.913 173.536 262.781 173.992 262.517C174.448 262.253 174.814 261.869 175.09 261.365C175.378 260.849 175.522 260.249 175.522 259.565Z" fill="#111111"/>
<path d="M156.611 259.565C156.611 258.545 156.815 257.651 157.223 256.883C157.643 256.103 158.219 255.503 158.951 255.083C159.683 254.663 160.523 254.453 161.471 254.453C162.671 254.453 163.661 254.741 164.441 255.317C165.233 255.881 165.767 256.691 166.043 257.747H163.829C163.649 257.255 163.361 256.871 162.965 256.595C162.569 256.319 162.071 256.181 161.471 256.181C160.631 256.181 159.959 256.481 159.455 257.081C158.963 257.669 158.717 258.497 158.717 259.565C158.717 260.633 158.963 261.467 159.455 262.067C159.959 262.667 160.631 262.967 161.471 262.967C162.659 262.967 163.445 262.445 163.829 261.401H166.043C165.755 262.409 165.215 263.213 164.423 263.813C163.631 264.401 162.647 264.695 161.471 264.695C160.523 264.695 159.683 264.485 158.951 264.065C158.219 263.633 157.643 263.033 157.223 262.265C156.815 261.485 156.611 260.585 156.611 259.565Z" fill="#111111"/>
<path d="M144.412 259.529C144.412 258.533 144.616 257.651 145.024 256.883C145.444 256.115 146.008 255.521 146.716 255.101C147.436 254.669 148.234 254.453 149.11 254.453C149.758 254.453 150.394 254.597 151.018 254.885C151.654 255.161 152.158 255.533 152.53 256.001V251.213H154.6V264.533H152.53V263.039C152.194 263.519 151.726 263.915 151.126 264.227C150.538 264.539 149.86 264.695 149.092 264.695C148.228 264.695 147.436 264.479 146.716 264.047C146.008 263.603 145.444 262.991 145.024 262.211C144.616 261.419 144.412 260.525 144.412 259.529ZM152.53 259.565C152.53 258.881 152.386 258.287 152.098 257.783C151.822 257.279 151.456 256.895 151 256.631C150.544 256.367 150.052 256.235 149.524 256.235C148.996 256.235 148.504 256.367 148.048 256.631C147.592 256.883 147.22 257.261 146.932 257.765C146.656 258.257 146.518 258.845 146.518 259.529C146.518 260.213 146.656 260.813 146.932 261.329C147.22 261.845 147.592 262.241 148.048 262.517C148.516 262.781 149.008 262.913 149.524 262.913C150.052 262.913 150.544 262.781 151 262.517C151.456 262.253 151.822 261.869 152.098 261.365C152.386 260.849 152.53 260.249 152.53 259.565Z" fill="#111111"/>
<path d="M132.213 259.529C132.213 258.533 132.417 257.651 132.825 256.883C133.245 256.115 133.809 255.521 134.517 255.101C135.237 254.669 136.029 254.453 136.893 254.453C137.673 254.453 138.351 254.609 138.927 254.921C139.515 255.221 139.983 255.599 140.331 256.055V254.615H142.401V264.533H140.331V263.057C139.983 263.525 139.509 263.915 138.909 264.227C138.309 264.539 137.625 264.695 136.857 264.695C136.005 264.695 135.225 264.479 134.517 264.047C133.809 263.603 133.245 262.991 132.825 262.211C132.417 261.419 132.213 260.525 132.213 259.529ZM140.331 259.565C140.331 258.881 140.187 258.287 139.899 257.783C139.623 257.279 139.257 256.895 138.801 256.631C138.345 256.367 137.853 256.235 137.325 256.235C136.797 256.235 136.305 256.367 135.849 256.631C135.393 256.883 135.021 257.261 134.733 257.765C134.457 258.257 134.319 258.845 134.319 259.529C134.319 260.213 134.457 260.813 134.733 261.329C135.021 261.845 135.393 262.241 135.849 262.517C136.317 262.781 136.809 262.913 137.325 262.913C137.853 262.913 138.345 262.781 138.801 262.517C139.257 262.253 139.623 261.869 139.899 261.365C140.187 260.849 140.331 260.249 140.331 259.565Z" fill="#111111"/>
<path d="M125.72 264.695C124.784 264.695 123.938 264.485 123.182 264.065C122.426 263.633 121.832 263.033 121.4 262.265C120.968 261.485 120.752 260.585 120.752 259.565C120.752 258.557 120.974 257.663 121.418 256.883C121.862 256.103 122.468 255.503 123.236 255.083C124.004 254.663 124.862 254.453 125.81 254.453C126.758 254.453 127.616 254.663 128.384 255.083C129.152 255.503 129.758 256.103 130.202 256.883C130.646 257.663 130.868 258.557 130.868 259.565C130.868 260.573 130.64 261.467 130.184 262.247C129.728 263.027 129.104 263.633 128.312 264.065C127.532 264.485 126.668 264.695 125.72 264.695ZM125.72 262.913C126.248 262.913 126.74 262.787 127.196 262.535C127.664 262.283 128.042 261.905 128.33 261.401C128.618 260.897 128.762 260.285 128.762 259.565C128.762 258.845 128.624 258.239 128.348 257.747C128.072 257.243 127.706 256.865 127.25 256.613C126.794 256.361 126.302 256.235 125.774 256.235C125.246 256.235 124.754 256.361 124.298 256.613C123.854 256.865 123.5 257.243 123.236 257.747C122.972 258.239 122.84 258.845 122.84 259.565C122.84 260.633 123.11 261.461 123.65 262.049C124.202 262.625 124.892 262.913 125.72 262.913Z" fill="#111111"/>
<path d="M116.562 256.055C116.862 255.551 117.258 255.161 117.75 254.885C118.254 254.597 118.848 254.453 119.532 254.453V256.577H119.01C118.206 256.577 117.594 256.781 117.174 257.189C116.766 257.597 116.562 258.305 116.562 259.313V264.533H114.51V254.615H116.562V256.055Z" fill="#111111"/>
<path d="M109.868 258.107C110.54 258.227 111.11 258.581 111.578 259.169C112.046 259.757 112.28 260.423 112.28 261.167C112.28 261.803 112.112 262.379 111.776 262.895C111.452 263.399 110.978 263.801 110.354 264.101C109.73 264.389 109.004 264.533 108.176 264.533H103.172V252.023H107.942C108.794 252.023 109.526 252.167 110.138 252.455C110.75 252.743 111.212 253.133 111.524 253.625C111.836 254.105 111.992 254.645 111.992 255.245C111.992 255.965 111.8 256.565 111.416 257.045C111.032 257.525 110.516 257.879 109.868 258.107ZM105.224 257.279H107.762C108.434 257.279 108.956 257.129 109.328 256.829C109.712 256.517 109.904 256.073 109.904 255.497C109.904 254.933 109.712 254.495 109.328 254.183C108.956 253.859 108.434 253.697 107.762 253.697H105.224V257.279ZM107.996 262.859C108.692 262.859 109.238 262.691 109.634 262.355C110.03 262.019 110.228 261.551 110.228 260.951C110.228 260.339 110.018 259.853 109.598 259.493C109.178 259.133 108.62 258.953 107.924 258.953H105.224V262.859H107.996Z" fill="#111111"/>
<path d="M197.288 231.453C198.068 231.453 198.764 231.615 199.376 231.939C200 232.263 200.486 232.743 200.834 233.379C201.182 234.015 201.356 234.783 201.356 235.683V241.533H199.322V235.989C199.322 235.101 199.1 234.423 198.656 233.955C198.212 233.475 197.606 233.235 196.838 233.235C196.07 233.235 195.458 233.475 195.002 233.955C194.558 234.423 194.336 235.101 194.336 235.989V241.533H192.284V231.615H194.336V232.749C194.672 232.341 195.098 232.023 195.614 231.795C196.142 231.567 196.7 231.453 197.288 231.453Z" fill="#111111"/>
<path d="M185.108 241.695C184.172 241.695 183.326 241.485 182.57 241.065C181.814 240.633 181.22 240.033 180.788 239.265C180.356 238.485 180.14 237.585 180.14 236.565C180.14 235.557 180.362 234.663 180.806 233.883C181.25 233.103 181.856 232.503 182.624 232.083C183.392 231.663 184.25 231.453 185.198 231.453C186.146 231.453 187.004 231.663 187.772 232.083C188.54 232.503 189.146 233.103 189.59 233.883C190.034 234.663 190.256 235.557 190.256 236.565C190.256 237.573 190.028 238.467 189.572 239.247C189.116 240.027 188.492 240.633 187.7 241.065C186.92 241.485 186.056 241.695 185.108 241.695ZM185.108 239.913C185.636 239.913 186.128 239.787 186.584 239.535C187.052 239.283 187.43 238.905 187.718 238.401C188.006 237.897 188.15 237.285 188.15 236.565C188.15 235.845 188.012 235.239 187.736 234.747C187.46 234.243 187.094 233.865 186.638 233.613C186.182 233.361 185.69 233.235 185.162 233.235C184.634 233.235 184.142 233.361 183.686 233.613C183.242 233.865 182.888 234.243 182.624 234.747C182.36 235.239 182.228 235.845 182.228 236.565C182.228 237.633 182.498 238.461 183.038 239.049C183.59 239.625 184.28 239.913 185.108 239.913Z" fill="#111111"/>
<path d="M177.104 230.301C176.732 230.301 176.42 230.175 176.168 229.923C175.916 229.671 175.79 229.359 175.79 228.987C175.79 228.615 175.916 228.303 176.168 228.051C176.42 227.799 176.732 227.673 177.104 227.673C177.464 227.673 177.77 227.799 178.022 228.051C178.274 228.303 178.4 228.615 178.4 228.987C178.4 229.359 178.274 229.671 178.022 229.923C177.77 230.175 177.464 230.301 177.104 230.301ZM178.112 231.615V241.533H176.06V231.615H178.112Z" fill="#111111"/>
<path d="M171.757 233.289V238.779C171.757 239.151 171.841 239.421 172.009 239.589C172.189 239.745 172.489 239.823 172.909 239.823H174.169V241.533H172.549C171.625 241.533 170.917 241.317 170.425 240.885C169.933 240.453 169.687 239.751 169.687 238.779V233.289H168.517V231.615H169.687V229.149H171.757V231.615H174.169V233.289H171.757Z" fill="#111111"/>
<path d="M157.886 236.565C157.886 235.545 158.09 234.651 158.498 233.883C158.918 233.103 159.494 232.503 160.226 232.083C160.958 231.663 161.798 231.453 162.746 231.453C163.946 231.453 164.936 231.741 165.716 232.317C166.508 232.881 167.042 233.691 167.318 234.747H165.104C164.924 234.255 164.636 233.871 164.24 233.595C163.844 233.319 163.346 233.181 162.746 233.181C161.906 233.181 161.234 233.481 160.73 234.081C160.238 234.669 159.992 235.497 159.992 236.565C159.992 237.633 160.238 238.467 160.73 239.067C161.234 239.667 161.906 239.967 162.746 239.967C163.934 239.967 164.72 239.445 165.104 238.401H167.318C167.03 239.409 166.49 240.213 165.698 240.813C164.906 241.401 163.922 241.695 162.746 241.695C161.798 241.695 160.958 241.485 160.226 241.065C159.494 240.633 158.918 240.033 158.498 239.265C158.09 238.485 157.886 237.585 157.886 236.565Z" fill="#111111"/>
<path d="M145.687 236.529C145.687 235.533 145.891 234.651 146.299 233.883C146.719 233.115 147.283 232.521 147.991 232.101C148.711 231.669 149.503 231.453 150.367 231.453C151.147 231.453 151.825 231.609 152.401 231.921C152.989 232.221 153.457 232.599 153.805 233.055V231.615H155.875V241.533H153.805V240.057C153.457 240.525 152.983 240.915 152.383 241.227C151.783 241.539 151.099 241.695 150.331 241.695C149.479 241.695 148.699 241.479 147.991 241.047C147.283 240.603 146.719 239.991 146.299 239.211C145.891 238.419 145.687 237.525 145.687 236.529ZM153.805 236.565C153.805 235.881 153.661 235.287 153.373 234.783C153.097 234.279 152.731 233.895 152.275 233.631C151.819 233.367 151.327 233.235 150.799 233.235C150.271 233.235 149.779 233.367 149.323 233.631C148.867 233.883 148.495 234.261 148.207 234.765C147.931 235.257 147.793 235.845 147.793 236.529C147.793 237.213 147.931 237.813 148.207 238.329C148.495 238.845 148.867 239.241 149.323 239.517C149.791 239.781 150.283 239.913 150.799 239.913C151.327 239.913 151.819 239.781 152.275 239.517C152.731 239.253 153.097 238.869 153.373 238.365C153.661 237.849 153.805 237.249 153.805 236.565Z" fill="#111111"/>
<path d="M140.355 241.695C139.575 241.695 138.873 241.557 138.249 241.281C137.637 240.993 137.151 240.609 136.791 240.129C136.431 239.637 136.239 239.091 136.215 238.491H138.339C138.375 238.911 138.573 239.265 138.933 239.553C139.305 239.829 139.767 239.967 140.319 239.967C140.895 239.967 141.339 239.859 141.651 239.643C141.975 239.415 142.137 239.127 142.137 238.779C142.137 238.407 141.957 238.131 141.597 237.951C141.249 237.771 140.691 237.573 139.923 237.357C139.179 237.153 138.573 236.955 138.105 236.763C137.637 236.571 137.229 236.277 136.881 235.881C136.545 235.485 136.377 234.963 136.377 234.315C136.377 233.787 136.533 233.307 136.845 232.875C137.157 232.431 137.601 232.083 138.177 231.831C138.765 231.579 139.437 231.453 140.193 231.453C141.321 231.453 142.227 231.741 142.911 232.317C143.607 232.881 143.979 233.655 144.027 234.639H141.975C141.939 234.195 141.759 233.841 141.435 233.577C141.111 233.313 140.673 233.181 140.121 233.181C139.581 233.181 139.167 233.283 138.879 233.487C138.591 233.691 138.447 233.961 138.447 234.297C138.447 234.561 138.543 234.783 138.735 234.963C138.927 235.143 139.161 235.287 139.437 235.395C139.713 235.491 140.121 235.617 140.661 235.773C141.381 235.965 141.969 236.163 142.425 236.367C142.893 236.559 143.295 236.847 143.631 237.231C143.967 237.615 144.141 238.125 144.153 238.761C144.153 239.325 143.997 239.829 143.685 240.273C143.373 240.717 142.929 241.065 142.353 241.317C141.789 241.569 141.123 241.695 140.355 241.695Z" fill="#111111"/>
<path d="M130.069 231.453C130.849 231.453 131.545 231.615 132.157 231.939C132.781 232.263 133.267 232.743 133.615 233.379C133.963 234.015 134.137 234.783 134.137 235.683V241.533H132.103V235.989C132.103 235.101 131.881 234.423 131.437 233.955C130.993 233.475 130.387 233.235 129.619 233.235C128.851 233.235 128.239 233.475 127.783 233.955C127.339 234.423 127.117 235.101 127.117 235.989V241.533H125.065V231.615H127.117V232.749C127.453 232.341 127.879 232.023 128.395 231.795C128.923 231.567 129.481 231.453 130.069 231.453Z" fill="#111111"/>
<path d="M112.183 236.529C112.183 235.533 112.387 234.651 112.795 233.883C113.215 233.115 113.779 232.521 114.487 232.101C115.207 231.669 115.999 231.453 116.863 231.453C117.643 231.453 118.321 231.609 118.897 231.921C119.485 232.221 119.953 232.599 120.301 233.055V231.615H122.371V241.533H120.301V240.057C119.953 240.525 119.479 240.915 118.879 241.227C118.279 241.539 117.595 241.695 116.827 241.695C115.975 241.695 115.195 241.479 114.487 241.047C113.779 240.603 113.215 239.991 112.795 239.211C112.387 238.419 112.183 237.525 112.183 236.529ZM120.301 236.565C120.301 235.881 120.157 235.287 119.869 234.783C119.593 234.279 119.227 233.895 118.771 233.631C118.315 233.367 117.823 233.235 117.295 233.235C116.767 233.235 116.275 233.367 115.819 233.631C115.363 233.883 114.991 234.261 114.703 234.765C114.427 235.257 114.289 235.845 114.289 236.529C114.289 237.213 114.427 237.813 114.703 238.329C114.991 238.845 115.363 239.241 115.819 239.517C116.287 239.781 116.779 239.913 117.295 239.913C117.823 239.913 118.315 239.781 118.771 239.517C119.227 239.253 119.593 238.869 119.869 238.365C120.157 237.849 120.301 237.249 120.301 236.565Z" fill="#111111"/>
<path d="M108.01 233.055C108.31 232.551 108.706 232.161 109.198 231.885C109.702 231.597 110.296 231.453 110.98 231.453V233.577H110.458C109.654 233.577 109.042 233.781 108.622 234.189C108.214 234.597 108.01 235.305 108.01 236.313V241.533H105.958V231.615H108.01V233.055Z" fill="#111111"/>
<path d="M103.88 229.023V230.697H100.55V241.533H98.4984V230.697H95.1504V229.023H103.88Z" fill="#111111"/>
<path d="M291.734 253.2C291.368 253.613 290.735 253.651 290.322 253.285L283.589 247.312C283.176 246.946 283.138 246.313 283.505 245.9L289.477 239.168C289.843 238.755 290.476 238.717 290.889 239.083C291.302 239.449 291.34 240.082 290.974 240.495L286.604 245.423L300.881 244.567L301 246.563L286.724 247.418L291.649 251.788C292.063 252.154 292.101 252.787 291.734 253.2Z" fill="#813BF5"/>
<rect x="321" y="205.576" width="230" height="81.216" rx="20" fill="white"/>
<path d="M455.828 262.058C455.048 262.058 454.346 261.92 453.722 261.644C453.11 261.356 452.624 260.972 452.264 260.492C451.904 260 451.712 259.454 451.688 258.854H453.812C453.848 259.274 454.046 259.628 454.406 259.916C454.778 260.192 455.24 260.33 455.792 260.33C456.368 260.33 456.812 260.222 457.124 260.006C457.448 259.778 457.61 259.49 457.61 259.142C457.61 258.77 457.43 258.494 457.07 258.314C456.722 258.134 456.164 257.936 455.396 257.72C454.652 257.516 454.046 257.318 453.578 257.126C453.11 256.934 452.702 256.64 452.354 256.244C452.018 255.848 451.85 255.326 451.85 254.678C451.85 254.15 452.006 253.67 452.318 253.238C452.63 252.794 453.074 252.446 453.65 252.194C454.238 251.942 454.91 251.816 455.666 251.816C456.794 251.816 457.7 252.104 458.384 252.68C459.08 253.244 459.452 254.018 459.5 255.002H457.448C457.412 254.558 457.232 254.204 456.908 253.94C456.584 253.676 456.146 253.544 455.594 253.544C455.054 253.544 454.64 253.646 454.352 253.85C454.064 254.054 453.92 254.324 453.92 254.66C453.92 254.924 454.016 255.146 454.208 255.326C454.4 255.506 454.634 255.65 454.91 255.758C455.186 255.854 455.594 255.98 456.134 256.136C456.854 256.328 457.442 256.526 457.898 256.73C458.366 256.922 458.768 257.21 459.104 257.594C459.44 257.978 459.614 258.488 459.626 259.124C459.626 259.688 459.47 260.192 459.158 260.636C458.846 261.08 458.402 261.428 457.826 261.68C457.262 261.932 456.596 262.058 455.828 262.058Z" fill="#111111"/>
<path d="M445.543 251.816C446.323 251.816 447.019 251.978 447.631 252.302C448.255 252.626 448.741 253.106 449.089 253.742C449.437 254.378 449.611 255.146 449.611 256.046V261.896H447.577V256.352C447.577 255.464 447.355 254.786 446.911 254.318C446.467 253.838 445.861 253.598 445.093 253.598C444.325 253.598 443.713 253.838 443.257 254.318C442.813 254.786 442.591 255.464 442.591 256.352V261.896H440.539V251.978H442.591V253.112C442.927 252.704 443.353 252.386 443.869 252.158C444.397 251.93 444.955 251.816 445.543 251.816Z" fill="#111111"/>
<path d="M432.336 251.816C433.104 251.816 433.782 251.972 434.37 252.284C434.97 252.584 435.438 252.962 435.774 253.418V251.978H437.844V262.058C437.844 262.97 437.652 263.78 437.268 264.488C436.884 265.208 436.326 265.772 435.594 266.18C434.874 266.588 434.01 266.792 433.002 266.792C431.658 266.792 430.542 266.474 429.654 265.838C428.766 265.214 428.262 264.362 428.142 263.282H430.176C430.332 263.798 430.662 264.212 431.166 264.524C431.682 264.848 432.294 265.01 433.002 265.01C433.83 265.01 434.496 264.758 435 264.254C435.516 263.75 435.774 263.018 435.774 262.058V260.402C435.426 260.87 434.952 261.266 434.352 261.59C433.764 261.902 433.092 262.058 432.336 262.058C431.472 262.058 430.68 261.842 429.96 261.41C429.252 260.966 428.688 260.354 428.268 259.574C427.86 258.782 427.656 257.888 427.656 256.892C427.656 255.896 427.86 255.014 428.268 254.246C428.688 253.478 429.252 252.884 429.96 252.464C430.68 252.032 431.472 251.816 432.336 251.816ZM435.774 256.928C435.774 256.244 435.63 255.65 435.342 255.146C435.066 254.642 434.7 254.258 434.244 253.994C433.788 253.73 433.296 253.598 432.768 253.598C432.24 253.598 431.748 253.73 431.292 253.994C430.836 254.246 430.464 254.624 430.176 255.128C429.9 255.62 429.762 256.208 429.762 256.892C429.762 257.576 429.9 258.176 430.176 258.692C430.464 259.208 430.836 259.604 431.292 259.88C431.76 260.144 432.252 260.276 432.768 260.276C433.296 260.276 433.788 260.144 434.244 259.88C434.7 259.616 435.066 259.232 435.342 258.728C435.63 258.212 435.774 257.612 435.774 256.928Z" fill="#111111"/>
<path d="M424.638 250.664C424.266 250.664 423.954 250.538 423.702 250.286C423.45 250.034 423.324 249.722 423.324 249.35C423.324 248.978 423.45 248.666 423.702 248.414C423.954 248.162 424.266 248.036 424.638 248.036C424.998 248.036 425.304 248.162 425.556 248.414C425.808 248.666 425.934 248.978 425.934 249.35C425.934 249.722 425.808 250.034 425.556 250.286C425.304 250.538 424.998 250.664 424.638 250.664ZM425.646 251.978V261.896H423.594V251.978H425.646Z" fill="#111111"/>
<path d="M416.853 262.022C416.013 262.022 415.257 261.878 414.585 261.59C413.913 261.29 413.385 260.87 413.001 260.33C412.617 259.79 412.425 259.16 412.425 258.44H414.621C414.669 258.98 414.879 259.424 415.251 259.772C415.635 260.12 416.169 260.294 416.853 260.294C417.561 260.294 418.113 260.126 418.509 259.79C418.905 259.442 419.103 258.998 419.103 258.458C419.103 258.038 418.977 257.696 418.725 257.432C418.485 257.168 418.179 256.964 417.807 256.82C417.447 256.676 416.943 256.52 416.295 256.352C415.479 256.136 414.813 255.92 414.297 255.704C413.793 255.476 413.361 255.128 413.001 254.66C412.641 254.192 412.461 253.568 412.461 252.788C412.461 252.068 412.641 251.438 413.001 250.898C413.361 250.358 413.865 249.944 414.513 249.656C415.161 249.368 415.911 249.224 416.763 249.224C417.975 249.224 418.965 249.53 419.733 250.142C420.513 250.742 420.945 251.57 421.029 252.626H418.761C418.725 252.17 418.509 251.78 418.113 251.456C417.717 251.132 417.195 250.97 416.547 250.97C415.959 250.97 415.479 251.12 415.107 251.42C414.735 251.72 414.549 252.152 414.549 252.716C414.549 253.1 414.663 253.418 414.891 253.67C415.131 253.91 415.431 254.102 415.791 254.246C416.151 254.39 416.643 254.546 417.267 254.714C418.095 254.942 418.767 255.17 419.283 255.398C419.811 255.626 420.255 255.98 420.615 256.46C420.987 256.928 421.173 257.558 421.173 258.35C421.173 258.986 420.999 259.586 420.651 260.15C420.315 260.714 419.817 261.17 419.157 261.518C418.509 261.854 417.741 262.022 416.853 262.022Z" fill="#111111"/>
<path d="M485.235 230.652V236.142C485.235 236.514 485.319 236.784 485.487 236.952C485.667 237.108 485.967 237.186 486.387 237.186H487.647V238.896H486.027C485.103 238.896 484.395 238.68 483.903 238.248C483.411 237.816 483.165 237.114 483.165 236.142V230.652H481.995V228.978H483.165V226.512H485.235V228.978H487.647V230.652H485.235Z" fill="#111111"/>
<path d="M480.822 233.694C480.822 234.066 480.798 234.402 480.75 234.702H473.172C473.232 235.494 473.526 236.13 474.054 236.61C474.582 237.09 475.23 237.33 475.998 237.33C477.102 237.33 477.882 236.868 478.338 235.944H480.552C480.252 236.856 479.706 237.606 478.914 238.194C478.134 238.77 477.162 239.058 475.998 239.058C475.05 239.058 474.198 238.848 473.442 238.428C472.698 237.996 472.11 237.396 471.678 236.628C471.258 235.848 471.048 234.948 471.048 233.928C471.048 232.908 471.252 232.014 471.66 231.246C472.08 230.466 472.662 229.866 473.406 229.446C474.162 229.026 475.026 228.816 475.998 228.816C476.934 228.816 477.768 229.02 478.5 229.428C479.232 229.836 479.802 230.412 480.21 231.156C480.618 231.888 480.822 232.734 480.822 233.694ZM478.68 233.046C478.668 232.29 478.398 231.684 477.87 231.228C477.342 230.772 476.688 230.544 475.908 230.544C475.2 230.544 474.594 230.772 474.09 231.228C473.586 231.672 473.286 232.278 473.19 233.046H478.68Z" fill="#111111"/>
<path d="M469.037 225.576V238.896H466.985V225.576H469.037Z" fill="#111111"/>
<path d="M464.291 225.576V238.896H462.239V225.576H464.291Z" fill="#111111"/>
<path d="M449.356 233.892C449.356 232.896 449.56 232.014 449.968 231.246C450.388 230.478 450.952 229.884 451.66 229.464C452.38 229.032 453.172 228.816 454.036 228.816C454.816 228.816 455.494 228.972 456.07 229.284C456.658 229.584 457.126 229.962 457.474 230.418V228.978H459.544V238.896H457.474V237.42C457.126 237.888 456.652 238.278 456.052 238.59C455.452 238.902 454.768 239.058 454 239.058C453.148 239.058 452.368 238.842 451.66 238.41C450.952 237.966 450.388 237.354 449.968 236.574C449.56 235.782 449.356 234.888 449.356 233.892ZM457.474 233.928C457.474 233.244 457.33 232.65 457.042 232.146C456.766 231.642 456.4 231.258 455.944 230.994C455.488 230.73 454.996 230.598 454.468 230.598C453.94 230.598 453.448 230.73 452.992 230.994C452.536 231.246 452.164 231.624 451.876 232.128C451.6 232.62 451.462 233.208 451.462 233.892C451.462 234.576 451.6 235.176 451.876 235.692C452.164 236.208 452.536 236.604 452.992 236.88C453.46 237.144 453.952 237.276 454.468 237.276C454.996 237.276 455.488 237.144 455.944 236.88C456.4 236.616 456.766 236.232 457.042 235.728C457.33 235.212 457.474 234.612 457.474 233.928Z" fill="#111111"/>
<path d="M448.348 226.386L444.64 238.896H442.318L439.69 229.428L436.9 238.896L434.596 238.914L431.05 226.386H433.228L435.82 236.574L438.628 226.386H440.932L443.542 236.52L446.152 226.386H448.348Z" fill="#111111"/>
<path d="M414.499 233.892C414.499 232.896 414.703 232.014 415.111 231.246C415.531 230.478 416.095 229.884 416.803 229.464C417.523 229.032 418.321 228.816 419.197 228.816C419.845 228.816 420.481 228.96 421.105 229.248C421.741 229.524 422.245 229.896 422.617 230.364V225.576H424.687V238.896H422.617V237.402C422.281 237.882 421.813 238.278 421.213 238.59C420.625 238.902 419.947 239.058 419.179 239.058C418.315 239.058 417.523 238.842 416.803 238.41C416.095 237.966 415.531 237.354 415.111 236.574C414.703 235.782 414.499 234.888 414.499 233.892ZM422.617 233.928C422.617 233.244 422.473 232.65 422.185 232.146C421.909 231.642 421.543 231.258 421.087 230.994C420.631 230.73 420.139 230.598 419.611 230.598C419.083 230.598 418.591 230.73 418.135 230.994C417.679 231.246 417.307 231.624 417.019 232.128C416.743 232.62 416.605 233.208 416.605 233.892C416.605 234.576 416.743 235.176 417.019 235.692C417.307 236.208 417.679 236.604 418.135 236.88C418.603 237.144 419.095 237.276 419.611 237.276C420.139 237.276 420.631 237.144 421.087 236.88C421.543 236.616 421.909 236.232 422.185 235.728C422.473 235.212 422.617 234.612 422.617 233.928Z" fill="#111111"/>
<path d="M412.489 225.576V238.896H410.437V225.576H412.489Z" fill="#111111"/>
<path d="M403.26 239.058C402.324 239.058 401.478 238.848 400.722 238.428C399.966 237.996 399.372 237.396 398.94 236.628C398.508 235.848 398.292 234.948 398.292 233.928C398.292 232.92 398.514 232.026 398.958 231.246C399.402 230.466 400.008 229.866 400.776 229.446C401.544 229.026 402.402 228.816 403.35 228.816C404.298 228.816 405.156 229.026 405.924 229.446C406.692 229.866 407.298 230.466 407.742 231.246C408.186 232.026 408.408 232.92 408.408 233.928C408.408 234.936 408.18 235.83 407.724 236.61C407.268 237.39 406.644 237.996 405.852 238.428C405.072 238.848 404.208 239.058 403.26 239.058ZM403.26 237.276C403.788 237.276 404.28 237.15 404.736 236.898C405.204 236.646 405.582 236.268 405.87 235.764C406.158 235.26 406.302 234.648 406.302 233.928C406.302 233.208 406.164 232.602 405.888 232.11C405.612 231.606 405.246 231.228 404.79 230.976C404.334 230.724 403.842 230.598 403.314 230.598C402.786 230.598 402.294 230.724 401.838 230.976C401.394 231.228 401.04 231.606 400.776 232.11C400.512 232.602 400.38 233.208 400.38 233.928C400.38 234.996 400.65 235.824 401.19 236.412C401.742 236.988 402.432 237.276 403.26 237.276Z" fill="#111111"/>
<path d="M384.353 232.614C384.353 231.39 384.635 230.292 385.199 229.32C385.775 228.348 386.549 227.592 387.521 227.052C388.505 226.5 389.579 226.224 390.743 226.224C392.075 226.224 393.257 226.554 394.289 227.214C395.333 227.862 396.089 228.786 396.557 229.986H394.091C393.767 229.326 393.317 228.834 392.741 228.51C392.165 228.186 391.499 228.024 390.743 228.024C389.915 228.024 389.177 228.21 388.529 228.582C387.881 228.954 387.371 229.488 386.999 230.184C386.639 230.88 386.459 231.69 386.459 232.614C386.459 233.538 386.639 234.348 386.999 235.044C387.371 235.74 387.881 236.28 388.529 236.664C389.177 237.036 389.915 237.222 390.743 237.222C391.499 237.222 392.165 237.06 392.741 236.736C393.317 236.412 393.767 235.92 394.091 235.26H396.557C396.089 236.46 395.333 237.384 394.289 238.032C393.257 238.68 392.075 239.004 390.743 239.004C389.567 239.004 388.493 238.734 387.521 238.194C386.549 237.642 385.775 236.88 385.199 235.908C384.635 234.936 384.353 233.838 384.353 232.614Z" fill="#111111"/>
<path d="M579.481 253.2C579.115 253.613 578.483 253.651 578.069 253.285L571.336 247.312C570.923 246.946 570.886 246.313 571.252 245.9L577.224 239.168C577.59 238.755 578.223 238.717 578.636 239.083C579.049 239.449 579.087 240.082 578.721 240.495L574.351 245.423L588.628 244.567L588.747 246.563L574.471 247.418L579.396 251.788C579.81 252.154 579.848 252.787 579.481 253.2Z" fill="#813BF5"/>
<rect x="608.747" y="206.89" width="230" height="78.588" rx="20" fill="white"/>
<path d="M757.738 258.206C757.738 257.21 757.942 256.328 758.35 255.56C758.77 254.792 759.334 254.198 760.042 253.778C760.762 253.346 761.56 253.13 762.436 253.13C763.084 253.13 763.72 253.274 764.344 253.562C764.98 253.838 765.484 254.21 765.856 254.678V249.89H767.926V263.21H765.856V261.716C765.52 262.196 765.052 262.592 764.452 262.904C763.864 263.216 763.186 263.372 762.418 263.372C761.554 263.372 760.762 263.156 760.042 262.724C759.334 262.28 758.77 261.668 758.35 260.888C757.942 260.096 757.738 259.202 757.738 258.206ZM765.856 258.242C765.856 257.558 765.712 256.964 765.424 256.46C765.148 255.956 764.782 255.572 764.326 255.308C763.87 255.044 763.378 254.912 762.85 254.912C762.322 254.912 761.83 255.044 761.374 255.308C760.918 255.56 760.546 255.938 760.258 256.442C759.982 256.934 759.844 257.522 759.844 258.206C759.844 258.89 759.982 259.49 760.258 260.006C760.546 260.522 760.918 260.918 761.374 261.194C761.842 261.458 762.334 261.59 762.85 261.59C763.378 261.59 763.87 261.458 764.326 261.194C764.782 260.93 765.148 260.546 765.424 260.042C765.712 259.526 765.856 258.926 765.856 258.242Z" fill="#111111"/>
<path d="M756.403 258.008C756.403 258.38 756.379 258.716 756.331 259.016H748.753C748.813 259.808 749.107 260.444 749.635 260.924C750.163 261.404 750.811 261.644 751.579 261.644C752.683 261.644 753.463 261.182 753.919 260.258H756.133C755.833 261.17 755.287 261.92 754.495 262.508C753.715 263.084 752.743 263.372 751.579 263.372C750.631 263.372 749.779 263.162 749.023 262.742C748.279 262.31 747.691 261.71 747.259 260.942C746.839 260.162 746.629 259.262 746.629 258.242C746.629 257.222 746.833 256.328 747.241 255.56C747.661 254.78 748.243 254.18 748.987 253.76C749.743 253.34 750.607 253.13 751.579 253.13C752.515 253.13 753.349 253.334 754.081 253.742C754.813 254.15 755.383 254.726 755.791 255.47C756.199 256.202 756.403 257.048 756.403 258.008ZM754.261 257.36C754.249 256.604 753.979 255.998 753.451 255.542C752.923 255.086 752.269 254.858 751.489 254.858C750.781 254.858 750.175 255.086 749.671 255.542C749.167 255.986 748.867 256.592 748.771 257.36H754.261Z" fill="#111111"/>
<path d="M744.605 253.292V263.21H742.553V262.04C742.229 262.448 741.803 262.772 741.275 263.012C740.759 263.24 740.207 263.354 739.619 263.354C738.839 263.354 738.137 263.192 737.513 262.868C736.901 262.544 736.415 262.064 736.055 261.428C735.707 260.792 735.533 260.024 735.533 259.124V253.292H737.567V258.818C737.567 259.706 737.789 260.39 738.233 260.87C738.677 261.338 739.283 261.572 740.051 261.572C740.819 261.572 741.425 261.338 741.869 260.87C742.325 260.39 742.553 259.706 742.553 258.818V253.292H744.605Z" fill="#111111"/>
<path d="M733.604 258.008C733.604 258.38 733.58 258.716 733.532 259.016H725.954C726.014 259.808 726.308 260.444 726.836 260.924C727.364 261.404 728.012 261.644 728.78 261.644C729.884 261.644 730.664 261.182 731.12 260.258H733.334C733.034 261.17 732.488 261.92 731.696 262.508C730.916 263.084 729.944 263.372 728.78 263.372C727.832 263.372 726.98 263.162 726.224 262.742C725.48 262.31 724.892 261.71 724.46 260.942C724.04 260.162 723.83 259.262 723.83 258.242C723.83 257.222 724.034 256.328 724.442 255.56C724.862 254.78 725.444 254.18 726.188 253.76C726.944 253.34 727.808 253.13 728.78 253.13C729.716 253.13 730.55 253.334 731.282 253.742C732.014 254.15 732.584 254.726 732.992 255.47C733.4 256.202 733.604 257.048 733.604 258.008ZM731.462 257.36C731.45 256.604 731.18 255.998 730.652 255.542C730.124 255.086 729.47 254.858 728.69 254.858C727.982 254.858 727.376 255.086 726.872 255.542C726.368 255.986 726.068 256.592 725.972 257.36H731.462Z" fill="#111111"/>
<path d="M721.806 253.292V263.21H719.754V262.04C719.43 262.448 719.004 262.772 718.476 263.012C717.96 263.24 717.408 263.354 716.82 263.354C716.04 263.354 715.338 263.192 714.714 262.868C714.102 262.544 713.616 262.064 713.256 261.428C712.908 260.792 712.734 260.024 712.734 259.124V253.292H714.768V258.818C714.768 259.706 714.99 260.39 715.434 260.87C715.878 261.338 716.484 261.572 717.252 261.572C718.02 261.572 718.626 261.338 719.07 260.87C719.526 260.39 719.754 259.706 719.754 258.818V253.292H721.806Z" fill="#111111"/>
<path d="M708.341 265.478L706.145 263.102C705.605 263.258 705.011 263.336 704.363 263.336C703.199 263.336 702.125 263.066 701.141 262.526C700.169 261.974 699.395 261.212 698.819 260.24C698.255 259.256 697.973 258.152 697.973 256.928C697.973 255.704 698.255 254.606 698.819 253.634C699.395 252.662 700.169 251.906 701.141 251.366C702.125 250.814 703.199 250.538 704.363 250.538C705.539 250.538 706.613 250.814 707.585 251.366C708.569 251.906 709.343 252.662 709.907 253.634C710.471 254.606 710.753 255.704 710.753 256.928C710.753 258.08 710.501 259.124 709.997 260.06C709.505 260.984 708.821 261.728 707.945 262.292L710.951 265.478H708.341ZM700.079 256.928C700.079 257.852 700.259 258.668 700.619 259.376C700.991 260.072 701.501 260.612 702.149 260.996C702.797 261.368 703.535 261.554 704.363 261.554C705.191 261.554 705.929 261.368 706.577 260.996C707.225 260.612 707.729 260.072 708.089 259.376C708.461 258.668 708.647 257.852 708.647 256.928C708.647 256.004 708.461 255.194 708.089 254.498C707.729 253.802 707.225 253.268 706.577 252.896C705.929 252.524 705.191 252.338 704.363 252.338C703.535 252.338 702.797 252.524 702.149 252.896C701.501 253.268 700.991 253.802 700.619 254.498C700.259 255.194 700.079 256.004 700.079 256.928Z" fill="#111111"/>
<path d="M689.953 263.21L688.405 261.662C687.805 262.262 687.151 262.712 686.443 263.012C685.735 263.3 684.943 263.444 684.067 263.444C683.179 263.444 682.393 263.288 681.709 262.976C681.025 262.664 680.497 262.22 680.125 261.644C679.753 261.056 679.567 260.378 679.567 259.61C679.567 258.746 679.813 257.978 680.305 257.306C680.797 256.622 681.529 256.082 682.501 255.686C682.153 255.266 681.907 254.876 681.763 254.516C681.619 254.144 681.547 253.736 681.547 253.292C681.547 252.74 681.685 252.248 681.961 251.816C682.249 251.384 682.657 251.042 683.185 250.79C683.713 250.538 684.325 250.412 685.021 250.412C685.729 250.412 686.329 250.55 686.821 250.826C687.325 251.09 687.697 251.456 687.937 251.924C688.189 252.392 688.291 252.914 688.243 253.49H686.191C686.203 253.046 686.095 252.704 685.867 252.464C685.639 252.212 685.327 252.086 684.931 252.086C684.535 252.086 684.211 252.206 683.959 252.446C683.719 252.674 683.599 252.956 683.599 253.292C683.599 253.616 683.689 253.94 683.869 254.264C684.061 254.576 684.391 254.984 684.859 255.488L688.171 258.782L689.449 256.676H691.663L690.043 259.448L689.593 260.186L692.635 263.21H689.953ZM684.067 261.698C685.195 261.698 686.191 261.236 687.055 260.312L683.743 256.982C682.327 257.546 681.619 258.398 681.619 259.538C681.619 260.15 681.847 260.666 682.303 261.086C682.759 261.494 683.347 261.698 684.067 261.698Z" fill="#111111"/>
<path d="M757.079 235.206C757.079 234.21 757.283 233.328 757.691 232.56C758.111 231.792 758.675 231.198 759.383 230.778C760.103 230.346 760.901 230.13 761.777 230.13C762.425 230.13 763.061 230.274 763.685 230.562C764.321 230.838 764.825 231.21 765.197 231.678V226.89H767.267V240.21H765.197V238.716C764.861 239.196 764.393 239.592 763.793 239.904C763.205 240.216 762.527 240.372 761.759 240.372C760.895 240.372 760.103 240.156 759.383 239.724C758.675 239.28 758.111 238.668 757.691 237.888C757.283 237.096 757.079 236.202 757.079 235.206ZM765.197 235.242C765.197 234.558 765.053 233.964 764.765 233.46C764.489 232.956 764.123 232.572 763.667 232.308C763.211 232.044 762.719 231.912 762.191 231.912C761.663 231.912 761.171 232.044 760.715 232.308C760.259 232.56 759.887 232.938 759.599 233.442C759.323 233.934 759.185 234.522 759.185 235.206C759.185 235.89 759.323 236.49 759.599 237.006C759.887 237.522 760.259 237.918 760.715 238.194C761.183 238.458 761.675 238.59 762.191 238.59C762.719 238.59 763.211 238.458 763.667 238.194C764.123 237.93 764.489 237.546 764.765 237.042C765.053 236.526 765.197 235.926 765.197 235.242Z" fill="#111111"/>
<path d="M755.744 235.008C755.744 235.38 755.72 235.716 755.672 236.016H748.094C748.154 236.808 748.448 237.444 748.976 237.924C749.504 238.404 750.152 238.644 750.92 238.644C752.024 238.644 752.804 238.182 753.26 237.258H755.474C755.174 238.17 754.628 238.92 753.836 239.508C753.056 240.084 752.084 240.372 750.92 240.372C749.972 240.372 749.12 240.162 748.364 239.742C747.62 239.31 747.032 238.71 746.6 237.942C746.18 237.162 745.97 236.262 745.97 235.242C745.97 234.222 746.174 233.328 746.582 232.56C747.002 231.78 747.584 231.18 748.328 230.76C749.084 230.34 749.948 230.13 750.92 230.13C751.856 230.13 752.69 230.334 753.422 230.742C754.154 231.15 754.724 231.726 755.132 232.47C755.54 233.202 755.744 234.048 755.744 235.008ZM753.602 234.36C753.59 233.604 753.32 232.998 752.792 232.542C752.264 232.086 751.61 231.858 750.83 231.858C750.122 231.858 749.516 232.086 749.012 232.542C748.508 232.986 748.208 233.592 748.112 234.36H753.602Z" fill="#111111"/>
<path d="M740.116 238.374L742.924 230.292H745.102L741.322 240.21H738.874L735.112 230.292H737.308L740.116 238.374Z" fill="#111111"/>
<path d="M729.106 240.372C728.17 240.372 727.324 240.162 726.568 239.742C725.812 239.31 725.218 238.71 724.786 237.942C724.354 237.162 724.138 236.262 724.138 235.242C724.138 234.234 724.36 233.34 724.804 232.56C725.248 231.78 725.854 231.18 726.622 230.76C727.39 230.34 728.248 230.13 729.196 230.13C730.144 230.13 731.002 230.34 731.77 230.76C732.538 231.18 733.144 231.78 733.588 232.56C734.032 233.34 734.254 234.234 734.254 235.242C734.254 236.25 734.026 237.144 733.57 237.924C733.114 238.704 732.49 239.31 731.698 239.742C730.918 240.162 730.054 240.372 729.106 240.372ZM729.106 238.59C729.634 238.59 730.126 238.464 730.582 238.212C731.05 237.96 731.428 237.582 731.716 237.078C732.004 236.574 732.148 235.962 732.148 235.242C732.148 234.522 732.01 233.916 731.734 233.424C731.458 232.92 731.092 232.542 730.636 232.29C730.18 232.038 729.688 231.912 729.16 231.912C728.632 231.912 728.14 232.038 727.684 232.29C727.24 232.542 726.886 232.92 726.622 233.424C726.358 233.916 726.226 234.522 726.226 235.242C726.226 236.31 726.496 237.138 727.036 237.726C727.588 238.302 728.278 238.59 729.106 238.59Z" fill="#111111"/>
<path d="M719.948 231.732C720.248 231.228 720.644 230.838 721.136 230.562C721.64 230.274 722.234 230.13 722.918 230.13V232.254H722.396C721.592 232.254 720.98 232.458 720.56 232.866C720.152 233.274 719.948 233.982 719.948 234.99V240.21H717.896V230.292H719.948V231.732Z" fill="#111111"/>
<path d="M707.748 231.75C708.096 231.294 708.57 230.91 709.17 230.598C709.77 230.286 710.448 230.13 711.204 230.13C712.068 230.13 712.854 230.346 713.562 230.778C714.282 231.198 714.846 231.792 715.254 232.56C715.662 233.328 715.866 234.21 715.866 235.206C715.866 236.202 715.662 237.096 715.254 237.888C714.846 238.668 714.282 239.28 713.562 239.724C712.854 240.156 712.068 240.372 711.204 240.372C710.448 240.372 709.776 240.222 709.188 239.922C708.6 239.61 708.12 239.226 707.748 238.77V244.926H705.696V230.292H707.748V231.75ZM713.778 235.206C713.778 234.522 713.634 233.934 713.346 233.442C713.07 232.938 712.698 232.56 712.23 232.308C711.774 232.044 711.282 231.912 710.754 231.912C710.238 231.912 709.746 232.044 709.278 232.308C708.822 232.572 708.45 232.956 708.162 233.46C707.886 233.964 707.748 234.558 707.748 235.242C707.748 235.926 707.886 236.526 708.162 237.042C708.45 237.546 708.822 237.93 709.278 238.194C709.746 238.458 710.238 238.59 710.754 238.59C711.282 238.59 711.774 238.458 712.23 238.194C712.698 237.918 713.07 237.522 713.346 237.006C713.634 236.49 713.778 235.89 713.778 235.206Z" fill="#111111"/>
<path d="M695.549 231.75C695.897 231.294 696.371 230.91 696.971 230.598C697.571 230.286 698.249 230.13 699.005 230.13C699.869 230.13 700.655 230.346 701.363 230.778C702.083 231.198 702.647 231.792 703.055 232.56C703.463 233.328 703.667 234.21 703.667 235.206C703.667 236.202 703.463 237.096 703.055 237.888C702.647 238.668 702.083 239.28 701.363 239.724C700.655 240.156 699.869 240.372 699.005 240.372C698.249 240.372 697.577 240.222 696.989 239.922C696.401 239.61 695.921 239.226 695.549 238.77V244.926H693.497V230.292H695.549V231.75ZM701.579 235.206C701.579 234.522 701.435 233.934 701.147 233.442C700.871 232.938 700.499 232.56 700.031 232.308C699.575 232.044 699.083 231.912 698.555 231.912C698.039 231.912 697.547 232.044 697.079 232.308C696.623 232.572 696.251 232.956 695.963 233.46C695.687 233.964 695.549 234.558 695.549 235.242C695.549 235.926 695.687 236.526 695.963 237.042C696.251 237.546 696.623 237.93 697.079 238.194C697.547 238.458 698.039 238.59 698.555 238.59C699.083 238.59 699.575 238.458 700.031 238.194C700.499 237.918 700.871 237.522 701.147 237.006C701.435 236.49 701.579 235.89 701.579 235.206Z" fill="#111111"/>
<path d="M688.489 237.654H683.251L682.351 240.21H680.209L684.691 227.682H687.067L691.549 240.21H689.389L688.489 237.654ZM687.913 235.98L685.879 230.166L683.827 235.98H687.913Z" fill="#111111"/>
</svg>
