<?xml version="1.0" encoding="UTF-8"?>
<svg width="25px" height="25px" viewBox="0 0 25 25" version="1.1" xmlns="http://www.w3.org/2000/svg" xmlns:xlink="http://www.w3.org/1999/xlink">
    <title>phone-icon</title>
    <defs>
        <linearGradient x1="32%" y1="-2.94194567%" x2="69.163328%" y2="100%" id="linearGradient-1">
            <stop stop-color="#6239FF" offset="0%"></stop>
            <stop stop-color="#C326D6" offset="100%"></stop>
        </linearGradient>
    </defs>
    <g id="Final-Designs" stroke="none" stroke-width="1" fill="none" fill-rule="evenodd">
        <g id="Icons">
            <g id="phone-icon">
                <polygon id="Path" points="0 0 25 0 25 25 0 25"></polygon>
                <path d="M15.7000263,2.42976598 C16.9625455,2.42976598 17.9802683,3.47717237 17.9802683,4.76234133 L17.9802683,19.5353185 C17.9802683,20.8204875 16.9625455,21.8678939 15.7000263,21.8678939 L8.59763349,21.8678939 C7.3351144,21.8678939 6.31739156,20.8204875 6.31739156,19.5353185 L6.31739156,4.76234133 C6.31739156,3.47717237 7.3351144,2.42976598 8.59763349,2.42976598 L15.7000263,2.42976598 Z M10.0184455,4.20692298 L8.92455147,4.20692298 C8.27138067,4.20692298 7.7366594,4.75724028 7.7366594,5.44233073 L7.7366594,18.8553291 C7.7366594,19.5404196 8.27138067,20.0907369 8.92455147,20.0907369 L15.3731084,20.0907369 C16.0262792,20.0907369 16.5610004,19.5404196 16.5610004,18.8553291 L16.5610004,5.44233073 C16.5610004,4.75724028 16.0262792,4.20692298 15.3731084,4.20692298 L14.2792144,4.20692298 L13.6552392,4.83089811 C13.4897507,4.99638662 13.2653001,5.08935708 13.0312641,5.08935708 L11.2663958,5.08935708 C11.0323597,5.08935708 10.8079092,4.99638662 10.6424207,4.83089811 L10.0184455,4.20692298 Z M13.5836575,17.191774 C14.3557619,17.191774 14.9816765,17.5794185 14.9816765,18.0576021 C14.9816765,18.5357858 14.3557619,18.9234303 13.5836575,18.9234303 L10.7876197,18.9234303 C10.0155153,18.9234303 9.38960084,18.5357858 9.38960084,18.0576021 C9.38960084,17.5794185 10.0155153,17.191774 10.7876197,17.191774 L13.5836575,17.191774 Z" id="Shape" fill="url(#linearGradient-1)" fill-rule="nonzero"></path>
            </g>
        </g>
    </g>
</svg>