<svg width="38" height="38" viewBox="0 0 38 38" fill="none" xmlns="http://www.w3.org/2000/svg">
<circle cx="18.831" cy="18.831" r="18.831" fill="black"/>
<path d="M26.1102 24.2554C25.5531 24.0272 25.3147 23.7244 25.3378 23.2726C25.3615 22.7452 25.0623 22.3589 24.9202 22.2063C25.006 21.8783 25.2569 20.7439 24.9205 19.7586C24.5589 18.704 23.455 17.0932 22.316 15.5098C21.8497 14.8596 21.8277 14.1528 21.8022 13.3343C21.7778 12.5537 21.7502 11.6689 21.3149 10.6852C20.8416 9.61417 19.8918 9 18.709 9C18.0054 9 17.2832 9.2199 16.7274 9.60327C15.5892 10.3888 15.7397 12.1013 15.8392 13.2345C15.8528 13.3897 15.8657 13.5363 15.8732 13.6614C15.9394 14.7713 15.8791 15.3563 15.8003 15.534C15.7492 15.6502 15.4981 15.9809 15.2323 16.331C14.9573 16.6931 14.6457 17.1035 14.3902 17.4859C14.0854 17.9461 13.8393 18.6494 13.6014 19.3297C13.4272 19.8274 13.2628 20.2975 13.1027 20.5785C12.7992 21.119 12.8747 21.6229 12.9378 21.8559C12.8229 21.9357 12.657 22.0928 12.5169 22.3889C12.3475 22.7502 12.004 22.9444 11.2896 23.0818C10.9613 23.1489 10.7349 23.287 10.6165 23.492C10.4443 23.7905 10.5381 24.1655 10.6237 24.4218C10.7502 24.7986 10.6714 25.037 10.5281 25.47C10.4951 25.5699 10.4576 25.683 10.4197 25.8078C10.3599 26.0047 10.3815 26.1838 10.4836 26.3399C10.7534 26.7524 11.5407 26.8979 12.3512 26.9936C12.8351 27.051 13.3647 27.2445 13.877 27.4318C14.3789 27.6152 14.8979 27.8049 15.3696 27.8625C15.4413 27.8715 15.5123 27.876 15.5808 27.876C16.2931 27.876 16.6149 27.4034 16.7169 27.2092C16.9728 27.157 17.8552 26.9898 18.7647 26.9674C19.6727 26.9415 20.5512 27.1208 20.8001 27.1765C20.8783 27.3263 21.0846 27.6683 21.4134 27.8446C21.5941 27.9434 21.8456 28 22.1032 28H22.1033C22.3784 28 22.9017 27.935 23.3159 27.4992C23.7291 27.0614 24.7613 26.5025 25.5151 26.0944C25.6833 26.0033 25.8406 25.9181 25.9786 25.8411C26.402 25.6064 26.6331 25.271 26.6125 24.921C26.5953 24.6302 26.4028 24.3752 26.1102 24.2554ZM16.7366 24.1711C16.6839 23.7999 16.2063 23.4316 15.6532 23.0053C15.2009 22.6566 14.6883 22.2615 14.5471 21.9268C14.2552 21.2365 14.4853 20.0226 14.8864 19.3975C15.0846 19.0845 15.2465 18.6099 15.4031 18.1509C15.5722 17.6553 15.7471 17.1428 15.9426 16.9185C16.2523 16.5683 16.5385 15.8868 16.5892 15.3498C16.8792 15.6266 17.329 15.9779 17.7446 15.9779C17.8086 15.9779 17.8707 15.9696 17.93 15.9528C18.2143 15.8707 18.6325 15.629 19.037 15.3954C19.3856 15.194 19.8156 14.9455 19.9774 14.9229C20.2548 15.3212 21.8667 18.8883 22.0314 20.0339C22.1617 20.9403 22.024 21.6896 21.9548 21.9831C21.8991 21.9755 21.8327 21.9693 21.7629 21.9693C21.314 21.9693 21.1951 22.2144 21.1642 22.3607C21.0845 22.7409 21.0761 23.9566 21.0753 24.2298C20.9129 24.436 20.0919 25.4073 18.9132 25.5819C18.4331 25.6517 17.9848 25.6871 17.5807 25.6871C17.2354 25.6871 17.015 25.6604 16.9235 25.6465L16.3312 24.9688C16.5647 24.8535 16.7982 24.6102 16.7366 24.1711ZM17.4882 12.9962C17.4697 13.0042 17.4515 13.0127 17.4337 13.0218C17.4319 12.9817 17.4277 12.941 17.4213 12.9002C17.3566 12.528 17.1098 12.2578 16.8345 12.2578C16.8141 12.2578 16.7936 12.2594 16.7711 12.2628C16.6074 12.2901 16.4789 12.4131 16.4085 12.5875C16.4703 12.2048 16.6871 11.9214 16.9444 11.9214C17.2465 11.9214 17.5017 12.3286 17.5017 12.8105C17.5017 12.8712 17.4973 12.9317 17.4882 12.9962ZM19.8359 13.2832C19.8636 13.1951 19.8785 13.0998 19.8785 13.0009C19.8785 12.5639 19.6013 12.2216 19.2474 12.2216C18.9015 12.2216 18.6201 12.5712 18.6201 13.0009C18.6201 13.0301 18.6216 13.0595 18.6243 13.0888C18.606 13.0817 18.5881 13.0749 18.5707 13.0683C18.5309 12.9477 18.5107 12.822 18.5107 12.6936C18.5107 12.1711 18.8446 11.746 19.2552 11.746C19.6656 11.746 19.9996 12.1711 19.9996 12.6936C19.9996 12.9109 19.9396 13.1184 19.8359 13.2832ZM19.5332 14.3001C19.5273 14.3265 19.5147 14.3382 19.3755 14.4106C19.3053 14.4472 19.2178 14.4927 19.1083 14.5594L19.0352 14.6037C18.7413 14.7818 18.0531 15.1991 17.8663 15.2236C17.7394 15.2407 17.6609 15.1915 17.4844 15.0716C17.4446 15.0445 17.4023 15.0157 17.3571 14.9867C17.039 14.778 16.8343 14.548 16.8112 14.4581C16.9149 14.378 17.172 14.1773 17.3036 14.0585C17.5708 13.8101 17.8397 13.6431 17.9728 13.6431C17.9798 13.6431 17.9862 13.6436 17.9928 13.6449C18.1491 13.6725 18.5348 13.8264 18.8165 13.9388C18.9467 13.9907 19.0591 14.0356 19.1382 14.064C19.3875 14.1496 19.5174 14.2591 19.5332 14.3001ZM21.7725 25.9101C21.9131 25.2759 22.0751 24.4131 22.0489 23.9044C22.0428 23.7889 22.0326 23.6631 22.0227 23.5415C22.0042 23.3141 21.9767 22.9762 22.0051 22.8759C22.0107 22.8733 22.0169 22.8711 22.0238 22.8692C22.025 23.16 22.0882 23.74 22.552 23.9423C22.6903 24.0026 22.8483 24.0331 23.0216 24.0331C23.4862 24.0331 24.0018 23.8051 24.213 23.594C24.3373 23.4696 24.4419 23.3175 24.5152 23.197C24.5312 23.2439 24.541 23.3052 24.5358 23.3842C24.5082 23.8131 24.7167 24.3821 25.1134 24.5918L25.1711 24.6221C25.3124 24.6963 25.6877 24.8933 25.6937 24.9868C25.6937 24.9868 25.6906 24.9978 25.6696 25.0172C25.5756 25.1031 25.2448 25.2721 24.9248 25.4355C24.3572 25.7253 23.7139 26.0538 23.425 26.3576C23.0182 26.7857 22.5581 27.0733 22.2802 27.0733C22.2468 27.0733 22.2163 27.0691 22.1892 27.0605C21.8875 26.9664 21.6391 26.531 21.7725 25.9101ZM11.4869 24.2921C11.4561 24.1481 11.4318 24.0344 11.4579 23.9243C11.4768 23.8426 11.8797 23.7552 12.0518 23.7179C12.2937 23.6654 12.5438 23.6111 12.7074 23.5118C12.9286 23.3778 13.0484 23.1307 13.1541 22.9126C13.2306 22.755 13.3096 22.5919 13.4036 22.5384C13.4089 22.5353 13.417 22.5317 13.4324 22.5317C13.6085 22.5317 13.9781 22.9019 14.191 23.2333C14.245 23.3168 14.345 23.4842 14.4608 23.678C14.807 24.2572 15.281 25.0506 15.5285 25.3164C15.7516 25.5555 16.1127 26.015 16.0239 26.4092C15.9589 26.715 15.6126 26.9637 15.531 27.0187C15.5013 27.0254 15.4646 27.0288 15.4215 27.0288C14.9476 27.0288 14.0097 26.6346 13.5058 26.4228L13.4312 26.3915C13.1498 26.2735 12.6905 26.1992 12.2462 26.1273C11.8928 26.07 11.4087 25.9917 11.3285 25.9209C11.2635 25.848 11.3389 25.6108 11.4054 25.4016C11.4534 25.2512 11.5028 25.0957 11.5299 24.9329C11.5683 24.6733 11.5231 24.4619 11.4869 24.2921Z" fill="#C9EB00"/>
</svg>
