<svg width="38" height="38" viewBox="0 0 38 38" fill="none" xmlns="http://www.w3.org/2000/svg">
<g id="Group 1321314604">
<circle id="Ellipse 3056" cx="19.1689" cy="19" r="18.831" fill="black"/>
<g id="Group 660236575">
<g id="Vector">
<path d="M23.2901 13.8102C21.5755 13.8102 20.8508 14.5424 19.6567 14.5424C18.4324 14.5424 17.4986 13.8155 16.0127 13.8155C14.5584 13.8155 13.0075 14.6101 12.0226 15.9637C10.6397 17.8726 10.8744 21.4676 13.1142 24.5303C13.9154 25.6267 14.9853 26.8563 16.3887 26.8696H16.4142C17.6338 26.8696 17.9961 26.1549 19.6746 26.1465H19.7001C21.3535 26.1465 21.6852 26.8654 22.8997 26.8654H22.9252C24.3285 26.8521 25.4559 25.4897 26.257 24.3975C26.8337 23.6121 27.048 23.2178 27.4903 22.3292C24.2503 21.2287 23.7298 17.1183 26.934 15.5425C25.956 14.4465 24.5816 13.8117 23.2858 13.8117L23.2901 13.8102Z" fill="#813BF5"/>
<path d="M23.2901 13.8102C21.5755 13.8102 20.8508 14.5424 19.6567 14.5424C18.4324 14.5424 17.4986 13.8155 16.0127 13.8155C14.5584 13.8155 13.0075 14.6101 12.0226 15.9637C10.6397 17.8726 10.8744 21.4676 13.1142 24.5303C13.9154 25.6267 14.9853 26.8563 16.3887 26.8696H16.4142C17.6338 26.8696 17.9961 26.1549 19.6746 26.1465H19.7001C21.3535 26.1465 21.6852 26.8654 22.8997 26.8654H22.9252C24.3285 26.8521 25.4559 25.4897 26.257 24.3975C26.8337 23.6121 27.048 23.2178 27.4903 22.3292C24.2503 21.2287 23.7298 17.1183 26.934 15.5425C25.956 14.4465 24.5816 13.8117 23.2858 13.8117L23.2901 13.8102Z" fill="#C9EB00"/>
</g>
<g id="Vector_2">
<path d="M22.9146 9.70892C21.894 9.77095 20.7033 10.3524 20.0059 11.1116C19.3731 11.7997 18.8526 12.8203 19.0567 13.8101H19.1384C20.2253 13.8101 21.3378 13.2245 21.9876 12.474C22.6135 11.7597 23.0881 10.7474 22.9146 9.70892Z" fill="#813BF5"/>
<path d="M22.9146 9.70892C21.894 9.77095 20.7033 10.3524 20.0059 11.1116C19.3731 11.7997 18.8526 12.8203 19.0567 13.8101H19.1384C20.2253 13.8101 21.3378 13.2245 21.9876 12.474C22.6135 11.7597 23.0881 10.7474 22.9146 9.70892Z" fill="#C9EB00"/>
</g>
</g>
</g>
</svg>
